<?xml version="1.0" encoding="UTF-8"?>
<svg id="Ebene_1" xmlns="http://www.w3.org/2000/svg" version="1.1" viewBox="0 0 201 201">
  <!-- Generator: Adobe Illustrator 29.2.1, SVG Export Plug-In . SVG Version: 2.1.0 Build 116)  -->
  <defs>
    <style>
      .st0 {
        fill: #273c44;
      }
    </style>
  </defs>
  <g id="modular">
    <path class="st0" d="M168.02,0H32.98C14.79,0,0,14.79,0,32.98v135.04C0,186.21,14.79,201,32.98,201h135.04c18.19,0,32.98-14.79,32.98-32.98V32.98C201,14.79,186.21,0,168.02,0h0ZM86.29,159.91c-5.33,0-9.66-4.33-9.66-9.66v-7.11c0-5.33,4.33-9.66,9.66-9.66,10.35,0,18.77-8.42,18.77-18.77v-9.66h9.66c5.33,0,9.66,4.33,9.66,9.66,0,10.35,8.42,18.77,18.77,18.77h7.11c10.35,0,18.77-8.42,18.77-18.77,0-5.33,4.33-9.66,9.66-9.66h13.22v62.97c0,13.17-10.71,23.88-23.88,23.88h-62.97v-13.22c0-10.35-8.42-18.77-18.77-18.77h0ZM114.71,41.09c5.33,0,9.66,4.33,9.66,9.66v7.11c0,5.33-4.33,9.66-9.66,9.66-10.35,0-18.77,8.42-18.77,18.77v9.66h-9.66c-5.33,0-9.66-4.33-9.66-9.66,0-10.35-8.42-18.77-18.77-18.77h-7.11c-10.35,0-18.77,8.42-18.77,18.77,0,5.33-4.33,9.66-9.66,9.66h-13.22v-62.97c0-13.17,10.71-23.88,23.88-23.88h62.97v13.22c0,10.35,8.42,18.77,18.77,18.77h0ZM41.09,86.29c0-5.33,4.33-9.66,9.66-9.66h7.11c5.33,0,9.66,4.33,9.66,9.66,0,10.35,8.42,18.77,18.77,18.77h9.66v9.66c0,5.33-4.33,9.66-9.66,9.66-10.35,0-18.77,8.42-18.77,18.77v7.11c0,10.35,8.42,18.77,18.77,18.77,5.33,0,9.66,4.33,9.66,9.66v13.22h-62.97c-13.17,0-23.88-10.71-23.88-23.88v-62.97h13.22c10.35,0,18.77-8.42,18.77-18.77h0ZM159.91,114.71c0,5.33-4.33,9.66-9.66,9.66h-7.11c-5.33,0-9.66-4.33-9.66-9.66,0-10.35-8.42-18.77-18.77-18.77h-9.66v-9.66c0-5.33,4.33-9.66,9.66-9.66,10.35,0,18.77-8.42,18.77-18.77v-7.11c0-10.35-8.42-18.77-18.77-18.77-5.33,0-9.66-4.33-9.66-9.66v-13.22h62.97c13.17,0,23.88,10.71,23.88,23.88v62.97h-13.22c-10.35,0-18.77,8.42-18.77,18.77h0Z"/>
  </g>
</svg>