<?xml version="1.0" encoding="UTF-8"?>
<svg id="Ebene_1" xmlns="http://www.w3.org/2000/svg" version="1.1" viewBox="0 0 200 200">
  <!-- Generator: Adobe Illustrator 29.2.1, SVG Export Plug-In . SVG Version: 2.1.0 Build 116)  -->
  <defs>
    <style>
      .st0 {
        fill: #a6d760;
      }
    </style>
  </defs>
  <g id="innovativ">
    <g>
      <path class="st0" d="M148.08,18.35C132.59,4.5,112.57-1.85,91.71.46c-32.69,3.66-59.3,29.99-63.29,62.61-3.06,25.06,6.77,49.44,26.31,65.21,4.8,3.87,7.88,9.53,8.72,15.97-4.64,1.91-7.72,6.47-7.72,11.47,0,2.89,1.04,5.7,2.94,7.96-1.9,2.26-2.94,5.07-2.94,7.96,0,6.86,5.58,12.44,12.44,12.44h3.98c2.08,9.25,10.38,15.92,19.9,15.92h15.92c9.52,0,17.82-6.67,19.9-15.92h3.98c6.86,0,12.44-5.58,12.44-12.44,0-2.89-1.04-5.7-2.94-7.96,1.9-2.26,2.94-5.07,2.94-7.96,0-4.99-3.09-9.55-7.72-11.47.85-6.43,4-12.14,8.9-16.12,16.95-13.77,26.68-34.18,26.68-55.99,0-20.5-8.77-40.11-24.06-53.79h0ZM107.96,191.03h-15.92c-4.6,0-8.74-2.77-10.53-6.97h36.98c-1.79,4.19-5.94,6.97-10.53,6.97ZM131.84,175.11h-63.68c-1.92,0-3.48-1.56-3.48-3.48s1.56-3.48,3.48-3.48h63.68c1.92,0,3.48,1.56,3.48,3.48s-1.56,3.48-3.48,3.48ZM131.84,159.19h-63.68c-1.92,0-3.48-1.56-3.48-3.48s1.56-3.48,3.48-3.48h63.68c1.92,0,3.48,1.56,3.48,3.48s-1.56,3.48-3.48,3.48ZM139.81,121.17c-6.75,5.49-11.06,13.32-12.17,22.11h-55.28c-1.09-8.8-5.34-16.59-12.01-21.97-17.11-13.81-25.73-35.18-23.05-57.15,3.49-28.55,26.79-51.6,55.4-54.8,18.28-2.05,35.82,3.51,49.4,15.66,13.4,11.98,21.08,29.15,21.08,47.11,0,19.1-8.52,36.97-23.37,49.04h0Z"/>
      <path class="st0" d="M195.52,67.65h-11.94c-2.47,0-4.48,2.01-4.48,4.48s2.01,4.48,4.48,4.48h11.94c2.47,0,4.48-2.01,4.48-4.48s-2.01-4.48-4.48-4.48Z"/>
      <path class="st0" d="M159.08,17.51h.21c1.09,0,2.12-.45,2.99-1.32l8.44-8.44c1.75-1.75,1.75-4.59,0-6.33-1.75-1.75-4.59-1.75-6.33,0l-8.44,8.44c-1.24,1.24-1.6,2.89-.98,4.51.67,1.76,2.37,3.05,4.12,3.14h-.01Z"/>
      <path class="st0" d="M162.27,128.07c-.85-.85-1.97-1.31-3.17-1.31s-2.32.47-3.17,1.31c-1.75,1.75-1.75,4.59,0,6.33l8.44,8.44c.8.8,1.94,1.26,3.12,1.28h.06c1.21,0,2.33-.45,3.15-1.28,1.75-1.75,1.75-4.59,0-6.33l-8.44-8.44h.01Z"/>
      <path class="st0" d="M20.9,72.13c0-2.47-2.01-4.48-4.48-4.48H4.48c-2.47,0-4.48,2.01-4.48,4.48s2.01,4.48,4.48,4.48h11.94c2.47,0,4.48-2.01,4.48-4.48Z"/>
      <path class="st0" d="M24.49,99.98c-1.11-.46-2.32-.46-3.42,0l-11.03,4.57c-2.28.94-3.37,3.57-2.42,5.85.45,1.09,1.32,1.95,2.43,2.41.56.23,1.15.35,1.73.35s1.15-.11,1.69-.34l11.03-4.57c1.1-.46,1.96-1.32,2.42-2.42s.46-2.32,0-3.43c-.46-1.1-1.32-1.96-2.43-2.42h0Z"/>
      <path class="st0" d="M24.5,36.01l-11.03-4.57c-2.28-.94-4.91.14-5.85,2.42-.46,1.1-.46,2.32,0,3.43s1.32,1.97,2.42,2.42c8.6,3.56,10.55,4.37,11.04,4.55v.02c.54.22,1.11.34,1.69.34s1.17-.12,1.73-.35c1.11-.46,1.97-1.32,2.43-2.41.46-1.1.46-2.32,0-3.43s-1.32-1.97-2.42-2.42h-.01Z"/>
      <path class="st0" d="M189.96,104.55l-11.03-4.57c-2.28-.94-4.91.14-5.85,2.42-.46,1.1-.46,2.32,0,3.43s1.32,1.97,2.42,2.42c0,0,10.96,4.54,11.03,4.57.51.21,1.07.32,1.64.32s1.18-.11,1.74-.34c1.15-.46,2.02-1.31,2.47-2.4.46-1.1.46-2.32,0-3.43s-1.32-1.97-2.42-2.42h0Z"/>
      <path class="st0" d="M177.22,44.63c.59,0,1.17-.11,1.71-.34l11.03-4.57c1.1-.46,1.96-1.32,2.42-2.42s.46-2.32,0-3.43c-.94-2.28-3.57-3.36-5.85-2.42,0,0-10.99,4.55-11.03,4.57-2.28.94-2.93,3.19-2.57,5,.36,1.8,1.82,3.62,4.29,3.62h0Z"/>
      <path class="st0" d="M37.73,16.2c.81.81,1.94,1.28,3.12,1.29h.06c1.2,0,2.32-.46,3.15-1.29,1.75-1.75,1.75-4.59,0-6.33L35.62,1.43c-.85-.85-1.97-1.31-3.17-1.31s-2.32.47-3.17,1.31c-1.75,1.75-1.75,4.59,0,6.33l8.44,8.44h.01Z"/>
      <path class="st0" d="M40.9,126.76c-1.2,0-2.32.47-3.17,1.31l-8.44,8.44c-1.75,1.75-1.75,4.59,0,6.33.84.84,2.01,1.27,3.17,1.27s2.32-.42,3.17-1.26l8.44-8.44c1.75-1.75,1.75-4.59,0-6.33-.85-.85-1.97-1.31-3.17-1.31h0Z"/>
    </g>
  </g>
</svg>