<?xml version="1.0" encoding="UTF-8"?>
<svg id="Ebene_1" xmlns="http://www.w3.org/2000/svg" version="1.1" viewBox="0 0 201 201">
  <!-- Generator: Adobe Illustrator 29.2.1, SVG Export Plug-In . SVG Version: 2.1.0 Build 116)  -->
  <defs>
    <style>
      .st0 {
        fill: #203238;
      }
    </style>
  </defs>
  <g id="vielfältig">
    <g>
      <path class="st0" d="M184.5,84h-108.82c-5.37-7.52-14.01-12-23.18-12s-17.92,4.52-23.28,12.11c-.21-.06-.45-.11-.72-.11h-12c-9.1,0-16.5,7.4-16.5,16.5s7.4,16.5,16.5,16.5h12c.27,0,.5-.05.72-.11,5.36,7.59,14.03,12.11,23.28,12.11s17.81-4.48,23.18-12h108.82c9.1,0,16.5-7.4,16.5-16.5s-7.4-16.5-16.5-16.5ZM184.5,108h-104.64c.78-2.74,1.14-5.13,1.14-7.5s-.36-4.76-1.14-7.5h104.64c4.14,0,7.5,3.36,7.5,7.5s-3.36,7.5-7.5,7.5ZM52.5,120c-10.75,0-19.5-8.75-19.5-19.5s8.75-19.5,19.5-19.5,19.5,8.75,19.5,19.5-8.75,19.5-19.5,19.5ZM24,100.5c0,2.37.36,4.76,1.14,7.5h-8.64c-4.14,0-7.5-3.36-7.5-7.5s3.36-7.5,7.5-7.5h8.64c-.78,2.74-1.14,5.13-1.14,7.5Z"/>
      <path class="st0" d="M16.5,45h108.82c5.37,7.52,14.01,12,23.18,12s17.92-4.52,23.28-12.11c.21.06.45.11.72.11h12c9.1,0,16.5-7.4,16.5-16.5s-7.4-16.5-16.5-16.5h-12c-.27,0-.5.05-.72.11-5.36-7.59-14.03-12.11-23.28-12.11s-17.81,4.48-23.18,12H16.5C7.4,12,0,19.4,0,28.5s7.4,16.5,16.5,16.5ZM16.5,21h104.64c-.78,2.74-1.14,5.13-1.14,7.5s.36,4.76,1.14,7.5H16.5c-4.14,0-7.5-3.36-7.5-7.5s3.36-7.5,7.5-7.5ZM148.5,9c10.75,0,19.5,8.75,19.5,19.5s-8.75,19.5-19.5,19.5-19.5-8.75-19.5-19.5,8.75-19.5,19.5-19.5ZM177,28.5c0-2.37-.36-4.76-1.14-7.5h8.64c4.14,0,7.5,3.36,7.5,7.5s-3.36,7.5-7.5,7.5h-8.64c.78-2.74,1.14-5.13,1.14-7.5Z"/>
      <path class="st0" d="M184.5,156h-12c-.27,0-.5.05-.72.11-5.36-7.59-14.03-12.11-23.28-12.11s-17.81,4.48-23.18,12H16.5c-9.1,0-16.5,7.4-16.5,16.5s7.4,16.5,16.5,16.5h108.82c5.37,7.52,14.01,12,23.18,12s17.92-4.52,23.28-12.11c.21.06.45.11.72.11h12c9.1,0,16.5-7.4,16.5-16.5s-7.4-16.5-16.5-16.5ZM184.5,180h-8.64c.78-2.74,1.14-5.13,1.14-7.5s-.36-4.76-1.14-7.5h8.64c4.14,0,7.5,3.36,7.5,7.5s-3.36,7.5-7.5,7.5ZM148.5,192c-10.75,0-19.5-8.75-19.5-19.5s8.75-19.5,19.5-19.5,19.5,8.75,19.5,19.5-8.75,19.5-19.5,19.5ZM120,172.5c0,2.37.36,4.76,1.14,7.5H16.5c-4.14,0-7.5-3.36-7.5-7.5s3.36-7.5,7.5-7.5h104.64c-.78,2.74-1.14,5.13-1.14,7.5Z"/>
    </g>
  </g>
</svg>