<?xml version="1.0" encoding="UTF-8"?>
<svg id="Ebene_1" xmlns="http://www.w3.org/2000/svg" version="1.1" viewBox="0 0 250 241.15">
  <!-- Generator: Adobe Illustrator 29.2.1, SVG Export Plug-In . SVG Version: 2.1.0 Build 116)  -->
  <defs>
    <style>
      .st0 {
        fill: #203238;
      }
    </style>
  </defs>
  <path class="st0" d="M79.02,167.9c0-3.03-2.46-5.49-5.49-5.49H5.49C2.46,162.41,0,164.87,0,167.9s2.46,5.49,5.49,5.49h68.05c3.03,0,5.49-2.46,5.49-5.49Z"/>
  <path class="st0" d="M87.88,190.66c0-3.03-2.46-5.49-5.49-5.49H29.85c-3.03,0-5.49,2.46-5.49,5.49s2.46,5.49,5.49,5.49h52.54c3.03,0,5.49-2.46,5.49-5.49Z"/>
  <path class="st0" d="M91.24,207.94h-34.02c-3.03,0-5.49,2.46-5.49,5.49s2.46,5.49,5.49,5.49h34.02c3.03,0,5.49-2.46,5.49-5.49s-2.46-5.49-5.49-5.49Z"/>
  <path class="st0" d="M129.43,0C62.94,0,8.85,54.09,8.85,120.57c0,6.64.54,13.3,1.61,19.78.49,2.99,3.31,5,6.31,4.52,2.99-.49,5.02-3.32,4.52-6.31-.97-5.9-1.46-11.95-1.46-18,0-60.43,49.17-109.6,109.6-109.6s109.6,49.17,109.6,109.6-49.17,109.6-109.6,109.6c-8.8,0-17.56-1.05-26.03-3.11-2.95-.72-5.91,1.09-6.63,4.03-.72,2.94,1.09,5.91,4.03,6.63,9.32,2.27,18.95,3.42,28.63,3.42,66.48,0,120.57-54.09,120.57-120.57S195.91,0,129.43,0Z"/>
  <path class="st0" d="M128.66,37.45c-3.03,0-5.49,2.46-5.49,5.49v80.48l55.52,33.84c.89.54,1.88.8,2.85.8,1.85,0,3.66-.94,4.69-2.63,1.58-2.59.76-5.97-1.83-7.54l-50.26-30.63V42.94c0-3.03-2.46-5.49-5.49-5.49Z"/>
</svg>