<?xml version="1.0" encoding="UTF-8"?>
<svg xmlns="http://www.w3.org/2000/svg" version="1.1" viewBox="0 0 250 250">
  <!-- Generator: Adobe Illustrator 29.2.1, SVG Export Plug-In . SVG Version: 2.1.0 Build 116)  -->
  <defs>
    <style>
      .st0 {
        stroke-linejoin: round;
      }

      .st0, .st1 {
        fill: #203238; 
        stroke: #203238;
        stroke-linecap: round;
        stroke-width: 9px;
      }

      .st2 {
        display: none;
      }
    </style>
  </defs>
  <g id="effizient" class="st2">
    <g>
      <line class="st1" x1="24" y1="162.31" x2="79.8" y2="162.31"/>
      <line class="st1" x1="43.98" y1="180.97" x2="87.06" y2="180.97"/>
      <line class="st1" x1="66.42" y1="199.64" x2="94.32" y2="199.64"/>
      <path class="st1" d="M32.52,138.99c-.83-5.04-1.26-10.21-1.26-15.49,0-52.12,42.25-94.37,94.37-94.37s94.37,42.25,94.37,94.37-42.25,94.37-94.37,94.37c-7.72,0-15.23-.93-22.41-2.68"/>
      <polyline class="st1" points="125 59.84 125 123.31 168.37 149.74"/>
    </g>
  </g>
  <g id="langlebig" class="st2">
    <g>
      <polyline class="st1" points="125 59.84 125 123.31 168.37 149.74"/>
      <circle class="st0" cx="76.87" cy="181.27" r="40.03"/>
      <path class="st0" d="M58.68,178.83l12.91,13.1,23.48-21.83"/>
      <path class="st1" d="M32.52,138.99c-.83-5.04-1.26-10.21-1.26-15.49,0-52.12,42.25-94.37,94.37-94.37s94.37,42.25,94.37,94.37-42.25,94.37-94.37,94.37"/>
    </g>
  </g>
  <g id="modular" class="st2">
    <path d="M192.52,24.5H57.48c-18.19,0-32.98,14.79-32.98,32.98v135.04c0,18.19,14.79,32.98,32.98,32.98h135.04c18.19,0,32.98-14.79,32.98-32.98V57.48c0-18.19-14.79-32.98-32.98-32.98ZM110.79,184.41c-5.33,0-9.66-4.33-9.66-9.66v-7.11c0-5.33,4.33-9.66,9.66-9.66,10.35,0,18.77-8.42,18.77-18.77v-9.66h9.66c5.33,0,9.66,4.33,9.66,9.66,0,10.35,8.42,18.77,18.77,18.77h7.11c10.35,0,18.77-8.42,18.77-18.77,0-5.33,4.33-9.66,9.66-9.66h13.22v62.97c0,13.17-10.71,23.88-23.88,23.88h-62.97v-13.22c0-10.35-8.42-18.77-18.77-18.77ZM139.21,65.59c5.33,0,9.66,4.33,9.66,9.66v7.11c0,5.33-4.33,9.66-9.66,9.66-10.35,0-18.77,8.42-18.77,18.77v9.66h-9.66c-5.33,0-9.66-4.33-9.66-9.66,0-10.35-8.42-18.77-18.77-18.77h-7.11c-10.35,0-18.77,8.42-18.77,18.77,0,5.33-4.33,9.66-9.66,9.66h-13.22v-62.97c0-13.17,10.71-23.88,23.88-23.88h62.97v13.22c0,10.35,8.42,18.77,18.77,18.77ZM65.59,110.79c0-5.33,4.33-9.66,9.66-9.66h7.11c5.33,0,9.66,4.33,9.66,9.66,0,10.35,8.42,18.77,18.77,18.77h9.66v9.66c0,5.33-4.33,9.66-9.66,9.66-10.35,0-18.77,8.42-18.77,18.77v7.11c0,10.35,8.42,18.77,18.77,18.77,5.33,0,9.66,4.33,9.66,9.66v13.22h-62.97c-13.17,0-23.88-10.71-23.88-23.88v-62.97h13.22c10.35,0,18.77-8.42,18.77-18.77ZM184.41,139.21c0,5.33-4.33,9.66-9.66,9.66h-7.11c-5.33,0-9.66-4.33-9.66-9.66,0-10.35-8.42-18.77-18.77-18.77h-9.66v-9.66c0-5.33,4.33-9.66,9.66-9.66,10.35,0,18.77-8.42,18.77-18.77v-7.11c0-10.35-8.42-18.77-18.77-18.77-5.33,0-9.66-4.33-9.66-9.66v-13.22h62.97c13.17,0,23.88,10.71,23.88,23.88v62.97h-13.22c-10.35,0-18.77,8.42-18.77,18.77Z"/>
  </g>
  <g id="vielfältig" class="st2">
    <g>
      <path d="M209,108.5h-108.82c-5.37-7.52-14.01-12-23.18-12s-17.92,4.52-23.28,12.11c-.21-.06-.45-.11-.72-.11h-12c-9.1,0-16.5,7.4-16.5,16.5s7.4,16.5,16.5,16.5h12c.27,0,.5-.05.72-.11,5.36,7.59,14.03,12.11,23.28,12.11s17.81-4.48,23.18-12h108.82c9.1,0,16.5-7.4,16.5-16.5s-7.4-16.5-16.5-16.5ZM209,132.5h-104.64c.78-2.74,1.14-5.13,1.14-7.5s-.36-4.76-1.14-7.5h104.64c4.14,0,7.5,3.36,7.5,7.5s-3.36,7.5-7.5,7.5ZM77,144.5c-10.75,0-19.5-8.75-19.5-19.5s8.75-19.5,19.5-19.5,19.5,8.75,19.5,19.5-8.75,19.5-19.5,19.5ZM48.5,125c0,2.37.36,4.76,1.14,7.5h-8.64c-4.14,0-7.5-3.36-7.5-7.5s3.36-7.5,7.5-7.5h8.64c-.78,2.74-1.14,5.13-1.14,7.5Z"/>
      <path d="M41,69.5h108.82c5.37,7.52,14.01,12,23.18,12s17.92-4.52,23.28-12.11c.21.06.45.11.72.11h12c9.1,0,16.5-7.4,16.5-16.5s-7.4-16.5-16.5-16.5h-12c-.27,0-.5.05-.72.11-5.36-7.59-14.03-12.11-23.28-12.11s-17.81,4.48-23.18,12H41c-9.1,0-16.5,7.4-16.5,16.5s7.4,16.5,16.5,16.5ZM41,45.5h104.64c-.78,2.74-1.14,5.13-1.14,7.5s.36,4.76,1.14,7.5H41c-4.14,0-7.5-3.36-7.5-7.5s3.36-7.5,7.5-7.5ZM173,33.5c10.75,0,19.5,8.75,19.5,19.5s-8.75,19.5-19.5,19.5-19.5-8.75-19.5-19.5,8.75-19.5,19.5-19.5ZM201.5,53c0-2.37-.36-4.76-1.14-7.5h8.64c4.14,0,7.5,3.36,7.5,7.5s-3.36,7.5-7.5,7.5h-8.64c.78-2.74,1.14-5.13,1.14-7.5Z"/>
      <path d="M209,180.5h-12c-.27,0-.5.05-.72.11-5.36-7.59-14.03-12.11-23.28-12.11s-17.81,4.48-23.18,12H41c-9.1,0-16.5,7.4-16.5,16.5s7.4,16.5,16.5,16.5h108.82c5.37,7.52,14.01,12,23.18,12s17.92-4.52,23.28-12.11c.21.06.45.11.72.11h12c9.1,0,16.5-7.4,16.5-16.5s-7.4-16.5-16.5-16.5ZM209,204.5h-8.64c.78-2.74,1.14-5.13,1.14-7.5s-.36-4.76-1.14-7.5h8.64c4.14,0,7.5,3.36,7.5,7.5s-3.36,7.5-7.5,7.5ZM173,216.5c-10.75,0-19.5-8.75-19.5-19.5s8.75-19.5,19.5-19.5,19.5,8.75,19.5,19.5-8.75,19.5-19.5,19.5ZM144.5,197c0,2.37.36,4.76,1.14,7.5H41c-4.14,0-7.5-3.36-7.5-7.5s3.36-7.5,7.5-7.5h104.64c-.78,2.74-1.14,5.13-1.14,7.5Z"/>
    </g>
  </g>
  <g id="nachhaltig" class="st2">
    <path d="M203.39,107.2c-7.03-25.09-8.04-51.86-2.93-77.42.29-1.46-.25-2.96-1.4-3.89-1.16-.94-2.73-1.16-4.09-.57l-83.05,35.59c-14.87-25.59-49.26-35.36-50.79-35.78-1.77-.48-3.65.3-4.55,1.9-.85,1.52-20.64,37.53-8.07,67.5,3.95,9.43,10.95,17.88,20.76,25.19-.6,9.02.54,18.27,3.75,27.27l.62,1.73c5.71,15.99,15.62,29.88,28.74,40.5-1.98,10.58-2.51,21.45-1.31,32.21.23,2.05,1.96,3.56,3.97,3.56.15,0,.3,0,.45-.03,2.2-.24,3.78-2.22,3.54-4.42-1.03-9.26-.68-18.59.83-27.73l45.43-8.41c16.98-3.14,31.95-13.35,41.08-28,9.13-14.65,11.7-32.59,7.04-49.21ZM70.51,110.52c-6.79-5.75-11.73-12.13-14.63-19.07-9.16-21.85,2.02-48.83,6.22-57.6,8.39,2.89,31.64,12.27,42.61,30.49-7.41,4-13.8,9.27-19.07,15.4l-7.99-19.08c-.86-2.04-3.2-2.99-5.23-2.14-2.04.85-3,3.2-2.15,5.23l9.81,23.43c-4.6,7.12-7.84,15.04-9.56,23.35ZM189.56,152.18c-7.95,12.75-20.98,21.63-35.75,24.36l-42.2,7.82c1.71-6.76,4.08-13.36,7.15-19.65l35.14-7.81c2.16-.48,3.52-2.62,3.04-4.77-.48-2.16-2.61-3.51-4.77-3.04l-28.29,6.28,13.76-22.45c.09-.01.18,0,.26-.03l36-8c2.16-.48,3.52-2.62,3.04-4.77-.48-2.16-2.62-3.5-4.77-3.04l-28.73,6.38,11.53-18.81,26.07-5.8c2.16-.48,3.51-2.62,3.04-4.77-.48-2.16-2.62-3.5-4.78-3.04l-18.51,4.12,19.67-32.09c1.16-1.88.56-4.35-1.32-5.5-1.89-1.16-4.35-.56-5.5,1.32l-19.69,32.13-7.58-22.75c-.7-2.09-2.94-3.23-5.06-2.53-2.09.7-3.23,2.96-2.53,5.06l9.71,29.13-10.95,17.86-8.69-26.08c-.7-2.09-2.95-3.24-5.06-2.53-2.09.7-3.23,2.96-2.53,5.06l10.82,32.46-14.4,23.5-8.83-26.49c-.7-2.1-2.95-3.23-5.06-2.53-2.09.7-3.23,2.96-2.53,5.06l11.11,33.32c-3.39,6.68-6.01,13.7-7.97,20.9-10.48-9.34-18.44-21.1-23.21-34.45l-.62-1.73c-10.63-29.78,3.8-62.87,32.87-75.33l77.9-33.38c-3.8,24.52-2.31,49.87,4.38,73.76,4.05,14.47,1.82,30.07-6.13,42.82Z"/>
  </g>
  <g id="innovativ">
    <g>
      <path d="M173.08,43.36c-15.49-13.85-35.51-20.2-56.37-17.89-32.69,3.66-59.3,29.99-63.29,62.61-3.06,25.06,6.77,49.44,26.31,65.21,4.8,3.87,7.88,9.53,8.72,15.97-4.64,1.91-7.72,6.47-7.72,11.47,0,2.89,1.04,5.7,2.94,7.96-1.9,2.26-2.94,5.07-2.94,7.96,0,6.86,5.58,12.44,12.44,12.44h3.98c2.08,9.25,10.38,15.92,19.9,15.92h15.92c9.52,0,17.82-6.67,19.9-15.92h3.98c6.86,0,12.44-5.58,12.44-12.44,0-2.89-1.04-5.7-2.94-7.96,1.9-2.26,2.94-5.07,2.94-7.96,0-4.99-3.09-9.55-7.72-11.47.85-6.43,4-12.14,8.9-16.12,16.95-13.77,26.68-34.18,26.68-55.99,0-20.5-8.77-40.11-24.06-53.79ZM132.96,216.04h-15.92c-4.6,0-8.74-2.77-10.53-6.97h36.98c-1.79,4.19-5.94,6.97-10.53,6.97ZM156.84,200.12h-63.68c-1.92,0-3.48-1.56-3.48-3.48s1.56-3.48,3.48-3.48h63.68c1.92,0,3.48,1.56,3.48,3.48s-1.56,3.48-3.48,3.48ZM156.84,184.2h-63.68c-1.92,0-3.48-1.56-3.48-3.48s1.56-3.48,3.48-3.48h63.68c1.92,0,3.48,1.56,3.48,3.48s-1.56,3.48-3.48,3.48ZM164.81,146.18c-6.75,5.49-11.06,13.32-12.17,22.11h-55.28c-1.09-8.8-5.34-16.59-12.01-21.97-17.11-13.81-25.73-35.18-23.05-57.15,3.49-28.55,26.79-51.6,55.4-54.8,18.28-2.05,35.82,3.51,49.4,15.66,13.4,11.98,21.08,29.15,21.08,47.11,0,19.1-8.52,36.97-23.37,49.04Z"/>
      <path d="M220.52,92.66h-11.94c-2.47,0-4.48,2.01-4.48,4.48s2.01,4.48,4.48,4.48h11.94c2.47,0,4.48-2.01,4.48-4.48s-2.01-4.48-4.48-4.48Z"/>
      <path d="M184.08,42.52h0c.07,0,.14,0,.21,0,1.09,0,2.12-.45,2.99-1.32l8.44-8.44c1.75-1.75,1.75-4.59,0-6.33-1.75-1.75-4.59-1.75-6.33,0l-8.44,8.44c-1.24,1.24-1.6,2.89-.98,4.51.67,1.76,2.37,3.05,4.12,3.14Z"/>
      <path d="M187.27,153.08c-.85-.85-1.97-1.31-3.17-1.31s-2.32.47-3.17,1.31c-1.75,1.75-1.75,4.59,0,6.33l8.44,8.44c.8.8,1.94,1.26,3.12,1.28.02,0,.04,0,.06,0,1.21,0,2.33-.45,3.15-1.28,1.75-1.75,1.75-4.59,0-6.33l-8.44-8.44Z"/>
      <path d="M45.9,97.14c0-2.47-2.01-4.48-4.48-4.48h-11.94c-2.47,0-4.48,2.01-4.48,4.48s2.01,4.48,4.48,4.48h11.94c2.47,0,4.48-2.01,4.48-4.48Z"/>
      <path d="M49.49,124.99c-1.11-.46-2.32-.46-3.42,0l-11.03,4.57c-2.28.94-3.37,3.57-2.42,5.85.45,1.09,1.32,1.95,2.43,2.41.56.23,1.15.35,1.73.35s1.15-.11,1.69-.34l11.03-4.57c1.1-.46,1.96-1.32,2.42-2.42s.46-2.32,0-3.43c-.46-1.1-1.32-1.96-2.43-2.42Z"/>
      <path d="M49.5,61.02l-11.03-4.57c-2.28-.94-4.91.14-5.85,2.42-.46,1.1-.46,2.32,0,3.43s1.32,1.97,2.42,2.42c8.6,3.56,10.55,4.37,11.04,4.55v.02c.54.22,1.11.34,1.69.34s1.17-.12,1.73-.35c1.11-.46,1.97-1.32,2.43-2.41.46-1.1.46-2.32,0-3.43s-1.32-1.97-2.42-2.42Z"/>
      <path d="M214.96,129.56l-11.03-4.57c-2.28-.94-4.91.14-5.85,2.42-.46,1.1-.46,2.32,0,3.43s1.32,1.97,2.42,2.42c0,0,10.96,4.54,11.03,4.57.51.21,1.07.32,1.64.32s1.18-.11,1.74-.34c1.15-.46,2.02-1.31,2.47-2.4.46-1.1.46-2.32,0-3.43s-1.32-1.97-2.42-2.42Z"/>
      <path d="M202.22,69.64c.59,0,1.17-.11,1.71-.34l11.03-4.57c1.1-.46,1.96-1.32,2.42-2.42s.46-2.32,0-3.43c-.94-2.28-3.57-3.36-5.85-2.42,0,0-10.99,4.55-11.03,4.57-2.28.94-2.93,3.19-2.57,5,.36,1.8,1.82,3.62,4.29,3.62Z"/>
      <path d="M62.73,41.21c.81.81,1.94,1.28,3.12,1.29h.06c1.2,0,2.32-.46,3.15-1.29,1.75-1.75,1.75-4.59,0-6.33l-8.44-8.44c-.85-.85-1.97-1.31-3.17-1.31s-2.32.47-3.17,1.31c-1.75,1.75-1.75,4.59,0,6.33l8.44,8.44Z"/>
      <path d="M65.9,151.77c-1.2,0-2.32.47-3.17,1.31l-8.44,8.44c-1.75,1.75-1.75,4.59,0,6.33.84.84,2.01,1.27,3.17,1.27s2.32-.42,3.17-1.26l8.44-8.44c1.75-1.75,1.75-4.59,0-6.33-.85-.85-1.97-1.31-3.17-1.31Z"/>
    </g>
  </g>
  <g id="Telefon" class="st2">
    <path d="M213.37,164.84c-8.85-3.51-17.53-7.61-25.81-12.16-4.41-2.42-9.85-1.59-13.3,2.02l-13.65,14.41c-3.73,3.93-9.68,4.86-14.44,2.3-28.85-15.61-52.34-39.1-67.95-67.94-2.58-4.77-1.63-10.71,2.3-14.45l14.41-13.66c3.61-3.42,4.44-8.88,2.02-13.27-4.53-8.22-8.62-16.91-12.17-25.82-2.72-6.84-9.14-11.27-16.35-11.27-13.81,0-26.44,6.37-34.64,17.49-8.2,11.12-10.56,25.06-6.49,38.26,20.94,67.73,73.86,120.66,141.58,141.58l2.63.81c4.04,1.25,8.16,1.86,12.23,1.86,8.6,0,17.02-2.74,24.21-8.04,10.59-7.82,16.67-19.84,16.67-33v-2.77c0-7.22-4.42-13.63-11.26-16.35ZM215.97,183.96c0,10.37-4.79,19.86-13.14,26.03-8.36,6.16-18.85,7.92-28.74,4.87l-2.63-.81c-64.98-20.08-115.77-70.86-135.85-135.85-3.25-10.54-1.36-21.67,5.18-30.55,6.55-8.88,16.63-13.97,27.67-13.97,3.63,0,6.89,2.27,8.28,5.8,3.68,9.25,7.94,18.27,12.64,26.8.52.95.36,2.07-.39,2.79l-14.41,13.66c-6.78,6.43-8.41,16.65-3.96,24.87,16.4,30.33,41.11,55.04,71.44,71.44,8.23,4.45,18.45,2.82,24.87-3.96l13.65-14.41c.72-.76,1.85-.92,2.8-.38,8.6,4.73,17.62,8.98,26.8,12.63,3.52,1.4,5.79,4.65,5.79,8.28v2.77Z"/>
  </g>
  <g id="Mail" class="st2">
    <path d="M223,54.07H27c-3.58,0-6.5,2.92-6.5,6.5v128.86c0,3.58,2.92,6.5,6.5,6.5h196c3.58,0,6.5-2.92,6.5-6.5V60.57c0-3.58-2.92-6.5-6.5-6.5ZM139.87,120.04s0,0-.01.01l-8.42,6.7c-3.78,3.01-9.06,3-12.83-.02l-8.39-6.73s-.01-.01-.02-.02L39.19,63.07h172.28l-71.61,56.97ZM29.5,66.72c.19.23.4.44.64.63l70.13,56.21-70.73,58.65s-.03.03-.04.04v-115.53ZM107.44,129.31l5.54,4.44c3.55,2.84,7.8,4.26,12.06,4.26s8.47-1.41,12-4.22l5.57-4.43,69.34,57.57H37.95l69.48-57.62ZM220.42,182.26l-70.62-58.63,70.16-55.82c.2-.16.37-.34.54-.52v115.05s-.05-.06-.08-.08Z"/>
  </g>
  <g id="Maps" class="st2">
    <g>
      <path d="M125,25c-41.91,0-76,34.09-76,76,0,65.2,70.54,120.82,73.54,123.16.72.56,1.59.84,2.46.84s1.73-.28,2.46-.84c3-2.34,73.54-57.95,73.54-123.16,0-41.91-34.09-76-76-76ZM125,215.83c-12.46-10.45-68-60.1-68-114.83,0-37.49,30.5-68,68-68s68,30.51,68,68c0,54.67-55.54,104.38-68,114.83Z"/>
      <path d="M125,133.29c-16.46,0-29.86-13.39-29.86-29.86s13.39-29.86,29.86-29.86,29.86,13.39,29.86,29.86-13.39,29.86-29.86,29.86ZM125,81.58c-12.05,0-21.86,9.81-21.86,21.86s9.81,21.86,21.86,21.86,21.86-9.81,21.86-21.86-9.81-21.86-21.86-21.86Z"/>
    </g>
  </g>
</svg>