<?xml version="1.0" encoding="UTF-8"?>
<svg id="Ebene_1" xmlns="http://www.w3.org/2000/svg" version="1.1" viewBox="0 0 161.34 200">
  <!-- Generator: Adobe Illustrator 29.2.1, SVG Export Plug-In . SVG Version: 2.1.0 Build 116)  -->
  <defs>
    <style>
      .st0 {
        fill: #203238;
      }
    </style>
  </defs>
  <g id="nachhaltig">
    <path class="st0" d="M159.05,82.21c-7.03-25.09-8.04-51.86-2.93-77.42.29-1.46-.25-2.96-1.4-3.89-1.16-.94-2.73-1.16-4.09-.57l-83.05,35.59C52.71,10.33,18.32.56,16.79.14c-1.77-.48-3.65.3-4.55,1.9-.85,1.52-20.64,37.53-8.07,67.5,3.95,9.43,10.95,17.88,20.76,25.19-.6,9.02.54,18.27,3.75,27.27l.62,1.73c5.71,15.99,15.62,29.88,28.74,40.5-1.98,10.58-2.51,21.45-1.31,32.21.23,2.05,1.96,3.56,3.97,3.56.15,0,.3,0,.45-.03,2.2-.24,3.78-2.22,3.54-4.42-1.03-9.26-.68-18.59.83-27.73l45.43-8.41c16.98-3.14,31.95-13.35,41.08-28,9.13-14.65,11.7-32.59,7.04-49.21h-.02ZM26.17,85.53c-6.79-5.75-11.73-12.13-14.63-19.07-9.16-21.85,2.02-48.83,6.22-57.6,8.39,2.89,31.64,12.27,42.61,30.49-7.41,4-13.8,9.27-19.07,15.4l-7.99-19.08c-.86-2.04-3.2-2.99-5.23-2.14-2.04.85-3,3.2-2.15,5.23l9.81,23.43c-4.6,7.12-7.84,15.04-9.56,23.35h-.01ZM145.22,127.19c-7.95,12.75-20.98,21.63-35.75,24.36l-42.2,7.82c1.71-6.76,4.08-13.36,7.15-19.65l35.14-7.81c2.16-.48,3.52-2.62,3.04-4.77-.48-2.16-2.61-3.51-4.77-3.04l-28.29,6.28,13.76-22.45c.09,0,.18,0,.26-.03l36-8c2.16-.48,3.52-2.62,3.04-4.77-.48-2.16-2.62-3.5-4.77-3.04l-28.73,6.38,11.53-18.81,26.07-5.8c2.16-.48,3.51-2.62,3.04-4.77-.48-2.16-2.62-3.5-4.78-3.04l-18.51,4.12,19.67-32.09c1.16-1.88.56-4.35-1.32-5.5-1.89-1.16-4.35-.56-5.5,1.32l-19.69,32.13-7.58-22.75c-.7-2.09-2.94-3.23-5.06-2.53-2.09.7-3.23,2.96-2.53,5.06l9.71,29.13-10.95,17.86-8.69-26.08c-.7-2.09-2.95-3.24-5.06-2.53-2.09.7-3.23,2.96-2.53,5.06l10.82,32.46-14.4,23.5-8.83-26.49c-.7-2.1-2.95-3.23-5.06-2.53-2.09.7-3.23,2.96-2.53,5.06l11.11,33.32c-3.39,6.68-6.01,13.7-7.97,20.9-10.48-9.34-18.44-21.1-23.21-34.45l-.62-1.73c-10.63-29.78,3.8-62.87,32.87-75.33L147,10.58c-3.8,24.52-2.31,49.87,4.38,73.76,4.05,14.47,1.82,30.07-6.13,42.82l-.03.03Z"/>
  </g>
</svg>