<svg width="50" height="45" viewBox="0 0 50 45" fill="none" xmlns="http://www.w3.org/2000/svg">
<path d="M20.913 31.3384C20.913 30.0981 20.3822 28.9532 19.4268 27.9991L12.845 22.084C12.5265 21.7977 11.9958 21.7023 11.5711 21.7977C11.1465 21.8931 10.7219 22.2748 10.6157 22.7518C10.4034 23.7059 9.87261 25.8048 10.4034 27.5221L10.5096 27.7129L12.845 29.8119L12.1019 29.9073C11.0403 29.9073 10.0849 29.5256 9.34183 28.8578L6.58174 26.3772V20.5574C6.58174 18.8401 5.41401 17.3136 3.7155 16.6458C2.86624 16.3596 1.91083 16.1688 1.06157 16.1688H0V27.8083C0 28.7624 0.424629 29.621 1.16773 30.2889L8.81104 37.1581V37.4444H5.9448V44.6952H23.3546V37.4444H20.913V31.3384ZM2.54777 29.0486C2.2293 28.7624 2.01699 28.3808 2.01699 27.9037V18.2677C2.2293 18.3631 2.54777 18.3631 2.76009 18.4585C3.7155 18.8401 4.35244 19.6988 4.35244 20.5574V27.2359L7.74947 30.2889C8.9172 31.3384 10.5096 31.9108 12.1019 31.9108L14.7558 31.5292C15.1805 31.4338 15.6051 31.1475 15.7113 30.7659C15.8174 30.3843 15.7113 29.9073 15.3928 29.621L12.2081 26.7589C11.9958 25.9956 12.1019 25.137 12.2081 24.3737L17.7282 29.3348C18.3652 29.9073 18.6837 30.5751 18.6837 31.3384V37.6352H10.7219V37.349C10.7219 36.7765 10.5096 36.2995 10.0849 35.9179L2.54777 29.0486ZM21.1253 39.5433V42.9779H8.06794V39.5433H21.1253ZM46.0722 16.7412C44.3737 17.409 43.206 18.9355 43.206 20.6529V26.4726L40.4459 28.9532C39.7028 29.621 38.7474 30.0027 37.6858 30.0027L36.9427 29.9073L39.2781 27.8083L39.3843 27.6175C39.9151 25.8048 39.4905 23.8013 39.172 22.7518C39.0658 22.3702 38.7474 21.9885 38.2166 21.8931C37.7919 21.7977 37.2612 21.8931 36.9427 22.1794L30.3609 28.0945C29.4055 28.9532 28.8747 30.1935 28.8747 31.4338V37.7306H26.4331V44.9815H43.8429V37.7306H41.0828V37.349L48.7261 30.4797C49.4692 29.8119 49.8939 28.9532 49.8939 27.9991V16.2642H48.8323C47.7707 16.2642 46.9215 16.455 46.0722 16.7412ZM41.6136 39.5433V42.9779H28.5563V39.5433H41.6136ZM47.6646 27.9037C47.6646 28.3808 47.4522 28.7624 47.1338 29.0486L39.4905 35.9179C39.0658 36.2995 38.8535 36.7765 38.8535 37.349V37.6352H30.8917V31.3384C30.8917 30.5751 31.2102 29.9073 31.8471 29.3348L37.3673 24.3737C37.4735 25.137 37.5796 25.9956 37.3673 26.7589L34.1826 29.621C33.8641 29.9073 33.758 30.3843 33.8641 30.7659C33.9703 31.1475 34.3949 31.4338 34.8195 31.5292L37.3673 31.9108H37.5796C39.2781 31.9108 40.7643 31.3384 41.9321 30.2889L45.3291 27.2359V20.6529C45.3291 19.6988 45.966 18.8401 46.9215 18.5539C47.1338 18.4585 47.4522 18.3631 47.6646 18.3631V27.9037ZM25.1592 6.34191C21.3376 6.1511 18.1529 8.82247 17.9406 12.2571C17.8344 13.879 18.4713 15.5009 19.7452 16.7412C21.0191 17.9815 22.7176 18.6493 24.5223 18.7447C24.6285 18.7447 24.7346 18.7447 24.8408 18.7447C28.4501 18.7447 31.5287 16.1688 31.741 12.8295C31.9533 9.39491 28.9809 6.53272 25.1592 6.34191ZM24.6285 16.8366C23.3546 16.7412 22.1868 16.2642 21.3376 15.4055C20.4883 14.5469 20.0637 13.4974 20.0637 12.3525C20.1699 10.0628 22.293 8.25004 24.8408 8.25004C24.9469 8.25004 25.0531 8.25004 25.0531 8.25004C27.707 8.34544 29.724 10.349 29.6178 12.7341C29.5117 15.1193 27.2824 16.932 24.6285 16.8366Z" fill="#203238"/>
<path d="M38.7474 14.5469V10.349L35.9873 9.77655C35.775 8.91789 35.3504 8.15464 34.8196 7.29598L36.3058 5.10164L32.9088 2.14404L30.4671 3.47973C29.6179 3.0027 28.6625 2.71648 27.7071 2.52567L27.0701 0.045105H22.3992L21.7623 2.52567C20.8069 2.71648 19.9576 3.09811 19.0022 3.57514L16.5606 2.23945L13.3759 5.29245L14.8621 7.4868C14.3313 8.25005 14.0128 9.1087 13.6943 9.96736L10.9342 10.5398V14.7377L13.6943 15.3101C13.9066 16.1688 14.3313 16.932 14.8621 17.7907L13.3759 19.985L16.7729 22.9426L19.2145 21.6069C20.0638 22.084 21.0192 22.3702 21.9746 22.561L22.6115 25.0416H27.2824L27.9194 22.561C28.8748 22.3702 29.7241 21.9886 30.6795 21.5115L33.1211 22.8472L36.4119 19.7942L34.9257 17.5999C35.4565 16.8366 35.775 15.978 35.9873 15.1193L38.7474 14.5469ZM34.1827 13.5928L34.0765 14.1652C33.8642 15.2147 33.4395 16.1688 32.8026 17.1228L32.4841 17.5999L33.758 19.508L32.8026 20.3666L30.6795 19.2218L30.1487 19.6034C29.1933 20.1758 28.0255 20.6529 26.964 20.8437L26.327 20.9391L25.7962 23.1334H24.4162L23.7793 20.9391L23.1423 20.8437C21.9746 20.6529 20.913 20.2712 19.8514 19.6988L19.3207 19.4126L17.1975 20.5575L16.1359 19.6034L17.4098 17.6953L16.9852 17.2182C16.3483 16.3596 15.8175 15.3101 15.6052 14.356L15.499 13.7836L13.0574 13.3066V12.0663L15.499 11.4939L15.6052 10.9214C15.8175 9.87195 16.2421 8.91789 16.879 7.96383L17.1975 7.4868L15.9236 5.57867L16.879 4.72001L19.0022 5.86489L19.533 5.48326C20.4884 4.91083 21.6561 4.43379 22.7177 4.24298L23.3546 4.14758L23.8854 1.95323H25.2654L25.9024 4.14758L26.5393 4.24298C27.7071 4.43379 28.7686 4.81542 29.8302 5.38786L30.361 5.67408L32.4841 4.5292L33.4395 5.38786L32.1657 7.29598L32.5903 7.77302C33.2272 8.63167 33.758 9.68114 33.9703 10.6352L34.0765 11.2076L36.5181 11.6847V12.925L34.1827 13.5928Z" fill="#203238"/>
</svg>
