<svg width="50" height="45" viewBox="0 0 50 45" fill="none" xmlns="http://www.w3.org/2000/svg">
<path d="M49.9463 17.4256C49.9653 17.375 49.9796 17.323 49.989 17.2702C49.989 17.2609 49.989 17.2525 49.989 17.2431C49.9916 17.1306 49.9715 17.0187 49.9297 16.9127C49.9297 16.9052 49.9297 16.8958 49.9234 16.8874C49.8733 16.763 49.7941 16.6497 49.6912 16.5551L41.136 8.84581L39.6196 7.47731H39.6133L38.4177 6.39523L43.6857 1.64479C43.881 1.46852 43.9904 1.22976 43.9898 0.981014C43.9892 0.73227 43.8787 0.493922 43.6826 0.318405C43.5855 0.231498 43.4703 0.162633 43.3435 0.11574C43.2168 0.0688474 43.0811 0.0448463 42.944 0.0451071C42.6672 0.0456337 42.402 0.144952 42.2067 0.321214L36.2055 5.73345C36.0102 5.90898 35.9005 6.14703 35.9005 6.39523C35.9005 6.64344 36.0102 6.88148 36.2055 7.05702L37.3563 8.09697L34.3599 10.4699H29.8501C28.7037 10.4694 27.5971 10.8471 26.7401 11.5313L16.1581 19.9558C15.9649 20.1087 15.8415 20.3206 15.8119 20.5506C15.7823 20.7805 15.8485 21.0121 15.9977 21.2007C16.1019 21.3393 18.7057 24.5705 22.1073 23.8394C24.4539 23.3321 27.1942 21.1492 28.37 20.1355C30.2739 20.9622 32.4222 21.2193 34.5005 20.8694C38.4677 20.2141 39.4092 18.7417 39.5571 18.4515C39.6753 18.2237 39.6892 17.9632 39.5959 17.7262C39.5026 17.4892 39.3095 17.2945 39.0582 17.1841C38.9365 17.1309 38.8042 17.0999 38.669 17.0931C38.5338 17.0863 38.3985 17.1038 38.2709 17.1445C38.1433 17.1851 38.026 17.2483 37.9259 17.3301C37.8257 17.412 37.7447 17.511 37.6875 17.6213C37.6813 17.6306 37.0324 18.5489 34.1266 19.0253C32.2979 19.355 30.3982 19.0624 28.796 18.2044C28.5921 18.075 28.3432 18.0156 28.0947 18.0373C27.8461 18.0589 27.6145 18.1601 27.442 18.3224C26.5047 19.2032 23.6342 21.5817 21.6199 22.0179C20.294 22.2987 19.0265 21.4066 18.3089 20.7486L28.1242 12.9307C28.5999 12.5511 29.214 12.3416 29.8501 12.342H34.7536C35.0075 12.3421 35.2526 12.2589 35.4431 12.1079L38.8332 9.42429L39.4581 9.98592L47.406 17.1617L44.1138 19.6253C43.9764 19.728 43.8707 19.8607 43.8068 20.0107C43.743 20.1607 43.7231 20.323 43.7492 20.4818C43.9263 21.5723 44.1242 24.9412 42.7535 26.0738C41.3027 27.2719 39.5852 28.8688 38.6249 29.7787L29.5397 21.5864C29.443 21.4991 29.3281 21.4298 29.2016 21.3824C29.0751 21.335 28.9395 21.3105 28.8024 21.3103C28.5256 21.3097 28.26 21.408 28.0638 21.5836C27.8677 21.7591 27.7572 21.9974 27.7566 22.2462C27.756 22.4949 27.8654 22.7337 28.0607 22.9099L37.9354 31.8136L38.6405 32.4483C38.8979 32.6816 39.0423 32.9968 39.0423 33.3254C39.0423 33.6539 38.8979 33.9691 38.6405 34.2024C38.3893 34.4313 38.0476 34.5616 37.6899 34.5647C37.3321 34.5679 36.9876 34.4437 36.7314 34.2193L29.9792 28.135C29.7839 27.9587 29.5187 27.8594 29.2419 27.8589C28.9652 27.8583 28.6995 27.9566 28.5034 28.1322C28.3072 28.3077 28.1967 28.546 28.1961 28.7948C28.1956 29.0435 28.3049 29.2823 28.5002 29.4585L35.2702 35.5588C35.7299 35.9214 36.0237 36.4243 36.0951 36.9703C36.0825 37.0912 36.0401 37.2081 35.9711 37.3125C35.9022 37.4169 35.8082 37.5063 35.6962 37.5741C35.3608 37.824 34.5796 38.4165 33.3246 37.2933L27.3264 31.8848C27.2297 31.7975 27.1149 31.7282 26.9884 31.6808C26.8619 31.6334 26.7262 31.6089 26.5892 31.6087C26.4521 31.6084 26.3164 31.6324 26.1896 31.6793C26.0629 31.7262 25.9477 31.7951 25.8506 31.882C25.7535 31.9689 25.6764 32.0721 25.6237 32.1858C25.5709 32.2995 25.5437 32.4214 25.5434 32.5446C25.5431 32.6677 25.5698 32.7898 25.622 32.9036C25.6741 33.0175 25.7508 33.1211 25.8475 33.2083L31.8331 38.6122C32.0827 38.8464 32.2209 39.1588 32.2186 39.4831C32.2162 39.8074 32.0735 40.1181 31.8206 40.3495C31.6944 40.4639 31.5442 40.5547 31.3786 40.6166C31.2131 40.6785 31.0355 40.7102 30.8562 40.7098C30.6773 40.7105 30.5001 40.6794 30.3348 40.6181C30.1694 40.5569 30.0192 40.4669 29.8928 40.3532L29.1252 39.6615C29.1012 39.6399 29.07 39.6324 29.045 39.6137C29.0087 38.9502 28.7331 38.3154 28.2597 37.8052C27.7864 37.295 27.1411 36.9372 26.4214 36.7859C26.6051 36.2487 26.6235 35.6768 26.4746 35.1309C26.3256 34.5851 26.015 34.0857 25.5756 33.6857C25.2225 33.3729 24.7952 33.1357 24.3258 32.9921C24.8315 32.3948 25.0802 31.6534 25.026 30.9044C24.9719 30.1554 24.6185 29.4491 24.031 28.9156C23.4286 28.4011 22.6441 28.0933 21.8146 28.0463C20.9852 27.9992 20.1638 28.2158 19.4942 28.6582C19.324 28.248 19.0588 27.8751 18.7161 27.564C18.0571 26.9975 17.1804 26.6814 16.2685 26.6814C15.3567 26.6814 14.48 26.9975 13.821 27.564L11.363 29.7815C10.5828 29.0326 8.84766 27.3974 7.24475 26.0747C5.8741 24.9458 6.07199 21.5761 6.24489 20.4846C6.27086 20.3257 6.25087 20.1634 6.18684 20.0134C6.12282 19.8634 6.01691 19.7307 5.87931 19.6282L2.59121 17.1645L11.1578 9.42241L14.5532 12.1107C14.7436 12.2617 14.9888 12.3449 15.2426 12.3448H20.1472C20.808 12.3494 21.4433 12.5742 21.9303 12.9757L22.1667 13.1385C22.3858 13.2901 22.6628 13.3572 22.937 13.3252C23.2111 13.2932 23.4599 13.1646 23.6285 12.9677C23.7971 12.7708 23.8718 12.5218 23.8362 12.2754C23.8006 12.0291 23.6575 11.8055 23.4384 11.654L23.2572 11.5323C22.3998 10.8486 21.2934 10.4709 20.1472 10.4708H15.6363L12.6336 8.09322L13.7793 7.06357C13.9746 6.88804 14.0842 6.64999 14.0842 6.40179C14.0842 6.15358 13.9746 5.91553 13.7793 5.74L7.77802 0.321214C7.58272 0.144952 7.31752 0.0456337 7.04074 0.0451071C6.76397 0.0445805 6.4983 0.142889 6.30217 0.318405C6.10605 0.493922 5.99554 0.73227 5.99495 0.981014C5.99437 1.22976 6.10375 1.46852 6.29905 1.64479L11.5671 6.39523L0.297768 16.5579C0.146779 16.6957 0.0472912 16.8723 0.0131326 17.0632C-0.0210259 17.2541 0.0118423 17.4498 0.107168 17.6231C0.129972 17.6583 0.155372 17.6921 0.1832 17.7242C0.215928 17.7812 0.255386 17.8349 0.300892 17.8843C0.314432 17.8965 0.33318 17.9002 0.347761 17.9124C0.362342 17.9245 0.36755 17.9395 0.38109 17.9498L4.11288 20.7421C3.95665 22.1517 3.7848 25.764 5.83244 27.4563C7.39473 28.7499 9.15075 30.4049 9.8944 31.1125L9.87149 31.1341C9.22554 31.719 8.86306 32.5097 8.86306 33.3338C8.86306 34.1579 9.22554 34.9486 9.87149 35.5335C10.5063 36.1071 11.3669 36.433 12.267 36.4405C12.2725 37.2554 12.635 38.0354 13.276 38.6117C13.917 39.188 14.7849 39.514 15.6915 39.5192C15.6979 40.3312 16.0584 41.1085 16.6956 41.6843C17.1845 42.128 17.8116 42.4282 18.4941 42.5452C19.1767 42.6621 19.8827 42.5904 20.519 42.3395C20.677 42.8267 20.9668 43.2712 21.3627 43.6331C21.6822 43.9233 22.0628 44.1536 22.4823 44.3104C22.9018 44.4672 23.3518 44.5476 23.8061 44.5467C24.1197 44.5423 24.4312 44.4995 24.732 44.4194C25.3501 44.7861 26.0744 44.9814 26.815 44.981C27.2675 44.9878 27.7169 44.9138 28.1372 44.7632C28.5576 44.6127 28.9405 44.3886 29.2637 44.104C29.7383 43.675 30.0531 43.1242 30.1646 42.5276C30.3919 42.569 30.6232 42.5897 30.8551 42.5894C31.7079 42.5889 32.5301 42.304 33.1626 41.7899C33.7951 41.2758 34.1927 40.5691 34.2786 39.8066C34.7734 39.8576 35.2746 39.8132 35.7487 39.6763C36.2229 39.5394 36.6591 39.3132 37.0283 39.0128C37.3604 38.7792 37.6341 38.4853 37.8315 38.1503C38.0289 37.8154 38.1455 37.4468 38.1739 37.0686C38.1857 36.8491 38.1678 36.6291 38.1208 36.4134C38.8763 36.328 39.5785 36.0187 40.1164 35.5344C40.7621 34.9494 41.1244 34.1587 41.1244 33.3347C41.1244 32.5107 40.7621 31.72 40.1164 31.135L40.0966 31.1172C41.034 30.2298 42.7525 28.6283 44.1586 27.4666C46.2072 25.7742 46.0333 22.162 45.8792 20.7523L49.611 17.9601C49.6297 17.9461 49.638 17.9236 49.6568 17.9086C49.6755 17.8937 49.6724 17.9002 49.6797 17.8946C49.701 17.8692 49.7205 17.8427 49.738 17.815C49.7996 17.7527 49.8515 17.6831 49.8922 17.6082C49.917 17.5491 49.9352 17.488 49.9463 17.4256ZM11.3484 32.4586L15.3062 28.8894C15.5669 28.6651 15.9139 28.54 16.2748 28.54C16.6357 28.54 16.9827 28.6651 17.2434 28.8894C17.4944 29.1179 17.637 29.4249 17.6413 29.746C17.6456 30.067 17.5112 30.377 17.2663 30.6108L13.2679 34.2127L13.2533 34.2286C12.9898 34.4443 12.6432 34.5592 12.2871 34.549C11.9309 34.5388 11.5931 34.4044 11.3454 34.1742C11.0976 33.944 10.9594 33.6361 10.9599 33.3158C10.9605 32.9956 11.0998 32.6881 11.3484 32.4586ZM14.749 37.2876C14.4959 37.0579 14.3526 36.7484 14.3497 36.4251C14.3468 36.1018 14.4844 35.7903 14.7333 35.5569C14.7427 35.5494 14.7531 35.5438 14.7615 35.5363L18.7193 31.9681C18.7401 31.9484 18.7536 31.926 18.7745 31.9063L20.618 30.2411C20.7447 30.1263 20.8954 30.0353 21.0615 29.9731C21.2276 29.911 21.4057 29.879 21.5855 29.879C21.7654 29.879 21.9435 29.911 22.1096 29.9731C22.2757 30.0353 22.4264 30.1263 22.5531 30.2411C22.8105 30.4744 22.9548 30.7896 22.9548 31.1181C22.9548 31.4467 22.8105 31.7619 22.5531 31.9952L16.681 37.2886C16.5543 37.4033 16.4035 37.4944 16.2375 37.5565C16.0714 37.6187 15.8933 37.6507 15.7134 37.6507C15.5335 37.6507 15.3554 37.6187 15.1894 37.5565C15.0233 37.4944 14.8726 37.4033 14.7458 37.2886L14.749 37.2876ZM18.1735 40.3644C17.9164 40.131 17.7722 39.8158 17.7722 39.4874C17.7722 39.1589 17.9164 38.8437 18.1735 38.6103L22.1667 35.0121C22.2949 34.898 22.4468 34.8076 22.6138 34.7463C22.7808 34.6849 22.9596 34.6537 23.14 34.6544C23.3205 34.6552 23.4989 34.6878 23.6653 34.7506C23.8317 34.8133 23.9827 34.9049 24.1097 35.0201C24.2367 35.1352 24.3372 35.2718 24.4055 35.4219C24.4738 35.572 24.5085 35.7327 24.5077 35.8948C24.5068 36.057 24.4705 36.2174 24.4007 36.3669C24.3309 36.5164 24.229 36.6521 24.1008 36.7663L23.1718 37.604L21.3658 39.2309L21.3543 39.244L20.1128 40.3672C19.8516 40.5932 19.503 40.7193 19.1404 40.7187C18.7779 40.7182 18.4297 40.5912 18.1693 40.3644H18.1735ZM22.8364 42.3095C22.5814 42.0767 22.4384 41.763 22.4384 41.4362C22.4384 41.1094 22.5814 40.7958 22.8364 40.5629L24.6487 38.9285C24.7752 38.8137 24.9257 38.7226 25.0916 38.6604C25.2575 38.5983 25.4355 38.5662 25.6152 38.5662C25.795 38.5662 25.9729 38.5983 26.1388 38.6604C26.3047 38.7226 26.4553 38.8137 26.5817 38.9285C26.8393 39.1617 26.9839 39.477 26.9839 39.8056C26.9839 40.1342 26.8393 40.4495 26.5817 40.6827L24.7726 42.3095C24.5122 42.534 24.1653 42.6593 23.8045 42.6593C23.4437 42.6593 23.0968 42.534 22.8364 42.3095ZM27.7868 42.7776C27.534 42.9733 27.2091 43.0775 26.8755 43.0696L28.0534 42.0063C28.0784 41.9847 28.094 41.9585 28.117 41.937C28.1323 42.0902 28.1108 42.2446 28.0538 42.3896C27.9968 42.5347 27.9058 42.667 27.7868 42.7776Z" fill="white" fill-opacity="0.85"/>
</svg>
