<?xml version="1.0" encoding="UTF-8"?>
<svg id="Ebene_1" xmlns="http://www.w3.org/2000/svg" version="1.1" viewBox="0 0 197.74 201.17">
  <!-- Generator: Adobe Illustrator 29.2.1, SVG Export Plug-In . SVG Version: 2.1.0 Build 116)  -->
  <defs>
    <style>
      .st0 {
        fill: #a6d760;
      }
    </style>
  </defs>
  <path class="st0" d="M98.24,30.71c-2.49,0-4.5,2.01-4.5,4.5v66l45.53,27.75c.73.45,1.54.66,2.34.66,1.52,0,3-.77,3.85-2.16,1.29-2.12.62-4.89-1.5-6.18l-41.21-25.11v-60.94c0-2.49-2.01-4.5-4.5-4.5Z"/>
  <path class="st0" d="M50.11,112.11c-24.55,0-44.53,19.98-44.53,44.53s19.98,44.53,44.53,44.53,44.53-19.98,44.53-44.53-19.98-44.53-44.53-44.53ZM50.11,192.17c-19.59,0-35.53-15.94-35.53-35.53s15.94-35.53,35.53-35.53,35.53,15.94,35.53,35.53-15.94,35.53-35.53,35.53Z"/>
  <path class="st0" d="M65.25,142.17l-20.28,18.85-9.84-9.99c-1.74-1.77-4.59-1.79-6.36-.05-1.77,1.74-1.79,4.59-.05,6.36l12.91,13.1c.88.89,2.04,1.34,3.21,1.34,1.1,0,2.2-.4,3.06-1.2l23.48-21.83c1.82-1.69,1.92-4.54.23-6.36-1.69-1.82-4.54-1.92-6.36-.23Z"/>
  <path class="st0" d="M98.87,0C44.35,0,0,44.35,0,98.87c0,5.45.44,10.9,1.32,16.22.4,2.45,2.71,4.1,5.17,3.71,2.45-.4,4.11-2.72,3.71-5.17-.8-4.84-1.2-9.8-1.2-14.76C9,49.32,49.32,9,98.87,9s89.87,40.32,89.87,89.87-40.32,89.87-89.87,89.87c-2.49,0-4.5,2.01-4.5,4.5s2.01,4.5,4.5,4.5c54.52,0,98.87-44.35,98.87-98.87S153.39,0,98.87,0Z"/>
</svg>