<?xml version="1.0" encoding="UTF-8"?>
<svg id="Ebene_1" xmlns="http://www.w3.org/2000/svg" version="1.1" viewBox="0 0 841.89 320">
  <!-- Generator: Adobe Illustrator 29.2.1, SVG Export Plug-In . SVG Version: 2.1.0 Build 116)  -->
  <defs>
    <style>
      .st0, .st1, .st2, .st3, .st4, .st5, .st6, .st7, .st8, .st9, .st10, .st11, .st12, .st13, .st14, .st15, .st16, .st17, .st18, .st19 {
        fill: none;
      }

      .st1 {
        stroke-width: 1.5px;
      }

      .st1, .st2, .st6, .st20, .st8, .st9, .st10, .st12, .st13, .st14, .st15, .st17 {
        stroke: #213239;
      }

      .st2 {
        stroke-width: 1.3px;
      }

      .st3, .st4, .st5, .st7, .st11, .st16, .st18, .st19 {
        stroke: #fff;
      }

      .st3, .st4, .st6, .st7, .st8, .st9, .st17, .st19 {
        stroke-linecap: round;
      }

      .st3, .st4, .st6, .st20, .st12, .st13, .st14, .st15, .st16, .st17 {
        stroke-linejoin: round;
      }

      .st3, .st11, .st16 {
        stroke-dasharray: 8 3;
      }

      .st4, .st7 {
        stroke-dasharray: 8 3.5;
      }

      .st5 {
        stroke-dasharray: 8.89 3.33;
        stroke-width: 1.11px;
      }

      .st20 {
        stroke-width: 1.28px;
      }

      .st20, .st21 {
        fill: #213239;
      }

      .st8 {
        stroke-width: 2.84px;
      }

      .st9, .st13 {
        stroke-width: 2.98px;
      }

      .st22 {
        fill: #3eadc9;
      }

      .st10, .st15 {
        stroke-width: 3px;
      }

      .st23 {
        fill: #a1cb66;
      }

      .st24 {
        fill: #c5dea1;
      }

      .st14 {
        stroke-width: 2.99px;
      }

      .st25 {
        display: none;
      }

      .st17 {
        stroke-width: .97px;
      }
    </style>
  </defs>
  <g id="Kontur_weissalt" class="st25">
    <path class="st16" d="M687.23,403.49l27.82.04s1.45.18,6.73-.58c5-.71,27.77-7.58,30.27-8.1s.94-18.14.94-18.14c0,0-.3-1.62-2.71-2.34-1.52-.45-4.23-1.27-6.73-1.85-1.47-.34,3.8-14.08,7.5-15.11l1.69-2.54.85-6.04-1.65-3.42,1.19-3.16s.58-7.15.58-12.15-4.79-13.42-7.66-17.27c-2.41-3.23-8-10.5-21.5-17s-43.06-16.29-59-18.62c-4.17-.61-11.5-1.26-11.5-1.26,0,0-46.33-51.31-77-78.12-5.14-4.5-20.98-11.34-32.87-13.87-16.25-3.46-29.76-4.67-69.62-5.62-4.87-.12-5.37,3-5.37,3v220.97s3.87,2.74,6.37,3.21,109.12.72,109.12.72c0,0,2.61-.26,2.42-3.42-1.05-17.98,6.33-59.73,49.88-59.98,44.07-.25,51.25,38.34,50.25,60.65Z"/>
    <path class="st16" d="M728.76,319.45c-7-4.62-51.65-13.45-49.98-9.78,0,0,8.76,17.67,23.01,22.17s25.17,5.57,32.68,6l-5.72-18.38h0Z"/>
    <path class="st16" d="M742.32,353.58h-15.22s-6.67,0-13.55,5.95c-4.01,3.47-12.5,16.75-10.5,19.03s48.13,1,50.27.89"/>
    <path class="st16" d="M746.05,312.84c-2.48,0-8-.83-9.17,1.33-1.4,2.59,6.4,32.09,10.17,37.5,4,5.74,4.88,4.19,4.88,4.19"/>
    <path class="st16" d="M737.46,303.87c-2.58.64-7.91.3-9.41,2.14-1.5,1.83-.5,8.85,1,13.45s8.38,35.76,19.52,40.07"/>
    <polyline class="st16" points="750.45 320.72 737.94 319.51 738.45 323.97 752.78 325.46 753.7 331.7 739.7 330.3 741.08 335.07 753.7 336.42 753.13 342.26 742.55 340.74 743.99 345.37 752.5 346.61"/>
    <path class="st16" d="M728.16,315.89s-14.78-5.17-31.67-7.88c0,0-7.89-4.39-18.47-6.26-11.7-2.07-19.98-3.97-25.59-7.22-3.83-2.22-11.73-11.6-11.81-17.31l13.43-1.26"/>
    <path class="st16" d="M701.39,331.7c-8.34,9.81-11.84,14.18-13.01,14.91s-4.33,2.23-8.67,2.9-6.17-.17-8.5,0-4.52,1.56-4.52,1.56"/>
    <path class="st16" d="M640.62,277.22c-5.7-2.34-9.06-6.01-10.96-7.71-1.09-.97-60.99-64.01-67.12-69.67-6.5-6-15.75-10.75-35-14.67-11.23-2.28-52.33-4.67-52.33-4.67v219.79h111.8"/>
    <line class="st16" x1="577.05" y1="197.84" x2="562.55" y2="199.84"/>
    <path class="st16" d="M561.16,206.27c-9.34-7.83-20.28-10.35-33.95-12-12.61-1.52-37.67-2.96-42.33-2.77-2,.08-3.02,1.67-3,3.33.04,2.69,2.58,102.58,4.67,113.96,1.01,5.53,2.65,11.03,3.92,15.04,1.08,3.42.8,7.59.93,10.42.2,4.41,2.25,56.36,7.15,61.98,1.37,1.57,2,1.5,4.33,1.72,2.33.21,75.3,0,75.3,0,0,0-1.71-36.15,22.28-56.42,3.29-2.78,7.23-5.36,7.42-9.84.41-9.52.67-64.19-.33-70.19s-4.49-11.67-8.33-16.38c-9.33-11.45-29.63-31.8-38.05-38.85h0Z"/>
    <path class="st16" d="M736.88,314.17c-4.08-4.17-4.45-4.67-13.62-9.25-13.45-6.73-69.39-21.86-77.33-24.75-2.23-.81-3.62-1.33-4.89-3"/>
    <path class="st16" d="M732.99,333.06c-4.26,0-22.82-2.78-29.4-4.03-6.57-1.25-16.49-8.82-21.4-13.71"/>
    <path class="st16" d="M732.99,358.96c1.8.06,2.77,1.13,2.34,3.13s-3.07,8.01-3.82,9.26-2.44,2.08-4.62,2.29c-2.16.21-12.84.18-15.84-.26s-2.5-2.54-1.25-4.04,5.75-7,7-8.25,2.83-1.56,6.25-1.84c2.11-.17,9.95-.28,9.95-.28h-.01Z"/>
    <path class="st16" d="M724.7,366.63c0-2.76-1.32-5-2.95-5s-2.95,2.24-2.95,5,1.32,5,2.95,5,2.95-2.24,2.95-5Z"/>
    <line class="st16" x1="686.34" y1="386.64" x2="677.45" y2="386.64"/>
    <line class="st16" x1="587.02" y1="398.15" x2="594.98" y2="398.15"/>
    <path class="st16" d="M621.55,291.59c-7-.5-49.25-5-59-7s-51-12.5-55.5-15.5-7.75-9.25-8.25-14.25-7.5-42.83-7.25-46.08,2.42-7.67,7.58-7.67c4,0,43.89,2.19,53.33,7.33,3.04,1.66,6.19,3.79,10.08,7.17,11.25,9.75,36.67,35.25,60,69.5,4.42,6.49-1,6.5-1,6.5h.01Z"/>
    <path class="st16" d="M594.32,248.32c-2.15-2.48-6.77,1.92-7.02,7.34-.25,5.42-.25,21.48,0,24.23s1.08,6.44,3.42,6.69c2.33.25,13.66,1.75,15.58,1.75s.28-25.27.28-25.27c0,0-10.23-12.4-12.26-14.75h0Z"/>
    <path class="st16" d="M595.55,251.34s-3.76,2.25-3.75,8.25c.01,5.5.46,22.22,1.19,24,.95,2.3,2.33,3.88,4.14,4.75"/>
    <line class="st16" x1="557.92" y1="212.27" x2="565.42" y2="285.1"/>
    <line class="st16" x1="552.46" y1="208.42" x2="560.15" y2="283.69"/>
    <path class="st16" d="M678.79,308.8c-3.99-1.46-11.73-3.21-17.24-3.71s-71.25-6.89-88-10.32-58.25-14.94-63.5-17.03-12.75-4.65-15.25-15.4-6.75-49.75-6.75-54.5,2.75-9.57,7.5-9.57c6.5,0,48.95,4.06,57.07,7.32,14.77,5.92,71.67,70.37,74.58,82.36.32,1.32.79,4.22-5.65,3.64"/>
    <path class="st16" d="M493.65,298.34c0,2,.9,4.5,2.9,5.63s9.08,1.63,15.33.75c6.25-.88,10.95-3.88,10.7-6.38s-4.45-5.51-10.7-6.38-13.33-.37-15.33.75c-2,1.13-2.9,3.63-2.9,5.63h0Z"/>
    <line class="st16" x1="521.62" y1="296.34" x2="494.38" y2="296.34"/>
    <line class="st16" x1="521.62" y1="300.59" x2="494.38" y2="300.59"/>
    <line class="st16" x1="590.11" y1="377.99" x2="475.21" y2="377.99"/>
    <line class="st16" x1="475.21" y1="180.51" x2="469.17" y2="180.51"/>
    <path class="st3" d="M556.3,377.99s1.51-4.52,3.13-8.13c10.37-23.25,25.97-55.26,75.97-54.53,39.15.57,58.76,31.33,65.42,50.19"/>
    <line class="st3" x1="609.42" y1="350.5" x2="475.21" y2="350.5"/>
    <line class="st3" x1="587.01" y1="400.3" x2="469.17" y2="400.3"/>
    <path class="st3" d="M686.34,285.1c-7.56-3.18-25.11-6.35-28.17-6.48-2.04-.09-2.5-.17-6.72-.05-4.75.14,3.09,1.89,3.09,1.89,0,0,14.05,4.32,16.72,4.72s15.08-.08,15.08-.08h0Z"/>
    <path class="st3" d="M143.49,399.87v4.6c0,1.31-3.67,5.47-6,5.56s-15.33,0-15.33,0v3.1h-8l-3-2.15s-2.49-.04-7.3,0c-3.46.03-2.97-6.29-2.97-6.29-2.76-.68-3.16-3.83-1.83-5.68s4.75-1.87,6.2.74c1.52,2.73-1.33,4.46-1.33,4.46v2.59l6.95-1.46,1.62-4.06,3-3.73v-2.58s-2.8.42-4.58.01c-3.28-.74-3.53-3.75-3.53-3.75v-12.02s0-1.96,5.1-2.31c1.67-.11,1.66-.11,5,0l1,15.42,1,4.36,4-1.01.23-11.21"/>
    <polyline class="st3" points="112.49 376.92 112.49 395.16 119.1 395.16"/>
    <line class="st3" x1="113.15" y1="400.47" x2="113.15" y2="412.41"/>
    <line class="st3" x1="122.37" y1="395.98" x2="122.37" y2="412.04"/>
    <path class="st3" d="M342.79,406.64l-7.49,7.71c-2.71,1.03-7.49-2.33-6.59-4.61.49-1.23,2.58-3,2.58-3"/>
    <polyline class="st3" points="170 402.81 168.18 406.53 159.52 406.53 159.52 401.34"/>
    <path class="st3" d="M738.12,346.65c-13.42-.05-22.52.96-27.89,6.64-7.6,8.05-13.3,18.33-14.47,21.56-1.72,4.73,2.02,7.61,5.62,8.88,3.6,1.27,48.25.07,51.93,0"/>
    <g>
      <path class="st11" d="M231.41,400.04c0,20.8,16.86,37.67,37.67,37.67s37.67-16.86,37.67-37.67-16.86-37.67-37.67-37.67-37.67,16.87-37.67,37.67h0Z"/>
      <path class="st11" d="M244.41,400.04c0,13.62,11.04,24.67,24.67,24.67s24.67-11.04,24.67-24.67-11.04-24.67-24.67-24.67-24.67,11.04-24.67,24.67h0Z"/>
      <circle class="st11" cx="269.07" cy="400.04" r="14.33"/>
      <circle class="st11" cx="269.07" cy="400.04" r="22.33"/>
      <circle class="st11" cx="269.07" cy="400.04" r="6.33"/>
      <circle class="st18" cx="269.07" cy="410.66" r="2.33"/>
      <path class="st18" d="M258.73,403.39c1.11-.65,2.54-.28,3.19.83s.28,2.54-.83,3.2c-1.11.65-2.54.28-3.19-.83s-.28-2.54.83-3.19h0Z"/>
      <path class="st18" d="M260.94,392.81c1.12.63,1.53,2.05.9,3.18-.63,1.12-2.05,1.53-3.18.9-1.12-.63-1.53-2.05-.9-3.18.63-1.12,2.05-1.53,3.18-.9Z"/>
      <path class="st18" d="M271.19,389.37c.03,1.29-1,2.35-2.29,2.38s-2.35-1-2.38-2.29,1-2.35,2.29-2.38,2.35,1,2.38,2.29Z"/>
      <path class="st18" d="M279.35,396.47c-1.1.67-2.54.33-3.21-.77-.67-1.1-.33-2.54.77-3.21,1.1-.67,2.54-.33,3.21.77.67,1.1.33,2.54-.77,3.21Z"/>
      <path class="st18" d="M277.35,407.09c-1.14-.61-1.57-2.02-.96-3.16.61-1.14,2.02-1.57,3.16-.96,1.14.61,1.57,2.02.96,3.16-.6,1.14-2.02,1.57-3.16.96Z"/>
      <path class="st18" d="M267.01,417.34c0,.74.97,1.33,2.17,1.33s2.17-.6,2.17-1.33-.97-1.33-2.17-1.33-2.17.6-2.17,1.33Z"/>
      <path class="st18" d="M261.21,415.59c-.25.69.46,1.58,1.58,1.99s2.24.18,2.49-.51-.46-1.58-1.58-1.99-2.24-.18-2.49.51Z"/>
      <path class="st18" d="M256.37,411.96c-.47.56-.11,1.64.8,2.41.92.77,2.04.94,2.52.37.47-.56.11-1.64-.8-2.41s-2.04-.94-2.52-.37Z"/>
      <path class="st18" d="M253.05,406.9c-.64.37-.67,1.51-.07,2.54.6,1.04,1.6,1.58,2.24,1.21s.67-1.51.07-2.54c-.6-1.04-1.6-1.58-2.24-1.21Z"/>
      <path class="st18" d="M251.67,401c-.73.13-1.14,1.19-.94,2.37.21,1.18.96,2.03,1.69,1.9.72-.13,1.14-1.19.94-2.37-.21-1.18-.96-2.03-1.69-1.9Z"/>
      <path class="st18" d="M252.39,394.99c-.73-.13-1.48.72-1.69,1.9s.21,2.24.94,2.37c.72.13,1.48-.72,1.69-1.9s-.21-2.24-.94-2.37Z"/>
      <path class="st18" d="M255.12,389.59c-.64-.37-1.64.17-2.24,1.21-.6,1.04-.57,2.17.07,2.54.64.37,1.64-.17,2.24-1.21.6-1.04.57-2.17-.07-2.54Z"/>
      <path class="st18" d="M259.53,385.45c-.47-.56-1.6-.4-2.52.37-.92.77-1.28,1.85-.8,2.41.47.56,1.6.4,2.52-.37.92-.77,1.28-1.85.8-2.41Z"/>
      <path class="st18" d="M265.1,383.06c-.25-.69-1.37-.92-2.49-.51s-1.83,1.3-1.58,1.99,1.37.92,2.49.51,1.83-1.3,1.58-1.99Z"/>
      <path class="st18" d="M271.14,382.73c0-.74-.97-1.33-2.17-1.33s-2.17.59-2.17,1.33.97,1.33,2.17,1.33,2.17-.6,2.17-1.33Z"/>
      <path class="st18" d="M276.94,384.48c.25-.69-.45-1.58-1.58-1.99-1.12-.41-2.24-.18-2.49.51s.45,1.58,1.58,1.99c1.12.41,2.24.18,2.49-.51Z"/>
      <path class="st18" d="M281.78,388.11c.47-.56.12-1.64-.8-2.41s-2.04-.94-2.52-.37c-.47.56-.11,1.64.8,2.41.92.77,2.04.93,2.52.37Z"/>
      <path class="st18" d="M285.09,393.17c.64-.37.67-1.5.07-2.54s-1.6-1.58-2.24-1.21c-.64.37-.67,1.51-.07,2.54.6,1.04,1.6,1.58,2.24,1.21Z"/>
      <path class="st18" d="M286.48,399.06c.73-.13,1.14-1.18.94-2.36-.21-1.18-.96-2.03-1.69-1.9-.72.13-1.14,1.19-.94,2.37s.96,2.03,1.69,1.9h0Z"/>
      <path class="st18" d="M285.76,405.08c.73.13,1.48-.72,1.69-1.9s-.21-2.24-.94-2.36c-.72-.13-1.48.72-1.69,1.9s.21,2.24.94,2.36Z"/>
      <path class="st18" d="M283.03,410.48c.64.37,1.64-.17,2.24-1.21.6-1.04.57-2.17-.07-2.54-.63-.37-1.64.17-2.24,1.21-.6,1.04-.57,2.17.07,2.54Z"/>
      <path class="st18" d="M278.61,414.62c.47.57,1.6.4,2.52-.37.92-.77,1.28-1.85.8-2.41-.47-.56-1.6-.4-2.52.37-.92.77-1.28,1.85-.8,2.41Z"/>
      <path class="st18" d="M273.05,417c.25.69,1.37.92,2.49.51s1.83-1.3,1.58-2c-.25-.69-1.37-.92-2.49-.51s-1.83,1.3-1.58,1.99h0Z"/>
      <path class="st5" d="M227.23,400.04c0,23.11,18.73,41.84,41.84,41.84s41.84-18.73,41.84-41.84-18.73-41.84-41.84-41.84-41.84,18.73-41.84,41.84h0Z"/>
    </g>
    <g>
      <path class="st11" d="M600.15,400.04c0,20.8,16.86,37.67,37.67,37.67s37.67-16.86,37.67-37.67-16.86-37.67-37.67-37.67-37.67,16.87-37.67,37.67h0Z"/>
      <path class="st11" d="M613.15,400.04c0,13.62,11.04,24.67,24.67,24.67s24.67-11.04,24.67-24.67-11.04-24.67-24.67-24.67-24.67,11.04-24.67,24.67Z"/>
      <circle class="st11" cx="637.81" cy="400.04" r="14.33"/>
      <circle class="st11" cx="637.81" cy="400.04" r="22.33"/>
      <circle class="st11" cx="637.81" cy="400.04" r="6.33"/>
      <circle class="st18" cx="637.81" cy="410.66" r="2.33"/>
      <path class="st18" d="M627.47,403.39c1.11-.65,2.54-.28,3.19.83s.28,2.54-.83,3.2c-1.11.65-2.54.28-3.19-.83s-.28-2.54.83-3.19h0Z"/>
      <path class="st18" d="M629.68,392.81c1.12.63,1.53,2.05.9,3.18-.63,1.12-2.05,1.53-3.18.9-1.12-.63-1.53-2.05-.9-3.18.63-1.12,2.05-1.53,3.18-.9Z"/>
      <path class="st18" d="M639.93,389.37c.03,1.29-1,2.35-2.29,2.38s-2.35-1-2.38-2.29,1-2.35,2.29-2.38,2.35,1,2.38,2.29Z"/>
      <path class="st18" d="M648.08,396.47c-1.1.67-2.54.33-3.21-.77-.67-1.1-.33-2.54.77-3.21,1.1-.67,2.54-.33,3.21.77.67,1.1.33,2.54-.77,3.21Z"/>
      <path class="st18" d="M646.09,407.09c-1.14-.61-1.57-2.02-.96-3.16s2.02-1.57,3.16-.96c1.14.61,1.57,2.02.96,3.16-.6,1.14-2.02,1.57-3.16.96Z"/>
      <path class="st18" d="M635.74,417.34c0,.74.97,1.33,2.17,1.33s2.17-.6,2.17-1.33-.97-1.33-2.17-1.33-2.17.6-2.17,1.33Z"/>
      <path class="st18" d="M629.95,415.59c-.25.69.46,1.58,1.58,1.99s2.24.18,2.49-.51-.46-1.58-1.58-1.99-2.24-.18-2.49.51Z"/>
      <path class="st18" d="M625.1,411.96c-.47.56-.11,1.64.8,2.41.92.77,2.04.94,2.52.37.47-.56.11-1.64-.8-2.41s-2.04-.94-2.52-.37Z"/>
      <path class="st18" d="M621.79,406.9c-.64.37-.67,1.51-.07,2.54.6,1.04,1.6,1.58,2.24,1.21s.67-1.51.07-2.54c-.6-1.04-1.6-1.58-2.24-1.21Z"/>
      <path class="st18" d="M620.41,401c-.73.13-1.14,1.19-.94,2.37.21,1.18.96,2.03,1.69,1.9.72-.13,1.14-1.19.94-2.37-.21-1.18-.96-2.03-1.69-1.9Z"/>
      <path class="st18" d="M621.13,394.99c-.73-.13-1.48.72-1.69,1.9s.21,2.24.94,2.37c.72.13,1.48-.72,1.69-1.9s-.21-2.24-.94-2.37Z"/>
      <path class="st18" d="M623.86,389.59c-.64-.37-1.64.17-2.24,1.21s-.57,2.17.07,2.54,1.64-.17,2.24-1.21c.6-1.04.57-2.17-.07-2.54Z"/>
      <path class="st18" d="M628.27,385.45c-.47-.56-1.6-.4-2.52.37-.92.77-1.28,1.85-.8,2.41.47.56,1.6.4,2.52-.37.92-.77,1.28-1.85.8-2.41Z"/>
      <path class="st18" d="M633.84,383.06c-.25-.69-1.37-.92-2.49-.51s-1.83,1.3-1.58,1.99,1.37.92,2.49.51,1.83-1.3,1.58-1.99Z"/>
      <path class="st18" d="M639.88,382.73c0-.74-.97-1.33-2.17-1.33s-2.17.59-2.17,1.33.97,1.33,2.17,1.33,2.17-.6,2.17-1.33Z"/>
      <path class="st18" d="M645.67,384.48c.25-.69-.45-1.58-1.58-1.99-1.12-.41-2.24-.18-2.49.51s.46,1.58,1.58,1.99,2.24.18,2.49-.51Z"/>
      <path class="st18" d="M650.52,388.11c.47-.56.12-1.64-.8-2.41s-2.04-.94-2.52-.37c-.47.56-.11,1.64.8,2.41.92.77,2.04.93,2.52.37Z"/>
      <path class="st18" d="M653.83,393.17c.64-.37.67-1.5.07-2.54s-1.6-1.58-2.24-1.21-.67,1.51-.07,2.54,1.6,1.58,2.24,1.21Z"/>
      <path class="st18" d="M655.21,399.06c.73-.13,1.14-1.18.94-2.36-.21-1.18-.96-2.03-1.69-1.9-.72.13-1.14,1.19-.94,2.37s.96,2.03,1.69,1.9h0Z"/>
      <path class="st18" d="M654.5,405.08c.73.13,1.48-.72,1.69-1.9s-.21-2.24-.94-2.36c-.72-.13-1.48.72-1.69,1.9s.21,2.24.94,2.36Z"/>
      <path class="st18" d="M651.77,410.48c.64.37,1.64-.17,2.24-1.21.6-1.04.57-2.17-.07-2.54-.63-.37-1.64.17-2.24,1.21-.6,1.04-.57,2.17.07,2.54Z"/>
      <path class="st18" d="M647.35,414.62c.47.57,1.6.4,2.52-.37.92-.77,1.28-1.85.8-2.41-.47-.56-1.6-.4-2.52.37-.92.77-1.28,1.85-.8,2.41Z"/>
      <path class="st18" d="M641.79,417c.25.69,1.37.92,2.49.51s1.83-1.3,1.58-2c-.25-.69-1.37-.92-2.49-.51s-1.83,1.3-1.58,1.99h0Z"/>
      <path class="st5" d="M595.75,399.28c0,23.11,18.73,41.84,41.84,41.84s41.84-18.73,41.84-41.84-18.73-41.84-41.84-41.84-41.84,18.73-41.84,41.84Z"/>
    </g>
  </g>
  <g id="Ebene_7" class="st25">
    <polygon class="st23" points="103.36 176.14 112.01 176.14 111.99 174.98 111.99 174.94 103.51 174.94 103.36 176.14"/>
    <rect class="st23" x="113.35" y="174.94" width="102.5" height="1.2"/>
    <rect class="st23" x="218.05" y="174.94" width="101.58" height="1.2"/>
    <rect class="st24" x="321.83" y="174.94" width="139.82" height="1.2"/>
    <path class="st4" d="M678.79,308.8c-3.99-1.46-11.73-3.21-17.24-3.71s-71.25-6.89-88-10.32-58.25-14.94-63.5-17.03-12.75-4.65-15.25-15.4-6.75-49.75-6.75-54.5,2.75-9.57,7.5-9.57c6.5,0,48.95,4.06,57.07,7.32,14.77,5.92,71.67,70.37,74.58,82.36.32,1.32.79,4.22-5.65,3.64"/>
  </g>
  <g id="Kontur_blau" class="st25">
    <path class="st6" d="M320.95,363.63h.22M321.17,363.63h.16M450.39,152.7l.02-.02M321.31,135.38v-3.78M461.21,166.6l-.1.04M321.33,134.54v-.02M321.33,159.06v-.06M320.95,159h0M441.03,162.96l-.06.14M321.33,364.87h0M321.33,405.49v-.06M463.21,405.43v.06M463.21,364.87h0M321.33,364.91v.98M463.21,365.89v-.98M457.01,353.87h.2M454.91,353.87h1.5M455.89,353.19v.64M455.89,194.26v149.78M328.55,344.05v-149.76M328.55,353.91v-.72M328.55,354.41v-.1M456.23,354.23v.12M455.37,354.39v.1M455.63,354.47v-.1M330.43,349.75v-155.54M330.43,353.91v-1.88M454.01,352.03v1.8M454.01,194.2v155.54M449.27,345.59h0M449.27,346.03h0M447.41,349.93h1.86M444.97,349.93h2.1M447.35,352.23h1.92M444.97,352.23h2.14M449.33,345.91v1.72M389.99,347.63v-1.72M335.09,347.63v-1.72M394.45,345.91v1.72M339.55,345.91v1.72M444.87,347.63v-1.72M337.19,344.23h-.26l-.12-.02h-.16l-.06-.02h.06l.06-.02h1.24l.06.02h.06l-.06.02h-.16l-.12.02h-.22M338.31,344.39h-.02l-.08.02h-.1l-.14.02h-1.3l-.12-.02h-.12l-.06-.02h-.04M392.09,344.23h-.28l-.12-.02h-.16l-.06-.02h.06l.06-.02h1.24l.08.02h.04l-.04.02h-.18l-.12.02h-.22M393.21,344.39h-.04l-.06.02h-.1l-.14.02h-1.3l-.14-.02h-.1l-.08-.02h-.02M446.97,344.23h-.26l-.12-.02h-.16l-.06-.02h.06l.06-.02h1.24l.06.02h.06l-.06.02h-.16l-.12.02h-.22M448.09,344.39h-.02l-.08.02h-.1l-.14.02h-1.3l-.12-.02h-.12l-.06-.02h-.04M447.07,348.99l-.18-.02-.2-.08-.18-.1-.16-.1-.12-.14-.08-.16-.04-.12M448.37,348.11l-.02.16-.06.16-.1.14-.12.14-.16.12-.18.08-.2.06-.1.02M447.07,348.83l-.28-.06-.18-.08-.16-.12-.12-.14-.08-.14-.02-.22M448.19,347.79l.02.02.04.3-.1.28-.1.14-.16.12-.16.1-.2.06h-.12M447.45,347.27l.22.06.18.08.14.1.14.14.02.08M446.21,347.99l.1-.3.1-.14.16-.12.16-.08.2-.06.08-.02M447.11,347.99h0v2.12M447.35,347.99h0v2.12M447.19,345.93l-.02.02v.06l-.02.1-.02.14v.16l-.02.2-.02.2-.02.22v.22l-.02.22v.82M447.41,345.95v.02l-.02.06-.02.1v.12l-.02.18-.02.18-.02.22v.22l-.02.22v.22l-.02.2v.3M447.33,347.99v-.32l.02-.2v-.22l.02-.24v-.22l.02-.2.02-.16.02-.16v-.12l.02-.1.02-.04M339.49,345.59h0M339.49,348.89h0M339.49,347.97h0M339.49,346.01h0M339.49,347.75h0M394.39,345.59h-.02M394.39,348.89h-.02M394.39,347.97h-.02M394.37,346.01h.02M394.37,347.75h.02M327.07,349.75v1.62M327.07,351.37v.66M457.35,352.03v-.84M457.35,351.19v-1.44M335.17,345.65h-4.74M390.07,345.65h-50.58M444.95,345.65h-50.56M454.01,345.65h-4.74M335.17,345.69h-4.74M390.07,345.69h-50.58M444.95,345.69h-50.56M454.01,345.69h-4.74M335.17,345.71h-4.74M390.07,345.71h-50.58M444.95,345.71h-50.56M454.01,345.71h-4.74M330.43,353.71h123.58M330.43,353.77h123.58M454.91,353.85h-124.48M328.33,352.03v1.26M326.97,352.91v-.92M328.33,353.29h-1.04M326.97,353.35v.06M327.01,353.41h-.04M328.33,353.41h-.92M326.85,351.21h-.12M326.85,350.61h-.02l-.02-.04-.04-.02-.02-.04v-.04l-.02-.06M326.97,349.79v-3.28M328.33,346.51v3.24M326.85,350.57l-.02-.02-.02-.02-.04-.04-.02-.04v-.04l-.02-.04M326.73,350.11l.02-.02v-.02l.02-.02.04-.02.02-.02h.02M457.47,351.99v1.08M456.11,353.29v-1.26M457.25,353.29h-1.14M457.13,353.41h-1.02M457.69,351.21h-.1M457.69,350.41v.06l-.02.04-.02.04-.02.02-.04.04M456.11,349.75v-3.24M457.47,346.51v3.28M457.69,350.37v.04l-.02.04-.02.04-.02.04-.04.02v.02M457.59,350.01h0l.04.02.02.02.02.02.02.02v.02M454.01,268.75h-123.58M454.01,268.79h-123.58M454.01,268.83h-123.58M330.43,272.73h123.58M330.43,272.71h123.58M454.01,301.13h-123.58M454.01,301.19h-123.58M454.01,301.21h-123.58M330.43,305.11h123.58M330.43,305.09h123.58M454.01,256.61h-123.58M454.01,256.65h-123.58M454.01,256.67h-123.58M330.43,260.59h123.58M330.43,260.57h123.58M454.01,264.71h-123.58M454.01,264.75h-123.58M454.01,264.77h-123.58M330.43,268.69h123.58M330.43,268.67h123.58M454.01,228.27h-123.58M454.01,228.33h-123.58M454.01,228.34h-123.58M330.43,232.25h123.58M330.43,232.23h123.58M454.01,244.47h-123.58M454.01,244.51h-123.58M454.01,244.53h-123.58M330.43,248.45h123.58M330.43,248.43h123.58M454.01,341.63h-123.58M454.01,341.67h-123.58M454.01,341.69h-123.58M449.27,345.61h4.74M394.39,345.61h50.56M339.49,345.61h50.58M330.43,345.61h4.74M449.27,345.59h4.74M394.37,345.59h50.58M339.49,345.59h50.58M330.43,345.59h4.74M454.01,220.19h-123.58M454.01,220.23h-123.58M454.01,220.25h-123.58M330.43,224.17h123.58M330.43,224.12h123.58M454.01,216.12h-123.58M454.01,216.17h-123.58M454.01,216.18h-123.58M330.43,220.1h123.58M330.43,220.08h123.58M454.01,236.37h-123.58M454.01,236.41h-123.58M454.01,236.43h-123.58M330.43,240.35h123.58M330.43,240.33h123.58M454.01,329.47h-123.58M454.01,329.51h-123.58M454.01,329.53h-123.58M330.43,333.45h123.58M330.43,333.43h123.58M454.01,272.81h-123.58M454.01,272.85h-123.58M454.01,272.87h-123.58M330.43,276.79h123.58M330.43,276.77h123.58M454.01,321.37h-123.58M454.01,321.43h-123.58M454.01,321.45h-123.58M330.43,325.35h123.58M330.43,325.33h123.58M454.01,276.85h-123.58M454.01,276.89h-123.58M454.01,276.91h-123.58M330.43,280.83h123.58M330.43,280.81h123.58M454.01,333.53h-123.58M454.01,333.57h-123.58M454.01,333.59h-123.58M330.43,337.51h123.58M330.43,337.47h123.58M454.01,232.33h-123.58M454.01,232.37h-123.58M454.01,232.39h-123.58M330.43,236.31h123.58M330.43,236.29h123.58M454.01,337.57h-123.58M454.01,337.61h-123.58M454.01,337.63h-123.58M330.43,341.55h123.58M330.43,341.53h123.58M454.01,284.95h-123.58M454.01,284.99h-123.58M454.01,285.01h-123.58M330.43,288.93h123.58M330.43,288.91h123.58M454.01,212.08h-123.58M454.01,212.12h-123.58M454.01,212.14h-123.58M330.43,216.06h123.58M330.43,216.04h123.58M454.01,309.23h-123.58M454.01,309.27h-123.58M454.01,309.29h-123.58M330.43,313.21h123.58M330.43,313.19h123.58M454.01,260.65h-123.58M454.01,260.71h-123.58M454.01,260.73h-123.58M330.43,264.65h123.58M330.43,264.61h123.58M454.01,203.98h-123.58M454.01,204.02h-123.58M454.01,204.04h-123.58M330.43,207.96h123.58M330.43,207.94h123.58M454.01,293.05h-123.58M454.01,293.09h-123.58M454.01,293.11h-123.58M330.43,297.03h123.58M330.43,297.01h123.58M454.01,297.09h-123.58M454.01,297.13h-123.58M454.01,297.15h-123.58M330.43,301.07h123.58M330.43,301.05h123.58M454.01,288.99h-123.58M454.01,289.03h-123.58M454.01,289.07h-123.58M330.43,292.97h123.58M330.43,292.95h123.58M454.01,325.43h-123.58M454.01,325.47h-123.58M454.01,325.49h-123.58M330.43,329.41h123.58M330.43,329.39h123.58M454.01,280.89h-123.58M454.01,280.95h-123.58M454.01,280.97h-123.58M330.43,284.89h123.58M330.43,284.85h123.58M454.01,199.94h-123.58M454.01,199.98h-123.58M454.01,200h-123.58M330.43,203.92h123.58M330.43,203.88h123.58M454.01,195.88h-123.58M454.01,195.92h-123.58M454.01,195.94h-123.58M330.43,199.86h123.58M330.43,199.84h123.58M454.01,208.02h-123.58M454.01,208.08h-123.58M454.01,208.1h-123.58M330.43,212h123.58M330.43,211.98h123.58M454.01,317.33h-123.58M454.01,317.37h-123.58M454.01,317.39h-123.58M330.43,321.31h123.58M330.43,321.29h123.58M454.01,252.57h-123.58M454.01,252.61h-123.58M454.01,252.62h-123.58M330.43,256.55h123.58M330.43,256.53h123.58M454.01,313.29h-123.58M454.01,313.33h-123.58M454.01,313.35h-123.58M330.43,317.27h123.58M330.43,317.25h123.58M454.01,248.51h-123.58M454.01,248.55h-123.58M454.01,248.59h-123.58M330.43,252.49h123.58M330.43,252.47h123.58M454.01,305.19h-123.58M454.01,305.23h-123.58M454.01,305.25h-123.58M330.43,309.17h123.58M330.43,309.15h123.58M454.01,240.43h-123.58M454.01,240.47h-123.58M454.01,240.49h-123.58M330.43,244.41h123.58M330.43,244.37h123.58M330.43,195.82h123.58M330.43,195.8h123.58M454.01,224.23h-123.58M454.01,224.27h-123.58M454.01,224.28h-123.58M330.43,228.21h123.58M330.43,228.19h123.58M320.49,132.08h.44M320.27,159.32v.64M320.49,134.06h.44M320.73,363.67h.22M122.21,364.19v-.46M122.71,363.73v.46M216.35,363.67h1.2M320.13,363.67h.6M103.09,174.46h-.04M103.01,347.47l-.02.02M116.47,354.55v-.1M232.65,364.23v-.04M112.99,134.7l.24.06M112.47,136.94l-.04-.02M136.09,132.74l.08.08M131.31,136.8v-.14M135.49,135.02h-22.32M119.19,363.73v-.02M222.37,401.21h.18M235.57,366.59l.12.1M222.69,397.17l-.18-.02M315.23,401.15l-.18.02M302.01,366.53l-.12.1M314.91,397.11h.16M216.35,405.41v.06M132.89,398.49h-.02M113.43,364.73v-.2M216.35,364.87v1.16M132.89,398.49l.86.08M217.47,355.25h.08M216.73,355.25h.46M216.35,355.25h.1M320.95,363.63v-.18M321.17,364.07l-.06-.04-.06-.1-.06-.08-.02-.1-.02-.12M321.33,360.79h-.1M321.23,360.81h.1M321.17,363.63v-.18M321.17,363.73h0v-.1M321.17,363.73h.16M321.75,364.19h-.58M321.17,364.19v-.46M463.37,364.19h-.58M463.37,363.73v.46M463.21,363.73h.16M321.75,364.19h141.04M462.79,364.19v-.46M321.75,363.73v.46M463.59,172.46v-.1M463.23,172.34h0M463.21,363.73l.14-.04.12-.06.08-.1.02-.08M463.21,363.45l.04-.02.04-.02.02-.02v-.04M463.21,363.73h0v-.32M321.33,363.73h0v-.32M321.33,363.73h141.88M462.41,171.98l.84.06M463.21,172.34h.02M463.59,172.42l-.02-.14-.08-.1-.1-.08-.12-.04-.02-.02M463.23,172.34l.02-.3M463.31,172.42l-.02-.04-.02-.04h-.04M463.03,172.04l.06.04.06.06.06.12v.02M463.03,172.04l-141.68-12.4M321.33,159.86v-.08l.02-.08v-.06M463.31,174.56v-2.14M463.59,174.56v-2.14M463.59,172.42h-.28M320.95,159.98v14.58M321.23,159.98v14.58M320.95,159.98h.28M326.05,351.35l.02.34.06.36.1.34.14.32.18.3.2.3.24.26.26.24.3.2.3.16.34.14.34.1.34.06.36.02M455.31,354.49l.36-.02.36-.06.34-.1.32-.14.32-.16.28-.2.28-.24.22-.26.22-.3.16-.3.14-.32.1-.34.06-.36.02-.34M321.33,159.86l141.88,12.42M321.33,174.44v-14.58M463.21,174.44v-2.16M463.31,176.64v-.12M463.59,176.64v-.12M320.95,176.52v.12M321.23,176.52v.12M463.31,346.83v-.12M463.59,346.83v-.12M320.95,346.71v.12M321.23,346.71v.12M463.31,363.45v-16.02M463.59,363.45v-16.02M463.59,363.45h-.28M320.95,347.43v16.02M321.23,347.43v16.02M320.95,363.45h.28M463.31,176.52v-1.96M463.59,176.52v-1.96M463.59,176.52h-.28M463.59,174.56h-.28M320.95,174.56v1.96M321.23,174.56v1.96M320.95,174.56h.28M320.95,176.52h.28M463.31,347.43v-.6M463.59,347.43v-.6M463.59,346.83h-.28M463.59,347.43h-.28M320.95,346.83h.28M321.23,346.83v.6M320.95,346.83v.6M320.95,347.43h.28M458.49,347.47v3.92M458.49,351.39l-.02.34-.06.36-.1.34-.14.32-.16.3-.22.3-.22.26-.28.22-.28.22-.32.16-.32.14-.34.1-.36.06-.36.02M329.23,354.53l-.36-.02-.34-.06-.34-.1-.34-.14-.3-.16-.3-.22-.26-.22-.24-.26-.2-.3-.18-.3-.14-.32-.1-.34-.06-.36-.02-.34M326.05,351.39v-3.92M321.33,363.41v-15.94M321.33,363.41h141.88M463.21,363.41v-15.94M326.43,346.71h-.38M326.43,197.38v149.32M326.05,197.38h.38M458.49,346.71h-.38M458.11,197.38h.38M458.11,346.71v-149.32M321.33,347.47v-.76M326.05,347.47v-.76M321.33,347.47h4.72M458.49,346.71v.76M458.49,347.47h4.72M463.21,347.47v-.76M463.59,346.71h-.38M463.59,346.71v-170.06M463.21,176.64h.38M463.21,176.64v-2.2M321.33,174.44h141.88M321.33,176.64v-2.2M321.33,346.71h-.38M320.95,176.64h.38M320.95,176.64v170.06M329.23,194.2h126.08M455.31,194.2l.36.02.36.06.34.1.32.14.32.18.28.2.28.24.22.26.22.3.16.3.14.34.1.34.06.34.02.36M458.49,197.38v149.32M458.49,346.71h4.72M463.21,346.71v-170.06M321.33,176.64h141.88M321.33,346.71v-170.06M321.33,346.71h4.72M326.05,346.71v-149.32M326.05,197.38l.02-.36.06-.34.1-.34.14-.34.18-.3.2-.3.24-.26.26-.24.3-.2.3-.18.34-.14.34-.1.34-.06.36-.02M119.71,361.05v.06M119.65,360.99v-.06M115.73,353.05l.04-.02M115.21,351.89l-.04.02M115.15,351.85l.02-.02M115.79,353.09h-.04M455.31,354.39l.34-.02.38-.08.36-.1.34-.16.32-.2.3-.24.26-.26.24-.3.2-.32.14-.34.12-.36.06-.36.02-.38M455.31,354.09l.32-.02.32-.06.34-.1.3-.14.3-.18.28-.2.24-.24.2-.28.18-.28.14-.32.1-.32.06-.34.02-.34M458.39,346.79v4.48M458.39,346.79h-.28M458.11,346.79v4.48M458.11,351.27h.28M326.15,351.27l.02.38.06.36.12.36.16.34.18.32.24.3.26.26.3.24.32.2.34.16.36.1.38.08.34.02M326.43,351.27l.02.34.06.34.1.32.14.32.18.28.22.28.24.24.26.2.3.18.3.14.34.1.34.06.3.02M326.15,346.79h.28M326.15,346.79v4.48M326.15,351.27h.28M326.43,346.79v4.48M463.31,172.42v-.08M463.21,172.34h.04M458.43,346.71v.7M458.43,347.41h.06M458.43,347.41v4.52M458.43,347.41l.02.02h.04M458.43,196.78v.6M321.23,159.98h0M321.23,159.98h.1M321.33,160.22h-.1M321.33,360.29h-.1M321.23,360.07h.1M326.11,347.41v-.7M326.11,347.41h-.06M326.11,351.93v-4.52M326.05,347.43h.06v-.02M326.11,197.38v-.6M462.45,171.76h-.02M462.49,171.98l.02-.2M462.43,171.76l-141.1-12.34M321.31,159.64l.02-.22M462.41,171.98l.02-.22M321.35,159.64h-.04M321.31,159.64h.04M321.31,131.58h.02M321.31,131.58v.02M321.23,131.52h0l.02.02.02.02.04.02M320.93,124.62v.02M321.39,124.26l-.08-.02-.08.02-.08.02-.08.04-.06.06-.04.08-.02.08-.02.08M450.41,152.68l.04.02M450.41,152.68v-.02l-.02-.02-.02-.02h-.04l-.02-.02h-.02l-.02-.02h-.02M450.25,152.6v-.02M450.25,152.58l-128.86-28.32M321.39,124.26h0M321.39,124.26h0M457.69,159.3l-.08-.06M457.61,159.24l-.08.06M450.45,152.7l7.16,6.54M450.45,152.7l-.04.04M457.69,159.3l.02.04.04.04.02.04M457.69,159.3l-.06.06M457.77,159.42l3.44,7.18M457.77,159.42l-.1.04M321.31,131.6h.02M321.31,131.6l-.04-.02-.02-.02-.02-.02-.02-.02M461.21,166.6l.12.26.12.26.12.22.08.2.1.18.06.14.06.12.04.1.04.06.02.06M320.93,124.64l.02-.1.02-.06.04-.08.06-.06.08-.04.08-.02.08-.02h.08M321.33,131.46l-.02-.02-.02.02h-.04l-.02.02v.02l-.02.02v.02M321.39,131.18h-.16l-.08.02-.08.06-.06.06-.04.06-.02.06M321.21,131.44v3.06M320.93,131.44h.28M321.33,134.54v-3.08M321.33,131.46l.06-.28M320.93,125.52v-.88M320.93,135.44v.28M320.93,131.44v3.06M320.93,131.56v-.12M320.93,131.54v.02M320.93,131.54h0M320.93,124.64v6.9M321.21,134.5v.88M320.93,134.5h.28M320.93,134.5v.94M320.93,135.44h.1M321.33,134.54v.84M321.33,134.52v-.1M321.25,159.02v.02l.04.02h.04M321.33,159.06v.04M457.43,159.14l-.04.16M439.39,159.38l18.04-.24M457.43,159.14l-7.18-6.54M450.25,152.6l-128.86-28.34M321.39,124.26h0M321.39,131.18v-6.92M320.95,135.78v-.24M321.39,159.38h-.06M321.29,159.38l.1.02M321.33,159.38h-.04M321.33,159.38l.02-.26M321.35,159.1h-.04M321.29,159.38l-.14-.04-.1-.08-.08-.12-.02-.1M321.29,159.38h0M321.31,159.1l-.02.28M321.23,159v.02l.02.02v.02h.02v.02h.02l.02.02M320.95,159v.08l.02.06.04.06.04.06.06.04.06.04.06.02.06.02M321.23,159h-.28M321.33,159h-.1M320.95,135.54v-.04l.04-.02.02-.04.06-.02.04-.02h.08l.06-.02h.08M320.95,159v-23.46M321.33,158.88l-.14.02-.12.02-.08.04-.04.04M321.33,159v-.12M438.43,160.18l.06-.14.1-.14.12-.1.18-.08.2-.04M439.39,159.38l-.06.2M440.55,162.92l-.5-.28-.46-.3-.42-.36-.24-.28-.2-.3-.08-.18M438.65,161.22l-.1-.3-.08-.28-.04-.26v-.22l.04-.2.06-.18.1-.14.14-.1.18-.08.2-.06.24-.02M439.39,159.38l-118-28.2M321.33,134.42v-.88l.02-.4v-.7l.02-.3v-.7l.02-.16v-.1M462.45,171.76l.64.06M463.45,171.28l-1.48-3.08M461.97,168.2l-.14.08M347.01,161.66h-.08l-.1-.02h-.14l-.1-.02h-.1M365.17,163.26h-.02l-.06-.02h-.1l-.1-.02h-.14l-.1-.02h-.18M383.11,164.82h.04l.06.02h.02M383.23,164.84h-.02l-.06-.02h-.1l-.1-.02h-.14l-.1-.02h-.18.14M401.29,166.42h-.02l-.06-.02h-.1l-.1-.02h-.14l-.1-.02h-.18.18l.1.02h.14l.1.02h.1l.06.02h.02M419.35,168h-.02l-.06-.02h-.1l-.1-.02h-.14l-.1-.02h-.18.18l.1.02h.14l.1.02h.1l.06.02h.02M437.41,169.58h-.02l-.06-.02h-.1l-.1-.02h-.14l-.1-.02h-.18.18l.1.02h.14l.1.02h.1l.06.02h.02M455.47,171.16h-.02l-.06-.02h-.1l-.12-.02h-.12l-.1-.02h-.18.16l.12.02h.12l.12.02h.1l.06.02h.02M322.43,159.52l-1-.1M463.09,171.82l-3.02-.26M463.09,171.82h0M463.09,171.82l.14-.02.12-.06.08-.08.06-.12v-.14l-.04-.12M463.45,171.28l-.18.1M442.17,163.48l19.6,4.68M440.55,162.92l.5.22.56.18.56.16M321.33,134.42l119.22,28.5M321.33,134.42v.96M321.33,135.38v23.5M461.77,168.16l1.5,3.14M463.27,171.42l-.02.04h-.02M463.27,171.3v.12M321.33,158.88l141.94,12.42M321.43,159.42l-.04-.02-.02-.08-.02-.1v-.12l-.02-.12v-.1M321.43,159.42l141.66,12.4M463.27,171.3l-.04.14-.04.12-.02.12-.04.08-.02.06h-.02M438.77,161.4l-.1-.28-.06-.26-.02-.24v-.2l.02-.18.08-.16.1-.12v-.02M439.67,159.54l17.92-.24M438.95,161.22l-.1-.28-.06-.26-.04-.22.02-.22.02-.18.08-.16.1-.12.12-.1.16-.08.2-.04.22-.02M461.03,166.48l-3.44-7.18M438.95,161.22l-.18.18M441.03,162.96l-.52-.24-.6-.38-.42-.36-.36-.4-.18-.36M442.27,163.36l-.44-.12-.4-.14-.4-.14M461.77,168l-.02-.02v-.04l-.04-.06-.04-.08-.06-.12-.06-.14-.08-.18-.1-.18-.1-.22-.12-.22-.12-.26M438.95,161.22l22.08,5.26M461.73,168.14l.04-.14M442.27,163.36l19.5,4.64M442.23,163.5l.04-.14M321.33,405.59v-.1M463.21,405.49v.1M463.21,364.77v.1M321.33,364.87v-.1M321.23,364.87h.1M321.33,405.49h-.1M463.21,405.89h0v-.02M321.33,405.87v.02M463.21,364.87h.1M463.31,405.49h-.1M463.21,364.49v-.02M321.33,364.47h0v.02M320.95,405.35v.14M321.23,405.49v-.06M321.23,405.49v.02l.02.02v.02l.02.02.02.02h.04M321.23,405.49h-.28M320.95,405.49l.02.08.02.08.02.06.06.06.04.04.08.04.06.02h.08M321.33,405.59h.12M321.33,405.59v.28M321.33,405.87h.02M463.31,405.43v.06M463.59,405.49v-.14M463.21,405.59h.04l.02-.02h.02v-.02l.02-.02v-.04M463.21,405.87h.08l.08-.02.06-.04.06-.04.04-.06.04-.06.02-.08v-.08M463.31,405.49h.28M463.19,405.87h.02M463.21,405.59v.28M463.11,405.59h.1M321.33,405.89h0l.02-.02.02-.02v-.04M321.33,406.17v-.28M463.21,406.17h-141.88M321.33,406.17v-.02l.02-.06.02-.1v-.14M463.17,405.81l.02.04v.02l.02.02M463.17,405.85l.02.14v.1l.02.06v.02M463.21,406.17v-.28M321.37,405.81l.08-.1M321.37,405.81v.04M463.17,405.81v.04M463.11,405.71l.06.1M321.37,405.85l.08-.12M321.37,405.85h141.8M463.09,405.73l.08.12M321.33,364.49l-.14.02-.12.08-.08.12-.04.16M321.33,364.77h-.04l-.02.02-.02.04-.02.04M321.35,364.49h-.02M321.33,364.77v-.28M321.49,364.77h-.16M463.59,364.87l-.02-.16-.08-.12-.12-.08-.16-.02M463.31,364.87v-.04l-.02-.04-.04-.02h-.04M463.21,364.49h-.02M463.21,364.77h-.14M463.21,364.77v-.28M321.41,364.87l.38.64M321.23,364.87h.1M321.23,364.87h-.28M320.95,405.35v-40.48M321.07,405.39h-.06l-.02-.02h-.02l-.02-.02M320.95,364.87h.02l.02.02h.08l.04.02h.22M321.33,364.87h.08M321.33,364.87v.04M321.41,364.91v-.04M321.33,364.91h.08M321.41,405.41h-.06M321.45,405.35l-.04.06M321.41,364.91l.34.6M463.13,364.87h.08M463.19,405.41h-.06M463.13,364.91h.08M463.13,405.41l-.02-.06M462.77,365.51l.36-.64M462.79,365.51l.34-.6M463.13,364.91v-.04M463.59,364.87v40.48M463.59,405.35v.02h-.02l-.04.02h-.06M463.21,364.87h.1M463.21,364.87v.04M463.21,364.91h.22l.06-.02h.08l.02-.02M463.31,364.87h.28M463.15,364.61l-.52.9M321.91,365.51l-.52-.9M321.37,364.55v-.04l-.02-.02-.02-.02M321.33,364.19v.28M463.21,364.47h0l-.02.02-.02.02v.04M463.21,364.19v.28M321.39,364.61l-.02-.14v-.12l-.02-.1-.02-.06M463.15,364.61h-141.76M463.21,364.19v.02l-.02.06v.1l-.02.12-.02.12M463.47,401.03v.26M463.19,401.09v.2M321.35,401.09v.06M321.07,401.03v.12M463.47,401.29v.04M463.19,401.29v.04M463.47,401.29h-.28M463.47,401.33v4.1M463.19,401.33v4.1M463.47,405.43h-.28M463.47,401.33h-.28M321.35,401.15v4.28M321.07,401.15v4.28M321.07,405.43h.28M321.35,401.15h0M321.07,401.15h0M321.07,401.15h.28M321.07,401.15h.28M463.11,405.73v-4.64M321.45,405.73v-4.64M463.11,405.73h-141.66M321.35,365.89v.92M321.07,365.89v.92M321.07,365.89h.28M463.47,365.89v.92M463.47,365.89h-.28M463.19,365.89v.92M463.11,366.43v-.92M321.45,366.43v-.92M463.11,365.51h-141.66M321.35,366.81h.06l.02.02h.02M321.35,366.81h-.28M321.07,366.81h0l.02.02h.04l.04.02h.28M321.07,366.81v34.22M321.45,401.09h-.16l-.06-.02h-.1l-.04-.02h-.02v-.02M463.19,366.81h.28M463.11,366.83h.02v-.02h.06M463.47,401.03v.02h-.02l-.04.02h-.1l-.06.02h-.14M463.47,366.81v34.22M463.11,366.85h.26l.04-.02h.04l.02-.02M321.45,401.09v-34.24M463.11,401.09h-141.66M463.11,401.09v-34.24M321.45,366.85v-.42M463.11,366.85h-141.66M463.11,366.85v-.42M463.11,366.43h-141.66M456.63,354.21h-.3M456.27,353.91h-.96M457.13,353.91h-.22M327.91,354.21h.3M328.27,353.91h.96M327.41,353.91h.22M329.23,355.59v-1.28M329.23,355.59l.02.18.04.16.1.16.1.14.14.1.16.08.18.06.16.02M454.41,356.49h-124.28M454.41,356.49l.18-.02.16-.06.16-.08.14-.1.12-.14.08-.16.04-.16.02-.18M455.31,354.31v1.28M329.23,353.91h126.08M329.23,354.31v-.4M455.31,354.31h-126.08M455.31,353.91v.4M455.83,353.83h.06M455.83,352.03v1.8M455.83,194.24v155.5M458.31,197.38v-1.02M458.31,346.79v-.08M458.31,352.35v-.38M457.05,353.83h.22M455.89,353.83h.6M328.61,349.75v-155.48M328.61,353.91v-1.88M328.61,354.43v-.12M455.69,354.47v-.12M456.19,354.25v.12M458.37,351.65v.52M458.37,346.71v.08M458.37,196.54v.84M330.31,349.75v-155.54M330.31,353.91v-1.88M328.71,354.33v.12M328.71,352.03v1.88M328.71,194.24v155.5M454.01,353.83h0M454.13,353.83h-.12M455.83,353.83h-.08M455.75,353.83h-.04M454.13,352.03v1.8M454.13,194.2v155.54M455.71,353.83h-1.58M455.71,349.75v-155.5M455.71,353.83v-1.8M394.35,353.57v-.4M390.07,353.17v.4M394.35,353.71v-.14M390.07,353.71v-.14M390.07,353.57h4.28M390.07,353.71h4.28M449.25,353.57v-.38M444.97,353.19v.38M449.25,353.71v-.14M444.97,353.71v-.14M444.97,353.57h4.28M444.97,353.71h4.28M339.47,353.57v-.4M335.19,353.17v.4M339.47,353.71v-.14M335.19,353.71v-.14M335.19,353.57h4.28M335.19,353.71h4.28M449.27,346.03v-.44M449.27,347.67v-1.64M444.97,347.67v-1.64M446.03,347.67h.22M444.97,347.67h.98M448.21,347.67h1.06M449.27,353.19v-.96M444.97,353.19v-.96M447.11,352.37h-.08l-.02-.02v-.06l.02-.02.04-.02h.04M444.97,353.19h4.3M449.27,349.93v-.92M444.97,349.93v-.92M447.07,349.01h-2.1M449.27,349.01h-1.86M449.27,352.23v-2.3M444.97,352.23v-2.3M448.37,348.17l-.02-.08v-.04M449.27,348.99v-1.32M449.27,347.67h-1.06M448.21,347.67l.1.16.04.16.02.18-.04.16-.08.16-.1.14-.14.14-.18.1-.2.08-.2.04M449.27,348.99v.02M447.43,348.99h1.84M447.43,348.99v.02M446.13,347.99l-.02.1v.04M444.97,347.67v1.32M446.13,347.91l.02-.08.1-.16M447.03,348.99l-.22-.04-.18-.08-.18-.1-.14-.14-.1-.14-.08-.16-.04-.16.02-.18M445.95,347.67h-.98M446.25,347.67h-.22M447.03,349.01v-.02M444.97,348.99h2.06M444.97,348.99v.02M395.11,347.11v-.68M340.23,347.11v-.68M394.37,345.39v-.14M390.07,345.25v.14M391.09,345.25h-1.02M394.37,345.25h-1.04M394.37,345.93v.1M390.07,345.93v.1M390.07,346.03h4.3M394.37,345.93v-.54M390.07,345.39v.54M390.07,345.93h4.3M390.07,345.39h4.3M449.27,345.39v-.14M444.95,345.25v.14M445.99,345.25h-1.04M449.27,345.25h-1.04M449.27,345.93v.1M444.95,345.93v.1M447.47,346.03h1.8M444.95,346.03h2.16M449.27,345.93v-.54M444.95,345.39v.54M447.31,345.93h1.96M444.95,345.93h2.22M444.95,345.39h4.32M339.49,345.39v-.14M335.17,345.25v.14M336.21,345.25h-1.04M339.49,345.25h-1.04M339.49,345.93v.1M335.17,345.93v.1M335.17,346.03h4.32M339.49,345.93v-.54M335.17,345.39v.54M335.17,345.93h4.32M335.17,345.39h4.32M337.51,344.23h-.32M337.33,344.15l.28.02h.36l.08.02h.04l-.04.02h-.18l-.12.02h-.84l-.12-.02h-.18l-.06-.02h.06l.08-.02h.36l.28-.02M336.19,345.33h.02l.04.02h.22l.16.02h1.4l.16-.02h.2l.06-.02M392.39,344.23h-.3M392.21,344.15l.28.02h.36l.08.02h.06l-.06.02h-.18l-.12.02h-.84l-.12-.02h-.16l-.06-.02h.06l.06-.02h.36l.28-.02M391.09,345.33h0l.06.02h.2l.16.02h1.4l.16-.02h.22l.04-.02h.02M447.29,344.23h-.32M447.11,344.15l.28.02h.36l.08.02h.04l-.04.02h-.18l-.12.02h-.84l-.12-.02h-.18l-.06-.02h.06l.08-.02h.36l.28-.02M445.97,345.33h.02l.04.02h.22l.16.02h1.4l.16-.02h.2l.06-.02M446.11,348.27v-.04l-.02-.18M448.37,348.07v.04M446.13,347.91v-.02l.04-.08M446.09,348.05l.02-.08M447.29,353.07h-.12M447.11,353.01h0M447.17,353.07h-.02l-.02-.02v-.02l-.02-.02M447.17,353.07h0M447.35,353.01v.02l-.02.02v.02h-.04M447.29,353.07h0M447.11,350.11v.66M447.11,350.77v.2M447.11,350.77h.24M447.11,350.97v.18M447.11,350.97h.24M447.11,351.15v.24M447.11,351.15h.24M447.11,351.39v.2M447.11,351.39h.24M447.11,351.59v.14M447.11,351.59h.24M447.11,351.73v.18M447.11,351.73h.24M447.11,351.91v.28M447.11,351.91h.24M447.35,350.77v-.66M447.35,350.97v-.2M447.35,351.15v-.18M447.35,351.39v-.24M447.35,351.59v-.2M447.35,351.73v-.14M447.35,351.91v-.18M447.35,352.19v-.28M447.35,353.01h0M447.35,350.35v2.66M447.17,353.07h-.02v-.02h-.02v-.04h-.02M447.29,353.07h-.12M447.29,353.07h.02l.02-.02.02-.02v-.02M447.35,353.01v-.82M447.11,352.19h.24M447.11,352.19v.82M447.41,348.35v-.06.2M447.41,348.49h0v-.1M447.11,350.11h.24M447.07,348.05h0v2.24M447.35,350.11v.24M447.41,350.29v-2.24M447.41,346.61v-.08.22-.04M447.41,346.71v-.04M447.13,345.99h0l-.02.04-.02.1v.12l-.02.16M447.07,346.41l-.02.16-.02.2v.22l-.02.24v.22l-.02.22v.5l.02.04M447.47,346.69v.3l-.02.24-.02.22v.2l-.02.16M447.47,346.01h0l.02.04v.52l-.02.06M447.41,347.81l-.02.16v.04M339.49,348.89v.06M339.49,346.01v-.42M339.49,348.89v-.86M339.49,347.97v.06M339.49,348.03h0M339.49,347.97v-.22M339.49,347.65v-1.64M335.19,347.65v-1.62M339.49,347.75v-.1M335.19,347.65v.02M335.19,347.65h4.3M339.49,353.17v-.98M335.19,353.17v-.98M337.45,352.27v.02l-.04.04h-.16l-.02-.04v-.04l.02-.02.04-.02h.1l.02.02.04.02v.02M335.19,353.17h4.3M339.49,349.89v-.92M335.19,349.89v-.92M339.49,348.97h-4.3M339.49,352.19v-2.3M335.19,352.19v-2.3M335.19,349.89h4.3M335.19,352.19h4.3M394.39,348.89v.06M394.39,346.01v-.42M394.39,348.89v-.86M394.39,347.97v.06M394.39,348.03h-.02M394.39,347.97v-.22M394.39,347.65v-1.64M390.07,347.65v-1.62M394.39,347.75v-.1M390.07,347.65v.02M390.07,347.65h4.32M394.39,353.17v-.98M390.07,353.17v-.98M392.35,352.27l-.02.02-.02.04h-.16l-.02-.04-.02-.02.02-.02.02-.02.04-.02h.08l.04.02.02.02.02.02M390.07,353.17h4.32M394.39,349.89v-.92M390.07,349.89v-.92M394.39,348.97h-4.32M394.39,352.19v-2.3M390.07,352.19v-2.3M390.07,349.89h4.32M390.07,352.19h4.32M337.07,348.27v-.02M337.65,348.29v-.04M337.83,348.11v-.04M336.29,348.29v-.04M336.23,348.29v-.04M336.15,348.29v-.04M336.25,348.17h.02M336.15,348.17h.1M336.15,348.25v-.08M336.23,348.25h-.08M336.29,348.25h-.06M336.27,348.17h.02l.02.02v.04l-.02.02M336.35,348.09v.02M336.35,348.37v-.04M337.07,348.45v-.04M338.41,348.17l-.04.02h-.02l-.02.02-.02.02v.02h-.02v.1l.02.02v.02h.02v.02l.04.02h.08l.04-.02v-.02h.02v-.04l.02-.02v-.04l-.02-.02v-.04h-.02v-.02l-.02-.02h-.04l-.02-.02M337.65,348.11h-.18M338.03,348.11h-.2M337.83,348.11l-.18.18M337.37,348.11h-.46M337.39,348.45h-.32M337.35,348.27h-.28M336.31,348.25h0v.02l-.02.02M336.29,348.29h-.06M336.23,348.29h-.08M336.43,348.41v-.02h-.02l-.02-.02h-.04M336.49,348.23v-.04l-.04-.04-.04-.02-.06-.02M336.35,348.11h-.36M336.77,348.11h-.18M338.53,348.35h0v.02h-.02v.04h-.02v.02l-.02.02-.04.02h-.06l-.02-.02-.04-.02v-.02l-.02-.02v-.04M337.87,348.25v.04M338.05,348.51l-.18-.22M336.43,348.41v-.04M336.51,348.53l-.08-.12M338.11,348.33l.02-.08.04-.06.08-.06.1-.02h.06M338.41,348.11h.08l.1.04.06.06.04.06v.06M335.17,348.97v.42M335.17,349.39h.02M338.41,348.07h.08l.1.04.06.06.04.06v.08l-.02.08-.06.06-.08.06-.08.02h-.1l-.1-.04-.06-.04-.06-.08-.02-.06.02-.08.04-.08.08-.04.1-.04h.06M337.07,348.17v.08M337.07,348.25h.28M337.35,348.25v.08M337.35,348.33h-.28M337.07,348.33v.08M337.07,348.41h.32M337.39,348.41v.12M337.39,348.53h-.48M336.91,348.53v-.44M336.91,348.09h.46M337.37,348.09v.08M337.37,348.17h-.3M335.99,348.53v-.44M335.99,348.09h.36M336.35,348.09h.06l.04.04.04.04v.08l-.04.04-.04.02-.06.02M336.35,348.33h.04v.02h.04v.02M336.43,348.37l.1.16M336.53,348.53h-.18M336.35,348.53l-.12-.16M336.23,348.37v-.02h-.04M336.19,348.35h-.04M336.15,348.35v.18M336.15,348.53h-.16M337.83,348.07h.24M338.07,348.07l-.2.18M337.87,348.25l.2.26M338.07,348.51h-.2M337.87,348.51l-.12-.18M337.75,348.33l-.1.08M337.65,348.41v.1M337.65,348.51h-.18M337.47,348.51v-.44M337.47,348.07h.18M337.65,348.07v.18M337.65,348.25l.18-.18M336.77,348.09v.44M336.77,348.53h-.18M336.59,348.53v-.44M336.59,348.09h.18M339.49,347.67h-4.32M335.17,348.97v-1.3M339.49,348.97h-4.32M339.49,348.97v-1.3M391.97,348.27v-.02M392.55,348.29v-.04M392.73,348.11v-.04M391.17,348.29v-.04M391.13,348.29v-.04M391.05,348.29v-.04M391.13,348.17h.04M391.05,348.17h.08M391.05,348.25v-.08M391.13,348.25h-.08M391.17,348.25h-.04M391.17,348.17h.02v.02h.02v.04h-.02v.02h-.02M391.25,348.09v.02M391.25,348.37v-.04M391.97,348.45v-.04M393.29,348.17l-.02.02h-.04l-.02.02v.02h-.02v.04l-.02.02v.02l.02.02v.04h.02v.02l.02.02.02.02h.1l.02-.02v-.02h.02v-.02h.02v-.12h-.02v-.02l-.02-.02-.02-.02h-.02l-.04-.02M392.55,348.11h-.18M392.91,348.11h-.18M392.73,348.11l-.18.18M392.25,348.11h-.46M392.27,348.45h-.3M392.23,348.27h-.26M391.21,348.25h0l-.02.02v.02h-.02M391.17,348.29h-.04M391.13,348.29h-.08M391.33,348.41l-.02-.02h-.02v-.02h-.04M391.39,348.23l-.02-.04-.02-.04-.04-.02-.06-.02M391.25,348.11h-.38M391.67,348.11h-.18M393.41,348.35h0v.04l-.02.02v.02l-.04.02-.02.02h-.06l-.04-.02-.02-.02-.02-.02v-.04l-.02-.02M392.75,348.25v.04M392.93,348.51l-.18-.22M391.33,348.41v-.04M391.41,348.53l-.08-.12M393.01,348.33v-.08l.06-.06.08-.06.08-.02h.06M393.29,348.11h.1l.08.04.08.06.04.06v.06M390.07,348.97v.42M390.07,349.39h0M394.37,348.97v-1.3M393.29,348.07h.1l.08.04.08.06.04.06v.08l-.02.08-.06.06-.08.06-.1.02h-.1l-.08-.04-.08-.04-.04-.08-.02-.06v-.08l.06-.08.08-.04.08-.04h.06M391.97,348.17v.08M391.97,348.25h.26M392.23,348.25v.08M392.23,348.33h-.26M391.97,348.33v.08M391.97,348.41h.3M392.27,348.41v.12M392.27,348.53h-.48M391.79,348.53v-.44M391.79,348.09h.46M392.25,348.09v.08M392.25,348.17h-.28M390.87,348.53v-.44M390.87,348.09h.38M391.25,348.09h.06l.04.04.02.04.02.04-.02.04-.02.04-.04.02-.06.02M391.25,348.33h.02l.02.02h.02l.02.02M391.33,348.37l.1.16M391.43,348.53h-.2M391.23,348.53l-.12-.16M391.11,348.37v-.02h-.04M391.07,348.35h-.02M391.05,348.35v.18M391.05,348.53h-.18M392.73,348.07h.24M392.97,348.07l-.22.18M392.75,348.25l.22.26M392.97,348.51h-.22M392.75,348.51l-.12-.18M392.63,348.33l-.08.08M392.55,348.41v.1M392.55,348.51h-.18M392.37,348.51v-.44M392.37,348.07h.18M392.55,348.07v.18M392.55,348.25l.18-.18M391.67,348.09v.44M391.67,348.53h-.18M391.49,348.53v-.44M391.49,348.09h.18M394.37,347.67h-4.3M390.07,348.97v-1.3M394.37,348.97h-4.3M457.13,352.03v-2.28M327.31,352.03v-2.28M327.31,349.75v1.62M327.31,351.37v.66M326.85,349.99h0v1.28M457.13,352.03v-.84M457.13,351.19v-1.44M457.59,351.79h0v-.66M457.59,351.13v-1.14M454.91,353.85v-.02M454.01,353.77h-123.58M454.91,353.91v-.06M456.83,344.85h-.04v-.02l-.02.02h-.02M456.63,345.03v-.08h.02M456.95,344.97h0v.06h-.02v.02M456.83,345.15h-.08M456.77,344.71h.08M456.71,344.95h0l.02-.02.02-.02M456.83,344.91l.02.02v.02h.04M456.49,345.01h0v-.04h.02v-.02M456.75,344.85l.02-.1v-.04M456.77,344.69h0v.02M456.75,344.91h0M456.75,344.91v-.06M456.85,344.71h0v-.02M456.85,344.71l-.02.14M456.83,344.85v.06M456.83,344.91h.02M457.07,344.97h0v.08M456.49,344.95h.02M456.51,344.95h.14M456.65,344.95h.06M456.71,344.95v-.02M456.75,345.09l-.02-.02v-.02l-.02-.02h-.02M456.87,345.05h-.02v.02h-.02v.02M456.95,344.97h.12M457.09,344.97h-.02M456.89,344.95h0M456.89,344.95l.06.02M456.63,345.03h-.08l-.06-.02M456.49,345.01h0M456.69,345.03h0M456.69,345.03h-.06M457.09,345.05h-.02M457.07,345.05h-.14M456.93,345.05h-.06M456.87,345.05h0M456.81,345.29h-.06l-.02-.02M456.73,345.29h0v-.02M456.73,345.27l.02-.12M456.75,345.15v-.06M456.75,345.09h-.02M456.83,345.15l-.02.1v.04M456.81,345.29h0M456.83,345.09h0M456.83,345.09v.06M457.31,344.99v.02l-.02.16-.08.12-.1.12-.12.08-.16.02h-.14l-.14-.04-.12-.1-.1-.12-.06-.14v-.12M456.75,344.91l.02-.22M456.77,344.69h.08M456.85,344.69v.22M456.89,344.95h-.02v-.02h-.02v-.02M456.89,344.95l.2.02M457.09,344.97v.08M457.09,345.05h-.22M456.83,345.09v-.02h.02v-.02h.02M456.83,345.09l-.02.2M456.81,345.29h-.08M456.73,345.29v-.2M456.69,345.03l.02.02h.02v.04M456.69,345.03l-.2-.02M456.49,345.01v-.06M456.49,344.95l.22-.02M456.75,344.91h-.02v.02h-.02M457.31,345.01l-.02.16-.08.12-.1.12-.12.08-.16.02h-.14l-.14-.04-.12-.1-.1-.12-.06-.14v-.14l.02-.14.06-.14.12-.12.12-.06.14-.04h.16l.14.06.12.08.1.12.06.14v.14M327.69,344.85h-.08M327.49,345.03v-.08M327.79,344.97h0v.08M327.67,345.15h-.08M327.61,344.71h.08M327.55,344.95h.02l.02-.02v-.02h.02M327.69,344.91v.02l.02.02h.02M327.35,345.01h0v-.06M327.61,344.85v-.14M327.63,344.69h-.02v.02M327.59,344.91h.02M327.61,344.91v-.06M327.69,344.71h0v-.02M327.69,344.71v.14M327.69,344.85v.06M327.69,344.91h0M327.93,344.97h0v.08M327.35,344.95h0M327.35,344.95h.14M327.49,344.95h.06M327.55,344.95v-.02M327.59,345.09v-.04h-.02l-.02-.02M327.73,345.05h-.02l-.02.02v.02M327.79,344.97h.14M327.95,344.97h-.02M327.73,344.95h0M327.73,344.95l.06.02M327.49,345.03h-.1l-.04-.02M327.33,345.01h.02M327.55,345.03h0M327.55,345.03h-.06M327.95,345.05h-.02M327.93,345.05h-.14M327.79,345.05h-.06M327.73,345.05h0M327.67,345.29h-.06l-.02-.02M327.59,345.29h0v-.02M327.59,345.27v-.12M327.59,345.15v-.06M327.59,345.09h0M327.67,345.15v.14M327.67,345.29h0M327.69,345.09h0M327.69,345.09l-.02.06M328.17,344.99v.02l-.02.16-.08.12-.1.12-.14.08-.14.02h-.14l-.14-.04-.14-.1-.08-.12-.06-.14-.02-.12M327.59,344.91l.04-.22M327.63,344.69h.06M327.69,344.69v.22M327.73,344.95h0l-.02-.02-.02-.02M327.73,344.95l.22.02M327.95,344.97v.08M327.95,345.05h-.22M327.69,345.09v-.02l.02-.02h.02M327.69,345.09l-.02.2M327.67,345.29h-.08M327.59,345.29v-.2M327.55,345.03v.02h.04v.04M327.55,345.03l-.22-.02M327.33,345.01l.02-.06M327.35,344.95l.2-.02M327.59,344.91h0v.02h-.04M328.17,345.01l-.02.16-.08.12-.1.12-.14.08-.14.02h-.14l-.14-.04-.14-.1-.08-.12-.06-.14-.02-.14.04-.14.06-.14.1-.12.14-.06.14-.04h.16l.14.06.12.08.08.12.06.14.02.14M456.83,352.11h0l-.02-.02h-.04l-.02.02M456.63,352.29v-.08h.02M456.95,352.21v.06l-.02.02M456.83,352.41h-.08v-.02M456.71,352.21h0l.02-.02.02-.02v-.02M456.83,352.17h.02v.04h.04M456.49,352.27h0v-.04l.02-.02v-.02M456.75,352.11l.02-.08M456.75,352.15h0M456.75,352.15v-.04M456.83,352.03v.08M456.83,352.11v.06M456.83,352.17h.02M457.07,352.23h0v.08M456.49,352.19h.02M456.51,352.19l.14.02M456.65,352.21h.06M456.71,352.21v-.02M456.75,352.33h-.02v-.02l-.02-.02h-.02M456.87,352.31h-.02l-.02.02v.02M456.95,352.21l.08.02h.04M457.09,352.23h-.02M456.89,352.21h0M456.89,352.21h.06M456.63,352.29l-.08-.02h-.06M456.49,352.27h0M456.69,352.29h0M456.69,352.29h-.06M457.09,352.31h-.02M457.07,352.31l-.14-.02M456.93,352.29l-.06.02M456.87,352.31h0M456.81,352.53h0l-.02.02-.02-.02h-.04M456.73,352.55h0v-.02M456.73,352.53l.02-.14M456.75,352.39v-.06M456.75,352.33h-.02M456.83,352.41l-.02.08v.04M456.81,352.55h0v-.02M456.83,352.35h0M456.83,352.35v.06M457.31,352.25v.02l-.02.16-.08.12-.1.12-.12.06-.16.04h-.14l-.14-.06-.12-.08-.1-.12-.06-.14v-.12M456.75,352.15v-.12M456.85,352.03v.14M456.89,352.21h-.02v-.02h-.02v-.02M456.89,352.21l.2.02M457.09,352.23v.08M457.09,352.31h-.22M456.83,352.35v-.02h.02v-.02h.02M456.83,352.35l-.02.2M456.81,352.55h-.08M456.73,352.55v-.22M456.69,352.29h.02v.02h.02v.02M456.69,352.29l-.2-.02M456.49,352.27v-.08M456.49,352.19h.22M456.75,352.15v.02h-.02v.02h-.02M457.27,352.03l.04.1v.14M457.31,352.27l-.02.16-.08.12-.1.12-.12.06-.16.04h-.14l-.14-.06-.12-.08-.1-.12-.06-.14v-.14l.02-.16.02-.04M327.69,352.11h0l-.02-.02h-.06v.02M327.49,352.29v-.08M327.79,352.21v.1M327.67,352.41h-.06l-.02-.02M327.55,352.21h.02l.02-.02v-.02h.02M327.69,352.17h0v.02l.02.02h.02M327.35,352.27h0v-.08M327.61,352.11v-.08M327.59,352.15l.02.02M327.61,352.17v-.06M327.69,352.03v.08M327.69,352.11v.06M327.69,352.17h0M327.93,352.23h0v.08M327.35,352.19h0M327.35,352.19l.14.02M327.49,352.21h.06M327.55,352.21v-.02M327.59,352.33h0v-.02h-.02v-.02h-.02M327.73,352.31h-.04v.04M327.79,352.21l.1.02h.04M327.95,352.23h-.02M327.73,352.21h0M327.73,352.21h.06M327.49,352.29l-.1-.02h-.04M327.33,352.27h.02M327.55,352.29h0M327.55,352.29h-.06M327.95,352.31h-.02M327.93,352.31h-.14M327.79,352.31h-.06M327.73,352.31h0M327.67,352.53l-.02.02h-.02l-.02-.02h-.02M327.59,352.55h0v-.02M327.59,352.53v-.14M327.59,352.39v-.06M327.59,352.33h0M327.67,352.41v.12M327.67,352.55h0v-.02M327.69,352.35h0M327.69,352.35l-.02.06M328.17,352.25v.02l-.02.16-.08.12-.1.12-.14.08-.14.02h-.14l-.14-.06-.14-.08-.08-.12-.06-.14-.02-.12M327.59,352.15l.02-.12M327.69,352.03v.14M327.73,352.21h0v-.02h-.02v-.02h-.02M327.73,352.21l.22.02M327.95,352.23v.08M327.95,352.31h-.22M327.69,352.35v-.02l.02-.02h.02M327.69,352.35l-.02.2M327.67,352.55h-.08M327.59,352.55v-.22M327.55,352.29h0l.02.02h.02v.02M327.55,352.29l-.22-.02M327.33,352.27l.02-.08M327.35,352.19h.2M327.59,352.15v.04h-.04M328.13,352.03l.02.1.02.14M328.17,352.27l-.02.16-.08.12-.1.12-.14.06-.14.04h-.14l-.14-.06-.14-.08-.08-.12-.06-.14-.02-.14.04-.16.02-.04M328.55,353.19h0M328.55,353.19v.04l-.02.04-.02.04-.02.04-.04.02-.04.02-.04.02h-.04M326.73,353.19h0M326.97,353.41h-.06l-.04-.02-.04-.02-.02-.02-.04-.04-.02-.04v-.04l-.02-.04M328.33,353.41h0M326.97,353.41h0M327.01,353.41h-.04M328.33,353.41h-.92M328.33,343.83h.04l.04.02.04.02.04.02.04.08.02.08M326.73,344.05l.02-.08.06-.08.02-.02.04-.02.06-.02h.04M328.33,343.95v-.12M326.97,343.83h1.36M326.97,343.83h0v.12M327.07,344.99l.02-.12.04-.14.1-.12.12-.1.14-.06.16-.02M327.65,344.43l.14.02.14.06.12.1.1.12.04.14.02.12M328.55,344.05v2.18M328.55,344.05l-.02-.04-.04-.04h-.04l-.04-.02h-.08M327.65,344.43l.14.02.14.06.12.1.1.12.04.14.02.16-.04.16-.06.12-.1.12-.14.08-.16.04h-.14l-.16-.04-.12-.08-.12-.12-.06-.12-.04-.16.02-.16.04-.14.1-.12.12-.1.14-.06.16-.02M328.33,343.95v2.28M326.97,343.95h1.36M326.73,344.05v2.18M326.97,346.23v-2.28M326.97,343.95h-.1l-.04.02h-.02l-.06.04-.02.04M327.07,352.25l.02-.12.04-.1M328.17,352.03l.02.1.02.12M328.55,353.19l-.02.08-.04.08-.04.02-.04.02-.04.02h-.04M328.55,352.03v1.16M328.33,353.29h.12l.04-.02.04-.04.02-.04M326.97,353.41h-.04l-.06-.02-.04-.02-.02-.02-.06-.08-.02-.08M326.73,353.09v.1M326.73,351.21v1.34M326.73,353.19l.02.04.06.04.02.02h.08M328.17,352.03l.02.1.02.16-.04.14-.06.14-.1.12-.14.08-.16.04h-.14l-.16-.04-.12-.08-.12-.12-.06-.14-.04-.14.02-.16.04-.1M328.33,353.41h0v-.12M326.97,346.23h1.36M326.73,346.23v.4M326.97,346.51v-.28M326.97,346.23h-.24M328.55,346.23v.4M328.55,346.23h-.22M328.33,346.23v.28M326.73,350.41v.8M326.73,350.37v.04M328.33,346.51h-1.36M326.97,346.51h-.1l-.04.02-.02.02-.04.02-.02.02v.02l-.02.02M326.73,346.63v3.48M328.55,346.63v3.12M328.55,346.63v-.02l-.02-.02-.02-.02-.02-.02-.04-.02-.04-.02h-.08M326.73,350.11v.26M457.69,353.25l-.02.02-.02.04-.02.04-.04.02-.04.02v.02M455.89,353.19h0M456.11,353.41h-.04l-.04-.02-.04-.02-.04-.02-.02-.04-.04-.04v-.08M456.11,353.41h0M457.13,353.41h-1.02M457.47,343.83h.04l.04.02.04.02.04.02.06.08v.08M455.89,344.05v-.08l.06-.08.04-.02.04-.02.04-.02h.04M457.47,343.95v-.12M456.11,343.83h1.36M456.11,343.83h0v.12M456.23,344.99v-.12l.06-.14.08-.12.12-.1.14-.06.16-.02M456.79,344.43l.16.02.14.06.12.1.08.12.06.14v.12M457.69,344.05v2.18M457.69,344.05v-.04l-.06-.04h-.04l-.04-.02h-.08M456.79,344.43l.16.02.14.06.12.1.08.12.06.14v.16l-.02.16-.08.12-.1.12-.14.08-.14.04h-.16l-.14-.04-.14-.08-.1-.12-.08-.12-.02-.16v-.16l.06-.14.08-.12.12-.1.14-.06.16-.02M457.47,343.95v2.28M456.11,343.95h1.36M455.89,344.05v2.18M456.11,346.23v-2.28M456.11,343.95h-.08l-.04.02h-.04l-.06.04v.04M456.23,352.25v-.12l.04-.1M457.31,352.03l.04.1v.12M457.69,351.21v1.54M456.11,353.41h-.04l-.04-.02-.04-.02-.04-.02-.06-.08v-.08M455.89,352.03v1.16M455.89,353.19v.04l.06.04.04.02h.12M457.31,352.03l.04.1v.16l-.02.14-.08.14-.1.12-.14.08-.14.04h-.16l-.14-.04-.14-.08-.1-.12-.08-.14-.02-.14v-.16l.04-.1M456.11,353.29v.12M456.11,346.23h1.36M455.89,346.23v.4M456.11,346.51v-.28M456.11,346.23h-.22M457.69,346.23v.4M457.69,346.23h-.22M457.47,346.23v.28M457.69,350.41v.8M457.69,350.37v.04M457.47,346.51h-1.36M456.11,346.51h-.08l-.04.02-.04.02-.02.02-.04.02v.04M455.89,346.63v3.12M457.69,346.63v3.48M457.69,346.63v-.02l-.02-.02-.02-.02-.02-.02-.04-.02-.04-.02h-.08M457.69,350.11v.26M330.43,272.73h123.58M330.43,305.11h123.58M330.43,260.59h123.58M330.43,268.69h123.58M330.43,232.25h123.58M330.43,248.45h123.58M449.27,345.61h4.74M394.39,345.61h50.56M339.49,345.61h50.58M330.43,345.61h4.74M330.43,224.17h123.58M330.43,220.1h123.58M330.43,240.35h123.58M330.43,333.45h123.58M330.43,276.79h123.58M330.43,325.35h123.58M330.43,280.83h123.58M330.43,337.51h123.58M330.43,236.31h123.58M330.43,341.55h123.58M330.43,288.93h123.58M330.43,216.06h123.58M330.43,313.21h123.58M330.43,264.65h123.58M330.43,207.96h123.58M330.43,297.03h123.58M330.43,301.07h123.58M330.43,292.97h123.58M330.43,329.41h123.58M330.43,284.89h123.58M330.43,203.92h123.58M330.43,199.86h123.58M330.43,212h123.58M330.43,321.31h123.58M330.43,256.55h123.58M330.43,317.27h123.58M330.43,252.49h123.58M330.43,309.17h123.58M330.43,244.41h123.58M330.43,195.82h123.58M330.43,228.21h123.58M320.95,363.33h-.46M320.49,363.11h.46M320.95,347.23h-.46M320.49,209.34h.46M320.95,209.56h-.46M320.49,125.52h.44M320.95,159.98v-.96M320.49,159.96v-.98M320.95,209.2h-.46M320.49,208.86h.46M320.95,175.92h-.46M320.49,174.54h.46M320.95,363.67v-.22M320.73,364.09h0l.08-.06.06-.08.04-.08.04-.1v-.1M116.37,364.19h-.08M116.29,363.73h.08M116.29,364.19v-.46M116.37,364.19h5.84M118.83,363.73h2.06M116.37,363.73h.74M116.37,363.73v.46M122.71,364.19h.96M123.67,364.19v-.46M122.71,364.19h-.5M232.51,364.19h-.56M232.51,363.73v.46M216.35,363.73h1.2M123.67,364.19h108.28M231.95,364.19v-.46M123.67,363.73v.46M320.73,363.67v-.34M320.73,363.73h0v-.06M320.15,363.73h.58M320.73,364.19h-.58M320.73,363.73v.46M320.13,363.73h.02M319.91,364.19h.24M320.15,364.19v-.46M305.07,364.19v-.46M305.65,363.73v.46M320.13,363.27l.04.02.02.04.02.02v.02M320.21,159.96h-.08M217.47,363.37v-.02l.02-.04.04-.02.02-.02M217.55,159.96h-.08M217.55,159.62h102.58M217.55,159.62h0v.22M320.13,159.84v-.22M298.89,363.41l.2.18.1.06.04.06.04.02M299.27,363.73h20.86M320.13,363.73h0v-.32M238.41,363.73h.02l.02-.04.06-.04.12-.12.16-.12M217.55,363.41v.32M217.55,363.73h20.86M217.19,159.96v14.6M217.47,159.96v14.6M217.19,159.96h.28M320.49,174.56v-14.6M320.21,174.56v-14.6M320.49,159.96h-.28M217.55,159.84h102.58M217.55,159.84v14.6M320.13,174.44v-14.6M217.19,176.52v.12M217.47,176.52v.12M320.49,176.64v-.12M320.21,176.64v-.12M217.19,346.71v.12M217.47,346.71v.12M320.49,346.83v-.12M320.21,346.83v-.12M217.19,347.43v15.94M217.47,347.43v15.94M217.19,363.37h.28M320.49,363.37v-15.94M320.21,363.37v-15.94M320.49,363.37h-.28M217.19,174.56v1.96M217.47,174.56v1.96M217.19,174.56h.28M217.19,176.52h.28M217.19,346.83h.28M217.47,346.83v.6M217.19,346.83v.6M217.19,347.43h.28M320.49,176.52v-1.96M320.21,176.52v-1.96M320.49,176.52h-.28M320.49,174.56h-.28M320.21,347.43v-.6M320.49,347.43h-.28M320.49,347.43v-.6M320.49,346.83h-.28M217.55,347.47v15.94M217.55,363.41h21.24M238.79,363.41l1.06-.86,1.08-.84,1.1-.8,1.12-.78,1.14-.72,1.16-.72,1.2-.66,1.2-.64,1.22-.58,1.24-.56,1.26-.54,1.26-.48,1.3-.46,1.3-.4,1.3-.38,1.32-.34,1.32-.28,1.34-.26,1.34-.22,1.36-.18,1.36-.14,1.34-.1,1.36-.06,1.38-.02,1.36.02,1.36.06,1.34.1,1.36.14,1.36.18,1.34.22,1.34.26,1.32.28,1.32.34,1.32.38,1.28.4,1.3.46,1.26.48,1.26.54,1.24.56,1.22.58,1.2.64,1.2.66,1.16.72,1.14.72,1.14.78,1.1.8,1.06.84,1.06.86M298.89,363.41h21.24M320.13,363.41v-15.94M217.55,174.44h102.58M217.55,174.44v2.2M320.13,176.64v-2.2M217.19,176.64h.36M217.19,346.71v-170.06M217.55,346.71h-.36M320.49,346.71h-.36M320.49,176.64v170.06M320.13,176.64h.36M217.55,176.64h102.58M217.55,176.64v170.06M320.13,346.71v-170.06M217.55,346.71h102.58M217.55,346.71v.76M217.55,347.47h102.58M320.13,347.47v-.76M238.77,363.67l-.12-.14M298.91,363.67l-1.04-.88-1.08-.84-1.1-.8-1.12-.78-1.14-.74-1.16-.7-1.2-.68-1.2-.64-1.22-.6-1.24-.56-1.26-.54-1.28-.48-1.28-.46-1.3-.42-1.32-.38-1.32-.32-1.32-.3-1.34-.26-1.36-.22-1.34-.18-1.36-.16-1.36-.1-1.36-.06-1.36-.02-1.38.02-1.36.06-1.36.1-1.36.16-1.34.18-1.36.22-1.34.26-1.32.3-1.32.32-1.32.38-1.3.42-1.28.46-1.28.48-1.26.54-1.24.56-1.22.6-1.2.64-1.18.68-1.18.7-1.14.74-1.12.78-1.1.8-1.08.84-1.04.88M298.91,363.67l.12-.14M217.55,159.62v-.22M217.89,159.4v.22M319.79,159.62v-.22M320.13,159.4v.22M217.19,363.33h-.46M217.19,159.9v.06M217.19,159.9h-.46M216.73,363.11h.46M217.19,347.23h-.46M217.19,175.22h-.46M110.69,159.62h0M110.75,159.36v.04M106.93,159.64l-.02.02-.1.06-.1.08-.04.12M106.67,159.92l-3.62,14.54M106.71,159.92h-.04M103.05,174.46l-.2,1.08-.08,1.1M102.77,346.71l.06.4.16.38M112.27,363.51h-.04M102.99,347.49l9.24,16.02M112.55,363.71h-.04M112.51,363.71h0M102.77,346.71h.06M102.83,176.64h-.06M102.77,346.71v-170.06M110.79,159.4v-.04M110.73,159.62h-.02M216.35,363.35l.04.04.04.02.02.02v.02M216.45,159.9h-.1M112.89,159.62h-.06M112.85,159.9h-.02M112.83,159.62h-5.78M106.71,159.92l.06-.12.06-.1.1-.06.12-.02M112.83,159.9l-.02.02h-.02l-.02.04v.02M112.83,159.9v-.28M112.83,159.62l-.12.02-.08.06-.06.1-.04.12M216.35,159.62h0v.22M112.89,159.62h103.46M112.85,159.84l.02-.12v-.06l.02-.04M120.87,363.43v.28M120.83,363.37l.02.04.02.02M112.55,363.71h-.04l-.04-.02-.04-.02-.04-.02-.04-.02-.04-.04-.02-.04-.02-.04M120.87,363.71h-8.32M120.61,363.51l.08.1.08.08.1.02M120.91,363.73l-.02-.02v-.3M216.35,363.73h-95.44M216.35,363.41v.32M216.45,174.56v-14.66M216.73,174.56v-14.66M216.73,159.9h-.28M106.71,159.92h5.82M103.09,174.44l3.62-14.52M112.77,159.98v14.52M112.77,159.98l-.24-.06M112.53,159.92v14.52M216.35,159.84h-103.5M112.85,174.44v-14.6M216.35,159.84v14.6M216.45,346.83v-.12M216.73,346.83v-.12M216.45,176.64v-.12M216.73,176.64v-.12M216.45,363.45v-16.02M216.73,363.45v-16.02M216.73,363.45h-.28M216.45,347.43v-.6M216.73,347.43v-.6M216.73,347.43h-.28M216.73,346.83h-.28M216.45,176.52v-1.96M216.73,176.52v-1.96M216.73,176.52h-.28M216.73,174.56h-.28M120.61,363.51h-8.34M112.27,363.51l-9.24-16M112.71,347.51l7.9,16M120.83,363.37l-.22.14M112.93,347.37l7.9,16M112.77,174.5l-.04.56v.56l.04,1.02M112.77,174.5l-.24-.06M112.53,174.44l-.04.54v.56l.04,1.1M112.53,174.44h-9.44M102.83,176.64l.08-1.1.18-1.1M112.53,176.64h-9.7M102.83,176.64v170.06M112.93,347.37l-.22.14M112.77,346.71l.06.34.1.32M102.83,346.71h9.7M103.03,347.51l-.14-.38-.06-.42M103.03,347.51h9.68M112.53,346.71l.06.42.12.38M120.89,363.41l-7.86-15.94M216.35,363.41h-95.46M216.35,347.47v15.94M113.03,347.47l-.18-.76M113.03,347.47h103.32M216.35,346.71v.76M216.73,346.71h-.38M216.73,346.71v-170.06M216.35,176.64h.38M112.85,176.64h-.32M112.53,346.71h.32M112.53,346.71v-170.06M112.85,176.64v170.06M216.35,346.71h-103.5M216.35,346.71v-170.06M216.35,176.64h-103.5M216.35,174.44v2.2M216.35,174.44h-103.5M112.85,176.64v-2.2M110.59,159.4v-.04M110.59,159.62h0M107.85,159.4h.04M107.89,159.62h-.04M107.85,159.62v-.22M107.89,159.4h5M107.89,159.62h5M107.89,159.4v.22M216.35,159.4v.22M216.01,159.62v-.22M113.11,159.62v-.22M113.41,159.4v.22M117.11,363.77v-.06M118.83,363.77h-1.72M118.83,363.71v.06M119.51,360.61v.06M116.39,354.37v-.1M116.09,353.79v-.1M233.09,364.19h-.02M233.09,363.73v.36M304.51,364.09v-.36M233.09,364.23v-.14M300.17,364.53h-.04M304.51,364.09v.1M304.51,363.73v.36M304.85,364.09v-.36M304.95,364.19l-.02-.02h-.04l-.02-.02-.02-.02v-.04M304.51,364.09h.34M304.53,364.19v-.02l-.02-.08M232.73,363.73v.36M233.07,363.73v.36M233.07,364.09v.08l-.02.06M232.73,364.09h.34M232.73,364.09v.06h-.02l-.02.02h-.02l-.02.02M232.65,364.19h-.14M227.97,364.19v.04M115.27,352.11h.02l.02-.04M115.67,352.85h-.04M115.31,352.17v-.02l.02-.02M115.65,352.79h-.04M217.55,124.24l-.06.02-.08.02-.06.02-.06.06-.04.06-.04.06-.02.06v.08M217.19,124.62v.02M320.49,124.62v-.08l-.02-.06-.04-.06-.04-.06-.06-.06-.06-.02-.08-.02-.06-.02M320.13,131.6h.02l.02-.02.02-.02h.02v-.06M320.49,124.64v-.02M320.13,124.26h0v-.02M217.55,124.24h102.58M217.55,124.26h0v-.02M320.21,131.52v.04l-.02.02h-.02v.02h-.04M217.55,131.3h-.02v.02h-.02l-.02.02-.02.02v.04M217.19,124.64v6.68M217.19,124.64l.02-.16.08-.12.12-.08.14-.02M217.55,131.02l-.06.02-.08.02-.06.02-.06.06-.04.06-.04.06-.02.06M320.13,124.26h0M217.55,124.26h102.58M217.55,124.26h0M217.55,131.02v-6.76M320.49,131.32v-6.68M320.13,131.02v-6.76M320.13,124.26l.14.02.12.08.08.12.02.16M320.21,131.4v-.06h-.02l-.02-.02-.02-.02h-.02M320.49,131.32h0l-.02-.06-.04-.06-.04-.06-.06-.06-.06-.02-.08-.02-.06-.02M217.47,131.32v2.94M217.19,131.32v2.94M217.19,131.32h.28M320.21,134.26v-2.94M320.49,134.26v-2.94M320.49,131.32h-.28M217.19,134.78v.08M217.47,134.26v.46M217.19,134.26h.28M217.19,134.26v.52M217.19,134.78h.06M320.13,134.14v-3.12M217.55,131.02h102.58M217.55,134.14v-3.12M320.49,135.34v-.1M320.21,135.18v-.92M320.49,135.24h-.06M320.49,135.24v-.98M320.49,134.26h-.28M320.13,159.02h.06l.02-.02v-.02M217.47,158.98v.02h.02v.02h.06M217.19,158.98l.02.14.06.12.1.08.12.04h.06M217.47,158.98v.04l.02.04.04.02h.02M320.13,159.08l.04-.02.02-.02.02-.02v-.04M320.13,159.36l.14-.02.1-.08.08-.1.04-.12v-.06M217.19,134.86v-.02l.02-.04.04-.02.04-.02.06-.02.06-.02h.14M217.19,158.98v-24.12M217.47,158.98h-.28M217.55,158.98h-.08M217.55,158.86l-.14.02-.12.02-.08.04-.02.04M320.13,135.18v-1.04M217.55,134.14h102.58M217.55,134.72v-.58M217.55,158.86v-24.14M320.13,158.86v-23.68M320.49,158.98v-23.64M320.13,135.18h.06l.08.02h.06l.06.02.04.04.04.02.02.02v.04M320.21,158.98h-.08M320.21,158.98h.28M320.49,158.98l-.02-.04-.08-.04-.12-.02-.14-.02M320.13,159.4v-.54M217.55,158.86h102.58M217.55,159.4v-.54M217.55,159.4h102.58M216.73,125.28h.46M217.19,125.3h-.46M216.73,132.04h.46M216.73,134h.46M216.73,159.08v-.1M217.19,158.98v.1M217.19,159.08h-.46M216.73,158.28h.46M135.69,131.8l-.06-.08-.26-.28-.16-.1M115.83,124.56h0l-.02.02v.02M115.89,124.24l-.06.02h-.06l-.06.04-.04.02-.06.04-.02.06-.04.06M216.73,124.62v-.08l-.02-.06-.04-.06-.06-.06-.04-.06-.08-.02-.06-.02-.08-.02M216.73,124.64v-.02M115.89,124.24h0v.02M216.35,124.26h0v-.02M115.89,124.24h100.46M115.81,124.54l-.64,2.62M115.55,124.48l-.66,2.64M115.55,124.48l.26.06M114.89,127.12l-1.9,7.58M114.89,127.12l.24.06M112.99,134.7l-.08.36-.08.32-.08.3-.06.28-.08.24-.04.22-.04.16-.04.14-.02.1-.02.06v.02M115.33,126.92v.26M135.03,131.28l.12.02M115.89,124.26l-.56,2.66M115.33,126.92l19.82,4.1M216.35,124.26h0M115.89,124.26h100.46M216.73,131.32v-6.68M216.35,131.02v-6.76M216.35,124.26l.14.02.12.08.1.12.02.16M216.45,131.4v-.02l-.02-.02v-.02h-.02v-.02h-.02l-.02-.02h-.02M216.73,131.32h0l-.02-.06-.04-.06-.06-.06-.04-.06-.08-.02-.06-.02-.08-.02M112.45,136.9v.02M112.45,136.9l.04.02M135.15,131.3l.24.12.34.28.16.2.12.24.14.42.04.34M135.15,131.3v-.28M216.73,134.26v-2.94M216.45,134.26v-2.94M216.73,131.32h-.28M216.73,134.78v-.52M216.45,134.72v-.46M216.73,134.26h-.28M216.73,134.86v-.08M216.73,134.78h-.08M216.35,134.14v-3.12M136.19,132.88v.02M135.15,131.02l.22.12.2.14.16.16.16.22.12.24.14.46.04.48M136.19,132.9l-.02.46-.08.38-.12.4M135.15,131.02h81.2M135.15,131.02h0M106.79,158.84h0M112.43,136.92h0M106.79,158.84l5.64-21.92M112.43,136.92h.02l.02.02M106.79,158.84l5.64-21.92M106.85,158.86h-.02v-.02h-.04M216.35,159.02h.06l.02-.02h.02v-.02M112.89,159.1l-.06-.02M112.85,159.1h.04M112.85,159.38h.04M216.35,159.08l.04-.02.04-.02.02-.02v-.04M216.35,159.36l.14-.02.12-.08.08-.1.04-.12v-.06M112.47,136.94l.1-.08M106.85,158.86l5.62-21.92M112.85,159.1v.28M112.81,158.98v.1h.02l.02.02M112.57,158.92l-5.72-.06M107.05,159.3l-.08-.02-.08-.06-.06-.12-.02-.12.04-.12M112.85,159.38l-5.8-.08M112.57,158.92v.14l.02.12.06.1.1.08.1.02M216.45,158.98h-.1M216.45,158.98h.28M216.73,158.98l-.02-.04-.1-.04-.12-.02-.14-.02M216.73,158.98v-24.12M216.35,134.72h.14l.08.02.04.02.06.02.04.02.02.04v.02M112.89,136.8h19M216.35,158.86v-24.14M216.35,134.72v-.58M135.97,134.14h80.38M131.89,136.8l.44-.02.44-.06.44-.12.42-.14.38-.18.38-.22.36-.24.3-.3.3-.3.24-.34.2-.36.18-.38M112.89,158.86v-22.06M112.57,136.86h.02l.04-.02.04-.02h.04l.04-.02h.14M112.57,158.92v-22.06M112.81,158.98l-.24-.06M112.89,158.98h-.08M112.89,158.86l-.14.02-.12.02-.06.02M112.89,158.86v.54M112.89,159.4h103.46M216.35,159.4v-.54M112.89,158.86h103.46M136.09,132.32l-.08-.14-.1-.16-.12-.12-.12-.14h-.02M135.63,134.82l.06-.12.14-.3.1-.28.08-.3.06-.28.04-.28v-.26l-.02-.26M136.09,132.74l-.04-.18-.06-.2-.08-.16-.08-.16-.1-.16-.1-.14-.14-.12-.14-.1M134.97,131.24l-19.84-4.1M115.13,127.14l-1.96,7.84M113.17,134.98v.04M112.73,136.66h.16M112.73,136.82v-.16M132.25,136.66h-.94M131.31,136.66h-18.42M112.89,136.66v.14M113.17,135.02l-.1.44-.1.34-.08.3-.08.3-.06.18-.02.04M112.73,136.62v.04M132.25,136.66l.58-.02.56-.1.18-.06M132.25,136.78v-.12M119.09,363.71v.02M111.87,139.1h0M111.87,138.82h.06M111.87,138.82v.28M115.87,363.71v.18M115.57,363.71v.18M115.87,363.89v.24M115.57,364.13v-.24M115.87,364.13h-.3M115.57,363.89h.3M217.59,405.57h.1M217.69,364.61h-.1M217.31,405.57v.06l.02.08.04.06.04.06.06.04.06.04.08.02h.08M217.59,405.57v.02l.02.02v.02h.02l.02.02h.04M217.31,401.07v4.5M217.59,401.07v4.5M217.31,405.57h.28M217.69,405.95v-4.64M222.21,405.95h-4.52M222.37,401.31l-.02.48-.02.46-.02.44v.44l-.02.42-.02.38v.36l-.02.34v.3l-.02.26v.22l-.02.2v.34M217.69,364.51l-.02.02h-.04l-.02.02-.02.02v.04M217.69,364.23l-.08.02-.08.02-.06.02-.06.06-.04.06-.04.06-.02.06v.08M217.31,364.61v1.9M217.59,364.61v1.9M217.59,364.61h-.28M217.31,366.51v.22M217.59,366.51v.22M217.31,366.51h.28M217.69,364.61v-.38M237.41,364.23v.38M237.41,364.23h-19.72M237.41,364.79l-.22.2-.2.2-.22.2-.2.2-.2.2-.22.2-.2.22-.2.2M237.41,364.79v-.18M237.41,364.61h-19.72M217.69,364.61v1.8M235.75,366.41h-18.06M217.69,366.51h0v-.1M235.39,366.51h0l.02-.02h.04l.12-.04.18-.04M235.39,366.79v-.02l.04-.04.08-.06.12-.14.12-.12M217.31,366.93v34.14M217.59,366.93v34.14M217.31,401.07h.28M217.31,366.73h0v.2M217.59,366.73h0v.2M217.31,366.73h.28M217.31,366.93h.28M222.37,401.31h-4.68M222.51,397.31l-.14,4M235.25,366.93l-.96,1.04-.92,1.06-.88,1.08-.86,1.12-.82,1.14-.78,1.16-.74,1.18-.72,1.22-.68,1.22-.64,1.24-.6,1.28-.56,1.28-.52,1.3-.48,1.32-.44,1.34-.4,1.34-.36,1.36-.34,1.36-.28,1.38-.22,1.38-.2,1.38-.16,1.4-.12,1.4-.06,1.4M217.69,401.31v-34.38M217.69,366.51h17.7M217.69,366.93v-.42M235.25,366.93h-17.56M235.29,366.87v.02l-.02.02-.02.02M235.39,366.79h-.02l-.02.02-.02.04-.04.02M235.39,366.79v-.28M235.39,366.51l-.02.02v.06l-.02.08-.04.12-.02.08M222.55,401.21l-.02.46-.02.44-.02.42v.42l-.02.38-.02.38v.34l-.02.3v.3l-.02.24v.22l-.02.18v.32M222.39,405.61h-.18M222.55,401.21l.14-4.04M237.41,364.63l.08-.08M235.69,366.69l.24-.24.24-.26.26-.24.24-.24.26-.24.24-.24.26-.24.26-.22M237.69,364.77l-.2-.22M235.69,366.69l-.1.1-.1.1-.06.08-.04.04h-.02M222.69,397.17l.06-1.4.12-1.38.14-1.4.2-1.38.24-1.36.28-1.38.32-1.34.36-1.36.4-1.32.44-1.32.48-1.32.52-1.28.56-1.28.6-1.26.64-1.24.68-1.22.7-1.2.76-1.18.78-1.16.82-1.12.84-1.1.88-1.08.92-1.06.94-1.02M235.27,366.91l.1.1M319.99,405.51h-.08M319.91,364.55h.08M320.29,405.51l-.02.08-.02.06-.04.06-.04.06-.06.06-.06.02-.06.02-.08.02M319.99,405.51v.06h-.02l-.02.02h-.02l-.02.02M319.99,401.03v4.48M320.29,401.03v4.48M320.29,405.51h-.3M315.39,405.89h4.52M319.91,405.89v-4.64M315.23,401.25l.02.48v.46l.02.46.02.42.02.42v.38l.02.36v.34l.02.3v.26l.02.24v.32l.02.12v.08M319.91,364.19h.08l.06.02.06.04.06.04.04.06.04.06.02.08.02.06M319.91,364.47h.04l.02.02.02.02v.04M319.99,364.55v1.9M320.29,364.55v1.9M319.99,364.55h.3M319.99,366.45v.22M320.29,366.45v.22M320.29,366.45h-.3M319.91,364.55v-.36M300.17,364.19h19.74M300.17,364.19h0v.36M319.91,364.55v1.8M300.17,364.55h19.74M300.17,364.73v-.18M300.17,364.73l.22.2.22.2.2.2.22.2.2.22.2.2.22.2.2.2M319.91,366.45h0v-.1M301.85,366.35h18.06M302.21,366.73l-.02-.02-.04-.02-.06-.08-.12-.14-.12-.12M302.21,366.45h-.02l-.06-.02-.1-.02-.18-.06M319.99,366.87v34.16M320.29,366.87v34.16M320.29,401.03h-.3M319.99,366.67h0v.2M320.29,366.87h-.3M320.29,366.67h0v.2M320.29,366.67h-.3M315.23,401.25h4.68M319.91,401.25v-34.38M302.35,366.87l.94,1.04.92,1.06.88,1.08.86,1.12.82,1.14.78,1.16.76,1.18.7,1.22.68,1.22.64,1.26.6,1.26.56,1.28.52,1.32.5,1.3.44,1.34.4,1.34.36,1.36.32,1.36.28,1.38.24,1.38.2,1.4.16,1.38.1,1.4.08,1.4M315.09,397.25l.14,4M302.29,366.83h.02v.02l.04.02M302.35,366.87h17.56M319.91,366.87v-.42M319.91,366.45h-17.7M302.21,366.45v.02l.02.06.02.08.02.12.02.1M302.21,366.73v-.28M302.21,366.73h0v.02l.02.02.04.02.02.04M315.05,401.17l.02.44.02.44v.42l.02.42.02.38v.38l.02.34v.32l.02.28v.24l.02.22v.32l.02.1v.08M315.21,405.55h.16M315.05,401.17l-.14-4.06M301.89,366.63l-.24-.24-.24-.24-.24-.26-.26-.24-.24-.24-.26-.24-.24-.22-.26-.24M300.17,364.57l-.08-.08M299.91,364.71l.18-.22M301.89,366.63l.12.12.08.08.08.08.04.04v.02M314.91,397.11l-.08-1.4-.1-1.38-.16-1.38-.2-1.38-.24-1.38-.26-1.36-.32-1.36-.38-1.34-.4-1.34-.44-1.32-.48-1.32-.52-1.28-.56-1.28-.6-1.26-.64-1.24-.66-1.22-.72-1.2-.74-1.18-.78-1.14-.82-1.14-.86-1.1-.88-1.08-.9-1.04-.96-1.02M302.33,366.85l-.12.12M216.35,364.79v.08M113.43,364.81l-.04-.06M132.87,398.47l-.04-.04M132.87,398.49v-.02M216.35,364.51h0v-.06M113.29,364.45h0v.02M216.45,405.51h-.08M132.87,398.49v.04l-.02.02v.04M113.59,364.73h-.16M113.79,364.73h-.12M113.35,364.45l-.02.02-.1.04-.08.06-.04.06-.04.1-.02.1.02.1.04.08M113.43,364.73h-.02l-.04.02v.02h-.02l-.02.04v.04l.02.02M216.35,364.79h-.34M216.35,364.51h-.06M216.45,364.87v-.02h-.02v-.02l-.02-.02-.02-.02h-.04M216.35,364.79v-.28M216.73,364.87v-.06l-.02-.08-.04-.06-.06-.06-.04-.04-.08-.04-.06-.02h-.08M132.79,398.53v.02l.02.02h.02l.02.02M132.53,398.69l.04.02.02.04.04.04.04.02.04.02.04.02.04.02h.04M216.37,405.59h.04v-.02l.02-.02.02-.02v-.02M216.35,405.87h.04l.08-.02.08-.02.06-.04.04-.06.04-.08.04-.06v-.08M113.45,364.53l-.06-.04-.04-.02-.06-.02M113.29,364.17v.28M216.35,364.45h-.02l-.02.02-.02.04-.02.02M216.35,364.19v.26M113.29,364.17h3M113.45,364.53l-.04-.14-.04-.1-.04-.08-.02-.04h-.02M216.35,364.19h-.02l-.02.06-.02.1-.02.12v.06M216.27,364.53l-1.5,1.5M216.27,364.53h-102.82M115.87,365.95l-2.42-1.42M116.55,366.33l-.12-.08M132.85,398.59l.02-.02v-.02l.02-.02v-.04M132.83,398.87l.02-.28M113.43,364.83l.2-.12M133.23,397.59l-.4.84M116.29,366.25l.12.08M113.63,364.71l2.22,1.28M216.73,401.15v4.36M216.73,364.87v1.54M216.35,364.87h.38M216.45,405.51l-.02-.02-.02-.04-.02-.02-.04-.02M216.45,405.43h-.04l-.06-.02M216.31,406.17l-83.48-7.3M216.35,405.79v.16l-.02.06v.16h-.02M132.83,398.87l.02-.04v-.08l.02-.12.02-.14M216.05,364.87h.3M214.91,366.03l1.14-1.16M133.27,397.67l-.38.82M216.35,405.79l.02-.3M216.37,405.49l-.02-.02M132.83,398.43l-.02.04-.02.02v.04M132.79,398.53l-.26.16M113.11,365.01l19.42,33.68M132.83,398.43l-.12.1-.08.06-.06.06-.02.02-.02.02M113.43,364.83l19.4,33.6M113.11,365.01h0l.02-.02h.02l.04-.04.06-.02.06-.04.06-.02.06-.04M216.73,405.57h0M216.73,405.57h-.28M202.93,404.69h.12l.1.02h.14-.2l-.12-.02-.12-.02h-.2l-.06-.02h-.04.06l.08.02h.12l.12.02M200.11,404.43l.12.02h.1l.08.02h.06-.1l-.1-.02h-.12l-.12-.02h-.12l-.08-.02h-.1.14l.12.02h.12M143.63,399.49l.12.02h.1l.08.02h.06-.1l-.1-.02h-.12l-.12-.02h-.1l-.1-.02h-.1.14l.12.02h.12M140.81,399.25l.1.02h.2l.04.02h.02l-.04-.02h-.16l-.12-.02h-.12l-.12-.02h-.16l-.02-.02h.02l.04.02h.2l.12.02M216.33,405.85l-82.58-7.22M216.33,405.85h0M133.75,398.63l1.64.14M133.77,398.35l1.66.14M133.75,398.63l.02-.28M216.73,401.27v-.12M216.73,401.27h0M216.73,401.27h-.28M216.73,405.57v-4.3M216.73,405.57h-.28M216.73,401.27h-.28M216.35,401.31v4.22M136.67,396.71v.28l-.02.28-.04.26-.08.22-.1.18-.12.16-.16.1-.02.02M135.91,394.23l.06.14M135.39,398.77l.04-.28M136.71,397.43v.02l-.04.24-.08.2-.1.18-.12.14-.14.12-.18.08-.18.06-.22.02h-.22M135.95,394.45l.08-.26M135.95,394.49v-.04M135.95,394.49l.08-.32M135.95,394.49l.18.42.16.4.14.4.1.38.08.36.06.34.04.32v.28l-.02.28-.04.24-.08.22-.1.18-.12.16-.14.12-.18.1-.18.06-.22.04-.24-.02M135.39,398.77l80.94,7.08M216.35,401.21v2.98l-.02.34v1.32M216.77,366.81v-.4M216.77,366.41h-.3M216.47,366.81v-.4M216.45,404.95v.62M216.47,366.41v.4M216.45,405.57h0M216.45,405.57v-4.3M216.45,401.27h0M216.45,401.27v-.06M122.51,366.63l-6.66-.4M115.85,365.95v.28M115.63,366.27l6.86.48M115.41,366.39l.22-.12M135.75,394.29l-.08.02M115.41,366.39l6.86.5M133.63,398.29l-18.22-31.9M135.37,398.45l-1.74-.16M135.67,394.31l.18.38.16.36.14.38.1.36.1.36.06.34.04.32v.32l-.02.26-.04.26-.08.22-.1.18-.12.16-.16.12-.16.08-.18.04h-.22M216.47,366.81h.3M216.39,366.81h.08M122.49,366.75h.06l.02-.02M122.49,366.75l-.22.14M216.73,401.15v.02h-.02l-.04.02h-.16l-.08.02h-.08M216.73,401.15l.04-34.34M216.39,366.85h.26l.08-.02.04-.02M122.27,366.89l.06-.02.06-.02.1-.04.08-.04M135.75,394.29l-13.48-27.4M136.03,394.17l-.04.02-.04.02-.04.02-.04.02-.04.02h-.04l-.02.02h-.02M122.51,366.63v-.28M122.57,366.71h-.02v-.04l-.02-.02-.02-.02M122.51,366.35l-6.66-.4M216.39,366.03v.4M115.85,365.95l100.54.08M216.39,366.43h0v.42M122.51,366.35l93.88.08M122.57,366.77l-.02-.14v-.12l-.02-.08v-.06l-.02-.02M216.35,401.21l-80.32-7.04M216.39,366.85l-.04,34.36M216.39,366.85l-93.82-.08M136.03,394.17l-13.46-27.4M136.15,398.37l-.26-.02M117.63,366.41l.08-.08M136.15,398.37l-.26-.02M216.35,405.01l.1-.08M117.71,366.33l-.08.08M216.73,401.15v4.42M217.47,359.63h.08M216.73,359.63h.46M216.35,359.63h.1M217.47,354.89h.08M216.73,354.89h.46M216.35,354.89h.1M321.33,170.24h-.1M321.23,171.68h.1M463.21,171.52l.02-.04v-.02M438.97,159.78l-.18.16M330.43,349.75v-155.54M330.43,353.91v-1.88M328.69,354.33v.1M328.69,352.03v1.88M328.69,194.26v155.48M454.01,352.03v1.8M454.01,194.2v155.54M455.75,349.75v-155.5M455.75,353.83v-1.8M449.27,345.59h0M394.87,347.11h.24M395.11,346.43h-.24M339.97,347.11h.26M340.23,346.43h-.26M449.33,347.61l.1-.06.14-.12.1-.16.08-.16.06-.2v-.18l-.02-.18-.06-.18-.1-.18-.12-.14-.14-.12-.04-.02M449.27,347.61v.02h.06M449.33,345.91h-.06M389.99,345.91l-.1.06-.14.14-.1.16-.08.16-.06.18v.2l.02.18.06.18.1.16.12.16.14.12h.04M390.07,345.93h-.02v-.02h-.06M389.99,347.63h.06v-.02h.02v-.04M335.09,345.91l-.08.06-.14.14-.12.16-.08.16-.04.18-.02.2.04.18.06.18.08.16.12.16.16.12h.02M335.17,345.93h0l-.02-.02h-.06M335.09,347.63h.06l.02-.02.02-.02v-.02M394.87,346.43l-.04-.06-.08-.18-.12-.14-.16-.12-.02-.02M394.45,347.61l.1-.06.12-.12.12-.16.08-.16M394.39,347.61v.02h.06M394.45,345.91h-.06M339.97,346.43l-.02-.06-.1-.18-.12-.14-.14-.12-.04-.02M339.55,347.61l.1-.06.14-.12.1-.16.08-.16M339.49,347.61v.02h.06M339.55,345.91h-.06M444.87,345.91l-.08.06-.14.14-.12.16-.08.16-.04.18-.02.2.04.18.06.18.08.16.12.16.16.12h.02M444.95,345.93h0l-.02-.02h-.06M444.87,347.63h.06l.02-.02.02-.02v-.02M337.99,344.21h-.22l-.1.02h-.16M337.19,344.23h-.28l-.08-.02h-.18M338.31,344.39v-.04l-.04-.06-.04-.06-.06-.02-.04-.02h-.04l-.06-.02h-.42l-.08-.02h-.2M337.33,344.15h-.18l-.06.02h-.44l-.04.02h-.1l-.04.02-.04.02-.04.02-.04.06-.02.08M336.33,344.39l-.14.94M338.45,345.33l-.14-.94M392.89,344.21h-.22l-.1.02h-.18M392.09,344.23h-.28l-.08-.02h-.18M393.21,344.39v-.04l-.04-.06-.06-.06-.04-.02-.04-.02h-.04l-.08-.02h-.42l-.08-.02h-.2M392.21,344.15h-.16l-.06.02h-.44l-.06.02h-.08l-.04.02-.04.02-.04.02-.04.06-.02.08M391.23,344.39l-.14.94M393.35,345.33l-.14-.94M447.77,344.21h-.22l-.1.02h-.16M446.97,344.23h-.28l-.08-.02h-.18M448.09,344.39v-.04l-.04-.06-.04-.06-.06-.02-.04-.02h-.04l-.06-.02h-.42l-.08-.02h-.2M447.11,344.15h-.18l-.06.02h-.44l-.04.02h-.1l-.04.02-.04.02-.04.02-.04.06-.02.08M446.11,344.39l-.14.94M448.23,345.33l-.14-.94M447.01,347.21l-.06.02-.14.04-.12.04-.14.06-.12.1-.1.1-.1.1-.06.12M448.19,347.63l-.08-.08-.12-.12-.14-.08-.14-.06-.14-.04-.1-.02-.02-.02M448.35,348.07v-.1l-.06-.16-.06-.14h-.02M447.35,347.99h-.24M447.07,350.29h0v.04h.04v.02M447.11,347.99h-.02l-.02.02v.04M447.41,348.05v-.02l-.02-.02-.02-.02h-.02M447.35,350.35v-.02h.04v-.02l.02-.02M447.19,345.93h-.04v.02l-.02.02-.02.02v.06M447.01,348.25l.02.02.02.02M447.41,345.95l-.22-.02M447.45,345.97v-.02h-.04M447.05,346.57l-.2.02-.3.08-.24.14-.2.18-.12.22-.06.24.02.22.04.12.08.14.14.14.22.14.08.02M447.41,348.39l.16-.04.26-.12.22-.18.14-.22.06-.26-.02-.24-.1-.24-.16-.2-.24-.16-.28-.12h-.04M445.95,347.55v.1l.08.24.16.2.22.18.26.1.3.06h.1M445.99,347.47l.02-.12.04-.1.08-.14.12-.14.2-.14.28-.12.34-.04M447.41,346.67l.14.04.26.12.2.18.12.2.06.22v.24l-.1.22-.16.18-.22.16-.26.1-.04.02M446.47,348.21l-.12-.08-.14-.12-.08-.1-.06-.1-.08-.22v-.22l.08-.22.16-.2.2-.16.26-.1.28-.06h.08M339.49,345.59h0M394.39,345.59h-.02M336.31,348.25v-.04M338.53,348.35v-.04M338.29,348.31v.04M391.21,348.25v-.04M393.41,348.35v-.04M393.17,348.31v.04M335.19,349.75h-7.88M390.07,349.75h-50.58M444.97,349.75h-50.58M457.13,349.75h-7.86M449.27,352.03h7.86M394.39,352.03h50.58M339.49,352.03h50.58M327.31,352.03h7.88M327.31,349.75h-.24M327.07,352.03h.24M326.85,351.79v.06l.02.04.02.04.02.02.04.04.04.02.04.02h.04M327.07,349.75l-.04.02h-.04l-.04.02-.04.04-.02.02-.02.04-.02.06v.04M457.13,352.03h.22M457.35,349.75h-.22M457.59,349.99l-.02-.04v-.06l-.02-.04-.04-.02-.02-.04-.04-.02h-.04l-.06-.02M457.35,352.03h.06l.04-.02.04-.02.02-.04.04-.02.02-.04v-.04l.02-.06M456.27,344.99h0M457.31,344.99h0M327.11,344.99h0M328.17,344.99h0M456.27,352.25h0M457.31,352.25h0M327.11,352.25h0M328.17,352.25h0M135.65,131.76l-.16-.16M235.29,366.87l.02-.02h.02M302.27,366.79h0l.02.04M216.33,405.81l.02-.28M135.91,398.33l.22-.12"/>
    <rect class="st24" x="86.88" y="-121.36" width="35.33" height="35.33"/>
    <rect class="st21" x="247" y="-103.69" width="35.33" height="35.33"/>
    <rect class="st23" x="172.1" y="-112.93" width="35.33" height="35.33"/>
    <rect class="st22" x="307.32" y="-103.69" width="35.33" height="35.33"/>
    <path class="st0" d="M522.59-121.36"/>
  </g>
  <g id="HG" class="st25">
    <rect class="st21" width="841.89" height="595.28"/>
  </g>
  <g id="Kontur_weiss">
    <g>
      <path class="st4" d="M687.23,281.19l27.82.04s1.45.18,6.73-.58c5-.71,27.77-7.58,30.27-8.1s.94-18.14.94-18.14c0,0-.3-1.62-2.71-2.34-1.52-.45-4.23-1.27-6.73-1.85-1.47-.34,3.8-14.08,7.5-15.11l1.69-2.54.85-6.04-1.65-3.42,1.19-3.16s.58-7.15.58-12.15-4.79-13.42-7.66-17.27c-2.41-3.23-8-10.5-21.5-17s-43.06-16.29-59-18.62c-4.17-.61-11.5-1.26-11.5-1.26,0,0-46.33-51.31-77-78.12-5.14-4.5-20.98-11.34-32.87-13.87-16.25-3.46-29.76-4.67-69.62-5.62-4.87-.12-5.37,3-5.37,3v220.97s3.87,2.74,6.37,3.21,109.12.72,109.12.72c0,0,2.61-.26,2.42-3.42-1.05-17.98,6.33-59.73,49.88-59.98,44.07-.25,51.25,38.34,50.25,60.65Z"/>
      <path class="st4" d="M728.91,197.36c-6.82-4.56-50.34-13.29-48.72-9.67,0,0,8.54,17.46,22.43,21.91s24.53,5.51,31.86,5.93l-5.57-18.17h0Z"/>
      <path class="st4" d="M742.32,231.28h-15.22s-6.67,0-13.55,5.95c-4.01,3.47-12.5,16.75-10.5,19.03s48.13,1,50.27.89"/>
      <path class="st4" d="M746.05,190.54c-2.48,0-8-.83-9.17,1.33-1.4,2.59,6.4,32.09,10.17,37.5,4,5.74,4.88,4.19,4.88,4.19"/>
      <path class="st4" d="M734.48,193.59s-15.84-5.17-33.95-7.88c0,0-8.46-4.39-19.81-6.26-12.55-2.07-21.42-3.97-27.44-7.22-4.1-2.22-12.58-11.6-12.66-17.31l14.4-1.26"/>
      <path class="st4" d="M701.39,209.4c-7.58,9.26-10.76,13.39-11.82,14.08s-3.94,2.11-7.87,2.74-5.6-.16-7.72,0-4.11,1.47-4.11,1.47"/>
      <path class="st4" d="M640.62,154.92c-5.7-2.34-9.06-6.01-10.96-7.71-1.09-.97-60.99-64.01-67.12-69.67-6.5-6-15.75-10.75-35-14.67-11.23-2.28-52.33-4.67-52.33-4.67v219.79h111.8"/>
      <path class="st4" d="M736.88,191.87c-4.08-4.17-4.45-4.67-13.62-9.25-13.45-6.73-69.39-21.86-77.33-24.75-2.23-.81-3.62-1.33-4.89-3"/>
      <path class="st4" d="M732.99,236.66c1.8.06,2.77,1.13,2.34,3.13s-3.07,8.01-3.82,9.26-2.44,2.08-4.62,2.29c-2.16.21-12.84.18-15.84-.26s-2.5-2.54-1.25-4.04,5.75-7,7-8.25,2.83-1.56,6.25-1.84c2.11-.17,9.95-.28,9.95-.28h-.01Z"/>
      <path class="st4" d="M621.55,169.29c-7-.5-49.25-5-59-7s-51-12.5-55.5-15.5-7.75-9.25-8.25-14.25-7.5-42.83-7.25-46.08,2.42-7.67,7.58-7.67c4,0,43.89,2.19,53.33,7.33,3.04,1.66,6.19,3.79,10.08,7.17,11.25,9.75,36.67,35.25,60,69.5,4.42,6.49-1,6.5-1,6.5h.01Z"/>
      <line class="st4" x1="590.11" y1="255.69" x2="475.21" y2="255.69"/>
      <path class="st4" d="M556.3,255.69s1.51-4.52,3.13-8.13c10.37-23.25,25.97-55.26,75.97-54.53,39.15.57,58.76,31.33,65.42,50.19"/>
      <path class="st4" d="M738.12,224.35c-13.42-.05-22.52.96-27.89,6.64-7.6,8.05-13.3,18.33-14.47,21.56-1.72,4.73,2.02,7.61,5.62,8.88,3.6,1.27,48.25.07,51.93,0"/>
      <path class="st4" d="M561.16,83.97c-9.34-7.83-20.28-10.35-33.95-12-12.61-1.52-37.67-2.96-42.33-2.77-2,.08-3.02,1.67-3,3.33.04,2.69,2.58,102.58,4.67,113.96,1.01,5.53,2.65,11.03,3.92,15.04,1.08,3.42.8,7.59.93,10.42.2,4.41,1.74,47.16,6.64,52.78,1.37,1.57,2,1.5,4.33,1.72,2.33.21,75.3,0,75.3,0,0,0-1.19-26.95,22.79-47.21,3.29-2.78,7.23-5.36,7.42-9.84.41-9.52.67-64.19-.33-70.19s-4.49-11.67-8.33-16.38c-9.33-11.45-29.63-31.8-38.05-38.85h0Z"/>
    </g>
    <g>
      <path class="st7" d="M613.46,277.92c0,13.62,11.04,24.67,24.67,24.67s24.67-11.04,24.67-24.67-11.04-24.67-24.67-24.67-24.67,11.04-24.67,24.67Z"/>
      <circle class="st19" cx="638.13" cy="277.92" r="6.33"/>
      <circle class="st19" cx="638.13" cy="288.54" r="2.33"/>
      <path class="st19" d="M627.78,281.28c1.11-.65,2.54-.28,3.19.83s.28,2.54-.83,3.2c-1.11.65-2.54.28-3.19-.83s-.28-2.54.83-3.19h0Z"/>
      <path class="st19" d="M630,270.7c1.12.63,1.53,2.05.9,3.18-.63,1.12-2.05,1.53-3.18.9-1.12-.63-1.53-2.05-.9-3.18.63-1.12,2.05-1.53,3.18-.9Z"/>
      <path class="st19" d="M640.24,267.25c.03,1.29-1,2.35-2.29,2.38s-2.35-1-2.38-2.29,1-2.35,2.29-2.38,2.35,1,2.38,2.29Z"/>
      <path class="st19" d="M648.4,274.35c-1.1.67-2.54.33-3.21-.77-.67-1.1-.33-2.54.77-3.21,1.1-.67,2.54-.33,3.21.77.67,1.1.33,2.54-.77,3.21Z"/>
      <path class="st19" d="M646.4,284.97c-1.14-.61-1.57-2.02-.96-3.16s2.02-1.57,3.16-.96c1.14.61,1.57,2.02.96,3.16-.6,1.14-2.02,1.57-3.16.96Z"/>
      <path class="st7" d="M596.07,277.16c0,23.11,18.73,41.84,41.84,41.84s41.84-18.73,41.84-41.84-18.73-41.84-41.84-41.84-41.84,18.73-41.84,41.84Z"/>
    </g>
    <g>
      <path class="st7" d="M244.62,277.92c0,13.62,11.04,24.67,24.67,24.67s24.67-11.04,24.67-24.67-11.04-24.67-24.67-24.67-24.67,11.04-24.67,24.67h0Z"/>
      <circle class="st19" cx="269.29" cy="277.92" r="6.33"/>
      <circle class="st19" cx="269.29" cy="288.54" r="2.33"/>
      <path class="st19" d="M258.95,281.28c1.11-.65,2.54-.28,3.19.83s.28,2.54-.83,3.2c-1.11.65-2.54.28-3.19-.83s-.28-2.54.83-3.19h0Z"/>
      <path class="st19" d="M261.16,270.7c1.12.63,1.53,2.05.9,3.18-.63,1.12-2.05,1.53-3.18.9-1.12-.63-1.53-2.05-.9-3.18.63-1.12,2.05-1.53,3.18-.9Z"/>
      <path class="st19" d="M271.41,267.25c.03,1.29-1,2.35-2.29,2.38s-2.35-1-2.38-2.29,1-2.35,2.29-2.38,2.35,1,2.38,2.29Z"/>
      <path class="st19" d="M279.56,274.35c-1.1.67-2.54.33-3.21-.77-.67-1.1-.33-2.54.77-3.21,1.1-.67,2.54-.33,3.21.77.67,1.1.33,2.54-.77,3.21Z"/>
      <path class="st19" d="M277.56,284.98c-1.14-.61-1.57-2.02-.96-3.16.61-1.14,2.02-1.57,3.16-.96,1.14.61,1.57,2.02.96,3.16-.6,1.14-2.02,1.57-3.16.96Z"/>
      <path class="st7" d="M227.23,277.16c0,23.11,18.73,41.84,41.84,41.84s41.84-18.73,41.84-41.84-18.73-41.84-41.84-41.84-41.84,18.73-41.84,41.84h0Z"/>
    </g>
    <path class="st4" d="M143.49,277.38v4.6c0,1.31-3.67,5.47-6,5.56s-15.33,0-15.33,0v3.1h-8l-3-2.15s-2.49-.04-7.3,0c-3.46.03-2.97-6.29-2.97-6.29-2.76-.68-3.16-3.83-1.83-5.68s4.75-1.87,6.2.74c1.52,2.73-1.33,4.46-1.33,4.46v2.59l6.95-1.46,1.62-4.06,3-3.73v-2.58s-2.8.42-4.58.01c-3.28-.74-3.53-3.75-3.53-3.75v-12.02s0-1.96,5.1-2.31c1.67-.11,1.66-.11,5,0l1,15.42,1,4.36,4-1.01.23-11.21"/>
    <path class="st4" d="M342.79,284.34l-7.49,7.71c-2.71,1.03-7.49-2.33-6.59-4.61.49-1.23,2.58-3,2.58-3"/>
    <polyline class="st4" points="170 280.58 168.18 284.3 159.52 284.3 159.52 279.12"/>
  </g>
  <g id="Module">
    <polygon class="st24" points="462.07 281.94 320.65 282.71 320.87 2.3 449.25 30.15 455.99 36.35 462.03 46.18 462.07 281.94"/>
    <path class="st23" d="M320.87,2.3l-204.09.14-13.8,50.54-.06,171.64,33.03,51.15,4.43.46,81.29,6.74v-.09s-.66-53.78,47.57-53.78,47.02,53.63,47.02,53.63l4.4-.02.13-39.05-.2-14.43.29-226.92h0Z"/>
    <path class="st23" d="M221.71,280.66"/>
  </g>
  <g id="Rollo">
    <line class="st14" x1="330.79" y1="233.85" x2="330.79" y2="71.71"/>
    <line class="st15" x1="453.57" y1="71.88" x2="453.57" y2="233.75"/>
    <line class="st6" x1="454.01" y1="226.14" x2="330.43" y2="226.14"/>
    <line class="st6" x1="454.01" y1="148.37" x2="330.43" y2="148.37"/>
    <line class="st6" x1="454.01" y1="181.11" x2="330.43" y2="181.11"/>
    <line class="st6" x1="454.01" y1="136.09" x2="330.43" y2="136.09"/>
    <line class="st6" x1="454.01" y1="144.28" x2="330.43" y2="144.28"/>
    <line class="st6" x1="454.01" y1="107.44" x2="330.43" y2="107.44"/>
    <line class="st6" x1="454.01" y1="123.81" x2="330.43" y2="123.81"/>
    <line class="st6" x1="454.01" y1="222.04" x2="330.43" y2="222.04"/>
    <line class="st6" x1="454.01" y1="99.25" x2="330.43" y2="99.25"/>
    <line class="st6" x1="454.01" y1="95.16" x2="330.43" y2="95.16"/>
    <line class="st6" x1="454.01" y1="115.63" x2="330.43" y2="115.63"/>
    <line class="st6" x1="454.01" y1="209.77" x2="330.43" y2="209.77"/>
    <line class="st6" x1="454.01" y1="152.46" x2="330.43" y2="152.46"/>
    <line class="st6" x1="454.01" y1="201.58" x2="330.43" y2="201.58"/>
    <line class="st6" x1="454.01" y1="156.56" x2="330.43" y2="156.56"/>
    <line class="st6" x1="454.01" y1="213.86" x2="330.43" y2="213.86"/>
    <line class="st6" x1="454.01" y1="111.53" x2="330.43" y2="111.53"/>
    <line class="st6" x1="454.01" y1="217.95" x2="330.43" y2="217.95"/>
    <line class="st6" x1="454.01" y1="164.74" x2="330.43" y2="164.74"/>
    <line class="st6" x1="454.01" y1="91.07" x2="330.43" y2="91.07"/>
    <line class="st6" x1="454.01" y1="189.3" x2="330.43" y2="189.3"/>
    <line class="st6" x1="454.01" y1="140.18" x2="330.43" y2="140.18"/>
    <line class="st6" x1="454.01" y1="82.88" x2="330.43" y2="82.88"/>
    <line class="st6" x1="454.01" y1="172.93" x2="330.43" y2="172.93"/>
    <line class="st6" x1="454.01" y1="177.02" x2="330.43" y2="177.02"/>
    <line class="st6" x1="454.01" y1="168.84" x2="330.43" y2="168.84"/>
    <line class="st6" x1="454.01" y1="205.67" x2="330.43" y2="205.67"/>
    <line class="st6" x1="454.01" y1="160.65" x2="330.43" y2="160.65"/>
    <line class="st6" x1="454.01" y1="78.79" x2="330.43" y2="78.79"/>
    <line class="st13" x1="453.17" y1="73.58" x2="331.01" y2="73.58"/>
    <line class="st6" x1="454.01" y1="86.97" x2="330.43" y2="86.97"/>
    <line class="st6" x1="454.01" y1="197.49" x2="330.43" y2="197.49"/>
    <line class="st6" x1="454.01" y1="132" x2="330.43" y2="132"/>
    <line class="st6" x1="454.01" y1="193.39" x2="330.43" y2="193.39"/>
    <line class="st6" x1="454.01" y1="127.9" x2="330.43" y2="127.9"/>
    <line class="st6" x1="454.01" y1="185.21" x2="330.43" y2="185.21"/>
    <line class="st6" x1="454.01" y1="119.72" x2="330.43" y2="119.72"/>
    <line class="st6" x1="454.01" y1="103.35" x2="330.43" y2="103.35"/>
    <line class="st6" x1="326.05" y1="229.09" x2="326.05" y2="225.17"/>
    <polyline class="st6" points="326.05 225.17 326.05 225.07 326.05 224.99 326.05 224.89 326.05 224.79 326.05 224.71 326.05 224.61 326.05 224.51 326.05 224.41"/>
    <polyline class="st6" points="458.49 224.41 458.49 224.51 458.49 224.61 458.49 224.71 458.49 224.79 458.49 224.89 458.49 224.99 458.49 225.07 458.49 225.17"/>
    <line class="st6" x1="329.23" y1="71.9" x2="455.31" y2="71.9"/>
    <polyline class="st6" points="455.31 71.9 455.67 71.92 456.03 71.98 456.37 72.08 456.69 72.22 457.01 72.4 457.29 72.6 457.57 72.84 457.79 73.1 458.01 73.4 458.17 73.7 458.31 74.04 458.41 74.38 458.47 74.72 458.49 75.08"/>
    <line class="st6" x1="458.49" y1="75.08" x2="458.49" y2="224.41"/>
    <line class="st6" x1="326.05" y1="224.41" x2="326.05" y2="75.08"/>
    <polyline class="st6" points="326.05 75.08 326.07 74.72 326.13 74.38 326.23 74.04 326.37 73.7 326.55 73.4 326.75 73.1 326.99 72.84 327.25 72.6 327.55 72.4 327.85 72.22 328.19 72.08 328.53 71.98 328.87 71.92 329.23 71.9"/>
    <path class="st6" d="M458.49,229.09l-.02.34-.06.36-.1.34-.14.32-.16.3-.22.3-.22.26-.28.22-.28.22-.32.16-.32.14-.34.1-.36.06-.36.02s.13.28-.48,1.11-1.26.85-1.26.85h-123.14s-.54-.14-.95-.81-.25-1.15-.25-1.15l-.36-.02-.34-.06-.34-.1-.34-.14-.3-.16-.3-.22-.26-.22-.24-.26-.2-.3-.18-.3-.14-.32-.1-.34-.06-.36-.02-.34"/>
    <path class="st17" d="M455.71,71.94"/>
    <line class="st12" x1="331.06" y1="230.23" x2="454.01" y2="230.23"/>
    <path class="st20" d="M339.57,221.42h-1.12l-.13-.95h-1.98l-.12.95h-1.12c-.46,0-.84.43-.84.96v.83c0,.53.37.96.84.96h.1v7.02h4.28v-7.02h.1c.46,0,.84-.43.84-.96v-.83c0-.53-.37-.96-.84-.96h-.01Z"/>
    <path class="st20" d="M394.64,221.42h-1.12l-.13-.95h-1.98l-.12.95h-1.12c-.46,0-.84.43-.84.96v.83c0,.53.37.96.84.96h.1v7.02h4.28v-7.02h.1c.46,0,.84-.43.84-.96v-.83c0-.53-.37-.96-.84-.96h-.01Z"/>
    <path class="st20" d="M449.32,221.42h-1.12l-.13-.95h-1.98l-.12.95h-1.12c-.46,0-.84.43-.84.96v.83c0,.53.37.96.84.96h.1v7.02h4.28v-7.02h.1c.46,0,.84-.43.84-.96v-.83c0-.53-.37-.96-.84-.96h-.01Z"/>
    <line class="st6" x1="458.49" y1="224.58" x2="458.49" y2="229.1"/>
  </g>
  <g id="Kontur">
    <path class="st1" d="M116.39,4.9l18.53,3.72s1.61.9,1.16,3.09-2.82,2.72-2.82,2.72h-19.52"/>
    <polyline class="st1" points="438.43 36.96 320.71 8.61 134.92 8.61"/>
    <polyline class="st1" points="461.75 46.18 320.93 11.76 320.93 11.76 136.05 11.84"/>
    <polyline class="st1" points="112.54 17.95 112.54 224.52 140.74 276.27"/>
    <polyline class="st1" points="137.95 271.35 218.54 278.27 222.07 278.27"/>
    <line class="st1" x1="216.96" y1="283.11" x2="216.96" y2="2.59"/>
    <line class="st9" x1="235.3" y1="242.74" x2="115.47" y2="242.74"/>
    <line class="st1" x1="102.66" y1="224.62" x2="321.4" y2="224.62"/>
    <line class="st8" x1="304.23" y1="242.74" x2="320.64" y2="242.74"/>
    <polyline class="st1" points="106.88 37.1 320.47 37.1 462.43 49.46"/>
    <line class="st10" x1="462.43" y1="52.98" x2="102.71" y2="52.98"/>
    <line class="st10" x1="320.84" y1="242.74" x2="462.51" y2="242.74"/>
    <line class="st1" x1="325.79" y1="224.62" x2="321.25" y2="224.62"/>
    <line class="st2" x1="316.54" y1="278.26" x2="462.51" y2="278.26"/>
    <line class="st1" x1="320.71" y1="282.57" x2="320.71" y2="2.59"/>
    <path class="st1" d="M368.66,2.29"/>
    <path class="st1" d="M455.99,36.9l-17.12.11s-1.18,1.9.8,3.65"/>
    <path class="st1" d="M116.84,2.62l-14.13,50.36-.05,171.64,33.29,51.15,81.59,7.05h4.53s0-53.86,47.71-53.86,46.72,53.79,46.72,53.79h146.02V56.02l-.2-8.92-6.61-11.25-6.24-5.67L321.21,2.57l-203.72.03h-.66v.02Z"/>
    <line class="st1" x1="462.84" y1="224.62" x2="458.86" y2="224.62"/>
  </g>
  <g id="Linie_unten" class="st25">
    <line class="st18" x1="760.99" y1="439.97" x2="86.19" y2="439.97"/>
  </g>
</svg>