<?xml version="1.0" encoding="UTF-8"?>
<svg id="Ebene_1" xmlns="http://www.w3.org/2000/svg" version="1.1" viewBox="0 0 841.89 320">
  <!-- Generator: Adobe Illustrator 29.2.1, SVG Export Plug-In . SVG Version: 2.1.0 Build 116)  -->
  <defs>
    <style>
      .st0, .st1, .st2, .st3, .st4, .st5, .st6, .st7, .st8, .st9, .st10, .st11, .st12 {
        fill: none;
      }

      .st0, .st2 {
        stroke-width: 1.5px;
      }

      .st0, .st3, .st13, .st5, .st6, .st8, .st9, .st10, .st12 {
        stroke: #213239;
      }

      .st1, .st2, .st3, .st4, .st5, .st7, .st10, .st11, .st12 {
        stroke-linecap: round;
      }

      .st1, .st2, .st3, .st13, .st7, .st8, .st9, .st10, .st12 {
        stroke-linejoin: round;
      }

      .st1, .st4 {
        stroke-dasharray: 8 3.5;
      }

      .st1, .st4, .st11 {
        stroke: #fff;
      }

      .st14 {
        fill: #4493a7;
      }

      .st2 {
        stroke: #1a130d;
      }

      .st13 {
        stroke-width: 1.28px;
      }

      .st13, .st15 {
        fill: #213239;
      }

      .st5, .st6, .st9 {
        stroke-width: 3px;
      }

      .st16 {
        fill: #3eadc9;
      }

      .st7 {
        stroke: #7d7d7e;
        stroke-width: .51px;
      }

      .st17 {
        fill: #a1cb66;
      }

      .st18 {
        fill: #c5dea1;
      }

      .st19 {
        display: none;
      }

      .st10 {
        stroke-width: .97px;
      }

      .st12 {
        stroke-width: .71px;
      }
    </style>
  </defs>
  <g id="Ebene_3" class="st19">
    <rect class="st15" y=".7" width="841.89" height="595.28"/>
  </g>
  <g id="Ebene_2">
    <polygon class="st18" points="522.16 282.45 379.85 282.48 379.92 2.79 509.4 30.37 516.69 37.12 522.24 49.3 522.16 282.45"/>
    <polygon class="st14" points="379.85 282.48 257.75 282.45 257.75 2.79 379.92 2.79 379.85 282.48"/>
    <path class="st17" d="M257.75,282.45V2.79H53.67l-14.13,50.37-.05,171.64,33.29,51.15,81.58,6.49h4.54s.11-53.35,47.71-53.3,46.71,53.3,46.71,53.3h4.43Z"/>
  </g>
  <g id="Ebene_11" data-name="Ebene_1" class="st19">
    <line class="st7" x1="524.09" y1="354.71" x2="524.09" y2="354.71"/>
    <line class="st7" x1="506.28" y1="354.02" x2="506.28" y2="354.02"/>
    <path class="st2" d="M185.67,362.78"/>
    <path class="st2" d="M180.79,362.78"/>
    <path class="st3" d="M379.87,363.26h.24M380.11,363.26h.14M509.35,152.29l.04-.04M380.23,134.95v-3.78M520.17,166.17l-.1.06M380.25,134.11v-.02M380.25,158.63v-.04M379.87,158.59h0M499.98,162.53l-.06.14M380.25,364.51v-.02M380.25,405.14v-.06M522.19,405.08v.06M522.19,364.49v.02M380.25,364.54v.98M522.19,365.53v-.98M515.97,353.48h.2M513.89,353.48h1.5M514.85,352.8v.64M514.85,193.84v149.84M387.48,343.68v-149.82M387.48,353.54v-.74M387.48,354.04v-.12M515.21,353.84v.12M514.33,354v.1M514.61,354.08v-.1M389.36,349.38v-155.58M389.36,353.54v-1.9M512.97,351.64v1.8M512.97,193.8v155.58M508.23,345.2h0M508.23,345.64h0M506.37,349.56h1.86M503.92,349.56h2.1M506.31,351.84h1.92M503.92,351.84h2.16M394.04,347.24h0v-1.7M398.48,345.54h0v1.7M508.29,345.54h0v1.7M453.39,345.54h0v1.7M503.84,347.24h0v-1.7M448.93,347.24h0v-1.7M451.03,343.84h-.4l-.08-.02h-.12l.04-.02h.08l.08-.02h1.06l.08.02h.08l.04.02h-.12l-.08.02h-.34M452.15,344h0l-.02.02h-.08l-.1.02h-1.58l-.1-.02h-.08l-.02-.02M505.93,343.84h-.38l-.1-.02h-.12l.06-.02h.06l.1-.02h1.04l.1.02h.06l.06.02h-.12l-.1.02h-.34M507.07,344h0l-.04.02h-.06l-.12.02h-1.56l-.12-.02h-.06l-.04-.02M396.12,343.84h-.38l-.1-.02h-.12l.06-.02h.06l.1-.02h1.04l.1.02h.06l.06.02h-.12l-.1.02h-.34M397.26,344h0l-.04.02h-.06l-.12.02h-1.56l-.12-.02h-.06l-.04-.02M506.03,348.62l-.18-.04-.2-.06-.18-.1-.16-.12-.12-.14-.08-.16-.04-.12M507.33,347.74l-.02.14-.06.16-.08.16-.14.12-.16.12-.18.1-.2.04-.1.02M506.03,348.44l-.28-.06-.18-.08-.14-.12-.12-.12-.08-.16-.04-.2M507.15,347.4l.02.02.04.3-.1.28-.1.14-.14.12-.18.1-.18.06-.14.02M506.41,346.9l.22.04.18.08.16.12.12.14.04.06M505.17,347.6l.1-.28.12-.14.14-.12.16-.1.2-.06.08-.02M506.08,347.6h0v2.12M506.31,347.6h0v2.12M506.15,345.54v.02l-.02.06-.02.1v.14l-.02.16-.02.2-.02.22v.22l-.02.22-.02.22v.8h.02M506.39,345.56l-.02.02-.02.06v.1l-.02.14-.02.16-.02.2v.2l-.02.22-.02.22v.22l-.02.2v.3M506.29,347.6v-.3l.02-.2v-.24l.02-.22.02-.22v-.2l.02-.18.02-.14.02-.14v-.08l.02-.06M453.33,345.2h-.02M453.33,348.52h0M453.33,347.58h0M453.31,345.64h.02M453.33,347.38h0M398.42,345.2h0M398.42,348.52h0M398.42,347.58h0M398.42,345.64h0M398.42,347.38h0M516.33,351.64v-.84M516.33,350.8v-1.42M386.01,349.38h0v1.6M386.01,350.98v.66M394.1,345.28h-4.74M449.01,345.28h-50.59M503.9,345.28h-50.57M512.97,345.28h-4.74M394.1,345.32h-4.74M449.01,345.32h-50.59M503.9,345.32h-50.57M512.97,345.32h-4.74M394.1,345.34h-4.74M449.01,345.34h-50.59M503.9,345.34h-50.57M512.97,345.34h-4.74M389.36,353.32h123.61M389.36,353.38h123.61M513.89,353.46h-124.53M387.26,351.64v1.28M385.89,352.54v-.92M387.26,352.92h-1.04M385.89,352.96v.06M385.93,353.02h-.04M387.26,353.02h-.92M385.77,350.84h-.1M385.77,350.24v-.02l-.04-.02-.04-.04-.02-.04v-.08M385.89,349.4v-3.28M387.26,346.12v3.26M385.77,350.18h0l-.04-.04-.04-.04-.02-.02v-.1M385.67,349.72v-.04l.02-.02.04-.02h.04v-.02M516.43,351.62v1.06M515.07,352.92v-1.28M516.23,352.92h-1.16M516.09,353.02h-1.02M516.67,350.84h-.12M516.67,350.04l-.02.04v.04l-.02.04-.04.04-.02.02h-.02M515.07,349.38v-3.26M516.43,346.12v3.28M516.67,349.98l-.02.04v.06l-.02.02-.04.04-.02.04h-.02M516.55,349.62l.02.02h.02l.04.02.02.02v.02l.02.02M512.97,231.91h-123.61M512.97,231.95h-123.61M512.97,231.97h-123.61M389.36,235.89h123.61M389.36,235.87h123.61M512.97,329.1h-123.61M512.97,329.14h-123.61M512.97,329.16h-123.61M389.36,333.08h123.61M389.36,333.04h123.61M512.97,308.85h-123.61M512.97,308.89h-123.61M512.97,308.91h-123.61M389.36,312.83h123.61M389.36,312.79h123.61M512.97,195.48h-123.61M512.97,195.52h-123.61M512.97,195.54h-123.61M389.36,199.46h123.61M389.36,199.42h123.61M389.36,195.4h123.61M389.36,195.38h123.61M512.97,341.24h-123.61M512.97,341.28h-123.61M512.97,341.3h-123.61M508.23,345.22h4.74M453.33,345.22h50.57M398.42,345.22h50.59M389.36,345.22h4.74M508.23,345.2h4.74M453.31,345.2h50.59M398.42,345.2h50.59M389.36,345.2h4.74M512.97,333.14h-123.61M512.97,333.18h-123.61M512.97,333.2h-123.61M389.36,337.12h123.61M389.36,337.1h123.61M512.97,320.99h-123.61M512.97,321.03h-123.61M512.97,321.05h-123.61M389.36,324.98h123.61M389.36,324.96h123.61M512.97,235.95h-123.61M512.97,236.01h-123.61M512.97,236.03h-123.61M389.36,239.95h123.61M389.36,239.91h123.61M512.97,240.01h-123.61M512.97,240.05h-123.61M512.97,240.07h-123.61M389.36,243.99h123.61M389.36,243.97h123.61M512.97,215.73h-123.61M512.97,215.77h-123.61M512.97,215.79h-123.61M389.36,219.71h123.61M389.36,219.67h123.61M512.97,223.81h-123.61M512.97,223.85h-123.61M512.97,223.89h-123.61M389.36,227.79h123.61M389.36,227.77h123.61M512.97,211.67h-123.61M512.97,211.71h-123.61M512.97,211.73h-123.61M389.36,215.65h123.61M389.36,215.63h123.61M512.97,288.61h-123.61M512.97,288.65h-123.61M512.97,288.67h-123.61M389.36,292.59h123.61M389.36,292.57h123.61M512.97,280.5h-123.61M512.97,280.54h-123.61M512.97,280.56h-123.61M389.36,284.48h123.61M389.36,284.46h123.61M512.97,264.3h-123.61M512.97,264.34h-123.61M512.97,264.38h-123.61M389.36,268.28h123.61M389.36,268.26h123.61M512.97,248.12h-123.61M512.97,248.16h-123.61M512.97,248.18h-123.61M389.36,252.1h123.61M389.36,252.08h123.61M512.97,337.18h-123.61M512.97,337.22h-123.61M512.97,337.26h-123.61M389.36,341.16h123.61M389.36,341.14h123.61M512.97,272.4h-123.61M512.97,272.44h-123.61M512.97,272.46h-123.61M389.36,276.38h123.61M389.36,276.36h123.61M512.97,219.77h-123.61M512.97,219.81h-123.61M512.97,219.83h-123.61M389.36,223.75h123.61M389.36,223.73h123.61M512.97,316.93h-123.61M512.97,316.99h-123.61M512.97,317.01h-123.61M389.36,320.91h123.61M389.36,320.89h123.61M512.97,203.56h-123.61M512.97,203.62h-123.61M512.97,203.64h-123.61M389.36,207.55h123.61M389.36,207.53h123.61M512.97,268.36h-123.61M512.97,268.4h-123.61M512.97,268.42h-123.61M389.36,272.34h123.61M389.36,272.32h123.61M512.97,252.16h-123.61M512.97,252.2h-123.61M512.97,252.22h-123.61M389.36,256.14h123.61M389.36,256.12h123.61M512.97,325.04h-123.61M512.97,325.08h-123.61M512.97,325.1h-123.61M389.36,329.02h123.61M389.36,329h123.61M512.97,296.69h-123.61M512.97,296.75h-123.61M512.97,296.77h-123.61M389.36,300.67h123.61M389.36,300.65h123.61M512.97,300.75h-123.61M512.97,300.79h-123.61M512.97,300.81h-123.61M389.36,304.73h123.61M389.36,304.71h123.61M512.97,199.52h-123.61M512.97,199.56h-123.61M512.97,199.58h-123.61M389.36,203.5h123.61M389.36,203.48h123.61M512.97,292.65h-123.61M512.97,292.69h-123.61M512.97,292.71h-123.61M389.36,296.63h123.61M389.36,296.61h123.61M512.97,260.26h-123.61M512.97,260.3h-123.61M512.97,260.32h-123.61M389.36,264.24h123.61M389.36,264.22h123.61M512.97,256.2h-123.61M512.97,256.26h-123.61M512.97,256.28h-123.61M389.36,260.2h123.61M389.36,260.16h123.61M512.97,207.63h-123.61M512.97,207.67h-123.61M512.97,207.69h-123.61M389.36,211.61h123.61M389.36,211.59h123.61M512.97,312.89h-123.61M512.97,312.93h-123.61M512.97,312.95h-123.61M389.36,316.87h123.61M389.36,316.85h123.61M512.97,276.44h-123.61M512.97,276.5h-123.61M512.97,276.52h-123.61M389.36,280.42h123.61M389.36,280.4h123.61M512.97,227.87h-123.61M512.97,227.91h-123.61M512.97,227.93h-123.61M389.36,231.85h123.61M389.36,231.83h123.61M512.97,244.05h-123.61M512.97,244.09h-123.61M512.97,244.13h-123.61M389.36,248.04h123.61M389.36,248.02h123.61M512.97,304.79h-123.61M512.97,304.83h-123.61M512.97,304.85h-123.61M389.36,308.77h123.61M389.36,308.75h123.61M512.97,284.54h-123.61M512.97,284.58h-123.61M512.97,284.6h-123.61M389.36,288.53h123.61M389.36,288.51h123.61M257.28,158.91v.62M379.43,131.67h.42M379.19,158.91v.62M379.43,133.63h.42M257.74,363.29h.22M59.17,363.8v-.44M59.67,363.37v.44M153.34,363.29h1.2M257.14,363.29h.6M40.05,174.06l-.06-.02M39.97,347.08l-.04.02M53.43,354.16v-.08M169.64,363.87v-.06M49.95,134.29l.24.06M49.43,136.51l-.06-.02M73.04,132.33l.1.08M68.27,136.37v-.14M72.46,134.59h-22.33M56.13,363.34v-.02M159.36,400.83l.16.02M172.56,366.21l.12.1M159.66,396.79h-.16M252.22,400.79h-.16M239.02,366.15l-.12.12M251.92,396.73h.16M153.34,405.06v.04M69.85,398.13h-.04M50.37,364.37v-.22M153.34,364.51v1.14M69.85,398.13l.86.06M379.65,363.26h.22M257.96,363.26h.22M379.05,363.26h.6M258.18,363.26h.16M379.09,364.45v.02M258.3,364.47v-.02M379.09,365.53v-1.02M379.09,405.22v-.14M258.3,405.08v.14M258.3,364.51v1.02M380.11,363.71l-.08-.06-.06-.08-.06-.1-.02-.1-.02-.1M379.87,363.26v-.2M380.25,360.4h-.08M380.17,360.44h.08M380.11,363.26v-.2M380.11,363.34h0v-.08M380.11,363.34h.14M380.67,363.8h-.56M380.11,363.8v-.46M380.67,363.8h141.1M380.67,363.34v.46M522.19,363.34h.14M522.33,363.8h-.56M522.33,363.34v.46M521.77,363.8v-.46M522.55,172.04v-.08M522.19,171.92h0M522.19,363.07h.04l.02-.02.02-.04v-.02M522.19,363.34l.14-.02.1-.08.08-.08.04-.1M522.19,363.34h0v-.32M380.25,363.34h0v-.32M380.25,363.34h141.94M521.37,171.56l.84.08M522.19,171.92h0M522.55,172l-.02-.12-.06-.12-.1-.08-.14-.04h-.02M522.19,171.92l.02-.28M522.27,172v-.04l-.04-.02-.04-.02M521.99,171.64l.06.02.06.08.06.12.02.02M521.99,171.64l-141.7-12.4M380.25,159.45l.02-.1v-.1l.02-.02M522.55,174.14v-2.14M522.27,174.14v-2.14M522.55,172h-.28M380.17,159.57v14.56M379.87,159.57v14.56M379.87,159.57h.3M384.99,350.96l.02.36.04.34.1.34.14.32.18.32.2.28.24.26.26.24.3.2.3.18.34.12.34.1.34.06.36.02M514.27,354.1l.36-.02.36-.06.34-.1.32-.12.32-.18.28-.2.28-.24.24-.26.2-.28.18-.32.12-.32.1-.34.06-.34.02-.36M380.25,159.45l141.94,12.42M380.25,174.02v-14.56M522.19,174.02v-2.14M522.55,176.22v-.12M522.27,176.22v-.12M380.17,176.1v.12M379.87,176.1v.12M522.55,346.46v-.12M522.27,346.46v-.12M380.17,346.34v.12M379.87,346.34v.12M522.55,363.07v-16.02M522.27,363.07v-16.02M522.55,363.07h-.28M380.17,347.04v16.02M379.87,347.04v16.02M379.87,363.07h.3M522.55,176.1v-1.96M522.27,176.1v-1.96M522.55,176.1h-.28M522.55,174.14h-.28M380.17,174.14v1.96M379.87,174.14v1.96M379.87,174.14h.3M379.87,176.1h.3M522.55,347.04v-.58M522.27,347.04v-.58M522.55,346.46h-.28M522.55,347.04h-.28M380.17,346.46v.58M379.87,346.46h.3M379.87,346.46v.58M379.87,347.04h.3M517.45,347.08v3.92M517.45,351l-.02.36-.06.34-.1.34-.12.32-.18.32-.2.28-.24.26-.28.24-.28.2-.32.18-.32.12-.34.1-.36.06-.36.02M388.16,354.14l-.36-.02-.34-.06-.34-.1-.34-.12-.3-.18-.3-.2-.26-.24-.24-.26-.2-.28-.18-.32-.14-.32-.1-.34-.04-.34-.02-.36M384.99,351v-3.92M380.25,363.03v-15.94M380.25,363.03h141.94M522.19,363.03v-15.94M385.35,346.34h-.36M385.35,196.96v149.38M384.99,196.96h.36M517.09,196.96h.36M517.09,346.34v-149.38M517.45,346.34h-.36M384.99,347.08v-.74M380.25,347.08v-.74M380.25,347.08h4.74M517.45,346.34v.74M517.45,347.08h4.74M522.19,347.08v-.74M522.55,346.34h-.36M522.55,346.34v-170.12M522.19,176.22h.36M522.19,176.22v-2.2M380.25,174.02h141.94M380.25,176.22v-2.2M380.25,346.34h-.38M379.87,176.22h.38M379.87,176.22v170.12M388.16,193.8h126.11M514.27,193.8l.36.02.36.06.34.1.32.12.32.18.28.2.28.24.24.26.2.3.18.3.12.34.1.34.06.36.02.34M517.45,196.96v149.38M517.45,346.34h4.74M522.19,346.34v-170.12M380.25,176.22h141.94M380.25,346.34v-170.12M380.25,346.34h4.74M384.99,346.34v-149.38M384.99,196.96l.02-.34.04-.36.1-.34.14-.34.18-.3.2-.3.24-.26.26-.24.3-.2.3-.18.34-.12.34-.1.34-.06.36-.02M56.67,360.66v.06M56.61,360.62v-.08M52.11,351.48l.02-.04M52.75,352.7l-.04.02M52.69,352.66h.04M52.15,351.5l-.02.02M514.27,354l.36-.02.36-.08.36-.1.34-.16.32-.2.3-.22.26-.28.24-.28.2-.32.16-.36.1-.36.08-.36.02-.38M514.27,353.72l.32-.02.34-.06.32-.1.32-.14.28-.18.28-.22.24-.24.2-.26.18-.3.14-.32.1-.32.06-.34.04-.34M517.09,346.4v4.48M517.09,350.88h.28M517.37,346.4v4.48M517.37,346.4h-.28M385.07,350.88l.02.38.08.36.1.36.16.36.2.32.22.28.28.28.28.22.32.2.36.16.36.1.36.08.34.02M385.35,350.88l.02.34.06.34.1.32.14.32.18.3.22.26.24.24.26.22.3.18.32.14.32.1.34.06.3.02M385.07,346.4h.28M385.07,346.4v4.48M385.07,350.88h.28M385.35,346.4v4.48M522.27,172v-.08M522.19,171.92h.02M517.39,346.34v.68M517.39,347.02h.06M517.39,347.02v4.54M517.39,347.02l.02.02h.02l.02.02M517.39,196.38v.58M380.17,159.57h0M380.17,159.57h.08M380.25,359.9h-.08M380.17,359.68h.08M380.25,159.79h-.08M385.03,347.02v-.68M385.03,351.56v-4.54M384.99,347.06l.02-.02h.02v-.02M385.03,347.02h-.04M385.03,196.96v-.58M521.41,171.36h-.02M521.47,171.58l.02-.22M380.25,159.23h.04M521.39,171.36l-141.12-12.36M380.25,159.23l.02-.24M380.29,159.23h-.04M521.37,171.58l.02-.22M380.23,131.15h.02M380.15,131.09h0l.02.04.02.02h.04M380.23,131.15v.02M379.85,124.18v.02M380.31,123.82h-.16l-.08.02-.08.06-.06.06-.04.06-.02.08-.02.08M509.39,152.25l.02.02M509.39,152.25l-.02-.02-.02-.02h-.02l-.02-.02h-.02l-.04-.02h-.02l-.02-.02M509.23,152.17h-.02v-.02M509.21,152.15l-128.89-28.33M380.31,123.82h0M380.31,123.84v-.02M509.41,152.27l7.16,6.54M509.41,152.27l-.04.04M516.65,158.89l-.08-.08M516.57,158.81l-.06.08M516.65,158.89l.04.02.02.04.02.04M516.65,158.89l-.06.06M516.73,158.99l3.44,7.18M516.73,158.99l-.08.06M380.23,131.17h.02M380.23,131.17h-.04l-.02-.02-.02-.04v-.02M520.17,166.17l.14.28.12.24.1.22.1.2.08.18.06.14.06.14.06.08.02.08.02.04.02.02M379.85,124.2l.02-.08.02-.08.04-.08.06-.06.08-.04.08-.02.08-.02.08.02M380.25,131.03h-.06l-.02.02v.02h-.02v.04M380.31,130.75h-.16l-.08.04-.08.04-.06.06-.04.06-.02.08M380.15,131.03v3.06M379.85,131.03h.3M380.25,134.11v-3.08M380.25,131.03l.06-.28M380.15,134.09v.88M379.85,134.09h.3M379.85,125.1v-.9M379.85,134.09v.92M379.85,131.03v3.06M379.85,131.13v-.1M379.85,131.11v.02M379.85,131.11h0M379.85,124.2v6.9M379.85,135.01h.1M379.85,135.01v.3M380.25,134.11v.84M380.25,134.09v-.1M380.17,158.61h.02l.02.02h.04M380.25,158.63v.04M516.39,158.71l-7.16-6.54M509.23,152.17l-128.91-28.35M380.31,123.84v-.02M380.31,130.75v-6.9M516.39,158.71l-.04.18M498.34,158.97l18.04-.26M379.87,135.35v-.24M380.31,158.97l-.06-.02M380.21,158.97h.1M380.25,158.95h-.04M380.25,158.95l.02-.26M380.27,158.67h-.02M380.25,158.67l-.04.28M380.17,158.59h0v.04l.02.02.02.02h.04M380.21,158.97l-.12-.04-.12-.08-.08-.12-.02-.12M380.21,158.95v.02M379.87,158.59l.02.06.02.06.02.08.04.04.06.06.06.02.06.04h.06M379.87,135.11l.02-.04.02-.02.04-.02.04-.02.06-.02.06-.02.06-.02h.08M379.87,158.59v-23.49M380.17,158.59h-.3M380.25,158.59l-.04-.02h-.04v.02M380.25,158.47h-.14l-.12.02-.08.04-.04.06M380.25,158.59v-.12M497.38,159.75l.06-.14.1-.14.14-.1.16-.08.2-.04M498.34,158.97l-.04.18M499.5,162.49l-.5-.26-.46-.32-.42-.36-.24-.28-.2-.3-.08-.16M497.6,160.81l-.1-.32-.08-.28-.04-.24v-.24l.04-.2.06-.16.1-.14.14-.12.18-.08.2-.04.24-.02M498.34,158.97l-118.03-28.23M380.25,133.99v-.44l.02-.42v-.78l.02-.34v-.8l.02-.2v-.26M521.41,171.36l.64.04M522.43,170.88l-1.48-3.08M520.95,167.8l-.16.06M405.96,161.25l-.08-.02h-.12l-.12-.02h-.12l-.1-.02M424.12,162.83h-.1l-.08-.02h-.12l-.12-.02h-.12l-.1-.02h-.08M442.05,164.41h.14M442.19,164.41h-.1l-.08-.02h-.12l-.12-.02h-.12l-.1-.02h-.08.08l.06.02M460.25,166h-.1l-.08-.02h-.12l-.12-.02h-.12l-.1-.02h-.08.08l.1.02h.12l.12.02h.12l.08.02h.1M478.3,167.58h-.08l-.08-.02h-.12l-.12-.02h-.12l-.1-.02h-.08.08l.1.02h.12l.12.02h.12l.08.02h.08M496.36,169.16h-.08l-.08-.02h-.12l-.12-.02h-.12l-.1-.02h-.08.08l.1.02h.12l.12.02h.12l.08.02h.08M514.43,170.74h-.08l-.08-.02h-.12l-.12-.02h-.12l-.1-.02h-.08.08l.1.02h.12l.12.02h.12l.08.02h.08M381.35,159.09l-1-.08M522.07,171.4l-3.04-.26M522.05,171.4h0M522.05,171.4h.14l.12-.06.08-.1.06-.12v-.12l-.02-.12M522.43,170.88l-.2.08M501.14,163.07l19.58,4.66M499.5,162.49l.5.22.56.2.58.16M380.25,133.99l119.25,28.51M380.25,133.99v.96M380.25,134.95v23.53M520.73,167.74l1.5,3.16M522.23,171l-.02.04h-.02M522.23,170.9v.1M380.25,158.47l141.98,12.42M380.35,159.01l-.04-.04-.02-.06v-.1l-.02-.14-.02-.12v-.08M380.35,159.01l141.72,12.38M522.23,170.9l-.04.14-.02.12-.04.1-.04.1-.02.04M497.72,160.97l-.1-.28-.06-.26-.02-.22v-.22l.04-.18.06-.16.1-.12M498.62,159.11l17.95-.24M497.9,160.79l-.1-.28-.06-.24-.02-.24v-.2l.04-.2.06-.14.1-.14.12-.1.16-.08.2-.04.22-.02M520.01,166.06l-3.44-7.18M497.9,160.79l-.18.18M499.98,162.53l-.5-.24-.62-.38-.42-.34-.36-.42-.18-.36M501.22,162.93l-.42-.12-.42-.12-.4-.16M520.73,167.58h0l-.02-.04-.04-.06-.04-.1-.06-.12-.06-.14-.08-.16-.1-.2-.1-.2-.1-.24-.12-.26M497.9,160.79l22.11,5.26M520.69,167.74l.04-.16M501.22,162.93l19.51,4.64M501.18,163.07l.04-.14M380.25,405.22v-.08M522.19,405.14v.08M522.19,364.39v.1M380.25,364.49v-.1M380.17,364.49h.08M380.25,405.14h-.08M380.25,405.52h0v.02M522.19,405.54h0v-.02M522.19,364.49h.08M522.27,405.14h-.08M522.19,364.11h0v-.02M380.25,364.08h0v.02M379.87,405v.14M380.17,405.14v-.06M379.87,405.14l.02.06.02.08.04.06.04.06.06.04.06.04.06.02.08.02M380.17,405.14v.04l.02.02.02.02h.04M380.17,405.14h-.3M380.25,405.52h.02M380.25,405.22h.12M380.25,405.22v.3M522.27,405.08v.06M522.55,405.14v-.14M522.19,405.52l.06-.02.08-.02.06-.04.06-.04.04-.06.04-.06.02-.08v-.06M522.19,405.22h.04l.02-.02v-.02h.02v-.04M522.27,405.14h.28M522.07,405.22h.12M522.15,405.52h.04M522.19,405.22v.3M380.25,405.54l.02-.02.02-.04v-.02M380.25,405.82v-.28M522.19,405.82h-141.94M380.25,405.82l.02-.02v-.08l.02-.1v-.12M522.13,405.46l.02.02.02.04.02.02M522.13,405.5l.02.12.02.1v.08l.02.02M522.19,405.82v-.28M380.29,405.46l.08-.12M380.29,405.46v.04M522.13,405.46v.04M522.07,405.34l.06.12M380.29,405.5l.08-.14M380.29,405.5h141.84M522.05,405.36l.08.14M380.25,364.39l-.04.02-.02.02-.02.02v.04M380.25,364.11l-.14.04-.12.08-.08.12-.04.14M380.27,364.11h-.02M380.25,364.39v-.28M380.41,364.39h-.16M522.27,364.49v-.04l-.02-.02-.04-.02-.02-.02M522.55,364.49l-.02-.14-.08-.12-.12-.08-.14-.04M522.19,364.39h-.16M522.19,364.11h-.04M522.19,364.39v-.28M380.17,364.49h.04v.02h.04M380.17,364.49h-.3M380.33,364.51l.38.64M379.87,405v-40.51M379.99,405.04h0l-.04-.02h-.04l-.02-.02h-.02M379.87,364.49h.02l.02.02h.04l.04.02h.18l.08.02M380.33,405.04h-.06M380.37,404.98l-.04.06M380.33,364.54l.36.6M380.25,364.51h.08M380.25,364.51v.04M380.25,364.54h.08M380.33,364.54v-.04M521.73,365.15l.38-.64M522.11,364.51h.08M522.11,364.54v-.04M522.17,405.04h-.06M522.11,364.54h.08M521.75,365.15l.36-.6M522.11,405.04l-.04-.06M522.19,364.51h.02l.02-.02h.04M522.19,364.51v.04M522.27,364.49h.28M522.55,364.49v40.51M522.19,364.54l.06-.02h.2l.04-.02h.04l.02-.02M522.55,405h0l-.02.02h-.04l-.04.02M522.13,364.23l-.54.92M380.85,365.15l-.54-.92M380.31,364.17h-.02v-.04l-.02-.02v-.02h-.02M380.25,363.8v.28M522.19,364.08h-.02l-.02.02v.02l-.02.04M522.19,363.8v.28M380.31,364.23l-.02-.14v-.12l-.02-.08v-.06l-.02-.02M522.13,364.23h-141.82M522.19,363.8l-.02.02-.02.08v.1l-.02.12v.1M522.45,400.65v.26M522.17,400.71v.2M380.27,400.71v.06M379.99,400.65v.12M522.45,400.92v.04M522.17,400.92v.04M522.45,400.92h-.28M522.45,400.95v4.12M522.17,400.95v4.12M522.45,405.08h-.28M522.45,400.95h-.28M380.27,400.77v.02M379.99,400.77v.02M379.99,400.77h.28M380.27,400.79v4.28M379.99,400.79v4.28M379.99,400.79h.28M379.99,405.08h.28M380.37,405.36v-4.64M522.07,405.36h-141.7M522.07,405.36v-4.64M380.27,365.53v.9M379.99,365.53v.9M379.99,365.53h.28M522.45,365.53v.9M522.45,365.53h-.28M522.17,365.53v.9M380.37,366.07v-.92M522.07,366.07v-.92M522.07,365.15h-141.7M380.27,366.43h.02v.02h.08M380.27,366.43h-.28M379.99,366.43v.02h.02l.04.02h.1l.08.02h.14M379.99,366.43v34.23M380.37,400.71h-.22l-.04-.02h-.06l-.04-.02h-.02v-.02M522.45,400.65l-.02.02h-.02l-.02.02h-.06l-.06.02h-.2M522.45,366.43v34.23M522.17,366.43h.28M522.07,366.45h.08v-.02h.02M522.07,366.49h.14l.06-.02h.12l.02-.02h.02l.02-.02M380.37,400.71v-34.23M522.07,400.71h-141.7M522.07,400.71v-34.23M380.37,366.49v-.42M522.07,366.49h-141.7M522.07,366.49v-.42M522.07,366.07h-141.7M515.59,353.82h-.3M515.25,353.54h-.98M516.09,353.54h-.2M386.84,353.82h.32M387.2,353.54h.96M386.34,353.54h.22M388.16,355.2v-1.28M388.16,355.2l.02.18.06.18.08.14.12.14.12.12.16.08.18.04.18.02M513.37,356.1h-124.29M513.37,356.1l.18-.02.16-.04.16-.08.14-.12.12-.14.08-.14.06-.18v-.18M514.27,353.92v1.28M388.16,353.92v-.38M388.16,353.54h126.11M514.27,353.92h-126.11M514.27,353.54h0v.38M514.79,353.44h.06M514.79,351.64v1.8M514.79,193.84v155.54M517.29,196.96v-1.02M517.29,346.4v-.06M517.29,351.98v-.4M516.03,353.44h.2M514.85,353.44h.6M387.54,349.38v-155.52M387.54,353.54v-1.9M387.54,354.04v-.1M514.65,354.08v-.1M515.15,353.86v.12M517.35,351.26v.54M517.35,346.34v.06M517.35,196.12v.84M389.24,349.38v-155.58M389.24,353.54v-1.9M387.64,353.96v.1M387.64,351.64v1.9M387.64,193.84v155.54M512.97,353.44h0M513.09,353.44h-.12M514.79,353.44h-.08M514.71,353.44h-.02M514.69,353.44h-1.6M513.09,351.64v1.8M513.09,193.8v155.58M514.69,349.38v-155.56M514.69,353.44v-1.8M398.4,353.18v-.4M394.12,352.78v.4M398.4,353.32v-.14M394.12,353.32v-.14M394.12,353.18h4.28M394.12,353.32h4.28M453.31,353.18v-.4M449.01,352.78v.4M453.31,353.32v-.14M449.01,353.32v-.14M449.01,353.18h4.3M449.01,353.32h4.3M508.21,353.18v-.36M503.92,352.82v.36M508.21,353.32v-.14M503.92,353.32v-.14M503.92,353.18h4.28M503.92,353.32h4.28M508.23,345.64v-.44M508.23,347.3v-1.66M503.92,347.3v-1.64M504.99,347.3h.22M503.92,347.3h1M507.17,347.3h1.06M508.23,352.82v-.98M503.92,352.82v-.98M506.08,352h-.06l-.02-.02-.04-.02v-.06l.04-.02h.02l.06-.02M503.92,352.82h4.3M508.23,349.56v-.94M503.92,349.56v-.94M506.03,348.62h-2.1M508.23,348.62h-1.86M508.23,351.84v-2.28M503.92,351.84v-2.28M507.33,347.78l-.02-.06v-.04M508.23,348.6v-1.3M508.23,347.3h-1.06M507.17,347.3l.1.14.04.18.02.16-.04.16-.06.16-.12.16-.14.12-.18.1-.18.08-.22.04M508.23,348.6v.02M506.39,348.6h1.84M506.39,348.6v.02M505.08,347.6l-.02.12v.04M503.92,347.3v1.3M505.08,347.54l.04-.1.08-.14M505.99,348.6l-.2-.04-.2-.08-.18-.1-.14-.12-.1-.16-.08-.16-.02-.16v-.16M504.92,347.3h-1M505.21,347.3h-.22M505.99,348.62v-.02M503.92,348.6h2.06M503.92,348.6v.02M454.05,346.72v-.68M399.16,346.72v-.68M398.42,345.02v-.14M394.1,344.88v.14M395.14,344.88h-1.04M398.42,344.88h-1.04M398.42,345.56v.1M394.1,345.56v.1M394.1,345.66h4.32M398.42,345.56v-.54M394.1,345.02v.54M394.1,345.56h4.32M394.1,345.02h4.32M453.31,345.02v-.14M449.01,344.88v.14M450.03,344.88h-1.02M453.31,344.88h-1.02M453.31,345.56v.1M449.01,345.56v.1M449.01,345.66h4.3M453.31,345.56v-.54M449.01,345.02v.54M449.01,345.56h4.3M449.01,345.02h4.3M508.23,345.02v-.14M503.9,344.88v.14M504.95,344.88h-1.04M508.23,344.88h-1.04M508.23,345.56v.1M503.9,345.56v.1M506.45,345.66h1.78M503.9,345.66h2.16M508.23,345.56v-.54M503.9,345.02v.54M506.27,345.56h1.96M503.9,345.56h2.22M503.9,345.02h4.32M451.35,343.84h-.32M451.17,343.78h.54l.1.02h.06l.06.02h-.12l-.1.02h-1.1l-.1-.02h-.12l.06-.02h.06l.1-.02h.56M450.03,344.94v.02h.14l.14.02h.34l.2.02h.64l.2-.02h.32l.14-.02h.14v-.02M506.25,343.84h-.32M506.07,343.78h.54l.1.02h.08l.04.02h-.12l-.1.02h-1.08l-.1-.02h-.12l.04-.02h.08l.1-.02h.54M504.92,344.94l.02.02h.14l.12.02h.34l.2.02h.64l.2-.02h.34l.12-.02h.14l.02-.02M396.44,343.84h-.32M396.26,343.78h.54l.1.02h.08l.04.02h-.12l-.1.02h-1.08l-.1-.02h-.12l.04-.02h.08l.1-.02h.54M395.12,344.94l.02.02h.14l.12.02h.34l.2.02h.64l.2-.02h.34l.12-.02h.14l.02-.02M505.07,347.88v-.22M507.33,347.7h0v.04M505.08,347.54v-.04l.04-.06M505.07,347.66v-.08M506.25,352.68h-.1M506.08,352.64v-.02M506.15,352.68h-.04l-.02-.02v-.02M506.15,352.68h0M506.31,352.64h0v.02l-.02.02h-.04M506.25,352.68h0M506.08,349.72v.66M506.08,350.38v.2M506.08,350.38h.22M506.08,350.58v.18M506.08,350.58h.22M506.08,350.76v.26M506.08,350.76h.22M506.08,351.02v.2M506.08,351.02h.22M506.08,351.22v.12M506.08,351.22h.22M506.08,351.34v.18M506.08,351.34h.22M506.08,351.52v.3M506.08,351.52h.22M506.31,350.38v-.66M506.31,350.58v-.2M506.31,350.76v-.18M506.31,351.02v-.26M506.31,351.22v-.2M506.31,351.34v-.12M506.31,351.52v-.18M506.31,351.82v-.3M506.31,352.64v-.02M506.31,349.96v2.68M506.15,352.68h-.04l-.02-.02v-.04M506.25,352.68h-.1M506.25,352.68h.04v-.02h.02v-.04M506.31,352.62v-.8M506.08,351.82h.22M506.08,351.82v.8M506.37,347.96v-.06.22M506.37,348.12v-.1M506.08,349.72h.22M506.03,347.66v2.24M506.31,349.72v.24M506.37,349.9v-2.24M506.37,346.22v-.06.2-.04M506.37,346.32v-.04M506.08,345.6h0l-.02.06v.08l-.02.14-.02.14M506.03,346.02l-.02.18v.2l-.02.22-.02.22v.24l-.02.2v.52l.02.04M506.45,346.3l-.02.08v.22l-.02.24v.22l-.02.2-.02.18M506.43,345.62h0l.02.04v.58M506.37,347.44l-.02.14v.04M453.33,348.52v.04M453.33,345.64v-.44M453.33,348.52v-.88M453.33,347.58v.06M453.33,347.64h0M453.33,347.58v-.2M453.33,347.26v-1.62M449.01,347.26v-1.6M453.33,347.38v-.12M449.01,347.26v.02M449.01,347.26h4.32M453.33,352.78v-.98M449.01,352.78v-.98M451.29,351.9l-.02.02-.02.02-.04.02h-.08l-.04-.02-.02-.02-.02-.02.02-.04.02-.02h.04l.04-.02.04.02h.04l.02.02.02.04M449.01,352.78h4.32M453.33,349.5v-.92M449.01,349.5v-.92M453.33,348.58h-4.32M453.33,351.8v-2.3M449.01,351.8v-2.3M449.01,349.5h4.32M449.01,351.8h4.32M398.42,348.52v.04M398.42,345.64v-.44M398.42,348.52v-.88M398.42,347.58v.06M398.42,347.64h0M398.42,347.58v-.2M398.42,347.26v-1.62M394.12,347.26v-1.6M398.42,347.38v-.12M394.12,347.26v.02M394.12,347.26h4.3M398.42,352.78v-.98M394.12,352.78v-.98M396.38,351.9v.02l-.02.02-.04.02h-.1l-.02-.02-.04-.02v-.06l.04-.02h.02l.06-.02.04.02h.04l.02.02v.04M394.12,352.78h4.3M398.42,349.5v-.92M394.12,349.5v-.92M398.42,348.58h-4.3M398.42,351.8v-2.3M394.12,351.8v-2.3M394.12,349.5h4.3M394.12,351.8h4.3M396.02,347.9v-.04M396.58,347.9v-.04M396.76,347.74v-.04M395.22,347.9v-.04M395.18,347.92v-.04M395.1,347.92v-.04M395.18,347.78h.04M395.1,347.78h.08M395.1,347.88v-.1M395.18,347.88h-.08M395.22,347.86h-.02v.02h-.02M395.22,347.78v.02h.02v.02h.02l-.02.02v.02h-.02M395.3,347.7v.04M395.3,347.98v-.04M396.02,348.08v-.04M397.34,347.8h-.02l-.04.02-.02.02h-.02v.04h-.02v.08h.02v.04h.02v.02h.02l.02.02h.08l.04-.02v-.02h.02v-.04h.02v-.08h-.02v-.04h-.02l-.02-.02-.04-.02h-.02M396.58,347.74h-.16M396.96,347.74h-.2M396.76,347.74l-.18.16M396.3,347.74h-.46M396.32,348.08h-.3M396.28,347.9h-.26M395.26,347.86l-.02.02v.02h-.02M395.22,347.9h-.04v.02M395.18,347.92h-.08M395.36,348.02h0v-.02h-.02l-.02-.02h-.02M395.42,347.84v-.02l-.04-.04-.04-.04h-.04M395.3,347.74h-.38M395.7,347.74h-.16M397.46,347.96h0v.04l-.02.02v.02h-.02l-.02.02-.02.02h-.08l-.02-.02-.02-.02-.02-.02-.02-.02v-.04M396.8,347.86v.04M396.98,348.14l-.18-.24M395.36,348.02v-.04M395.44,348.14l-.08-.12M397.04,347.96l.02-.08.06-.08.06-.04.1-.04h.06M397.34,347.72l.1.02.08.02.06.06.04.08.02.06M398.42,348.58v-1.3M397.34,347.68l.1.02.08.04.06.04.04.08.02.08-.04.08-.04.06-.08.04-.1.02h-.1l-.1-.02-.06-.06-.06-.06-.02-.08.02-.08.06-.06.06-.06.1-.04h.06M396.02,347.8v.06M396.02,347.86h.26M396.28,347.86v.08M396.28,347.94h-.26M396.02,347.94v.1M396.02,348.04h.3M396.32,348.04v.1M396.32,348.14h-.48M395.84,348.14v-.44M395.84,347.7h.46M396.3,347.7v.1M396.3,347.8h-.28M394.92,348.14v-.44M394.92,347.7h.38M395.3,347.7l.04.02.04.02.04.04v.08l-.02.04-.06.02-.04.02M395.3,347.94h.02v.02h.02l.02.02M395.36,347.98l.12.16M395.48,348.14h-.2M395.28,348.14l-.12-.16M395.16,347.98h0l-.02-.02h-.02M395.12,347.96h-.02M395.1,347.96v.18M395.1,348.14h-.18M396.76,347.7h.24M397,347.7l-.2.16M396.8,347.86l.22.28M397.02,348.14h-.22M396.8,348.14l-.12-.18M396.68,347.96l-.1.08M396.58,348.04v.1M396.58,348.14h-.16M396.42,348.14v-.44M396.42,347.7h.16M396.58,347.7v.16M396.58,347.86l.18-.16M395.7,347.7v.44M395.7,348.14h-.16M395.54,348.14v-.44M395.54,347.7h.16M398.42,347.28h-4.3M394.12,348.58v-1.3M398.42,348.58h-4.3M394.12,348.58v.42M394.12,349h0M450.91,347.9v-.04M451.49,347.9v-.04M451.67,347.74v-.04M450.11,347.9v-.04M450.07,347.92v-.04M449.99,347.92v-.04M450.07,347.78h.04M449.99,347.78h.08M449.99,347.88v-.1M450.07,347.88h-.08M450.11,347.86h0v.02h-.04M450.11,347.78l.02.02h.02v.06h-.04M450.19,347.7v.04M450.19,347.98v-.04M450.91,348.08v-.04M452.23,347.8h-.02l-.02.02-.04.02v.02h-.02v.12h.02v.04h.02l.04.02h.08l.02-.02h.02v-.02l.02-.02v-.12h-.02v-.02l-.04-.02-.02-.02h-.04M451.49,347.74h-.18M451.87,347.74h-.2M451.67,347.74l-.18.16M451.21,347.74h-.48M451.21,348.08h-.3M451.19,347.9h-.28M450.15,347.86v.02l-.02.02h-.02M450.11,347.9h-.02v.02h-.02M450.07,347.92h-.08M450.27,348.02h-.02v-.02h-.02v-.02h-.04M450.33,347.84l-.02-.02-.02-.04-.04-.04h-.06M450.19,347.74h-.36M450.61,347.74h-.18M452.35,347.96h0v.06l-.02.02-.02.02-.04.02h-.06l-.02-.02-.04-.02v-.02h-.02v-.06M451.69,347.86v.04M451.89,348.14l-.2-.24M450.27,348.02v-.04M450.35,348.14l-.08-.12M451.95,347.96l.02-.08.04-.08.08-.04.08-.04h.06M452.23,347.72l.1.02.08.02.08.06.04.08v.06M452.23,347.68l.1.02.08.04.08.04.04.08v.08l-.02.08-.06.06-.08.04-.1.02h-.1l-.08-.02-.08-.06-.04-.06-.02-.08.02-.08.04-.06.08-.06.08-.04h.06M450.91,347.8v.06M450.91,347.86h.28M451.19,347.86v.08M451.19,347.94h-.28M450.91,347.94v.1M450.91,348.04h.3M451.21,348.04v.1M451.21,348.14h-.48M450.73,348.14v-.44M450.73,347.7h.48M451.21,347.7v.1M451.21,347.8h-.3M449.83,348.14v-.44M449.83,347.7h.36M450.19,347.7l.06.02.04.02.02.04.02.04-.02.04-.02.04-.04.02-.06.02M450.19,347.94h.02l.02.02h.02v.02h.02M450.27,347.98l.1.16M450.37,348.14h-.2M450.17,348.14l-.1-.16M450.07,347.98h-.02v-.02h-.04M450.01,347.96h-.02M449.99,347.96v.18M449.99,348.14h-.16M451.67,347.7h.24M451.91,347.7l-.22.16M451.69,347.86l.22.28M451.91,348.14h-.22M451.69,348.14l-.12-.18M451.57,347.96l-.08.08M451.49,348.04v.1M451.49,348.14h-.18M451.31,348.14v-.44M451.31,347.7h.18M451.49,347.7v.16M451.49,347.86l.18-.16M450.61,347.7v.44M450.61,348.14h-.18M450.43,348.14v-.44M450.43,347.7h.18M453.33,347.28h-4.32M449.01,348.58v-1.3M453.33,348.58v-1.3M453.33,348.58h-4.32M449.01,348.58v.42M449.01,349h0M516.09,351.64h0v-2.26M386.23,351.64h0v-2.26M516.09,351.64v-.84M516.09,350.8v-1.42M516.55,351.4v.02-.68M516.55,350.74v-1.12M386.23,349.38h0v1.6M386.23,350.98v.66M385.77,349.6h0v1.28M513.89,353.46v-.02M512.97,353.38h-123.61M513.89,353.54v-.08M386.62,351.72h-.08M386.41,351.9h0v-.06l.02-.02M386.71,351.84h.02v.04l-.02.02v.02M386.62,352.02h-.1M386.48,351.82h.04v-.02h.02v-.02M386.62,351.78v.02h.02v.02h.02M386.27,351.9v-.08h.02M386.54,351.72v-.08M386.54,351.78h0M386.54,351.78v-.06M386.62,351.64v.08M386.62,351.72v.06M386.62,351.78h.02M386.85,351.84v.08M386.27,351.82h.02M386.29,351.82h.14M386.44,351.82h.04M386.48,351.82h0M386.52,351.96v-.04h-.04v-.02M386.66,351.92h-.02l-.02.02v.02M386.71,351.84h.14M386.88,351.84h-.02M386.66,351.82h0M386.66,351.82l.06.02M386.41,351.9h-.14M386.27,351.88v.02M386.48,351.92v-.02M386.48,351.9h-.06M386.88,351.92h-.02M386.85,351.92h-.14M386.71,351.92h-.06M386.66,351.92h0M386.6,352.16h-.08M386.52,352.16h0M386.52,352.16v-.14M386.52,352.02v-.06M386.52,351.96h0M386.62,352.02l-.02.1v.04M386.6,352.18v-.02M386.62,351.96h0M386.62,351.96v.06M387.1,351.86v.04l-.02.14-.08.14-.1.1-.12.08-.16.04-.14-.02-.14-.04-.12-.1-.1-.1-.06-.14v-.14M386.54,351.78v-.14M386.62,351.64l.02.14M386.66,351.82h-.02v-.04M386.66,351.82l.22.02M386.88,351.84v.08M386.88,351.92h-.22M386.62,351.96h0v-.02h.02v-.02h.02M386.62,351.96l-.02.22M386.6,352.18l-.08-.02M386.52,352.16v-.2M386.48,351.92h.04v.04M386.48,351.92l-.2-.04M386.27,351.88v-.06M386.27,351.82h.2M386.54,351.78h-.02v.02l-.02.02h-.02M387.06,351.64l.02.1.02.16M387.1,351.9l-.02.14-.08.14-.1.1-.12.08-.16.04-.14-.02-.14-.04-.12-.1-.1-.1-.06-.14v-.16l.02-.14.02-.06M386.62,344.46h-.08M386.41,344.64h0v-.06l.02-.02M386.71,344.58h.02v.06h-.02v.02M386.62,344.76h-.1M386.56,344.32h.06M386.48,344.56h.04v-.02h.02v-.02M386.62,344.52v.02l.02.02h.02v.02M386.27,344.64v-.08h.02M386.54,344.46l.02-.1v-.04M386.56,344.3v.02M386.54,344.52h0M386.54,344.52v-.06M386.62,344.32h0M386.62,344.32v.14M386.62,344.46v.06M386.62,344.52h.02M386.85,344.58v.08M386.27,344.56h.02M386.29,344.56h.14M386.44,344.56h.04M386.48,344.56h0M386.52,344.7v-.04h-.04M386.66,344.66h0l-.02.02h-.02v.02M386.71,344.58h.14M386.88,344.58h-.02M386.66,344.56v.02M386.66,344.58h.06M386.41,344.64h-.14M386.27,344.64h0M386.48,344.66h0M386.48,344.66l-.06-.02M386.88,344.66h-.02M386.85,344.66h-.14M386.71,344.66h-.06M386.66,344.66h0M386.6,344.9h-.08M386.52,344.92v-.02M386.52,344.9v-.14M386.52,344.76v-.06M386.52,344.7h0M386.62,344.76l-.02.1v.04M386.6,344.92v-.02M386.62,344.7h0M386.62,344.7v.06M387.1,344.62v.02l-.02.14-.08.14-.1.1-.12.08-.16.04-.14-.02-.14-.04-.12-.08-.1-.12-.06-.14v-.12M386.54,344.52l.02-.22M386.56,344.3l.06.02M386.62,344.32l.02.2M386.66,344.56h-.02v-.04M386.66,344.56l.22.02M386.88,344.58v.08M386.88,344.66h-.22M386.62,344.7h0v-.02h.02l.02-.02M386.62,344.7l-.02.22M386.6,344.92h-.08M386.52,344.92v-.22M386.48,344.66h.02l.02.02v.02M386.48,344.66l-.2-.02M386.27,344.64v-.08M386.27,344.56h.2M386.54,344.52h0l-.02.02v.02h-.04M387.1,344.64l-.02.14-.08.14-.1.1-.12.08-.16.04-.14-.02-.14-.04-.12-.08-.1-.12-.06-.14v-.16l.02-.14.06-.14.12-.1.12-.08.14-.04.16.02.14.04.12.08.1.12.04.14.02.16M515.81,344.46h-.1M515.61,344.64h0l-.02-.02v-.02l.02-.02v-.02M515.91,344.58h0v.08M515.79,344.76h-.08M515.73,344.32h.08M515.67,344.56h.02l.02-.02v-.02M515.81,344.52v.04h.02l.02.02M515.47,344.64v-.08M515.71,344.46l.02-.1v-.04M515.73,344.3v.02M515.71,344.52h0M515.71,344.52v-.06M515.81,344.32h0M515.81,344.32v.14M515.81,344.46v.06M515.81,344.52h0M516.05,344.58v.08M515.45,344.56h.02M515.47,344.56h.14M515.61,344.56h.06M515.67,344.56h0M515.71,344.7v-.02h-.02v-.02h-.02M515.85,344.66h-.04v.02h-.02v.02M515.91,344.58h.14M516.05,344.58h0M515.85,344.56v.02M515.85,344.58h.06M515.61,344.64h-.14M515.45,344.64h.02M515.67,344.66h0M515.67,344.66l-.06-.02M516.05,344.66h0M516.05,344.66h-.14M515.91,344.66h-.06M515.85,344.66h0M515.77,344.9h-.06M515.71,344.9h0M515.71,344.9v-.14M515.71,344.76v-.06M515.71,344.7h-.02M515.79,344.76v.1l-.02.04M515.77,344.92v-.02M515.79,344.7h0M515.79,344.7v.06M516.29,344.62v.02l-.04.14-.06.14-.12.1-.12.08-.14.04-.16-.02-.14-.04-.12-.08-.1-.12-.04-.14-.02-.12M515.71,344.52l.02-.22M515.73,344.3l.08.02M515.81,344.32v.2M515.85,344.56h-.04v-.04M515.85,344.56l.2.02M516.05,344.58v.08M516.05,344.66h-.2M515.79,344.7h.02v-.02l.02-.02h.02M515.79,344.7l-.02.22M515.77,344.92l-.06-.02M515.71,344.9l-.02-.2M515.67,344.66h.02v.04M515.67,344.66l-.22-.02M515.45,344.64v-.08M515.45,344.56h.22M515.71,344.52h0v.02h-.02v.02h-.02M516.29,344.64l-.04.14-.06.14-.12.1-.12.08-.14.04-.16-.02-.14-.04-.12-.08-.1-.12-.04-.14-.02-.16.02-.14.08-.14.1-.1.12-.08.16-.04.14.02.14.04.12.08.1.12.06.14.02.16M515.81,351.72h-.1M515.61,351.9h0l-.02-.02v-.02l.02-.02v-.02M515.91,351.84h0v.08M515.79,352.02h-.08M515.67,351.82h.02l.02-.02v-.02M515.81,351.78v.02l.02.02h.02M515.47,351.9v-.08M515.71,351.72l.02-.08M515.71,351.78h0M515.71,351.78v-.06M515.81,351.64v.08M515.81,351.72v.06M515.81,351.78h0M516.05,351.84v.08M515.45,351.82h.02M515.47,351.82h.14M515.61,351.82h.06M515.67,351.82h0M515.71,351.96v-.02l-.02-.02h-.02v-.02M515.85,351.92h-.04v.02h-.02v.02M515.91,351.84h.14M516.05,351.84h0M515.85,351.82h0M515.85,351.82l.06.02M515.61,351.9h-.14M515.45,351.88h0l.02.02M515.67,351.92v-.02M515.67,351.9h-.06M516.05,351.92h0M516.05,351.92h-.14M515.91,351.92h-.06M515.85,351.92h0M515.77,352.16h-.06M515.71,352.16h0M515.71,352.16v-.14M515.71,352.02v-.06M515.71,351.96h-.02M515.79,352.02v.1l-.02.04M515.77,352.16h0M515.79,351.96h0M515.79,351.96v.06M516.29,351.86v.04l-.04.14-.06.14-.12.1-.12.08-.14.04-.16-.02-.14-.04-.12-.1-.1-.1-.04-.14-.02-.14M515.71,351.78l.02-.14M515.81,351.64v.14M515.85,351.82h-.02l-.02-.02v-.02M515.85,351.82l.2.02M516.05,351.84v.08M516.05,351.92h-.2M515.79,351.96h.02v-.04h.04M515.79,351.96l-.02.2M515.77,352.16h-.06M515.71,352.16l-.02-.2M515.67,351.92h.02v.04M515.67,351.92l-.22-.04M515.45,351.88v-.06M515.45,351.82h.22M515.71,351.78h0l-.02.02-.02.02M516.23,351.64l.04.1.02.16M516.29,351.9l-.04.14-.06.14-.12.1-.12.08-.14.04-.16-.02-.14-.04-.12-.1-.1-.1-.04-.14-.02-.16.02-.14.02-.06M387.48,352.8h0M387.48,352.8v.06l-.02.04-.02.04-.02.02-.04.04-.04.02h-.04l-.04.02M385.67,352.8h0M385.89,353.04l-.04-.02h-.04l-.04-.02-.04-.04-.04-.02-.02-.04v-.1M387.26,353.04v-.02M385.89,353.04v-.02M385.93,353.04h-.04M387.26,353.04h-.9M387.26,343.44l.04.02h.04l.04.02.04.04.04.08.02.08M385.67,343.68v-.08l.06-.08.04-.04.04-.02h.04l.04-.02M387.26,343.56v-.12M385.89,343.44h1.36M385.89,343.44v.12M386.01,344.62v-.12l.06-.14.08-.14.12-.1.14-.06.16-.02M386.58,344.04l.16.02.14.06.12.1.08.14.06.14v.12M387.48,343.68v2.16M387.48,343.68l-.02-.04-.04-.04-.04-.02-.04-.02h-.08M386.58,344.04l.16.02.14.06.12.1.08.12.06.16v.14l-.02.16-.08.14-.1.1-.14.1-.14.04h-.16l-.14-.04-.14-.1-.1-.1-.08-.14-.02-.16v-.14l.06-.16.08-.12.12-.1.14-.06.16-.02M387.26,343.56v2.28M385.89,343.56h1.36M385.67,343.68v2.16M385.89,345.84v-2.28M385.89,343.56h-.08l-.04.02-.04.02-.06.04v.04M386.01,351.86v-.1l.04-.12M387.1,351.64l.04.12v.1M387.48,352.8l-.02.08-.04.08-.04.04-.04.02h-.08M387.48,351.64v1.16M387.26,352.92h.04l.04-.02h.04l.04-.02.04-.04.02-.04M385.89,353.02h-.08l-.04-.02-.04-.04-.06-.08v-.08M385.67,352.7v.1M385.67,350.84v1.32M385.67,352.8v.04l.06.04.04.02h.04l.02.02M387.1,351.64l.04.12v.14l-.02.16-.08.14-.1.1-.14.08-.14.04h-.16l-.14-.04-.14-.08-.1-.1-.08-.14-.02-.16v-.14l.04-.12M387.26,353.02h0v-.1M385.89,345.84h1.36M385.67,345.84v.4M385.89,346.12v-.28M385.89,345.84h-.22M387.48,345.84v.4M387.48,345.84h-.22M387.26,345.84v.28M385.67,350.04v.8M385.67,349.98v.06M387.26,346.12h-1.36M385.89,346.12h-.04l-.04.02h-.04l-.04.02-.04.02-.02.02v.04M385.67,346.24v3.48M387.48,346.24v3.14M387.48,346.24v-.02l-.02-.02-.02-.02-.02-.02-.04-.02h-.04l-.04-.02h-.04M385.67,349.72v.26M516.65,352.86v.04l-.02.04-.04.02-.02.04-.04.02h-.02M514.85,352.8h0M515.07,353.04l-.04-.02h-.04l-.04-.02-.04-.04-.02-.02-.02-.04-.02-.04v-.06M515.07,353.04v-.02M516.09,353.04h-1.02M516.43,343.44l.04.02h.04l.04.02.04.04.06.08.02.08M514.85,343.68l.02-.08.04-.08.04-.04.04-.02h.04l.04-.02M516.43,343.56v-.12M515.07,343.44h1.36M515.07,343.44v.12M515.19,344.62v-.12l.06-.14.08-.14.12-.1.16-.06.14-.02M515.75,344.04l.16.02.14.06.12.1.08.14.06.14.02.12M516.67,343.68v2.16M516.67,343.68l-.02-.04-.06-.04-.04-.02-.04-.02h-.08M515.75,344.04l.16.02.14.06.12.1.08.12.06.16v.14l-.02.16-.08.14-.1.1-.14.1-.14.04h-.16l-.14-.04-.14-.1-.1-.1-.08-.14-.02-.16v-.14l.06-.16.08-.12.12-.1.16-.06.14-.02M516.43,343.56v2.28M515.07,343.56h1.36M514.85,343.68v2.16M515.07,345.84v-2.28M515.07,343.56h-.08l-.04.02-.04.02-.04.04-.02.04M515.19,351.86v-.1l.04-.12M516.27,351.64l.04.12.02.1M516.67,350.84v1.52M515.07,353.02h-.08l-.04-.02-.04-.04-.04-.08-.02-.08M514.85,351.64v1.16M514.85,352.8l.02.04.04.04.04.02h.04l.04.02h.04M516.27,351.64l.04.12v.14l-.02.16-.08.14-.1.1-.14.08-.14.04h-.16l-.14-.04-.14-.08-.1-.1-.08-.14-.02-.16v-.14l.04-.12M515.07,352.92v.1M515.07,345.84h1.36M514.85,345.84v.4M515.07,346.12v-.28M515.07,345.84h-.22M516.67,345.84v.4M516.67,345.84h-.24M516.43,345.84v.28M516.67,350.04v.8M516.67,349.98v.06M516.43,346.12h-1.36M515.07,346.12h-.04l-.04.02h-.04l-.04.02-.02.02-.02.02-.02.02v.02M514.85,346.24v3.14M516.67,346.24v3.48M516.67,346.24l-.02-.02v-.02l-.02-.02-.04-.02-.02-.02h-.04l-.06-.02h-.04M516.67,349.72v.26M389.36,235.89h123.61M389.36,333.08h123.61M389.36,312.83h123.61M389.36,199.46h123.61M389.36,195.4h123.61M508.23,345.22h4.74M453.33,345.22h50.57M398.42,345.22h50.59M389.36,345.22h4.74M389.36,337.12h123.61M389.36,324.98h123.61M389.36,239.95h123.61M389.36,243.99h123.61M389.36,219.71h123.61M389.36,227.79h123.61M389.36,215.65h123.61M389.36,292.59h123.61M389.36,284.48h123.61M389.36,268.28h123.61M389.36,252.1h123.61M389.36,341.16h123.61M389.36,276.38h123.61M389.36,223.75h123.61M389.36,320.91h123.61M389.36,207.55h123.61M389.36,272.34h123.61M389.36,256.14h123.61M389.36,329.02h123.61M389.36,300.67h123.61M389.36,304.73h123.61M389.36,203.5h123.61M389.36,296.63h123.61M389.36,264.24h123.61M389.36,260.2h123.61M389.36,211.61h123.61M389.36,316.87h123.61M389.36,280.42h123.61M389.36,231.85h123.61M389.36,248.04h123.61M389.36,308.77h123.61M389.36,288.53h123.61M379.87,362.95h-.44M379.43,362.72h.44M379.43,208.93h.44M379.87,209.17h-.44M379.87,346.84h-.44M257.96,362.95h-.46M257.5,362.72h.46M257.5,208.93h.46M257.96,209.17h-.46M257.96,346.84h-.46M257.5,125.1h.46M257.5,131.67h.46M257.5,159.53v-.96M257.96,159.53v-.96M257.5,133.63h.46M257.96,208.81h-.46M257.5,208.47h.46M257.96,175.5h-.46M257.5,174.12h.46M379.43,125.1h.42M379.43,159.53v-.96M379.87,159.57v-.96M379.43,174.12h.44M379.87,175.5h-.44M379.87,208.81h-.44M379.43,208.47h.44M257.96,363.29v-.22M257.74,363.73h0l.06-.08.08-.06.04-.1.02-.1.02-.1M53.25,363.34h.08M53.33,363.8h-.08M53.25,363.8v-.46M55.77,363.34h2.08M53.33,363.34h.74M53.33,363.8h5.84M53.33,363.34v.46M59.67,363.8h.94M60.61,363.8v-.44M59.67,363.8h-.5M169.5,363.8h-.56M169.5,363.34v.46M153.34,363.34h1.2M60.61,363.37v.44M60.61,363.8h108.33M168.94,363.8v-.46M257.74,363.29v-.34M257.74,363.34h0v-.06M257.16,363.34h.58M257.74,363.8h-.58M257.74,363.34v.46M242.08,363.8v-.46M257.14,363.34h.02M242.66,363.34v.46M256.92,363.8h.24M257.16,363.8v-.46M257.14,362.91l.02.02.04.02.02.02v.02M257.22,159.53h-.08M154.46,362.99v-.02l.02-.02.04-.02.02-.02M154.54,159.53h-.08M154.54,159.21h102.61M154.54,159.21h0v.22M257.14,159.43v-.22M235.9,363.03l.2.18.1.08.04.04.02.02h.02M236.28,363.34h20.87M257.14,363.34h0v-.32M154.54,363.03v.32M154.54,363.34h20.87M175.4,363.34h0l.04-.02.06-.06.12-.1.16-.14M154.46,159.53v14.6M154.16,159.53v14.6M154.16,159.53h.3M257.5,174.14v-14.6M257.22,174.14v-14.6M257.5,159.53h-.28M154.54,159.43h102.61M154.54,159.43v14.58M257.14,174.02v-14.58M154.46,176.1v.12M154.16,176.1v.12M257.5,176.22v-.12M257.22,176.22v-.12M154.46,346.34v.12M154.16,346.34v.12M257.5,346.46v-.12M257.22,346.46v-.12M154.46,347.04v15.94M154.16,347.04v15.94M154.16,362.99h.3M257.5,362.99v-15.94M257.22,362.99v-15.94M257.5,362.99h-.28M154.46,174.14v1.96M154.16,174.14v1.96M154.16,174.14h.3M154.16,176.1h.3M154.16,346.46h.3M154.46,346.46v.58M154.16,346.46v.58M154.16,347.04h.3M257.5,176.1v-1.96M257.22,176.1v-1.96M257.5,176.1h-.28M257.5,174.14h-.28M257.5,346.46h-.28M257.5,347.04v-.58M257.22,347.04v-.58M257.5,347.04h-.28M154.54,347.08v15.94M154.54,363.03h21.25M175.78,363.03l1.04-.86,1.08-.84,1.1-.8,1.12-.76,1.16-.74,1.16-.7,1.18-.68,1.22-.62,1.22-.6,1.24-.56,1.26-.52,1.26-.5,1.28-.44,1.3-.42,1.32-.36,1.32-.34,1.32-.3,1.34-.26,1.34-.22,1.36-.18,1.34-.14,1.36-.1,1.36-.06,1.36-.02,1.36.02,1.36.06,1.36.1,1.36.14,1.34.18,1.36.22,1.32.26,1.34.3,1.32.34,1.3.36,1.3.42,1.28.44,1.28.5,1.26.52,1.24.56,1.22.6,1.2.62,1.2.68,1.16.7,1.14.74,1.12.76,1.1.8,1.08.84,1.06.86M235.9,363.03h21.25M257.14,363.03v-15.94M154.54,174.02h102.61M154.54,174.02v2.2M257.14,176.22v-2.2M154.54,346.34h-.38M154.16,176.22h.38M154.16,346.34v-170.12M257.5,346.34h-.36M257.5,176.22v170.12M257.14,176.22h.36M154.54,346.34v.74M154.54,347.08h102.61M257.14,347.08v-.74M154.54,176.22h102.61M154.54,176.22v170.12M154.54,346.34h102.61M257.14,346.34v-170.12M175.74,363.29l-.12-.14M235.92,363.29l-1.04-.86-1.08-.84-1.1-.82-1.12-.76-1.14-.74-1.18-.72-1.18-.68-1.2-.62-1.24-.62-1.24-.56-1.24-.52-1.28-.5-1.28-.46-1.3-.4-1.32-.38-1.32-.34-1.34-.3-1.34-.26-1.34-.22-1.34-.18-1.36-.14-1.36-.1-1.38-.06-1.36-.02-1.36.02-1.36.06-1.36.1-1.36.14-1.36.18-1.34.22-1.34.26-1.32.3-1.32.34-1.32.38-1.3.4-1.28.46-1.28.5-1.26.52-1.24.56-1.22.62-1.2.62-1.2.68-1.16.72-1.14.74-1.12.76-1.1.82-1.08.84-1.06.86M235.92,363.29l.12-.14M154.54,159.21v-.24M154.88,158.97v.24M256.8,159.21v-.24M257.14,158.97v.24M154.16,362.95h-.44M154.16,159.49v.04M154.16,159.49h-.44M154.16,174.8h-.44M153.72,362.72h.44M154.16,346.84h-.44M47.65,159.21h0M47.69,158.93v.04M43.89,159.23h-.02l-.12.06-.08.1-.04.1M43.67,159.51l-.04-.02M43.63,159.49l-3.64,14.54M39.99,174.04l-.2,1.08-.06,1.1M39.73,346.34l.06.4.14.36M39.93,347.1l9.26,16.04M49.23,363.12l-.04.02M49.51,363.33h-.04M49.47,363.33h0M39.73,346.34h.06M39.79,176.22h-.06M39.73,346.34v-170.12M47.75,158.97v-.04M47.69,159.21h-.02M153.34,362.99l.04.02.02.02.02.02.02.02M153.44,159.49h-.1M49.85,159.21h-.08M49.81,159.49h-.04M49.77,159.21h-5.78M43.67,159.49l.04-.12.08-.08.1-.06.1-.02M49.77,159.49h-.02l-.02.02v.04M49.77,159.49v-.28M49.77,159.21l-.1.02-.08.06-.08.08-.02.12M153.34,159.21h0v.22M49.85,159.21h103.49M49.81,159.43l.02-.12v-.08l.02-.02M49.51,363.33h-.08l-.04-.02-.04-.02-.04-.04-.04-.04-.02-.04-.02-.04M57.83,363.33h-8.32M57.83,363.04v.28M57.79,363l.02.02v.02h.02M57.57,363.12l.06.12.1.06.1.02M57.85,363.37v-.2l-.02-.14M153.34,363.37H57.85M153.34,363.03v.34M153.44,174.14v-14.64M153.72,174.14v-14.64M153.72,159.49h-.28M49.73,159.55v14.52M49.73,159.55l-.24-.06M43.67,159.49h5.82M40.05,174.02l3.62-14.52M49.49,159.49v14.52M49.81,174.04v-14.6M153.34,159.43H49.81M153.34,159.43v14.6M153.44,346.44v-.1M153.72,346.44v-.1M153.44,176.22v-.12M153.72,176.22v-.12M153.44,363.07v-16.02M153.72,363.07v-16.02M153.72,363.07h-.28M153.44,347.04v-.6M153.72,347.04v-.6M153.72,346.44h-.28M153.72,347.04h-.28M153.44,176.1v-1.96M153.72,176.1v-1.96M153.72,176.1h-.28M153.72,174.14h-.28M57.79,363l-.22.12M49.89,347l7.9,16M57.57,363.12h-8.34M49.67,347.12l7.9,16M49.23,363.12l-9.24-16M49.73,174.08l-.04.56v.56l.04,1.02M49.73,174.08l-.24-.06M39.79,176.22v170.12M49.49,176.22h-9.7M49.49,174.02l-.04.56-.02.54.06,1.1M49.49,174.02h-9.44M39.79,176.22l.08-1.1.18-1.1M39.79,346.34h9.7M39.99,347.12l-.14-.38-.06-.4M39.99,347.12h9.68M49.89,347l-.22.12M49.73,346.34l.04.34.12.32M49.49,346.34l.04.4.14.38M57.83,363.03l-7.84-15.94M153.34,363.03H57.83M153.34,347.08v15.94M49.99,347.08l-.18-.74M49.99,347.08h103.35M153.34,346.34v.74M49.81,176.22h-.32M49.49,346.34h.32M49.49,346.34v-170.12M153.34,176.22h.38M153.72,346.34h-.38M153.72,346.34v-170.12M49.81,176.22v170.12M153.34,346.34H49.81M153.34,346.34v-170.12M49.81,176.22v-2.18M153.34,176.22H49.81M153.34,174.04v2.18M153.34,174.04H49.81M47.55,158.97v-.04M47.55,159.21h0M44.79,158.97h.06M44.85,159.21h-.06M44.79,159.21v-.24M44.85,158.97h5M44.85,159.21h5M44.85,158.97v.24M153.34,158.97v.24M153,159.21v-.24M50.07,159.21v-.24M50.35,158.97v.24M54.07,363.38v-.06M55.77,363.38h-1.7M55.77,363.33v.06M56.45,360.22v.06M53.33,353.98v-.08M53.05,353.4v-.08M170.08,363.8h-.02M170.08,363.34v.36M241.5,363.71v-.36M170.08,363.87v-.16M237.18,364.15h-.06M241.5,363.71v.1M241.52,363.8h0v-.1M241.94,363.8h-.02l-.02-.02h-.02v-.02l-.02-.02v-.04M241.52,363.34v.36M241.86,363.71v-.36M241.52,363.71h.34M169.72,363.34v.36M170.06,363.34v.36M170.06,363.71v.1l-.02.06M169.72,363.71h.34M169.72,363.71v.04l-.02.02v.02h-.02l-.02.02h-.02M169.64,363.8h-.14M164.96,363.8v.06M52.23,351.74v-.02l.02-.02M52.63,352.46h-.04M52.25,351.78h.02l.02-.02M52.61,352.4h-.06M154.16,124.18v.02M154.54,123.82h-.08l-.06.02-.06.04-.06.04-.04.06-.04.06-.02.08-.02.06M257.5,124.2v-.02M257.5,124.18v-.06l-.02-.08-.04-.06-.04-.06-.06-.04-.06-.04-.08-.02h-.06M257.14,131.17h.02l.02-.02h.02v-.02l.02-.02v-.02M257.14,123.82h0M154.54,123.82h102.61M154.54,123.82h0M257.22,131.09v.04h-.02v.02l-.02.02h-.04M154.54,130.89h-.04l-.02.02-.02.02v.04M154.16,124.2v6.7M154.16,124.2l.04-.14.08-.12.12-.08.14-.04M154.54,130.61h-.08l-.06.02-.06.04-.06.04-.04.06-.04.06-.02.08M257.14,123.82h0M154.54,123.82h102.61M154.54,123.82h0M154.54,130.61v-6.78M257.5,130.91v-6.7M257.14,130.61v-6.78M257.14,123.82l.14.04.12.08.08.12.02.14M257.22,130.97v-.04h-.02v-.02l-.02-.02h-.04M257.5,130.91h0l-.02-.08-.04-.06-.04-.06-.06-.04-.06-.04-.08-.02h-.06M154.16,130.91v2.92M154.46,130.91v2.92M154.16,130.91h.3M257.22,133.83v-2.92M257.5,133.83v-2.92M257.5,130.91h-.28M154.16,133.83v.52M154.46,133.83v.46M154.16,133.83h.3M154.16,134.35v.1M154.16,134.35h.08M257.14,133.71v-3.1M154.54,130.61h102.61M154.54,133.71v-3.1M257.5,134.91v-.08M257.22,134.77v-.94M257.5,134.83h-.06M257.5,134.83v-1M257.5,133.83h-.28M257.14,158.59h.06l.02-.02M154.46,158.57h0v.02h.08M154.46,158.57v.04l.02.02.04.02h.02M154.16,158.57l.04.14.06.1.1.08.12.04h.06M257.14,158.93l.14-.02.1-.06.08-.1.04-.12v-.06M257.14,158.65h.02l.04-.02.02-.04v-.02M154.16,134.45l.02-.04.02-.02.04-.04.04-.02.06-.02.06-.02h.14M154.16,158.57v-24.13M154.46,158.57h-.3M154.54,158.57l-.04-.02h-.04v.02M154.54,158.45h-.14l-.12.02-.08.04-.04.06M257.5,158.57v-23.67M257.14,134.77h.14l.06.02.06.02.04.02.04.02.02.04v.02M257.14,158.45v-23.69M257.14,134.77v-1.06M154.54,133.71h102.61M154.54,134.29v-.58M154.54,158.45v-24.17M257.22,158.57v-.02h-.06l-.02.02M257.22,158.57h.28M257.5,158.57l-.02-.06-.08-.04-.12-.02h-.14M257.14,158.97h0v-.52M154.54,158.45h102.61M154.54,158.97h0v-.52M154.54,158.97h102.61M153.72,124.86h.44M154.16,124.86h-.44M153.72,131.61h.44M153.72,133.59h.44M153.72,158.65v-.08M154.16,158.57v.08M154.16,158.65h-.44M153.72,157.85h.44M72.66,131.39l-.06-.1-.26-.28-.18-.1M52.79,124.12h0l-.02.02v.02M52.85,123.82h-.06l-.06.02-.06.02-.06.04-.04.04-.04.04-.02.06M153.72,124.18l-.02-.06-.02-.08-.02-.06-.06-.06-.06-.04-.06-.04-.06-.02h-.08M153.72,124.2v-.02M153.34,123.82h0M52.85,123.82h0M52.85,123.82h100.49M52.77,124.12l-.64,2.6M52.49,124.04l-.64,2.64M52.49,124.04l.28.08M51.85,126.69l-1.9,7.6M51.85,126.69l.24.06M49.95,134.29l-.08.34-.1.34-.06.3-.08.28-.06.24-.04.2-.06.18-.02.14-.02.1-.02.06v.02M52.27,126.5v.26M71.98,130.85l.12.04M153.44,130.97l-.02-.02v-.02l-.02-.02-.02-.02h-.04M52.85,123.82l-.58,2.68M52.27,126.5l19.85,4.1M153.34,123.82h0M52.85,123.82h100.49M153.72,130.91v-6.7M153.34,130.61v-6.78M153.7,130.91h0l-.02-.08-.02-.06-.06-.06-.06-.04-.06-.04-.06-.02h-.08M153.34,123.82l.14.04.12.08.08.12.04.14M49.41,136.49l-.02.02M49.41,136.49h.04M72.1,130.89l.26.1.34.3.16.2.12.22.14.44.02.32M72.1,130.89v-.28M153.44,133.83v-2.92M153.72,133.83v-2.92M153.72,130.91h-.28M153.44,134.29v-.46M153.72,134.35v-.52M153.72,133.83h-.28M153.72,134.45v-.1M153.72,134.35h-.08M153.34,133.71v-3.1M73.16,132.45v.04M72.1,130.61l.24.1.18.14.18.16.14.22.14.24.14.46.04.48M73.16,132.49l-.02.46-.08.38-.14.38M72.12,130.61h81.22M72.1,130.61h.02M43.75,158.41h0M43.75,158.41l5.62-21.93M49.37,136.49h0M49.37,136.49h.02v.02h.04M43.75,158.41l5.62-21.93M43.79,158.43h-.04v-.02M153.34,158.59h.08v-.02h.02M49.81,158.95h.04M49.81,158.67h.04M49.85,158.67h-.06M153.34,158.65h.04l.02-.02.02-.04.02-.02M153.34,158.93l.14-.02.1-.06.08-.1.04-.12.02-.06M49.43,136.51l.1-.06M43.79,158.43l5.64-21.93M49.53,158.51l-5.74-.08M44.01,158.89l-.1-.04-.08-.06-.04-.1-.02-.12.02-.14M49.81,158.95l-5.8-.06M49.81,158.67v.28M49.77,158.57l-.02.02.02.04v.02l.02.02h.02M49.53,158.51l-.02.14.04.12.06.1.08.06.12.02M153.72,158.57v-24.13M153.34,134.29h.14l.06.02.06.02.06.02.02.04.02.02.02.04M153.44,158.57l-.02-.02h-.04l-.04.02M153.44,158.57h.28M153.72,158.57l-.04-.06-.08-.04-.12-.02h-.14M49.85,136.37h19M153.34,158.45v-24.17M153.34,134.29v-.58M72.92,133.71h80.42M68.85,136.37l.44-.02.44-.06.42-.1.42-.14.4-.2.38-.2.34-.26.32-.28.28-.32.26-.34.2-.36.16-.38M49.77,158.57l-.24-.06M49.85,158.57l-.02-.02h-.04l-.02.02M49.85,158.45v-22.09M49.53,136.45l.02-.02.04-.02h.04l.04-.02h.04l.04-.02h.1M49.53,158.51v-22.07M49.85,158.45h-.16l-.1.02-.06.04M49.85,158.45v.52M49.85,158.97h103.49M153.34,158.97h0v-.52M49.85,158.45h103.49M73.04,131.91l-.08-.16-.08-.14-.12-.14-.12-.12-.02-.02M72.6,134.39l.06-.1.12-.3.12-.3.08-.3.06-.28.02-.28.02-.26-.04-.24M73.04,132.33l-.04-.2-.04-.18-.08-.18-.08-.16-.1-.16-.12-.12-.12-.12-.14-.12M72.31,131.09l-.4-.28M71.91,130.81l-19.83-4.08M52.09,126.73l-1.96,7.84M50.13,134.57h0v.02M49.67,136.23h.18M49.67,136.39v-.16M69.21,136.23h-.94M68.27,136.23h-18.42M49.85,136.23v.14M50.13,134.59l-.1.44-.1.36-.08.28-.08.3-.06.18-.04.06M49.67,136.21v.02M69.21,136.23l.58-.02.56-.1.18-.06M69.21,136.35v-.12M56.05,363.33v.02M48.81,138.67h0M48.81,138.39h.08M47.27,137.47l-.18.74M47.55,137.53l-.18.76M47.27,137.47l.04-.1.02-.12.02-.08.02-.1.02-.06.02-.06v-.04M47.55,137.53l-.28-.06M47.69,136.99h0l-.02.04v.04l-.02.08-.02.08-.02.1-.04.1-.02.1M47.41,136.91l.28.08M47.37,138.29v.06l.02.02.02.02h.04M47.37,138.29l-.28-.08M47.09,138.21l-.02.08.02.1.02.08.04.06.06.06.08.06.08.02h.08M48.81,138.39v.28M47.45,138.67h1.36M47.45,138.39h1.36M47.45,138.39v.28M42.81,154.03l-.02.08.02.08.02.08.04.08.06.06.08.04.08.02.08.02M43.07,154.09v.04l.02.02v.02l.02.02h.04l.02.02M44.77,154.49h-1.6M44.83,154.21h-1.66M43.17,154.49v-.28M42.81,154.03l.24-.98M43.07,154.09l.24-.96M43.07,154.09l-.26-.06M43.05,153.05l.02-.1.02-.1.04-.1.02-.08v-.08l.02-.04v-.04h.02M43.31,153.13l-.26-.08M43.45,152.57v.04l-.02.06-.02.06-.02.08-.02.1-.02.1-.04.12M43.19,152.51l.26.06M43.73,154.77h-.56M43.17,154.77v-.28M43.73,154.49h1.04M44.31,154.77h.38M43.73,154.77h.14M43.73,154.49v.28M44.37,153.41h-.56M44.43,153.47h-.68M44.43,155.15h-.68M44.67,154.89h-1.36M44.31,154.77h-.44M52.51,363.33v.2M52.79,363.33v.2M52.51,363.75h0v-.22M52.79,363.75h-.28M52.79,363.53v.22M52.51,363.53h.28M154.58,405.2h.08M154.66,364.23h-.08M154.58,405.2v.04l.02.02.02.02h.02v.02h.02M154.3,405.2v.08l.02.06.04.06.04.06.06.06.06.02.08.02.06.02M154.3,400.71v4.48M154.58,400.71v4.48M154.3,405.2h.28M159.2,405.58h-4.54M154.66,405.58v-4.64M159.36,400.93l-.02.48-.02.46-.02.46-.02.42v.42l-.02.38-.02.38v.32l-.02.3v.26l-.02.24v.52M154.66,364.15h-.02l-.02.02h-.02v.02l-.02.02v.02M154.66,363.87h-.06l-.08.02-.06.04-.06.04-.04.06-.04.06-.02.08v.06M154.3,364.23v1.9M154.58,364.23v1.9M154.58,364.23h-.28M154.3,366.13v.22M154.58,366.13v.22M154.3,366.13h.28M154.66,364.23v-.36M174.4,363.87h0v.36M174.4,363.87h-19.74M174.4,364.42l-.22.18-.2.2-.22.2-.2.2-.22.22-.2.2-.2.2-.2.2M174.4,364.42v-.2M174.4,364.23h-19.74M154.66,364.23v1.8M172.74,366.03h-18.08M154.66,366.13h0v-.1M172.36,366.13h.02l.06-.02.12-.02.18-.06M172.36,366.41l.02-.02.04-.02.06-.08.14-.12.12-.14M154.3,366.55v34.17M154.58,366.55v34.17M154.3,400.71h.28M154.58,366.35v.2M154.3,366.35h.28M154.3,366.35v.2M154.3,366.55h.28M159.36,400.93h-4.7M159.5,396.93l-.14,4M172.24,366.55l-.96,1.04-.92,1.06-.88,1.08-.86,1.12-.82,1.14-.78,1.16-.74,1.18-.72,1.22-.68,1.22-.64,1.26-.6,1.26-.56,1.28-.52,1.32-.48,1.3-.44,1.34-.42,1.34-.36,1.36-.32,1.36-.28,1.38-.24,1.38-.2,1.4-.14,1.38-.12,1.4-.06,1.4M154.66,400.93v-34.39M172.36,366.41h0v.02l-.02.02-.04.02-.02.04M172.36,366.41v-.28M172.28,366.51h-.02v.02l-.02.02M172.36,366.13v.08l-.04.08-.02.12-.02.1M154.66,366.13h17.7M154.66,366.55v-.42M172.24,366.55h-17.58M159.52,400.85v.44l-.02.44-.02.42-.02.42v.38l-.02.38-.02.34v.32l-.02.28v.46l-.02.18v.32M159.38,405.24h-.18M159.52,400.85l.14-4.06M172.68,366.31l.24-.24.24-.24.26-.26.24-.24.24-.24.26-.24.26-.22.26-.24M174.4,364.25l.08-.08M174.68,364.39l-.2-.22M172.68,366.31l-.1.12-.1.1-.08.06-.04.04v.02M159.66,396.79l.08-1.4.1-1.38.16-1.38.2-1.38.24-1.38.28-1.36.32-1.36.36-1.34.4-1.34.44-1.32.48-1.3.52-1.3.56-1.28.6-1.26.64-1.24.68-1.22.7-1.2.74-1.16.8-1.16.8-1.14.86-1.1.88-1.08.92-1.04.94-1.02M172.26,366.53l.1.12M256.92,364.19h.08M257,405.14h-.08M257,405.14v.04l-.02.02v.02h-.02l-.02.02h-.02M257.28,405.14v.08l-.02.08-.04.06-.04.06-.06.04-.06.04-.08.02h-.06M257,400.65v4.48M257.28,400.65v4.48M257.28,405.14h-.28M252.4,405.52h4.52M256.92,405.52v-4.62M252.22,400.89l.02.46.02.48.02.44.02.44v.4l.02.4.02.36v.32l.02.3v.28l.02.22v.5l.02.02M256.92,364.08h.02l.02.02h.02v.02l.02.02v.04M256.92,363.8h.06l.08.02.06.04.06.04.04.06.04.06.02.08v.08M257,364.19v1.88M257.28,364.19v1.88M257,364.19h.28M256.92,364.19v-.38M237.18,363.8h19.74M237.18,363.8h0v.38M256.92,364.19v1.8M237.18,364.19h19.74M237.18,364.37v-.18M237.18,364.37l.22.2.2.2.22.2.2.2.22.2.2.2.2.2.22.22M257,366.07v.24M257.28,366.07v.24M257.28,366.07h-.28M256.92,366.07h0v-.08M238.86,365.99h18.06M239.22,366.35h-.02l-.04-.04-.06-.08-.14-.12-.1-.12M239.22,366.07h-.02l-.06-.02-.12-.02-.16-.04M257,366.49v34.17M257.28,366.49v34.17M257.28,400.65h-.28M257,366.31h0v.18M257.28,366.49h-.28M257.28,366.31h0v.18M257.28,366.31h-.28M252.22,400.89h4.7M256.92,400.89v-34.39M239.34,366.51l.96,1.02.92,1.06.88,1.1.86,1.1.82,1.14.78,1.16.76,1.2.7,1.2.68,1.24.64,1.24.6,1.26.56,1.3.52,1.3.48,1.32.46,1.32.4,1.34.36,1.36.32,1.38.28,1.36.24,1.38.2,1.4.14,1.4.12,1.4.06,1.4M252.08,396.89l.14,4M239.34,366.51h17.58M256.92,366.51v-.44M256.92,366.07h-17.7M239.3,366.45l.02.02.02.04M239.22,366.07v.02l.02.06.02.1.02.1.02.1M239.22,366.35v-.28M239.22,366.35v.02l.02.02.04.04.02.02M252.06,400.79l.02.44v.44l.02.44.02.4v.4l.02.36.02.34v.32l.02.28v.26l.02.2v.52M252.2,405.2l.18-.02M252.06,400.79l-.14-4.06M238.9,366.27l-.24-.26-.24-.24-.24-.24-.26-.24-.24-.24-.26-.24-.26-.24-.24-.24M237.18,364.21l-.08-.08M236.92,364.33l.18-.2M238.9,366.27l.1.1.1.1.08.06.04.06M251.92,396.73l-.08-1.38-.1-1.4-.16-1.38-.2-1.38-.24-1.38-.28-1.36-.32-1.36-.36-1.34-.4-1.34-.44-1.32-.48-1.3-.52-1.3-.56-1.28-.6-1.24-.64-1.24-.68-1.22-.7-1.2-.74-1.18-.78-1.16-.82-1.12-.86-1.12-.88-1.06-.92-1.06-.94-1.02M239.34,366.49l-.12.1M153.34,364.41v.1M50.39,364.45l-.04-.08M69.83,398.09l-.04-.04M69.81,398.13l.02-.04M153.34,364.12h0v-.06M50.25,364.07h0v.04M69.81,398.13h0v.08M50.53,364.37h-.16M50.73,364.37h-.1M50.37,364.37h-.04l-.02.02v.02l-.02.02v.04l.02.02M50.31,364.08h-.02l-.1.04-.08.06-.06.08-.04.08v.2l.04.08M153.34,364.12h-.06M153.34,364.41h-.34M153.44,364.51l-.02-.02v-.04h-.02l-.02-.02-.02-.02h-.02M153.72,364.51l-.02-.08-.02-.06-.02-.08-.06-.04-.06-.06-.06-.04-.06-.02h-.08M153.34,364.41v-.28M69.75,398.17h0v.02h.02v.02h.04M69.49,398.31l.02.04.04.04.04.02.02.02.04.02.04.02.06.02h.04M153.36,405.24v-.02h.02l.02-.02h.02v-.04l.02-.02M153.34,405.52h.04l.08-.02.08-.04.06-.04.04-.06.04-.06.02-.08.02-.08M50.39,364.17l-.04-.04-.06-.04-.04-.02M50.25,363.79v.28M153.34,364.07l-.02.02-.02.02-.04.02-.02.04M153.34,363.8v.26M50.25,363.79h3M50.39,364.17l-.02-.14-.04-.12-.04-.08-.04-.04M153.32,363.8h0l-.02.08-.02.1-.02.12-.02.06M153.24,364.17l-1.48,1.48M153.24,364.17H50.39M52.83,365.57l-2.44-1.4M53.51,365.95l-.12-.06M69.81,398.21h0l.02-.02.02-.04v-.02M69.79,398.49l.02-.28M50.37,364.45l.22-.12M70.19,397.21l-.4.86M53.25,365.87l.12.08M50.59,364.33l2.2,1.28M153.44,405.14l-.02-.02-.02-.02-.04-.02-.02-.02M153.72,400.79v4.34M153.72,364.51v1.52M153.34,364.51h.38M153.44,405.06h-.1M153.3,405.8l-83.5-7.3M153.34,405.44v.06l-.02.08v.16l-.02.04v.02M69.79,398.49v-.02l.02-.08.02-.12.02-.14M153.04,364.51h.3M151.88,365.65l1.16-1.14M70.23,397.31l-.38.82M153.34,405.44l.02-.3M153.36,405.14l-.02-.04M69.79,398.07l-.02.02-.02.04-.02.02.02.02M69.75,398.17l-.26.14M50.05,364.62l19.45,33.69M69.79,398.07l-.12.08-.08.06-.06.06-.04.04M50.37,364.45l19.42,33.63M50.05,364.62h.04l.02-.02.04-.02.04-.04.06-.02.06-.04.06-.04M153.72,405.22h0M153.72,405.22h-.28M139.91,404.32l.1.02h.2l.04.02h.02-.04l-.06-.02h-.1l-.12-.02h-.12l-.12-.02h-.18.14l.12.02h.12M137.07,404.08h.12l.12.02h.12-.18l-.12-.02-.12-.02h-.22l-.06-.02h-.02.06l.08.02h.1l.12.02M80.58,399.13h.12l.12.02h.14-.1l-.1-.02h-.12l-.12-.02h-.2l-.08-.02h-.02.06l.08.02h.1l.12.02M77.76,398.87l.12.02h.12l.08.02h.04-.1l-.08-.02h-.12l-.12-.02h-.12l-.1-.02h-.08.14l.1.02h.12M153.32,405.5l-82.6-7.22M153.32,405.5h0M70.71,398.27l1.64.14M70.73,397.97l1.64.16M70.71,398.27l.02-.3M153.72,400.89v-.12M153.72,400.92v-.02M153.72,400.89h-.28M153.72,405.22v-4.3M153.72,405.22h-.28M153.72,400.92h-.28M153.34,400.93v4.22M73.62,396.35l.02.28-.02.28-.06.24-.06.22-.1.18-.12.16-.16.12h-.02M72.88,393.85l.06.14M72.35,398.41l.02-.28M73.68,397.07h0l-.06.24-.06.2-.1.18-.12.14-.14.12-.18.1-.18.06-.22.02h-.24M72.92,394.07l.06-.26M72.92,394.13v-.06M72.92,394.13l.08-.32M72.92,394.13l.18.42.16.4.12.38.12.38.08.36.06.34.04.32v.3l-.02.26-.04.26-.08.2-.1.2-.12.16-.14.12-.18.08-.2.08-.2.02h-.24M72.35,398.41l80.96,7.08M153.34,400.83v2.24l-.02.4v2.02M153.74,366.43v-.4M153.74,366.03h-.28M153.46,366.43v-.4M153.44,404.58v.64M153.46,366.03v.42M153.44,405.22h0M153.44,405.22v-4.3M153.44,400.92v-.02M153.44,400.89v-.06M59.47,366.25l-6.68-.4M52.79,365.57v.28M52.59,365.89l6.86.5M52.37,366.01l.22-.12M72.7,393.91l-.06.02M52.37,366.01l6.86.5M70.59,397.91l-18.22-31.91M72.34,398.07l-1.74-.16M72.64,393.93l.18.38.16.38.12.36.12.38.08.36.08.34.02.32.02.3-.02.28-.06.24-.06.22-.1.2-.12.14-.16.12-.16.08-.2.04h-.2M153.46,366.43h.28M153.38,366.45h.08v-.02M59.45,366.39h.02l.02-.02h.04M59.45,366.39l-.22.12M153.72,400.77v.02h-.04l-.02.02h-.06l-.04.02h-.22M153.72,400.77l.02-34.35M153.38,366.49h.14l.12-.02.08-.02.02-.02M59.23,366.51l.06-.02.06-.02.08-.02.1-.04M72.7,393.91l-13.46-27.41M73,393.81l-.04.02-.04.02-.04.02h-.04l-.04.02-.04.02h-.06M59.47,366.25v-.28M59.51,366.33h0l-.02-.02v-.04h-.02v-.02M59.47,365.97l-6.68-.4M153.38,365.65v.4M52.79,365.57l100.59.08M153.38,366.05v.44M59.47,365.97l93.9.08M59.53,366.41l-.02-.16-.02-.1v-.1l-.02-.06v-.02M153.34,400.83l-80.34-7.02M153.38,366.49l-.04,34.35M153.38,366.49l-93.84-.08M73,393.81l-13.46-27.41M73.12,397.99l-.26-.02M54.59,366.03l.06-.06M73.12,397.99l-.26-.02M153.34,404.66l.1-.08M54.65,365.97l-.06.06M153.72,400.79v4.42M379.65,363.71l.06-.06.08-.08.04-.1.04-.1v-.1M379.87,363.26v-.2M257.96,363.26v-.2M258.18,363.71l-.06-.06-.08-.08-.04-.1-.04-.1v-.1M258.18,363.26v-.2M379.65,363.26v-.32M379.65,363.34h0v-.08M258.18,363.34h0v-.08M379.19,363.34h.46M379.65,363.8h-.46M379.65,363.34v.46M258.18,363.34h.16M258.64,363.8h-.46M258.18,363.8v-.46M379.05,363.34h.14M258.64,363.8h120.55M379.19,363.8v-.46M258.64,363.34v.46M379.05,362.99l.04.02.02.02.02.02.02.02M379.15,159.53h-.1M258.24,363.07v-.02l.04-.02.02-.04h.04M258.34,159.53h-.1M379.05,159.43v-.22M258.34,159.21h120.71M258.34,159.43v-.22M258.34,363.34h0v-.32M379.05,363.34h0v-.32M258.34,363.34h120.71M258.24,159.53v14.6M257.96,159.53v14.6M257.96,159.53h.28M379.15,174.14v-14.6M379.43,174.14v-14.6M379.43,159.53h-.28M258.34,174.02v-14.58M379.05,174.02v-14.58M258.34,159.43h120.71M379.15,346.46v-.12M379.43,346.46v-.12M379.15,176.22v-.12M379.43,176.22v-.12M258.24,346.34v.12M257.96,346.34v.12M258.24,176.1v.12M257.96,176.1v.12M258.24,347.04v16.02M257.96,347.04v16.02M257.96,363.07h.28M379.15,363.07v-16.02M379.43,363.07v-16.02M379.43,363.07h-.28M379.15,347.04v-.58M379.43,347.04v-.58M379.43,347.04h-.28M379.43,346.46h-.28M379.15,176.1v-1.96M379.43,176.1h-.28M379.43,176.1v-1.96M379.43,174.14h-.28M258.24,346.46v.58M257.96,346.46v.58M257.96,346.46h.28M257.96,347.04h.28M258.24,174.14v1.96M257.96,174.14v1.96M257.96,174.14h.28M257.96,176.1h.28M258.34,363.03v-15.94M379.05,363.03v-15.94M258.34,363.03h120.71M379.05,176.22h.38M379.43,346.34h-.38M379.43,346.34v-170.12M379.05,347.08v-.74M258.34,347.08v-.74M258.34,347.08h120.71M379.05,346.34v-170.12M258.34,346.34h120.71M258.34,176.22v-2.2M379.05,176.22v-2.2M258.34,174.02h120.71M258.34,176.22h120.71M257.96,176.22h.38M258.34,346.34v-170.12M257.96,346.34v-170.12M258.34,346.34h-.38M378.97,158.97v.24M258.42,158.97v.24M258.3,405.22h0M379.09,405.22h0M379.09,364.39v.06M258.3,364.45v-.06M379.09,364.45h.06M258.3,405.52h0v.02M379.09,405.54h0v-.02M258.3,364.08h0v.02M379.09,364.11h0v-.02M258.24,364.45h.06M379.09,405.22h.02M379.09,405.52l.06-.02.06-.02.06-.02.06-.04.04-.06.02-.06.02-.06.02-.08M378.93,405.22h.16M379.07,405.52h.02M379.09,405.22v.3M258.3,405.52h.02M258.3,405.22h.14M258.3,405.22v.3M258.26,405.22h.04M257.96,405.16v.08l.02.06.04.06.04.06.04.04.06.02.08.02.06.02M379.05,405.48l.02.02v.02l.02.02M379.09,405.82v-.28M258.3,405.54v-.02h.02v-.04M258.3,405.82v-.28M379.09,405.82h-120.79M379.05,405.52l.02.12v.16l.02.02M258.3,405.82v-.02l.02-.06v-.22M379.05,405.48v.04M378.93,405.28l.12.2M258.32,405.48l.12-.2M258.32,405.48v.04M258.32,405.52l.12-.2M258.32,405.52h120.73M378.93,405.32l.12.2M379.43,364.45l-.04-.12-.06-.12-.12-.06-.12-.04M379.15,364.45l-.02-.02v-.02h-.02l-.02-.02M379.09,364.11h-.02M379.09,364.39h-.16M379.09,364.39v-.28M258.3,364.39l-.02.02h-.02l-.02.02v.02M258.3,364.11l-.14.04-.1.06-.08.12-.02.12M258.46,364.39h-.16M258.32,364.11h-.02M258.3,364.39v-.28M379.09,405.22h-.12M378.97,405.22l-.04-.06M378.57,365.15l.4-.68M378.59,365.15l.38-.64M378.97,364.51h.12M378.97,364.47h.12M378.97,364.51v-.04M379.43,364.45v40.71M379.43,405.16l-.02.02h-.02l-.02.02h-.1l-.06.02h-.12M379.09,364.47h.02l.02-.02h.02M379.09,364.47v.04M379.09,364.51h.06l.06-.02h.16l.02-.02h.02l.02-.02M379.15,364.45h.28M258.42,364.47l.4.68M257.96,405.16v-40.71M258.3,405.22h-.14l-.06-.02h-.08l-.04-.02h-.02v-.02M258.3,364.47h.12M258.42,364.51v-.04M258.3,364.47v.04M258.24,364.45h.02v.02h.04M258.24,364.45h-.28M257.96,364.45v.02h.02l.04.02h.14l.08.02h.06M258.3,364.51h.12M258.42,405.22h-.12M258.44,405.16l-.02.06M258.42,364.51l.36.64M379.05,364.19l-.56.96M258.88,365.15l-.54-.96M379.09,364.08h-.02v.02l-.02.02v.02M379.09,363.8v.28M258.32,364.15v-.04l-.02-.02M258.3,363.8v.28M258.34,364.19v-.06l-.02-.08v-.18l-.02-.04v-.02M379.05,364.19h-120.71M379.09,363.8h-.02v.18l-.02.06v.14M379.31,400.65v.12M379.03,400.71v.06M258.36,400.71v.06M258.08,400.65v.12M379.31,400.79v4.28M379.03,400.79v4.28M379.31,405.08h-.28M379.31,400.77v.02M379.03,400.77v.02M379.31,400.79h-.28M379.31,400.77h-.28M258.36,400.77v.02M258.08,400.77v.02M258.08,400.77h.28M258.36,400.79v4.28M258.08,400.79v4.28M258.08,400.79h.28M258.08,405.08h.28M258.44,405.36v-4.64M378.93,405.36h-120.49M378.93,405.36v-4.64M379.31,365.53v.9M379.03,365.53v.9M379.31,365.53h-.28M258.36,365.53v.9M258.08,365.53v.9M258.08,365.53h.28M258.44,366.07v-.92M378.93,366.07v-.92M378.93,365.15h-120.49M379.31,400.65v.02h-.02l-.04.02h-.04l-.06.02h-.22M379.31,366.43v34.23M379.03,366.43h.28M378.93,366.45h.08l.02-.02M378.93,366.49h.14l.08-.02h.1l.04-.02h.02v-.02M378.93,400.71h-120.49M378.93,400.71v-34.23M258.44,400.71v-34.23M258.08,366.43v34.23M258.44,400.71h-.2l-.06-.02h-.04l-.04-.02h-.02v-.02M258.36,366.43h0l.02.02h.06M258.36,366.43h-.28M258.08,366.43v.02h.02l.04.02h.1l.06.02h.14M258.44,366.49v-.42M378.93,366.49h-120.49M378.93,366.49v-.42M378.93,366.07h-120.49M379.05,131.17h.04l.02-.02.02-.02v-.04h.02M258.24,131.09h0v.02l.02.02v.02h.02l.02.02h.04M379.43,124.2v-.02M257.96,124.18v.02M379.43,124.18l-.04-.14-.08-.12-.12-.08-.14-.02M258.34,123.82l-.16.02-.12.08-.08.12-.02.14M258.34,123.82h0M379.05,123.82h0M379.05,123.82h-120.71M379.15,131.09l-.02.02v.02l-.02.02v.02h-.06M258.34,131.17h-.06l-.02-.02v-.02h-.02v-.04M379.43,124.2v6.7M379.05,123.82l.14.04.12.08.08.12.04.14M379.15,130.97l-.02-.02v-.02l-.02-.02v-.02h-.06M379.41,130.91h0l-.02-.08-.02-.06-.06-.06-.06-.04-.06-.04-.06-.02h-.08M258.34,123.82h0M379.05,130.61v-6.78M379.05,123.82h0M379.05,123.82h-120.71M257.96,124.2v6.7M258.34,123.82v6.78M257.96,124.2l.02-.14.08-.12.12-.08.16-.04M258.34,130.89h-.06l-.02.02v.02h-.02v.04M258.34,130.61h-.08l-.08.02-.06.04-.06.04-.04.06-.04.06-.02.08M379.43,130.91v2.92M379.15,130.91v2.92M379.43,130.91h-.28M257.96,130.91v2.92M258.24,130.91v2.92M257.96,130.91h.28M258.34,130.61v3.1M379.05,130.61v3.1M379.05,130.61h-120.71M379.43,133.83v1.12M379.15,133.83v1.06M379.43,133.83h-.28M379.43,134.95v.08M379.43,134.95h-.08M257.96,134.95v.08M257.96,133.83v1.12M258.24,133.83v1.06M257.96,133.83h.28M257.96,134.95h.06M379.05,158.59h.08v-.02h.02M258.24,158.57h0l.02.02h.08M379.05,158.65h.04l.02-.02.02-.04.02-.02M379.05,158.93l.14-.02.1-.06.08-.1.04-.12.02-.06M257.96,158.57l.02.14.08.1.1.08.12.04h.06M258.24,158.57v.04l.04.02.02.02h.04M379.15,158.57l-.02-.02h-.04l-.04.02M379.15,158.57h.28M379.43,158.57l-.04-.06-.08-.04-.12-.02h-.14M379.43,158.57v-23.55M379.05,134.87h.08l.06.02.06.02.06.02.06.02.02.02.02.02.02.04M258.24,158.57h-.28M258.34,158.57l-.04-.02h-.06v.02M257.96,135.03v-.04l.02-.02.04-.02.04-.02.06-.02.06-.02.08-.02h.08M257.96,158.57v-23.55M258.34,158.45h-.16l-.12.02-.08.04-.02.06M258.34,133.71v1.16M258.34,134.87v23.59M379.05,158.45v-23.59M379.05,133.71v1.16M379.05,133.71h-120.71M258.34,158.45v.52M379.05,158.97h-120.71M379.05,158.45v.52M379.05,158.45h-120.71M380.25,169.82h-.08M380.17,171.26h.08M522.17,171.1l.02-.04v-.02M497.92,159.35l-.18.18M389.36,349.38v-155.58M389.36,353.54v-1.9M387.62,353.94v.12M387.62,351.64v1.9M387.62,193.84v155.54M512.97,351.64v1.8M512.97,193.8v155.58M514.71,349.38v-155.56M514.71,353.44v-1.8M508.23,345.2h0M453.81,346.72h.24M454.05,346.04h-.24M398.92,346.72h.24M399.16,346.04h-.24M394.04,345.54l-.1.06-.14.12-.12.16-.08.18-.04.18v.18l.02.2.06.18.08.16.14.14.14.12.02.02M394.1,345.54h0l-.02-.02h-.04v.02M394.04,347.24h.06v-.02l.02-.02M398.9,346.04l-.02-.06-.08-.16-.14-.14-.14-.12-.04-.02M398.5,347.24l.08-.06.14-.14.12-.14.08-.18M398.42,347.24h.06M398.48,345.54v-.02h-.04l-.02.02M508.31,347.24l.08-.06.14-.14.12-.14.08-.18.04-.18v-.2l-.02-.18-.06-.18-.08-.16-.14-.14-.14-.12-.04-.02M508.23,347.24h.06M508.29,345.54v-.02h-.04l-.02.02M453.81,346.04l-.02-.06-.1-.16-.12-.14-.14-.12-.04-.02M453.39,347.24l.1-.06.14-.14.1-.14.08-.18M453.33,347.24h.06M453.39,345.54l-.02-.02h-.04v.02M503.84,345.54l-.1.06-.14.12-.12.16-.08.18-.04.18v.18l.02.2.06.18.08.16.14.14.14.12.02.02M503.9,345.54h0l-.02-.02h-.04v.02M503.84,347.24h.06v-.02l.02-.02M448.93,345.54l-.1.06-.14.12-.1.16-.08.18-.04.18-.02.18.02.2.06.18.1.16.12.14.14.12.04.02M449.01,345.54h0l-.02-.02h-.04l-.02.02M448.93,347.24h.08v-.04M451.83,343.82h-.04l-.08.02h-.36M451.03,343.84h-.42l-.06-.02h-.06M452.15,344v-.02l-.04-.08-.06-.06-.04-.02h-.04l-.04-.02h-.06l-.1-.02h-.6M451.17,343.78h-.62l-.06.02h-.1l-.04.02h-.04l-.04.02-.04.04-.04.06-.02.06M450.17,344l-.14.94M452.29,344.94l-.14-.94M506.75,343.82h-.06l-.06.02h-.38M505.93,343.84h-.42l-.06-.02h-.06M507.05,344v-.02l-.04-.08-.04-.06-.04-.02h-.04l-.06-.02h-.06l-.08-.02h-.62M506.07,343.78h-.6l-.06.02h-.1l-.06.02h-.04l-.02.02-.04.04-.04.06-.02.06M505.07,344l-.14.94M507.21,344.94l-.14-.94M396.94,343.82h-.06l-.06.02h-.38M396.12,343.84h-.42l-.06-.02h-.06M397.24,344v-.02l-.04-.08-.04-.06-.04-.02h-.04l-.06-.02h-.06l-.08-.02h-.62M396.26,343.78h-.6l-.06.02h-.1l-.06.02h-.04l-.02.02-.04.04-.04.06-.02.06M395.26,344l-.14.94M397.4,344.94l-.14-.94M505.96,346.84h-.06l-.14.04-.12.06-.14.06-.12.08-.1.1-.1.12-.06.12M507.15,347.24l-.06-.08-.14-.1-.14-.1-.14-.06-.14-.04-.1-.02h-.02M507.33,347.68l-.02-.1-.04-.16-.08-.12v-.02M506.31,347.6h-.22M506.03,349.9v.04h.02l.02.02h.02M506.08,347.6h-.02l-.02.02h-.02v.04M506.37,347.66v-.02l-.02-.02-.02-.02h-.02M506.31,349.96h.02l.02-.02.02-.02v-.02M506.15,345.54h-.02v.02h-.02l-.02.02v.04l-.02.04M505.99,347.88v.02h.04M506.39,345.56l-.24-.02M506.43,345.58l-.02-.02h-.02M506.01,346.2h-.2l-.28.08-.26.14-.2.2-.12.22-.06.22.02.22.06.12.06.14.14.14.22.14.08.04M506.37,348.02l.16-.04.26-.14.22-.18.14-.22.06-.24v-.26l-.1-.22-.18-.22-.24-.16-.26-.1-.06-.02M504.91,347.16v.1l.08.24.16.2.22.18.26.12.3.06.1-.02M504.96,347.08v-.1l.04-.12.08-.12.12-.16.22-.14.28-.12.32-.04M506.37,346.28l.14.04.26.12.2.18.12.2.08.24-.02.22-.1.22-.16.2-.22.14-.26.12h-.04M505.45,347.82l-.14-.08-.12-.12-.1-.1-.06-.1-.06-.2v-.24l.06-.22.16-.18.2-.16.26-.12.28-.06h.08M453.33,345.2h-.02M398.42,345.2h0M395.26,347.86v-.04M397.46,347.96v-.04M397.22,347.92v.04M450.15,347.86v-.04M452.35,347.96v-.04M452.13,347.92v.04M394.12,349.38h-7.88M449.01,349.38h-50.59M503.92,349.38h-50.59M516.09,349.38h-7.86M508.23,351.64h7.86M453.33,351.64h50.59M398.42,351.64h50.59M386.23,351.64h7.88M516.09,351.64h.24M516.33,349.38h-.24M516.55,349.6v-.04l-.02-.04-.02-.04-.02-.04-.04-.02-.04-.02-.04-.02h-.04M516.33,351.64h.04l.04-.02.04-.02.04-.02.02-.04.02-.04.02-.04v-.04M386.23,349.38h-.22M386.01,351.64h.22M385.77,351.42v.04l.02.04.02.04.04.04.02.02.04.02.04.02h.06M386.01,349.38h-.06l-.04.02-.04.02-.02.02-.04.04-.02.04-.02.04v.04M386.05,351.86h0M387.1,351.86h0M386.05,344.62h0M387.1,344.62h0M515.23,344.62h0M516.29,344.62h0M515.23,351.86h0M516.29,351.86h0M72.62,131.33l-.18-.14M43.81,153.41l-.06.06M44.43,153.47l-.06-.06M43.75,153.47v.74M44.43,154.21v-.74M43.43,154.89l.04.04.04.04.02.02.04.04.04.04.04.02.06.04.04.02M44.43,155.15l.04-.02.04-.04.06-.02.04-.04.02-.02M43.31,154.77v.12M172.28,366.51l.02-.04h.02M239.28,366.41v.02l.02.02M153.32,405.44l.02-.28M72.88,397.97l.22-.14"/>
    <rect class="st18" x="84.72" y="-130.5" width="35.33" height="35.33"/>
    <rect class="st15" x="244.84" y="-112.83" width="35.33" height="35.33"/>
    <rect class="st17" x="169.94" y="-122.07" width="35.33" height="35.33"/>
    <rect class="st16" x="305.16" y="-112.83" width="35.33" height="35.33"/>
  </g>
  <g id="Kontur">
    <path class="st0" d="M53.22,5.08l18.53,2.69s1.61,1.93,1.16,4.13-2.82,2.72-2.82,2.72h-19.52"/>
    <polyline class="st0" points="497.59 36.95 379.97 7.76 332.65 7.76 71.85 7.76"/>
    <polyline class="st0" points="520.24 45.44 379.85 11.95 332.65 12.02 259.42 12.53 72.97 11.95"/>
    <polyline class="st0" points="49.37 18.13 49.37 224.7 77.57 276.45"/>
    <polyline class="st0" points="74.78 271.53 155.37 278.45 158.9 278.45"/>
    <line class="st0" x1="154.37" y1="283.29" x2="154.37" y2="2.77"/>
    <line class="st5" x1="172.13" y1="242.8" x2="52.3" y2="242.8"/>
    <line class="st0" x1="39.49" y1="224.8" x2="258.23" y2="224.8"/>
    <line class="st5" x1="241.06" y1="242.8" x2="257.75" y2="242.8"/>
    <polyline class="st0" points="43.71 36.7 305.55 36.7 379.88 36.7 522.24 49.3"/>
    <line class="st6" x1="522.16" y1="53.15" x2="39.65" y2="53.16"/>
    <line class="st6" x1="257.75" y1="242.8" x2="522.07" y2="242.8"/>
    <line class="st0" x1="384.44" y1="224.8" x2="257.75" y2="224.8"/>
    <line class="st0" x1="253.37" y1="278.44" x2="522.16" y2="278.44"/>
    <line class="st0" x1="257.75" y1="282.45" x2="257.75" y2="2.79"/>
    <line class="st0" x1="379.92" y1="2.79" x2="379.81" y2="36.4"/>
    <line class="st0" x1="379.85" y1="36.69" x2="379.85" y2="282.48"/>
    <path class="st0" d="M516.15,36.79l-18.11.12s-.94,1.6,1.05,3.36"/>
    <path class="st0" d="M53.67,2.8l-14.13,50.36-.05,171.64,33.29,51.15,81.58,6.49h4.54s0-53.3,47.71-53.3,46.71,53.3,46.71,53.3l183.51.03,85.33-.03.08-233.15-5.55-12.18-7.29-6.76L379.93,2.78l-47.28-.03-278.98.03v.02Z"/>
    <line class="st0" x1="522.16" y1="224.8" x2="517.91" y2="224.8"/>
    <g>
      <line class="st9" x1="390.01" y1="234.03" x2="390.01" y2="71.89"/>
      <line class="st9" x1="512.79" y1="72.06" x2="512.79" y2="233.93"/>
      <line class="st3" x1="513.23" y1="226.32" x2="389.65" y2="226.32"/>
      <line class="st3" x1="513.23" y1="148.55" x2="389.65" y2="148.55"/>
      <line class="st3" x1="513.23" y1="181.29" x2="389.65" y2="181.29"/>
      <line class="st3" x1="513.23" y1="136.27" x2="389.65" y2="136.27"/>
      <line class="st3" x1="513.23" y1="144.46" x2="389.65" y2="144.46"/>
      <line class="st3" x1="513.23" y1="107.62" x2="389.65" y2="107.62"/>
      <line class="st3" x1="513.23" y1="123.99" x2="389.65" y2="123.99"/>
      <line class="st3" x1="513.23" y1="222.22" x2="389.65" y2="222.22"/>
      <line class="st3" x1="513.23" y1="99.43" x2="389.65" y2="99.43"/>
      <line class="st3" x1="513.23" y1="95.34" x2="389.65" y2="95.34"/>
      <line class="st3" x1="513.23" y1="115.81" x2="389.65" y2="115.81"/>
      <line class="st3" x1="513.23" y1="209.95" x2="389.65" y2="209.95"/>
      <line class="st3" x1="513.23" y1="152.64" x2="389.65" y2="152.64"/>
      <line class="st3" x1="513.23" y1="201.76" x2="389.65" y2="201.76"/>
      <line class="st3" x1="513.23" y1="156.74" x2="389.65" y2="156.74"/>
      <line class="st3" x1="513.23" y1="214.04" x2="389.65" y2="214.04"/>
      <line class="st3" x1="513.23" y1="111.71" x2="389.65" y2="111.71"/>
      <line class="st3" x1="513.23" y1="218.13" x2="389.65" y2="218.13"/>
      <line class="st3" x1="513.23" y1="164.92" x2="389.65" y2="164.92"/>
      <line class="st3" x1="513.23" y1="91.25" x2="389.65" y2="91.25"/>
      <line class="st3" x1="513.23" y1="189.48" x2="389.65" y2="189.48"/>
      <line class="st3" x1="513.23" y1="140.36" x2="389.65" y2="140.36"/>
      <line class="st12" x1="513.23" y1="83.06" x2="389.65" y2="83.06"/>
      <line class="st3" x1="513.23" y1="173.11" x2="389.65" y2="173.11"/>
      <line class="st3" x1="513.23" y1="177.2" x2="389.65" y2="177.2"/>
      <line class="st3" x1="513.23" y1="169.02" x2="389.65" y2="169.02"/>
      <line class="st3" x1="513.23" y1="205.85" x2="389.65" y2="205.85"/>
      <line class="st3" x1="513.23" y1="160.83" x2="389.65" y2="160.83"/>
      <line class="st3" x1="513.23" y1="78.97" x2="389.65" y2="78.97"/>
      <line class="st9" x1="512.39" y1="73.76" x2="390.22" y2="73.76"/>
      <line class="st3" x1="513.23" y1="87.15" x2="389.65" y2="87.15"/>
      <line class="st3" x1="513.23" y1="197.67" x2="389.65" y2="197.67"/>
      <line class="st3" x1="513.23" y1="132.18" x2="389.65" y2="132.18"/>
      <line class="st3" x1="513.23" y1="193.57" x2="389.65" y2="193.57"/>
      <line class="st3" x1="513.23" y1="128.08" x2="389.65" y2="128.08"/>
      <line class="st3" x1="513.23" y1="185.39" x2="389.65" y2="185.39"/>
      <line class="st3" x1="513.23" y1="119.9" x2="389.65" y2="119.9"/>
      <line class="st3" x1="513.23" y1="103.53" x2="389.65" y2="103.53"/>
      <line class="st3" x1="385.27" y1="229.27" x2="385.27" y2="225.35"/>
      <polyline class="st3" points="385.27 225.35 385.27 225.25 385.27 225.17 385.27 225.07 385.27 224.97 385.27 224.89 385.27 224.79 385.27 224.69 385.27 224.59"/>
      <polyline class="st3" points="517.71 224.59 517.71 224.69 517.71 224.79 517.71 224.89 517.71 224.97 517.71 225.07 517.71 225.17 517.71 225.25 517.71 225.35"/>
      <line class="st3" x1="388.45" y1="72.08" x2="514.53" y2="72.08"/>
      <polyline class="st3" points="514.53 72.08 514.89 72.1 515.25 72.16 515.59 72.26 515.91 72.4 516.23 72.58 516.51 72.78 516.79 73.02 517.01 73.28 517.23 73.58 517.39 73.88 517.53 74.22 517.63 74.56 517.69 74.9 517.71 75.26"/>
      <line class="st3" x1="517.71" y1="75.26" x2="517.71" y2="224.59"/>
      <line class="st3" x1="385.27" y1="224.59" x2="385.27" y2="75.26"/>
      <polyline class="st3" points="385.27 75.26 385.29 74.9 385.35 74.56 385.45 74.22 385.59 73.88 385.77 73.58 385.97 73.28 386.21 73.02 386.47 72.78 386.77 72.58 387.07 72.4 387.41 72.26 387.75 72.16 388.09 72.1 388.45 72.08"/>
      <path class="st3" d="M517.71,229.27l-.02.34-.06.36-.1.34-.14.32-.16.3-.22.3-.22.26-.28.22-.28.22-.32.16-.32.14-.34.1-.36.06-.36.02s.13.28-.48,1.11-1.26.85-1.26.85h-123.14s-.54-.14-.95-.81-.25-1.15-.25-1.15l-.36-.02-.34-.06-.34-.1-.34-.14-.3-.16-.3-.22-.26-.22-.24-.26-.2-.3-.18-.3-.14-.32-.1-.34-.06-.36-.02-.34"/>
      <path class="st10" d="M514.93,72.12"/>
      <line class="st8" x1="390.27" y1="230.41" x2="513.23" y2="230.41"/>
      <path class="st13" d="M398.79,221.6h-1.12l-.13-.95h-1.98l-.12.95h-1.12c-.46,0-.84.43-.84.96v.83c0,.53.37.96.84.96h.1v7.02h4.28v-7.02h.1c.46,0,.84-.43.84-.96v-.83c0-.53-.37-.96-.84-.96h-.01Z"/>
      <path class="st13" d="M453.86,221.6h-1.12l-.13-.95h-1.98l-.12.95h-1.12c-.46,0-.84.43-.84.96v.83c0,.53.37.96.84.96h.1v7.02h4.28v-7.02h.1c.46,0,.84-.43.84-.96v-.83c0-.53-.37-.96-.84-.96h-.01Z"/>
      <path class="st13" d="M508.54,221.6h-1.12l-.13-.95h-1.98l-.12.95h-1.12c-.46,0-.84.43-.84.96v.83c0,.53.37.96.84.96h.1v7.02h4.28v-7.02h.1c.46,0,.84-.43.84-.96v-.83c0-.53-.37-.96-.84-.96h-.01Z"/>
      <line class="st3" x1="517.71" y1="224.76" x2="517.71" y2="229.28"/>
      <line class="st0" x1="385.27" y1="224.18" x2="380.02" y2="224.18"/>
      <line class="st0" x1="521.64" y1="224.8" x2="517.66" y2="224.8"/>
    </g>
  </g>
  <g id="Kontur_wei">
    <g>
      <path class="st4" d="M671.36,277.92c0,13.62,11.04,24.67,24.67,24.67s24.67-11.04,24.67-24.67-11.04-24.67-24.67-24.67-24.67,11.04-24.67,24.67Z"/>
      <circle class="st11" cx="696.03" cy="277.92" r="6.33"/>
      <circle class="st11" cx="696.03" cy="288.54" r="2.33"/>
      <path class="st11" d="M685.69,281.27c1.11-.65,2.54-.28,3.19.83s.28,2.54-.83,3.2c-1.11.65-2.54.28-3.19-.83s-.28-2.54.83-3.19h0Z"/>
      <path class="st11" d="M687.9,270.69c1.12.63,1.53,2.05.9,3.18-.63,1.12-2.05,1.53-3.18.9-1.12-.63-1.53-2.05-.9-3.18.63-1.12,2.05-1.53,3.18-.9Z"/>
      <path class="st11" d="M698.15,267.25c.03,1.29-1,2.35-2.29,2.38s-2.35-1-2.38-2.29,1-2.35,2.29-2.38,2.35,1,2.38,2.29Z"/>
      <path class="st11" d="M706.3,274.35c-1.1.67-2.54.33-3.21-.77-.67-1.1-.33-2.54.77-3.21,1.1-.67,2.54-.33,3.21.77.67,1.1.33,2.54-.77,3.21Z"/>
      <path class="st11" d="M704.31,284.97c-1.14-.61-1.57-2.02-.96-3.16s2.02-1.57,3.16-.96c1.14.61,1.57,2.02.96,3.16-.6,1.14-2.02,1.57-3.16.96Z"/>
      <path class="st4" d="M653.97,277.16c0,23.11,18.73,41.84,41.84,41.84s41.84-18.73,41.84-41.84-18.73-41.84-41.84-41.84-41.84,18.73-41.84,41.84Z"/>
    </g>
    <g>
      <path class="st1" d="M745.45,281.37l27.82.04s1.45.18,6.73-.58c5-.71,27.77-7.58,30.27-8.1s.94-18.14.94-18.14c0,0-.3-1.62-2.71-2.34-1.52-.45-4.23-1.27-6.73-1.85-1.47-.34,3.8-14.08,7.5-15.11l1.69-2.54.85-6.04-1.65-3.42,1.19-3.16s.58-7.15.58-12.15-4.79-13.42-7.66-17.27c-2.41-3.23-8-10.5-21.5-17s-43.06-16.29-59-18.62c-4.17-.61-11.5-1.26-11.5-1.26,0,0-46.33-51.31-77-78.12-5.14-4.5-20.98-11.34-32.87-13.87-16.25-3.46-29.76-4.67-69.62-5.62-4.87-.12-5.37,3-5.37,3v220.97s3.87,2.74,6.37,3.21,109.12.72,109.12.72c0,0,2.61-.26,2.42-3.42-1.05-17.98,6.33-59.73,49.88-59.98,44.07-.25,51.25,38.34,50.25,60.65Z"/>
      <path class="st1" d="M787.13,197.54c-6.82-4.56-50.34-13.29-48.72-9.67,0,0,8.54,17.46,22.43,21.91s24.53,5.51,31.86,5.93l-5.57-18.17h0Z"/>
      <path class="st1" d="M800.54,231.46h-15.22s-6.67,0-13.55,5.95c-4.01,3.47-12.5,16.75-10.5,19.03s48.13,1,50.27.89"/>
      <path class="st1" d="M804.27,190.72c-2.48,0-8-.83-9.17,1.33-1.4,2.59,6.4,32.09,10.17,37.5,4,5.74,4.88,4.19,4.88,4.19"/>
      <path class="st1" d="M792.7,193.77s-15.84-5.17-33.95-7.88c0,0-8.46-4.39-19.81-6.26-12.55-2.07-21.42-3.97-27.44-7.22-4.1-2.22-12.58-11.6-12.66-17.31l14.4-1.26"/>
      <path class="st1" d="M759.61,209.58c-7.58,9.26-10.76,13.39-11.82,14.08s-3.94,2.11-7.87,2.74-5.6-.16-7.72,0-4.11,1.47-4.11,1.47"/>
      <path class="st1" d="M698.84,155.1c-5.7-2.34-9.06-6.01-10.96-7.71-1.09-.97-60.99-64.01-67.12-69.67-6.5-6-15.75-10.75-35-14.67-11.23-2.28-52.33-4.67-52.33-4.67v219.79h111.8"/>
      <path class="st1" d="M795.1,192.05c-4.08-4.17-4.45-4.67-13.62-9.25-13.45-6.73-69.39-21.86-77.33-24.75-2.23-.81-3.62-1.33-4.89-3"/>
      <path class="st1" d="M791.21,236.84c1.8.06,2.77,1.13,2.34,3.13s-3.07,8.01-3.82,9.26-2.44,2.08-4.62,2.29c-2.16.21-12.84.18-15.84-.26s-2.5-2.54-1.25-4.04,5.75-7,7-8.25,2.83-1.56,6.25-1.84c2.11-.17,9.95-.28,9.95-.28h-.01Z"/>
      <path class="st1" d="M679.77,169.47c-7-.5-49.25-5-59-7s-51-12.5-55.5-15.5-7.75-9.25-8.25-14.25-7.5-42.83-7.25-46.08,2.42-7.67,7.58-7.67c4,0,43.89,2.19,53.33,7.33,3.04,1.66,6.19,3.79,10.08,7.17,11.25,9.75,36.67,35.25,60,69.5,4.42,6.49-1,6.5-1,6.5h0Z"/>
      <line class="st1" x1="648.33" y1="255.87" x2="533.43" y2="255.87"/>
      <path class="st1" d="M614.52,255.87s1.51-4.52,3.13-8.13c10.37-23.25,25.97-55.26,75.97-54.53,39.15.57,58.76,31.33,65.42,50.19"/>
      <path class="st1" d="M796.34,224.53c-13.42-.05-22.52.96-27.89,6.64-7.6,8.05-13.3,18.33-14.47,21.56-1.72,4.73,2.02,7.61,5.62,8.88,3.6,1.27,48.25.07,51.93,0"/>
      <path class="st1" d="M619.38,84.15c-9.34-7.83-20.28-10.35-33.95-12-12.61-1.52-37.67-2.96-42.33-2.77-2,.08-3.02,1.67-3,3.33.04,2.69,2.58,102.58,4.67,113.96,1.01,5.53,2.65,11.03,3.92,15.04,1.08,3.42.8,7.59.93,10.42.2,4.41,1.74,47.16,6.64,52.78,1.37,1.57,2,1.5,4.33,1.72,2.33.21,75.3,0,75.3,0,0,0-1.19-26.95,22.79-47.21,3.29-2.78,7.23-5.36,7.42-9.84.41-9.52.67-64.19-.33-70.19s-4.49-11.67-8.33-16.38c-9.33-11.45-29.63-31.8-38.05-38.85h0Z"/>
    </g>
    <g>
      <path class="st4" d="M181.9,277.92c0,13.62,11.04,24.67,24.67,24.67s24.67-11.04,24.67-24.67-11.04-24.67-24.67-24.67-24.67,11.04-24.67,24.67Z"/>
      <circle class="st11" cx="206.57" cy="277.92" r="6.33"/>
      <circle class="st11" cx="206.57" cy="288.54" r="2.33"/>
      <path class="st11" d="M196.22,281.27c1.11-.65,2.54-.28,3.19.83.65,1.11.28,2.54-.83,3.2-1.11.65-2.54.28-3.19-.83-.65-1.11-.28-2.54.83-3.19h0Z"/>
      <path class="st11" d="M198.44,270.69c1.12.63,1.53,2.05.9,3.18-.63,1.12-2.05,1.53-3.18.9-1.12-.63-1.53-2.05-.9-3.18.63-1.12,2.05-1.53,3.18-.9Z"/>
      <path class="st11" d="M208.68,267.25c.03,1.29-1,2.35-2.29,2.38s-2.35-1-2.38-2.29,1-2.35,2.29-2.38,2.35,1,2.38,2.29Z"/>
      <path class="st11" d="M216.84,274.35c-1.1.67-2.54.33-3.21-.77-.67-1.1-.33-2.54.77-3.21,1.1-.67,2.54-.33,3.21.77.67,1.1.33,2.54-.77,3.21Z"/>
      <path class="st11" d="M214.84,284.97c-1.14-.61-1.57-2.02-.96-3.16s2.02-1.57,3.16-.96c1.14.61,1.57,2.02.96,3.16-.6,1.14-2.02,1.57-3.16.96Z"/>
      <path class="st4" d="M164.51,277.16c0,23.11,18.73,41.84,41.84,41.84s41.84-18.73,41.84-41.84-18.73-41.84-41.84-41.84-41.84,18.73-41.84,41.84Z"/>
    </g>
    <path class="st1" d="M81.56,278.14v4.6c0,1.31-3.67,5.47-6,5.56s-15.33,0-15.33,0v3.1h-8l-3-2.15s-2.49-.04-7.3,0c-3.46.03-2.97-6.29-2.97-6.29-2.76-.68-3.16-3.83-1.83-5.68,1.33-1.85,4.75-1.87,6.2.74,1.52,2.73-1.33,4.46-1.33,4.46v2.59l6.95-1.46,1.62-4.06,3-3.73v-2.58s-2.8.42-4.58.01c-3.28-.74-3.53-3.75-3.53-3.75v-12.02s0-1.96,5.1-2.31c1.67-.11,1.66-.11,5,0l1,15.42,1,4.36,4-1.01.23-11.21"/>
    <line class="st1" x1="60.44" y1="276.87" x2="60.44" y2="287.46"/>
    <path class="st1" d="M388.57,284.29l-7.49,7.71c-2.71,1.03-7.49-2.33-6.59-4.61.49-1.23,2.58-3,2.58-3"/>
    <polyline class="st1" points="106.49 280.69 104.67 284.41 96.01 284.41 96.01 279.22"/>
  </g>
</svg>