<?xml version="1.0" encoding="UTF-8"?>
<svg id="Ebene_1" xmlns="http://www.w3.org/2000/svg" version="1.1" viewBox="0 0 841.89 320">
  <!-- Generator: Adobe Illustrator 29.2.1, SVG Export Plug-In . SVG Version: 2.1.0 Build 116)  -->
  <defs>
    <style>
      .st0 {
        stroke-width: 1.5px;
      }

      .st0, .st1, .st2, .st3, .st4, .st5, .st6, .st7, .st8, .st9, .st10, .st11, .st12 {
        fill: none;
      }

      .st0, .st2, .st13, .st4, .st5, .st8, .st9, .st10, .st12 {
        stroke: #213239;
      }

      .st1, .st2, .st3, .st4, .st6, .st7, .st10, .st11, .st12 {
        stroke-linecap: round;
      }

      .st1, .st2, .st13, .st6, .st7, .st8, .st9, .st10, .st12 {
        stroke-linejoin: round;
      }

      .st1, .st3 {
        stroke-dasharray: 8 3.5;
      }

      .st1, .st3, .st11 {
        stroke: #fff;
      }

      .st14 {
        fill: #4493a7;
      }

      .st13 {
        stroke-width: 1.28px;
      }

      .st13, .st15 {
        fill: #213239;
      }

      .st4, .st5, .st9 {
        stroke-width: 3px;
      }

      .st16 {
        fill: #3eadc9;
      }

      .st6 {
        stroke: #7d7d7e;
        stroke-width: .51px;
      }

      .st17 {
        fill: #a1cb66;
      }

      .st18 {
        fill: #c5dea1;
      }

      .st7 {
        stroke: #030000;
        stroke-width: .14px;
      }

      .st19 {
        display: none;
      }

      .st10 {
        stroke-width: .97px;
      }

      .st12 {
        stroke-width: .71px;
      }
    </style>
  </defs>
  <g id="Ebene_11" data-name="Ebene_1" class="st19">
    <line class="st6" x1="524.09" y1="354.71" x2="524.09" y2="354.71"/>
    <line class="st6" x1="506.28" y1="354.02" x2="506.28" y2="354.02"/>
    <path class="st2" d="M378.91,362.99h.24M379.16,362.99h.14M379.3,364.25v-.02M379.3,405.52v-.06M523.47,405.46v.06M523.47,364.23v.02M379.3,364.29v1M523.47,365.29v-1M517.15,353.06h.2M515.03,353.06h1.52M516.01,352.39v.65M516.01,190.93v152.17M386.64,343.1v-152.15M386.64,353.12v-.73M386.64,353.62v-.12M516.38,353.44v.12M515.48,353.58v.12M515.77,353.69v-.12M514.1,351.21v1.83M514.1,190.87v158.02M388.55,348.89v-158.02M388.55,353.12v-1.91M509.28,344.66h0M509.28,345.11h0M507.39,349.07h1.89M504.92,349.07h2.13M507.33,351.41h1.95M504.92,351.41h2.19M453.59,344.99v1.73M504.83,346.72h0v-1.73M509.37,344.99v1.73M449.06,346.72h0v-1.73M397.83,344.99v1.73M393.3,346.72h0v-1.73M506.95,343.28l-.12-.02h-.43l-.06-.02.06-.02h.28l.14-.02h.55l.12.02h.28l.06.02-.06.02h-.41l-.1.02M508.11,343.45h-.04l-.06.02h-.26l-.16.02h-.98l-.16-.02h-.24l-.08-.02h-.04M451.19,343.28l-.14-.02h-.43l-.04-.02.04-.02h.29l.14-.02h.55l.14.02h.28l.04.02-.04.02h-.43l-.08.02M452.33,343.45h-.02l-.08.02h-.24l-.16.02h-.98l-.18-.02h-.24l-.06-.02h-.04M395.41,343.28l-.12-.02h-.43l-.06-.02.06-.02h.28l.14-.02h.55l.12.02h.28l.06.02-.06.02h-.41l-.1.02M396.57,343.45h-.04l-.06.02h-.26l-.16.02h-.98l-.16-.02h-.24l-.08-.02h-.04M507.05,348.12l-.18-.04-.2-.06-.18-.1-.14-.12-.12-.14-.1-.14-.04-.14M508.37,347.22l-.02.14-.06.16-.08.16-.14.14-.16.12-.18.08-.2.06-.1.02M507.05,347.94l-.29-.04-.18-.1-.14-.1-.12-.14-.08-.14-.04-.22M508.21,346.9h0l.04.3-.1.3-.1.14-.14.12-.18.08-.18.08h-.14M507.43,346.37l.22.04.18.1.16.1.12.14.04.06M506.17,347.1l.1-.3.12-.14.14-.12.16-.08.2-.08h.08M507.17,345.01v.02l-.02.06-.02.1v.12l-.02.18-.02.18-.02.22v.22l-.02.22v.22l-.02.2v.57l.02.04M507.41,345.01l-.02.02-.02.06v.1l-.02.14-.02.16-.02.2v.22l-.02.22-.02.22v.22l-.02.2v.28M507.31,347.08v-.3l.02-.2v-.22l.02-.24.02-.22v-.2l.02-.16.02-.16.02-.12v-.1l.02-.04h.02M507.11,347.08v2.17M507.33,347.08v2.17M453.53,344.64h-.02M453.53,348.02h0M453.53,347.08h0M453.51,345.09h.02M453.53,346.86h0M397.75,344.64h0M397.75,348.02h0M397.75,347.08h0M397.75,345.09h0M397.75,346.86h0M385.15,348.89h0v1.63M385.15,350.52v.69M517.51,351.21v-.87M517.51,350.33v-1.44M393.36,344.73h-4.82M449.14,344.73h-51.39M504.89,344.73h-51.37M514.1,344.73h-4.82M393.36,344.77h-4.82M449.14,344.77h-51.39M504.89,344.77h-51.37M514.1,344.77h-4.82M393.36,344.79h-4.82M449.14,344.79h-51.39M504.89,344.79h-51.37M514.1,344.79h-4.82M388.55,352.89h125.55M388.55,352.96h125.55M515.03,353.06h-126.49M517.61,351.17v1.1M516.23,352.49v-1.28M517.41,352.49h-1.18M517.27,352.61h-1.04M517.86,350.37h-.12M517.86,349.56l-.02.04v.06l-.02.02-.04.04-.02.04h-.02M516.23,348.89v-3.29M517.61,345.6v3.33M517.86,349.52l-.02.04v.04l-.02.04-.04.04-.02.02h-.02M517.74,349.16h.02l.02.02.04.02.02.02v.02l.02.02M386.41,351.21v1.28M385.03,352.1v-.93M386.41,352.49h-1.06M385.03,352.55v.06M385.07,352.61h-.04M386.41,352.61h-.91M384.91,350.37h-.1M384.91,349.76h0l-.04-.04-.02-.04-.04-.02v-.1M385.03,348.93v-3.33M386.41,345.6v3.29M384.91,349.7h0l-.04-.02-.02-.04-.04-.04v-.08M384.81,349.26v-.04l.04-.02.02-.02.04-.02M514.1,192.57h-125.55M514.1,192.61h-125.55M514.1,192.63h-125.55M388.55,196.62h125.55M388.55,196.6h125.55M514.1,278.93h-125.55M514.1,278.97h-125.55M514.1,279.01h-125.55M388.55,282.97h125.55M388.55,282.95h125.55M514.1,266.6h-125.55M514.1,266.64h-125.55M514.1,266.66h-125.55M388.55,270.64h125.55M388.55,270.62h125.55M514.1,270.7h-125.55M514.1,270.76h-125.55M514.1,270.78h-125.55M388.55,274.77h125.55M388.55,274.73h125.55M514.1,262.49h-125.55M514.1,262.53h-125.55M514.1,262.55h-125.55M388.55,266.54h125.55M388.55,266.52h125.55M388.55,192.51h125.55M388.55,192.47h125.55M514.1,287.16h-125.55M514.1,287.2h-125.55M514.1,287.22h-125.55M388.55,291.2h125.55M388.55,291.18h125.55M514.1,299.49h-125.55M514.1,299.54h-125.55M514.1,299.56h-125.55M388.55,303.54h125.55M388.55,303.52h125.55M514.1,307.72h-125.55M514.1,307.76h-125.55M514.1,307.79h-125.55M388.55,311.77h125.55M388.55,311.75h125.55M514.1,221.37h-125.55M514.1,221.41h-125.55M514.1,221.43h-125.55M388.55,225.41h125.55M388.55,225.39h125.55M514.1,200.8h-125.55M514.1,200.84h-125.55M514.1,200.86h-125.55M388.55,204.85h125.55M388.55,204.83h125.55M514.1,204.91h-125.55M514.1,204.95h-125.55M514.1,204.97h-125.55M388.55,208.95h125.55M388.55,208.93h125.55M514.1,274.83h-125.55M514.1,274.87h-125.55M514.1,274.89h-125.55M388.55,278.87h125.55M388.55,278.85h125.55M514.1,196.68h-125.55M514.1,196.74h-125.55M514.1,196.76h-125.55M388.55,200.72h125.55M388.55,200.7h125.55M514.1,209.03h-125.55M514.1,209.07h-125.55M514.1,209.09h-125.55M388.55,213.08h125.55M388.55,213.04h125.55M514.1,315.95h-125.55M514.1,315.99h-125.55M514.1,316.01h-125.55M388.55,320h125.55M388.55,319.98h125.55M514.1,213.14h-125.55M514.1,213.18h-125.55M514.1,213.2h-125.55M388.55,217.18h125.55M388.55,217.16h125.55M514.1,217.24h-125.55M514.1,217.28h-125.55M514.1,217.32h-125.55M388.55,221.29h125.55M388.55,221.26h125.55M514.1,241.93h-125.55M514.1,241.97h-125.55M514.1,241.99h-125.55M388.55,245.97h125.55M388.55,245.95h125.55M514.1,225.47h-125.55M514.1,225.51h-125.55M514.1,225.53h-125.55M388.55,229.51h125.55M388.55,229.49h125.55M514.1,303.62h-125.55M514.1,303.66h-125.55M514.1,303.68h-125.55M388.55,307.66h125.55M388.55,307.64h125.55M514.1,258.37h-125.55M514.1,258.41h-125.55M514.1,258.45h-125.55M388.55,262.41h125.55M388.55,262.39h125.55M514.1,254.26h-125.55M514.1,254.3h-125.55M514.1,254.32h-125.55M388.55,258.31h125.55M388.55,258.29h125.55M514.1,311.83h-125.55M514.1,311.89h-125.55M514.1,311.91h-125.55M388.55,315.87h125.55M388.55,315.85h125.55M514.1,324.18h-125.55M514.1,324.22h-125.55M514.1,324.24h-125.55M388.55,328.23h125.55M388.55,328.19h125.55M514.1,295.39h-125.55M514.1,295.43h-125.55M514.1,295.45h-125.55M388.55,299.43h125.55M388.55,299.41h125.55M514.1,291.27h-125.55M514.1,291.33h-125.55M514.1,291.35h-125.55M388.55,295.31h125.55M388.55,295.29h125.55M514.1,340.62h-125.55M514.1,340.68h-125.55M514.1,340.7h-125.55M509.28,344.66h4.82M453.53,344.66h51.37M397.75,344.66h51.39M388.55,344.66h4.82M509.28,344.64h4.82M453.51,344.64h51.39M397.75,344.64h51.39M388.55,344.64h4.82M514.1,283.06h-125.55M514.1,283.1h-125.55M514.1,283.12h-125.55M388.55,287.1h125.55M388.55,287.08h125.55M514.1,332.39h-125.55M514.1,332.45h-125.55M514.1,332.47h-125.55M388.55,336.44h125.55M388.55,336.42h125.55M514.1,336.52h-125.55M514.1,336.56h-125.55M514.1,336.58h-125.55M388.55,340.56h125.55M388.55,340.54h125.55M514.1,229.58h-125.55M514.1,229.64h-125.55M514.1,229.66h-125.55M388.55,233.64h125.55M388.55,233.6h125.55M514.1,233.7h-125.55M514.1,233.74h-125.55M514.1,233.76h-125.55M388.55,237.74h125.55M388.55,237.72h125.55M514.1,237.8h-125.55M514.1,237.85h-125.55M514.1,237.89h-125.55M388.55,241.85h125.55M388.55,241.83h125.55M514.1,246.03h-125.55M514.1,246.07h-125.55M514.1,246.1h-125.55M388.55,250.08h125.55M388.55,250.06h125.55M514.1,320.06h-125.55M514.1,320.1h-125.55M514.1,320.12h-125.55M388.55,324.1h125.55M388.55,324.08h125.55M514.1,328.29h-125.55M514.1,328.33h-125.55M514.1,328.35h-125.55M388.55,332.33h125.55M388.55,332.31h125.55M514.1,250.14h-125.55M514.1,250.2h-125.55M514.1,250.22h-125.55M388.55,254.2h125.55M388.55,254.16h125.55M254.86,363.03h.22M53.17,363.54v-.45M53.68,363.09v.45M148.82,363.03h1.22M254.25,363.03h.61M33.75,170.81l-.04-.02M33.67,346.55l-.04.04M47.34,353.77v-.1M165.38,363.6v-.06M38.04,155.73v-.22M37.75,155.51v.22M33.55,171.56v.02M154.81,401.17h.16M168.22,365.98l.12.12M155.12,397.05h-.16M249.26,401.11h-.16M235.85,365.94l-.12.1M248.95,397.01l.16-.02M148.82,405.44v.06M64.02,398.41h-.02M44.25,364.11v-.22M148.82,364.25v1.18M64.02,398.41l.87.08M510.22,150.39l.04-.08M510.08,150.29v-.04M379.34,138.83v-.02M521.62,163.01l-.18.08M379.22,150.84h0M379.22,147.73h0M379.32,150.65v-.02M497.64,160.88l-.1.12M498.78,161.77l-.04.12M254.4,155.43v.65M378.22,155.57v.51M63.23,149.46h-23.92M60.81,150.78v.16M39.03,149.33l.28.08M50.09,363.09v-.02M47.1,363.07v.02M378.69,362.99h.22M255.09,362.99h.22M378.08,362.99h.61M255.31,362.99h.16M378.12,364.21h0M255.43,364.21h0M378.12,365.29v-1.04M378.12,405.6v-.14M255.43,405.46v.14M255.43,364.25v1.04M378.08,155.51v.1M255.47,155.51v.1M378.91,362.99v-.2M379.16,363.44l-.08-.06-.06-.08-.04-.08-.04-.12-.02-.1M379.3,360.11h-.08M379.22,360.13h.08M379.16,362.99v-.2M379.16,363.09h0v-.1M379.73,363.54h-.57M379.16,363.09h.14M379.16,363.54v-.45M379.73,363.54h143.31M379.73,363.09v.45M523.61,363.54h-.57M523.61,363.09v.45M523.47,363.09h.14M523.04,363.54v-.45M523.83,168.78v-.1M523.47,168.66v-.02M523.47,363.09l.14-.04.1-.06.08-.1.04-.1M523.47,362.79h.04l.02-.02.02-.04v-.02M523.47,363.09v-.33M379.3,363.09v-.33M379.3,363.09h144.17M522.63,168.29l.85.06M523.47,168.64h0M523.47,168.64l.02-.28M523.55,168.74v-.04l-.04-.04-.04-.02M523.83,168.74l-.02-.14-.06-.12-.1-.08-.14-.04h-.02M523.26,168.35l.06.02.06.08.06.12.02.02M523.26,168.35l-143.92-12.6M379.3,155.98l.02-.08v-.12l.02-.02M523.83,170.91v-2.17M523.55,170.91v-2.17M523.83,168.74h-.28M379.22,156.1v14.81M378.91,156.1v14.81M378.91,156.1h.3M384.12,350.5l.02.37.06.35.08.35.14.35.18.3.2.28.24.28.26.22.3.2.31.18.35.14.35.1.37.06.35.02M515.44,353.71l.35-.02.37-.06.35-.1.33-.14.33-.18.3-.2.26-.22.24-.28.2-.28.18-.3.12-.35.1-.35.06-.35.02-.37M379.3,155.98l144.17,12.62M379.3,170.79v-14.81M523.47,170.79v-2.19M523.83,173.01v-.1M523.55,173.01v-.1M379.22,172.9v.1M378.91,172.9v.1M523.83,345.92v-.12M523.55,345.92v-.12M379.22,345.8v.12M378.91,345.8v.12M523.83,362.79v-16.25M523.55,362.79v-16.25M523.83,362.79h-.28M379.22,346.53v16.25M378.91,346.53v16.25M378.91,362.79h.3M523.83,172.9v-1.99M523.55,172.9v-1.99M523.83,172.9h-.28M523.83,170.91h-.28M379.22,170.91v1.99M378.91,170.91v1.99M378.91,170.91h.3M378.91,172.9h.3M523.83,346.53v-.61M523.55,346.53v-.61M523.83,346.53h-.28M523.83,345.92h-.28M379.22,345.92v.61M378.91,345.92h.3M378.91,345.92v.61M378.91,346.53h.3M518.65,346.57v3.96M518.65,350.54l-.02.37-.06.35-.1.35-.12.34-.18.3-.2.29-.24.28-.26.22-.3.2-.33.18-.33.14-.35.1-.37.06-.35.02M387.33,353.75l-.35-.02-.37-.06-.35-.1-.35-.14-.31-.18-.3-.2-.26-.22-.24-.28-.2-.29-.18-.3-.14-.34-.08-.35-.06-.35-.02-.37M384.12,350.54v-3.96M379.3,362.77v-16.19M379.3,362.77h144.17M523.47,362.77v-16.19M384.48,345.8h-.37M384.48,194.1v151.71M384.12,194.1h.37M518.65,345.8h-.37M518.29,194.1h.37M518.29,345.8v-151.71M384.12,346.57v-.77M379.3,346.57v-.77M379.3,346.57h4.82M523.83,345.8h-.37M523.83,345.8v-172.8M523.47,173.01h.37M518.65,345.8v.77M518.65,346.57h4.82M523.47,346.57v-.77M523.47,173.01v-2.21M379.3,170.79h144.17M379.3,173.01v-2.21M378.91,173.01h.39M378.91,173.01v172.8M379.3,345.8h-.39M387.33,190.87h128.11M515.44,190.87l.35.02.37.06.35.1.33.14.33.16.3.22.26.24.24.26.2.28.18.33.12.33.1.35.06.37.02.37M518.65,194.1v151.71M518.65,345.8h4.82M523.47,345.8v-172.8M379.3,173.01h144.17M379.3,345.8v-172.8M379.3,345.8h4.82M384.12,345.8v-151.71M384.12,194.1l.02-.37.06-.37.08-.35.14-.33.18-.33.2-.28.24-.26.26-.24.3-.22.31-.16.35-.14.35-.1.37-.06.35-.02M50.63,360.35h0v.08M50.57,360.31v-.06M46.06,351.04l-.04.04M46.59,352.24l.04-.02M46.65,352.28h-.04M46,351.02h0l.02-.02M46.53,352.02h-.04M46.12,351.31l.04-.04M46.45,351.96h.04M46.18,351.33l-.02.04M46.49,351.96h.02M515.44,353.58l.35-.02.37-.06.37-.12.34-.14.33-.2.3-.24.29-.26.22-.3.2-.33.16-.35.1-.37.08-.39.02-.37M515.44,353.3l.3-.02.35-.06.33-.1.32-.14.29-.18.28-.2.24-.24.22-.28.16-.3.14-.3.1-.35.08-.33.02-.34M518.29,345.88v4.55M518.29,350.44h.28M518.57,345.88v4.55M518.57,345.88h-.28M384.48,350.44l.02.34.06.33.1.35.16.3.16.3.22.28.24.24.28.2.28.18.32.14.33.1.35.06.3.02M384.2,350.44l.02.37.08.39.1.37.16.35.2.33.22.3.28.26.28.24.35.2.35.14.37.12.37.06.35.02M384.2,345.88v4.55M384.2,345.88h.28M384.2,350.44h.28M384.48,345.88v4.55M523.55,168.74v-.08M523.47,168.64l.02.02M518.59,345.8v.71M518.59,346.51h.06M518.59,346.51v4.59M518.59,346.51h.02l.02.02h.02M518.59,193.49v.61M379.22,156.1h0M379.22,156.1h.08M379.3,156.32h-.08M379.3,359.6h-.08M379.22,359.36h.08M384.16,346.51v-.71M384.16,346.51h-.04M384.16,351.11v-4.59M384.12,346.53h.02l.02-.02M384.16,194.1v-.61M379.3,155.76h.04M522.65,168.07l-143.33-12.54M379.3,155.76l.02-.22M379.34,155.76h-.04M522.75,168.07h-.08M522.63,168.29l.02-.22M522.73,168.29l.02-.22M379.3,405.62v-.1M523.47,405.52v.1M523.47,364.15v.08M379.3,364.23v-.08M379.22,364.23h.08M379.3,405.52h-.08M379.3,405.91h0v.02M523.47,405.93h0v-.02M523.47,364.23h.08M523.55,405.52h-.08M523.47,363.87v-.04M379.3,363.83v.04M378.91,405.52l.02.08.02.06.04.08.04.04.06.06.06.02.08.04h.06M379.22,405.52v.06h.02l.02.02.02.02h.02M378.91,405.38v.14M379.22,405.52v-.06M379.22,405.52h-.3M379.3,405.62h.12M379.3,405.91h.02M379.3,405.62v.29M523.55,405.46v.06M523.83,405.52v-.14M523.47,405.62h.02v-.02h.02l.02-.02.02-.02v-.04M523.47,405.91h.06l.08-.04.06-.02.06-.06.04-.04.04-.08.02-.06v-.08M523.55,405.52h.28M523.45,405.91h.02M523.47,405.62v.29M523.34,405.62h.12M379.3,405.93h.02v-.02l.02-.02v-.04M379.3,406.21v-.28M523.41,405.85l.02.04.02.02v.02h.02M523.47,406.21v-.28M523.47,406.21h-144.17M523.41,405.89l.02.12.02.12v.06l.02.02M379.3,406.21l.02-.02v-.06l.02-.12v-.12M379.34,405.85l.08-.12M379.34,405.85v.04M523.41,405.85v.04M523.34,405.72l.06.12M379.34,405.89l.08-.14M379.34,405.89h144.06M523.32,405.74l.08.14M379.3,364.15h-.04l-.02.02-.02.04v.02M379.3,363.87l-.14.02-.12.08-.08.12-.04.14M379.32,363.87h-.02M379.46,364.15h-.16M379.3,364.15v-.28M523.55,364.23v-.02l-.02-.04-.04-.02h-.02M523.83,364.23l-.02-.14-.08-.12-.12-.08-.14-.02M523.47,364.15h-.16M523.47,364.15v-.28M523.47,363.87h-.04M379.22,364.23h0v.02h.08M379.22,364.23h-.3M378.91,405.38v-41.15M379.04,405.42h-.04l-.04-.02h-.02l-.02-.02M378.91,364.23l.02.02h.02l.04.02h.1l.06.02h.14M379.38,364.25l.39.65M379.3,364.25h.08M379.3,364.25v.04M379.38,364.29v-.04M379.3,364.29h.08M379.38,405.44h-.06M379.42,405.38l-.04.06M379.38,364.29l.37.61M523,364.9l.39-.65M523.45,405.44h-.06M523.02,364.9l.37-.61M523.38,405.44l-.04-.06M523.38,364.29h.08M523.38,364.25h.08M523.38,364.29v-.04M523.47,364.25h.08v-.02M523.47,364.25v.04M523.55,364.23h.28M523.83,364.23v41.15M523.47,364.29h.14l.06-.02h.1l.04-.02h.02v-.02M523.83,405.38v.02h-.02l-.04.02h-.04M523.41,363.99l-.55.91M379.91,364.9l-.55-.91M379.36,363.91h0l-.02-.02-.02-.04-.02-.02M379.3,363.54v.28M379.36,363.99l-.02-.16v-.1l-.02-.1v-.06l-.02-.02M523.41,363.99h-144.04M523.47,363.83l-.02.02-.02.02v.02l-.02.02M523.47,363.54v.28M523.47,363.54l-.02.04-.02.06v.1l-.02.12v.12M523.73,400.99v.26M523.45,401.03v.22M379.32,401.03v.06M379.04,400.99v.1M523.73,401.29v4.17M523.45,401.29v4.17M523.73,405.46h-.28M523.73,401.25v.04M523.45,401.25v.04M523.73,401.29h-.28M523.73,401.25h-.28M379.32,401.11v4.35M379.04,401.11v4.35M379.04,405.46h.28M379.32,401.09v.02M379.04,401.09v.02M379.04,401.09h.28M379.04,401.11h.28M379.42,405.74v-4.69M523.34,405.74h-143.92M523.34,405.74v-4.69M379.04,365.29v.93M379.32,365.29v.93M379.04,365.29h.28M523.73,365.29v.93M523.73,365.29h-.28M523.45,365.29v.93M379.42,365.84v-.93M523.34,365.84v-.93M523.34,364.9h-143.92M379.32,366.22h.1M379.32,366.22h-.28M379.04,366.22h0l.04.02h.02l.06.02h.26M379.04,366.22v34.77M379.42,401.05l-.08-.02h-.18l-.06-.02h-.02l-.04-.02M523.45,366.22h.28M523.34,366.22h.1M523.73,400.99h-.02l-.02.02h-.02l-.06.02h-.18l-.08.02M523.73,366.22v34.77M523.34,366.26h.26l.06-.02h.02l.02-.02h.02M379.42,401.05v-34.79M523.34,401.05h-143.92M523.34,401.05v-34.79M379.42,366.26v-.43M523.34,366.26h-143.92M523.34,366.26v-.43M523.34,365.84h-143.92M516.42,353.12h-.98M517.29,353.12h-.22M516.76,353.4h-.3M386.35,353.12h.98M385.48,353.12h.22M385.99,353.4h.33M387.33,354.82v-1.3M387.33,354.82l.02.18.06.16.08.16.12.14.12.1.16.08.18.06.18.02M514.51,355.74h-126.24M514.51,355.74l.18-.02.18-.06.14-.08.14-.1.12-.14.08-.16.06-.16.02-.18M515.44,353.52v1.3M387.33,353.52v-.41M387.33,353.12h128.11M515.44,353.52h-128.11M515.44,353.12v.41M522.73,168.07h0M515.95,353.04h.06M515.95,351.21v1.83M515.95,190.91v157.98M517.21,353.04h.2M516.01,353.04h.63M518.49,194.1v-1.04M518.49,345.88v-.08M518.49,351.53v-.41M386.7,348.89v-157.96M386.7,353.12v-1.91M386.7,353.65v-.12M515.83,353.67v-.1M516.31,353.46v.12M518.55,350.8v.55M518.55,345.8v.08M518.55,193.24v.85M514.1,353.04h0M514.22,353.04h-.12M515.95,353.04h-.08M515.87,353.04h-.02M514.22,351.21v1.83M514.22,190.87v158.02M515.85,353.04h-1.63M515.85,348.89v-158M515.85,353.04v-1.83M388.42,348.89v-158.02M388.42,353.12v-1.91M386.8,353.54v.1M386.8,351.21v1.91M386.8,190.91v157.98M509.26,352.75v-.37M504.92,352.39v.37M509.26,352.89v-.14M504.92,352.89v-.14M504.92,352.75h4.35M504.92,352.89h4.35M397.73,352.75v-.39M393.38,352.37v.39M397.73,352.89v-.14M393.38,352.89v-.14M393.38,352.75h4.35M393.38,352.89h4.35M453.51,352.75v-.39M449.14,352.37v.39M453.51,352.89v-.14M449.14,352.89v-.14M449.14,352.75h4.37M449.14,352.89h4.37M509.28,345.11v-.45M509.28,346.78v-1.67M504.92,346.78v-1.67M505.99,346.78h.22M504.92,346.78h1.02M508.21,346.78h1.08M509.28,352.39v-.98M504.92,352.39v-.98M507.11,351.55h-.04l-.04-.02-.04-.02v-.04l.04-.02.04-.02h.04M504.92,352.39h4.37M509.28,349.07v-.93M504.92,349.07v-.93M507.05,348.14h-2.13M509.28,348.14h-1.89M509.28,351.41v-2.34M504.92,351.41v-2.34M508.37,347.27l-.02-.06v-.04M509.28,348.12v-1.34M509.28,346.78h-1.08M508.21,346.78l.1.16.04.16.02.16-.04.18-.06.16-.12.14-.14.12-.18.12-.18.06-.22.06M509.28,348.12v.02M507.41,348.12h1.87M507.41,348.12v.02M506.09,347.1l-.02.1v.04M504.92,346.78v1.34M506.09,347.02l.04-.08.08-.16M507.01,348.12l-.2-.06-.2-.06-.16-.12-.16-.12-.1-.14-.08-.16-.02-.18v-.16M505.93,346.78h-1.02M506.21,346.78h-.22M507.01,348.14v-.02M504.92,348.12h2.09M504.92,348.12v.02M454.26,346.21v-.69M398.5,346.21v-.69M509.28,344.46v-.14M504.89,344.32v.14M505.95,344.32h-1.06M509.28,344.32h-1.06M509.28,345.01v.1M504.89,345.01v.1M507.47,345.11h1.81M504.89,345.11h2.19M509.28,345.01v-.55M504.89,344.46v.55M507.29,345.01h1.99M504.89,345.01h2.26M504.89,344.46h4.39M453.51,344.46v-.14M449.14,344.32v.14M450.17,344.32h-1.04M453.51,344.32h-1.04M453.51,345.01v.1M449.14,345.01v.1M449.14,345.11h4.37M453.51,345.01v-.55M449.14,344.46v.55M449.14,345.01h4.37M449.14,344.46h4.37M397.75,344.46v-.14M393.36,344.32v.14M394.42,344.32h-1.06M397.75,344.32h-1.06M397.75,345.01v.1M393.36,345.01v.1M393.36,345.11h4.39M397.75,345.01v-.55M393.36,344.46v.55M393.36,345.01h4.39M393.36,344.46h4.39M507.27,343.28h-.32M507.09,343.2h.43l.12.02h.18l.06.02-.06.02h-.3l-.14.02h-.57l-.14-.02h-.3l-.04-.02.04-.02h.18l.12-.02h.43M505.93,344.4h.08l.08.02h.12l.16.02h1.42l.16-.02h.12l.1-.02h.06M451.52,343.28h-.33M451.33,343.2h.43l.12.02h.16l.06.02-.06.02h-.28l-.14.02h-.59l-.12-.02h-.3l-.06-.02.06-.02h.16l.14-.02h.43M450.17,344.4h.06l.1.02h.12l.16.02h1.42l.14-.02h.14l.08-.02h.06M395.74,343.28h-.33M395.56,343.2h.43l.12.02h.18l.06.02-.06.02h-.3l-.14.02h-.57l-.14-.02h-.3l-.04-.02.04-.02h.18l.12-.02h.43M394.4,344.4h.08l.08.02h.12l.16.02h1.42l.16-.02h.12l.1-.02h.06M506.07,347.37v-.2M508.37,347.18v.04M506.09,347.02v-.04l.04-.06M506.07,347.16v-.08M507.39,345.7l.02-.02v-.06h-.02v.22-.04M507.39,345.8v-.04M507.11,345.07h0l-.02.04v.1l-.02.12-.02.16M507.05,345.5l-.02.16v.2l-.02.22-.02.24v.43l-.02.18v.26l.02.08v.04M507.47,345.78v.08l-.02.22-.02.22v.24l-.02.2-.02.16M507.47,345.09h0v.63M507.39,346.92l-.02.16v.02M507.27,352.26h-.1M507.11,352.2h0M507.17,352.26h-.02l-.02-.02h-.02v-.04M507.17,352.26h0M507.33,352.2v.04h-.02l-.02.02h-.02M507.27,352.26h0M507.11,349.26v.65M507.11,349.91v.22M507.11,349.91h.22M507.11,350.13v.18M507.11,350.13h.22M507.11,350.31v.24M507.11,350.31h.22M507.11,350.56v.2M507.11,350.56h.22M507.11,350.76v.14M507.11,350.76h.22M507.11,350.9v.18M507.11,350.9h.22M507.11,351.08v.29M507.11,351.08h.22M507.33,349.91v-.65M507.33,350.13v-.22M507.33,350.31v-.18M507.33,350.56v-.24M507.33,350.76v-.2M507.33,350.9v-.14M507.33,351.08v-.18M507.33,351.37v-.29M507.33,352.2h0M507.33,349.48v2.72M507.17,352.26h-.02v-.02h-.04v-.04M507.27,352.26h-.1M507.27,352.26h.02v-.02h.02l.02-.02v-.02M507.33,352.2v-.83M507.11,351.37h.22M507.11,351.37v.83M507.39,347.45v-.04.2M507.39,347.61h0v-.1M507.11,349.26h.22M507.05,347.14v2.28M507.33,349.26v.22M507.39,349.42v-2.28M453.53,348.02v.06M453.53,345.09v-.45M453.53,348.02v-.87M453.53,347.08v.06M453.53,347.14h0M453.53,347.08v-.22M453.53,346.76v-1.67M449.14,346.76v-1.65M453.53,346.86v-.1M449.14,346.76v.02M449.14,346.76h4.39M453.53,352.37v-1M449.14,352.37v-1M451.45,351.45l-.02.02-.02.02-.04.02h-.08l-.04-.02-.02-.02v-.04l.02-.02.04-.02h.08l.04.02.02.02.02.02M449.14,352.37h4.39M453.53,349.03v-.93M449.14,349.03v-.93M453.53,348.1h-4.39M453.53,351.37v-2.34M449.14,351.37v-2.34M449.14,349.03h4.39M449.14,351.37h4.39M397.75,348.02v.06M397.75,345.09v-.45M397.75,348.02v-.87M397.75,347.08v.06M397.75,347.14h0M397.75,347.08v-.22M397.75,346.76v-1.67M393.38,346.76v-1.65M397.75,346.86v-.1M393.38,346.76v.02M393.38,346.76h4.37M397.75,352.37v-1M393.38,352.37v-1M395.68,351.45v.02l-.02.02-.04.02h-.08l-.04-.02-.04-.02v-.04l.04-.02.04-.02h.08l.04.02.02.02v.02M393.38,352.37h4.37M397.75,349.03v-.93M393.38,349.03v-.93M397.75,348.1h-4.37M397.75,351.37v-2.34M393.38,351.37v-2.34M393.38,349.03h4.37M393.38,351.37h4.37M395.31,347.39v-.04M395.88,347.39v-.02M396.08,347.22v-.04M394.5,347.41v-.04M394.46,347.41v-.04M394.38,347.41v-.04M394.46,347.29h.04M394.38,347.29h.08M394.38,347.37v-.08M394.46,347.37h-.08M394.5,347.37h-.04M394.5,347.29h0l.02.02h.02v.02l-.02.02v.02h-.02M394.58,347.18v.04M394.58,347.47v-.02M395.31,347.57v-.04M396.65,347.29h-.02l-.04.02-.02.02-.02.02v.02l-.02.02v.06h.02v.04l.02.02.02.02.02.02h.06l.04-.02.02-.02.02-.02v-.02h.02v-.1h-.02v-.04h-.02l-.02-.02-.04-.02h-.02M395.88,347.22h-.16M396.27,347.22h-.18M396.08,347.22l-.2.16M395.6,347.22h-.47M395.62,347.57h-.3M395.58,347.39h-.26M394.54,347.37h0l-.02.02-.02.02M394.5,347.41h-.04M394.46,347.41h-.08M394.64,347.51h0l-.02-.02h-.02l-.02-.02M394.7,347.33v-.02l-.02-.04-.06-.02-.04-.02M394.58,347.22h-.39M395.01,347.22h-.18M396.77,347.45v.04l-.02.02v.02l-.04.04h-.02l-.04.02-.02-.02h-.04l-.02-.02-.02-.02v-.02l-.02-.02v-.04M396.1,347.37v.02M396.29,347.63l-.18-.24M394.64,347.51v-.02M394.74,347.63l-.1-.12M396.37,347.45v-.08l.06-.06.06-.06.1-.02.06-.02M396.65,347.2l.1.02.08.04.06.06.04.06.02.06M397.75,348.1v-1.32M396.65,347.18h.1l.08.04.06.06.04.06.02.08-.04.08-.04.06-.08.04-.1.04-.1-.02-.08-.02-.08-.06-.06-.06v-.16l.06-.06.06-.06.1-.02h.06M395.31,347.29v.06M395.31,347.35h.26M395.58,347.35v.1M395.58,347.45h-.26M395.31,347.45v.08M395.31,347.53h.3M395.62,347.53v.1M395.62,347.63h-.49M395.13,347.63v-.45M395.13,347.18h.47M395.6,347.18v.1M395.6,347.29h-.28M394.19,347.63v-.45M394.19,347.18h.39M394.58,347.18l.04.02.06.02.02.04.02.04-.02.06-.02.04-.06.02-.04.02M394.58,347.45h.04v.02h.02v.02M394.64,347.49l.12.14M394.76,347.63h-.2M394.56,347.63l-.12-.16M394.44,347.47h-.02v-.02h-.02M394.4,347.45h-.02M394.38,347.45v.18M394.38,347.63h-.18M396.08,347.18h.22M396.31,347.18l-.2.18M396.1,347.37l.22.26M396.33,347.63h-.22M396.1,347.63l-.12-.18M395.98,347.45l-.1.08M395.88,347.53v.1M395.88,347.63h-.16M395.72,347.63v-.45M395.72,347.18h.16M395.88,347.18v.18M395.88,347.37l.2-.18M395.01,347.18v.45M395.01,347.63h-.18M394.82,347.63v-.45M394.82,347.18h.18M397.75,346.78h-4.37M393.38,348.1v-1.32M397.75,348.1h-4.37M393.38,348.1v.43M393.38,348.53h0M451.07,347.39v-.04M451.66,347.39v-.02M451.84,347.22v-.04M450.26,347.41v-.04M450.21,347.41v-.04M450.13,347.41v-.04M450.21,347.29h.04M450.13,347.29h.08M450.13,347.37v-.08M450.21,347.37h-.08M450.26,347.37h-.04M450.26,347.29h.02l.02.02v.04l-.02.02h-.02M450.34,347.18v.04M450.34,347.47v-.02M451.07,347.57v-.04M452.43,347.29h-.04l-.02.02-.04.02v.02l-.02.02v.1l.02.02v.02l.02.02.04.02h.06l.02-.02.02-.02h.02v-.02h.02v-.14h-.02v-.02l-.04-.02-.02-.02h-.02M451.66,347.22h-.18M452.04,347.22h-.2M451.84,347.22l-.18.16M451.37,347.22h-.49M451.37,347.57h-.3M451.35,347.39h-.29M450.3,347.37h0v.02h-.02l-.02.02M450.26,347.41h-.04M450.21,347.41h-.08M450.42,347.51h-.02v-.02h-.04v-.02h-.02M450.48,347.33v-.02l-.04-.04-.04-.02-.06-.02M450.34,347.22h-.37M450.76,347.22h-.18M452.53,347.45v.06l-.02.02-.02.04h-.04l-.04.02-.02-.02h-.02l-.04-.02v-.04h-.02v-.06M451.86,347.37v.02M452.06,347.63l-.2-.24M450.42,347.51v-.02M450.5,347.63l-.08-.12M452.12,347.45l.02-.08.04-.06.08-.06.08-.02.06-.02M452.41,347.2l.1.02.08.04.08.06.04.06v.06M453.53,348.1v-1.32M452.41,347.18h.1l.08.04.08.06.04.06v.08l-.02.08-.06.06-.08.04-.1.04-.08-.02-.1-.02-.08-.06-.04-.06-.02-.08.02-.08.04-.06.08-.06.08-.02h.06M451.07,347.29v.06M451.07,347.35h.29M451.35,347.35v.1M451.35,347.45h-.29M451.07,347.45v.08M451.07,347.53h.3M451.37,347.53v.1M451.37,347.63h-.49M450.89,347.63v-.45M450.89,347.18h.49M451.37,347.18v.1M451.37,347.29h-.3M449.97,347.63v-.45M449.97,347.18h.37M450.34,347.18l.06.02.04.02.04.04v.1l-.04.04-.04.02-.06.02M450.34,347.45h.04l.02.02h.02v.02M450.42,347.49l.1.14M450.52,347.63h-.2M450.32,347.63l-.1-.16M450.21,347.47h-.04v-.02h-.02M450.15,347.45h-.02M450.13,347.45v.18M450.13,347.63h-.16M451.84,347.18h.24M452.08,347.18l-.22.18M451.86,347.37l.22.26M452.08,347.63h-.22M451.86,347.63l-.12-.18M451.74,347.45l-.08.08M451.66,347.53v.1M451.66,347.63h-.18M451.47,347.63v-.45M451.47,347.18h.18M451.66,347.18v.18M451.66,347.37l.18-.18M450.76,347.18v.45M450.76,347.63h-.18M450.58,347.63v-.45M450.58,347.18h.18M453.53,346.78h-4.39M449.14,348.1v-1.32M453.53,348.1h-4.39M449.14,348.1v.43M449.14,348.53h0M517.27,351.21v-2.32M385.38,351.21v-2.32M385.38,348.89h0v1.63M385.38,350.52v.69M384.91,349.13h0v1.3M517.27,351.21v-.87M517.27,350.33v-1.44M517.74,350.96h0v-.69M517.74,350.27v-1.14M515.03,353.06v-.02M514.1,352.96h-125.55M515.03,353.12v-.06M385.76,343.91h0l-.02-.02h-.06M385.56,344.1v-.08h.02M385.88,344.01v.06l-.02.02M385.76,344.22h-.08v-.02M385.7,343.75h.04l.02.02h.02M385.64,344.01h0l.02-.02.02-.02v-.02M385.76,343.97h.02v.04h.04M385.42,344.08h0v-.04l.02-.02v-.02M385.68,343.89l.02-.08v-.06M385.7,343.75h0M385.68,343.95h0M385.68,343.95v-.06M385.78,343.77h0v-.02M385.78,343.77l-.02.14M385.76,343.91v.06M385.76,343.97h.02M386.01,344.03h0v.08M385.42,343.99h.02M385.44,343.99l.14.02M385.58,344.01h.06M385.64,344.01v-.02M385.68,344.14h-.02v-.02l-.02-.02h-.02M385.8,344.12h-.04v.04M385.88,344.01l.08.02h.04M386.03,344.03h-.02M385.82,344.01h0M385.82,344.01h.06M385.56,344.1l-.08-.02h-.06M385.42,344.08h0M385.62,344.1h0M385.62,344.1h-.06M386.03,344.12h-.02M386.01,344.12l-.14-.02M385.86,344.1l-.06.02M385.8,344.12h0M385.74,344.34h-.08M385.66,344.36h0v-.02M385.66,344.34l.02-.14M385.68,344.2v-.06M385.68,344.14h-.02M385.76,344.22l-.02.08v.04M385.74,344.36h0v-.02M385.76,344.16h0M385.76,344.16v.06M386.25,344.05v.02l-.02.16-.08.12-.1.12-.12.06-.16.04h-.14l-.14-.06-.12-.08-.1-.12-.06-.14v-.12M385.68,343.95l.02-.2M385.7,343.75h.08M385.78,343.75v.22M385.82,344.01h-.02v-.02h-.02v-.02M385.82,344.01l.2.02M386.03,344.03v.08M386.03,344.12h-.22M385.76,344.16v-.02h.02v-.02h.02M385.76,344.16l-.02.2M385.74,344.36h-.08M385.66,344.36v-.22M385.62,344.1h.02v.02h.02v.02M385.62,344.1l-.2-.02M385.42,344.08v-.08M385.42,343.99h.22M385.68,343.95v.02h-.02v.02h-.02M386.25,344.08l-.02.16-.08.12-.1.12-.12.06-.16.04h-.14l-.14-.06-.12-.08-.1-.12-.06-.14v-.14l.02-.16.06-.12.12-.12.12-.08.14-.02h.16l.14.06.12.08.1.12.06.14v.14M385.76,351.29v-.02h-.08M385.56,351.47v-.08l.02-.02M385.88,351.39v.06l-.02.02M385.76,351.57l-.02.02h-.04l-.02-.02M385.64,351.37h.02l.02-.02v-.02M385.76,351.35h.02v.02l.02.02h.02M385.42,351.45v-.04l.02-.02v-.02M385.68,351.27l.02-.06M385.68,351.33h0M385.68,351.33v-.06M385.76,351.21v.08M385.76,351.29v.06M385.76,351.35l.02-.02M386.01,351.41h0v.06M385.42,351.37h.02M385.44,351.37h.14M385.58,351.37h.06M385.64,351.37h0M385.68,351.51h-.02v-.04h-.04M385.8,351.47h0l-.02.02h-.02v.02M385.88,351.39h.08l.04.02M386.03,351.41h-.02M385.82,351.37v.02M385.82,351.39h.06M385.56,351.47l-.08-.02h-.06M385.42,351.45h0M385.62,351.47h0M385.62,351.47h-.06M386.03,351.47h-.02M386.01,351.47h-.14M385.86,351.47h-.06M385.8,351.47h0M385.74,351.71h-.08M385.66,351.74h0v-.02M385.66,351.71l.02-.14M385.68,351.57v-.06M385.68,351.51h-.02M385.76,351.57l-.02.1v.04M385.74,351.74h0v-.02M385.76,351.51h0M385.76,351.51v.06M386.25,351.43v.02l-.02.14-.08.14-.1.12-.12.06-.16.04h-.14l-.14-.06-.12-.08-.1-.12-.06-.14v-.12M385.68,351.33v-.12M385.78,351.21v.12M385.82,351.37h-.04v-.04M385.82,351.37l.2.04M386.03,351.41v.06M386.03,351.47h-.22M385.76,351.51h0l.02-.02h.02v-.02M385.76,351.51l-.02.22M385.74,351.74h-.08M385.66,351.74v-.22M385.62,351.47h.02l.02.02v.02M385.62,351.47l-.2-.02M385.42,351.45v-.08M385.42,351.37h.22M385.68,351.33v.02h-.02v.02h-.02M386.21,351.21l.04.1v.14M386.25,351.45l-.02.14-.08.14-.1.12-.12.06-.16.04h-.14l-.14-.06-.12-.08-.1-.12-.06-.14v-.14l.02-.16.02-.04M516.98,343.91h-.02v-.02h-.06M516.78,344.1v-.08M517.09,344.01v.08M516.96,344.22h-.08v-.02M516.9,343.75h.06v.02h.02M516.84,344.01l.02-.02h.02v-.04M516.98,343.97h0v.02h.02v.02h.02M516.64,344.08h0v-.08M516.9,343.89v-.14M516.9,343.75h0M516.88,343.95h0M516.88,343.95l.02-.06M516.98,343.77v-.02M516.98,343.77v.14M516.98,343.91v.06M516.98,343.97h0M517.23,344.03h0v.06M516.62,343.99h.02M516.64,343.99l.14.02M516.78,344.01h.06M516.84,344.01v-.02M516.88,344.14h0l-.02-.02-.02-.02M517.03,344.1l-.02.02h-.02l-.02.02v.02M517.09,344.01l.1.02h.04M517.23,344.03h0M517.03,344.01h0M517.03,344.01h.06M516.78,344.1l-.1-.02h-.04M516.62,344.08h.02M516.84,344.1h0M516.84,344.1h-.06M517.23,344.1h0M517.23,344.1h-.14M517.09,344.1h-.06M517.03,344.1v.02M516.94,344.34h-.06M516.88,344.36h0v-.02M516.88,344.34v-.14M516.88,344.2v-.06M516.88,344.14h0M516.96,344.22v.08l-.02.04M516.94,344.36h0v-.02M516.98,344.16h-.02M516.96,344.16v.06M517.47,344.05v.02l-.04.16-.06.12-.1.12-.14.06-.14.04h-.16l-.14-.06-.12-.08-.1-.12-.04-.14-.02-.12M516.88,343.95l.02-.2M516.9,343.75h.08M516.98,343.75v.22M517.03,344.01h0l-.02-.02h-.02v-.02M517.03,344.01l.2.02M517.23,344.03v.06M517.23,344.1l-.2.02M516.98,344.16v-.04h.04M516.98,344.16l-.04.2M516.94,344.36h-.06M516.88,344.36v-.22M516.84,344.1h0l.02.02v.02h.02M516.84,344.1l-.22-.02M516.62,344.08v-.08M516.62,343.99h.22M516.88,343.95v.02l-.02.02h-.02M517.47,344.08l-.04.16-.06.12-.1.12-.14.06-.14.04h-.16l-.14-.06-.12-.08-.1-.12-.04-.14-.02-.14.02-.16.08-.12.1-.12.12-.08.16-.02h.14l.14.04.12.1.1.12.06.14.02.14M516.98,351.27h-.08M516.78,351.47v-.1M517.09,351.39v.08M516.96,351.57l-.02.02h-.04v-.02h-.02M516.84,351.37h.04v-.04M516.98,351.33v.04h.02v.02h.02M516.64,351.45v-.08M516.9,351.27v-.06M516.88,351.33h0M516.88,351.33l.02-.06M516.98,351.21v.06M516.98,351.27v.06M516.98,351.33h0M517.23,351.41h0v.06M516.62,351.37h.02M516.64,351.37h.14M516.78,351.37h.06M516.84,351.37h0M516.88,351.51h0l-.02-.02v-.02h-.02M517.03,351.47h-.02l-.02.02-.02.02M517.09,351.39h.1l.04.02M517.23,351.41h0M517.03,351.37v.02M517.03,351.39h.06M516.78,351.47l-.1-.02h-.04M516.62,351.45h.02M516.84,351.47h0M516.84,351.47h-.06M517.23,351.47h0M517.23,351.47h-.14M517.09,351.47h-.06M517.03,351.47h0M516.94,351.71h-.06M516.88,351.74v-.02M516.88,351.71v-.14M516.88,351.57v-.06M516.88,351.51h0M516.96,351.57v.1l-.02.04M516.94,351.74h0v-.02M516.98,351.51h-.02M516.96,351.51v.06M517.47,351.43v.02l-.04.14-.06.14-.1.1-.14.08-.14.04h-.16l-.14-.06-.12-.08-.1-.12-.04-.14-.02-.12M516.88,351.33l.02-.12M516.98,351.21v.12M517.03,351.37h-.02l-.02-.02v-.02M517.03,351.37l.2.04M517.23,351.41v.06M517.23,351.47h-.2M516.98,351.51h0v-.02h.02l.02-.02M516.98,351.51l-.04.22M516.94,351.74h-.06M516.88,351.74v-.22M516.84,351.47h.02v.02l.02.02M516.84,351.47l-.22-.02M516.62,351.45v-.08M516.62,351.37h.22M516.88,351.33v.02h-.02v.02h-.02M517.41,351.21l.04.1.02.14M517.47,351.45l-.04.14-.06.14-.1.1-.14.08-.14.04h-.16l-.14-.06-.12-.08-.1-.12-.04-.14-.02-.16.02-.14.02-.04M517.84,352.45v.02l-.02.04-.04.04-.02.02-.04.02h-.02M516.01,352.39h0M516.23,352.61h-.04l-.04-.02-.04-.02-.04-.02-.02-.04-.02-.04-.02-.04v-.04M516.23,352.61h0M517.27,352.61h-1.04M517.61,342.88h.04l.04.02.04.02.04.02.06.08.02.08M516.01,343.1l.02-.08.04-.08.04-.02.04-.02.04-.02h.04M517.61,342.98v-.1M516.23,342.88h1.38M516.23,342.88h0v.1M516.35,344.05l.02-.12.04-.14.1-.12.12-.1.14-.06.14-.02M516.92,343.49l.16.02.14.06.12.1.08.12.06.14.02.12M517.86,343.1v2.21M517.86,343.1l-.02-.04-.06-.04-.04-.02h-.08l-.04-.02M516.92,343.49l.16.02.14.06.12.1.08.12.06.14.02.16-.04.14-.08.14-.1.12-.12.08-.16.04h-.16l-.14-.04-.14-.08-.1-.12-.06-.14-.04-.14.02-.16.04-.14.1-.12.12-.1.14-.06.14-.02M517.61,342.98v2.34M516.23,342.98h1.38M516.01,343.1v2.21M516.23,345.31v-2.34M516.23,342.98l-.04.02h-.08l-.04.02-.04.04-.02.04M516.35,351.43l.02-.12.02-.1M517.45,351.21l.04.1.02.12M517.86,350.37v1.56M516.23,352.61h-.04l-.04-.02-.04-.02-.04-.02-.04-.08-.02-.08M516.01,351.21v1.18M516.01,352.39l.02.04.04.04h.04l.04.02h.08M517.45,351.21l.04.1.02.16-.04.14-.08.14-.1.12-.12.08-.16.04h-.16l-.14-.04-.14-.08-.1-.12-.06-.14-.04-.14.02-.16.02-.1M516.23,352.49v.12M516.23,345.31h1.38M516.01,345.31v.39M516.23,345.6v-.28M516.23,345.31h-.22M517.86,345.31v.39M517.86,345.31h-.24M517.61,345.31v.28M517.86,349.56v.81M517.86,349.52v.04M517.61,345.6h-1.38M516.23,345.6h-.08l-.04.02h-.04l-.02.02-.02.02-.02.02v.02M516.01,345.7v3.19M517.86,345.7v3.56M517.86,345.7l-.02-.02v-.02l-.02-.02-.04-.02h-.02l-.04-.02h-.1M517.86,349.26v.26M386.64,352.39h0M386.64,352.39v.04l-.02.04-.02.04-.02.04-.04.02-.04.02-.04.02h-.04M384.81,352.39h0M385.03,352.61h-.04l-.04-.02-.04-.02-.04-.02-.02-.04-.04-.04v-.08M386.41,352.61h0M385.03,352.61h0M385.07,352.61h-.04M386.41,352.61h-.91M386.41,342.88h.04l.04.02.04.02.04.02.06.08v.08M384.81,343.1v-.08l.06-.08.04-.02.04-.02.04-.02h.04M386.41,342.98v-.1M385.03,342.88h1.38M385.03,342.88h0v.1M385.15,344.05v-.12l.06-.14.08-.12.12-.1.14-.06.16-.02M385.72,343.49l.16.02.14.06.12.1.08.12.06.14v.12M386.64,343.1v2.21M386.64,343.1v-.04l-.06-.04-.04-.02h-.08l-.04-.02M385.72,343.49l.16.02.14.06.12.1.08.12.06.14v.16l-.02.14-.08.14-.1.12-.14.08-.14.04h-.16l-.14-.04-.14-.08-.1-.12-.08-.14-.02-.14v-.16l.06-.14.08-.12.12-.1.14-.06.16-.02M386.41,342.98v2.34M385.03,342.98h1.38M384.81,343.1v2.21M385.03,345.31v-2.34M385.03,342.98l-.04.02h-.08l-.04.02-.06.04v.04M385.15,351.43v-.12l.04-.1M386.25,351.21l.04.1v.12M386.64,352.39v.08l-.06.08-.04.02-.04.02-.04.02h-.04M386.64,351.21v1.18M386.41,352.49h.08l.04-.02h.04l.06-.04v-.04M385.03,352.61h-.04l-.04-.02-.04-.02-.04-.02-.06-.08v-.08M384.81,352.28v.1M384.81,350.37v1.36M384.81,352.39v.04l.06.04h.04l.04.02h.02M386.25,351.21l.04.1v.16l-.02.14-.08.14-.1.12-.14.08-.14.04h-.16l-.14-.04-.14-.08-.1-.12-.08-.14-.02-.14v-.16l.04-.1M386.41,352.61v-.12M385.03,345.31h1.38M384.81,345.31v.39M385.03,345.6v-.28M385.03,345.31h-.22M386.64,345.31v.39M386.64,345.31h-.22M386.41,345.31v.28M384.81,349.56v.81M384.81,349.52v.04M386.41,345.6h-1.38M385.03,345.6h-.08l-.04.02h-.04l-.02.02-.04.02v.04M384.81,345.7v3.56M386.64,345.7v3.19M386.64,345.7v-.02l-.02-.02-.02-.02-.02-.02h-.04l-.04-.02h-.08M384.81,349.26v.26M388.55,196.62h125.55M388.55,282.97h125.55M388.55,270.64h125.55M388.55,274.77h125.55M388.55,266.54h125.55M388.55,192.51h125.55M388.55,291.2h125.55M388.55,303.54h125.55M388.55,311.77h125.55M388.55,225.41h125.55M388.55,204.85h125.55M388.55,208.95h125.55M388.55,278.87h125.55M388.55,200.72h125.55M388.55,213.08h125.55M388.55,320h125.55M388.55,217.18h125.55M388.55,221.29h125.55M388.55,245.97h125.55M388.55,229.51h125.55M388.55,307.66h125.55M388.55,262.41h125.55M388.55,258.31h125.55M388.55,315.87h125.55M388.55,328.23h125.55M388.55,299.43h125.55M388.55,295.31h125.55M509.28,344.66h4.82M453.53,344.66h51.37M397.75,344.66h51.39M388.55,344.66h4.82M388.55,287.1h125.55M388.55,336.44h125.55M388.55,340.56h125.55M388.55,233.64h125.55M388.55,237.74h125.55M388.55,241.85h125.55M388.55,250.08h125.55M388.55,324.1h125.55M388.55,332.33h125.55M388.55,254.2h125.55M149.65,362.69h-.45M149.2,362.46h.45M149.65,346.33h-.45M149.65,206.47h-.45M255.09,362.69h-.47M254.62,362.46h.47M254.62,206.25h.47M255.09,206.47h-.47M255.09,346.33h-.47M378.91,362.69h-.45M378.47,362.46h.45M378.47,206.25h.45M378.91,206.47h-.45M378.91,346.33h-.45M255.09,363.03v-.24M254.86,363.46h0l.08-.06.06-.08.04-.08.02-.1.02-.1M47.16,363.09h.08M47.24,363.54h-.08M47.16,363.54v-.45M49.72,363.09h2.11M47.24,363.09h.75M47.24,363.54h5.93M47.24,363.09v.45M53.68,363.54h.96M54.64,363.54v-.45M53.68,363.54h-.51M165.24,363.54h-.57M165.24,363.09v.45M54.64,363.09v.45M148.82,363.09h1.22M54.64,363.54h110.03M164.67,363.54v-.45M254.86,363.03v-.35M254.86,363.09h0v-.06M238.95,363.54v-.45M254.03,363.54h.24M254.25,363.09h.02M239.54,363.09v.45M254.86,363.54h-.59M254.28,363.09h.59M254.28,363.54v-.45M254.86,363.09v.45M254.25,362.63l.02.02.04.02.02.04v.02M254.34,156.08h-.08M149.96,362.73v-.04l.02-.02.04-.02.02-.02M150.04,156.08h-.08M150.04,155.73h104.22M150.04,155.73h0v.22M254.25,155.96v-.22M232.68,362.77l.2.16.1.08.04.06.02.02h.02M233.06,363.09h21.19M254.25,363.09v-.33M150.04,362.77v.33M150.04,363.09h21.19M171.23,363.09l.02-.02.02-.02.06-.06.12-.1.16-.12M149.96,156.08v14.83M149.65,156.08v14.83M149.65,156.08h.3M254.34,170.91v-14.83M254.62,170.91v-14.83M254.62,156.08h-.28M150.04,155.96h104.22M150.04,155.96v14.83M254.25,170.79v-14.83M149.96,172.9v.1M149.65,172.9v.1M254.34,173.01v-.1M254.62,173.01v-.1M149.96,345.8v.12M149.65,345.8v.12M254.34,345.92v-.12M254.62,345.92v-.12M149.96,346.53v16.19M149.65,346.53v16.19M149.65,362.73h.3M254.34,362.73v-16.19M254.62,362.73v-16.19M254.62,362.73h-.28M149.96,170.91v1.99M149.65,170.91v1.99M149.65,170.91h.3M149.65,172.9h.3M149.96,345.92v.61M149.65,345.92v.61M149.65,345.92h.3M149.65,346.53h.3M254.34,172.9v-1.99M254.62,172.9v-1.99M254.62,172.9h-.28M254.62,170.91h-.28M254.34,346.53v-.61M254.62,346.53v-.61M254.62,345.92h-.28M254.62,346.53h-.28M150.04,346.57v16.19M150.04,362.77h21.58M171.62,362.77l1.08-.89,1.08-.83,1.12-.81,1.16-.79,1.16-.75,1.18-.71,1.2-.67,1.24-.65,1.24-.61,1.26-.57,1.28-.53,1.28-.49,1.32-.47,1.3-.41,1.34-.39,1.34-.34,1.34-.31,1.36-.26,1.36-.2,1.38-.18,1.36-.14,1.38-.1,1.38-.06,1.38-.02,1.38.02,1.38.06,1.38.1,1.38.14,1.36.18,1.38.2,1.36.26,1.34.31,1.34.34,1.32.39,1.32.41,1.3.47,1.3.49,1.28.53,1.26.57,1.24.61,1.22.65,1.22.67,1.18.71,1.16.75,1.14.79,1.12.81,1.1.83,1.08.89M232.68,362.77h21.58M254.25,362.77v-16.19M150.04,170.79h104.22M150.04,170.79v2.21M254.25,173.01v-2.21M150.04,345.8h-.39M149.65,173.01h.39M149.65,345.8v-172.8M254.62,345.8h-.37M254.62,173.01v172.8M254.25,173.01h.37M150.04,345.8v.77M150.04,346.57h104.22M254.25,346.57v-.77M150.04,173.01h104.22M150.04,173.01v172.8M150.04,345.8h104.22M254.25,345.8v-172.8M232.7,363.03l-1.06-.89-1.1-.85-1.12-.81-1.14-.79-1.16-.75-1.2-.71-1.2-.69-1.22-.65-1.24-.61-1.28-.57-1.26-.55-1.3-.49-1.3-.47-1.32-.43-1.34-.39-1.34-.35-1.36-.3-1.34-.26-1.38-.22-1.36-.18-1.38-.14-1.38-.1-1.38-.06-1.4-.02-1.38.02-1.38.06-1.38.1-1.38.14-1.36.18-1.38.22-1.36.26-1.34.3-1.34.35-1.34.39-1.32.43-1.3.47-1.3.49-1.28.55-1.26.57-1.24.61-1.22.65-1.22.69-1.18.71-1.16.75-1.14.79-1.12.81-1.1.85-1.06.89M171.6,363.03l-.12-.14M232.7,363.03l.12-.14M150.04,155.73v-.22M150.38,155.51v.22M253.91,155.73v-.22M254.25,155.51v.22M149.65,362.69h-.45M149.65,156.02v.06M149.65,156.02h-.45M149.65,171.56h-.45M149.2,362.46h.45M149.65,346.33h-.45M41.47,155.73h0M37.65,155.76h-.02l-.12.06-.08.1-.04.12M37.43,156.04h-.04M37.39,156.04l-3.68,14.75M33.71,170.79l-.22,1.12-.06,1.12M33.42,345.8l.06.41.14.39M33.63,346.59l9.41,16.28M43.08,362.85l-.04.02M43.36,363.07h-.04M43.32,363.07h0M33.42,345.8h.06M33.48,173.03h-.06M33.42,345.8v-172.78M43.66,153.72h.04M41.51,155.73h-.02M148.82,362.71l.04.02.02.04.02.02.02.02M148.92,156.02h-.1M43.71,155.73h-.08M43.66,156.02h-.04M43.62,156.02h-.02l-.02.02v.06M43.62,156.02v-.28M43.62,155.73l-.1.02-.08.06-.08.1-.02.12M43.62,155.73h-5.87M37.43,156.04l.04-.12.08-.1.1-.06.1-.02M148.82,155.73h0v.22M43.71,155.73h105.11M43.66,155.96l.02-.12v-.06l.02-.04M51.81,362.79v.28M51.77,362.73l.02.04.02.02M43.36,363.07h-.04l-.04-.02-.04-.02-.04-.02-.04-.04-.04-.02-.02-.04-.02-.06M51.81,363.07h-8.45M51.55,362.85l.06.12.1.06.1.04M51.83,363.09v-.2l-.02-.12M148.82,363.09H51.83M148.82,362.77v.33M149.2,170.91v-14.89M148.92,170.91v-14.89M149.2,156.02h-.28M37.43,156.04h5.91M33.75,170.79l3.68-14.75M43.58,156.1v14.75M43.58,156.1l-.24-.06M43.34,156.04v14.75M148.82,155.96H43.66M43.66,170.79v-14.83M148.82,155.96v14.83M149.2,345.92v-.12M148.92,345.92v-.12M149.2,173.03v-.12M148.92,173.03v-.12M149.2,362.81v-16.28M148.92,362.81v-16.28M149.2,362.81h-.28M149.2,346.53v-.61M148.92,346.53v-.61M149.2,345.92h-.28M149.2,346.53h-.28M149.2,172.9v-1.99M148.92,172.9v-1.99M149.2,172.9h-.28M149.2,170.91h-.28M51.55,362.85h-8.47M43.08,362.85l-9.39-16.26M43.52,346.59l8.03,16.26M51.77,362.73l-.22.12M43.75,346.47l8.03,16.26M33.48,173.03v172.78M43.58,170.85l-.04.55v.57l.04,1.06M43.58,170.85l-.24-.06M43.34,173.03h-9.85M43.34,170.79l-.04.55-.02.57.06,1.12M43.34,170.79h-9.59M33.48,173.03l.08-1.14.18-1.1M33.48,345.8h9.85M33.69,346.59l-.14-.39-.06-.41M33.69,346.59h9.83M43.75,346.47l-.22.12M43.58,345.8l.04.34.12.33M43.34,345.8l.04.41.14.39M148.82,362.77H51.81M148.82,346.57v16.19M51.81,362.77l-7.97-16.19M43.85,346.57l-.18-.77M43.85,346.57h104.97M148.82,345.8v.77M148.82,173.03h.39M149.2,345.8h-.39M149.2,345.8v-172.78M43.34,345.8h.33M43.66,173.03h-.33M43.34,345.8v-172.78M43.66,173.03v172.78M148.82,345.8H43.66M148.82,345.8v-172.78M43.66,173.03v-2.23M148.82,173.03H43.66M148.82,170.79v2.23M148.82,170.79H43.66M43.66,153.7h.04M41.37,155.73h0M38.63,155.73h-.04M38.59,155.73v-.22M38.69,155.51h5.1M38.63,155.73h5.08M38.63,155.51v.22M148.82,155.51v.22M43.93,155.73v-.22M148.47,155.73v-.22M44.23,155.51v.22M47.99,363.13v-.06M49.72,363.13h-1.73M49.72,363.07v.06M50.41,359.92v.06M47.24,353.56v-.08M46.96,353v-.1M165.83,363.54h-.02M165.83,363.6v-.14M233.98,363.89h-.06M238.37,363.46v.08M165.83,363.09v.37M238.37,363.46v-.37M238.73,363.46v-.37M238.39,363.09v.37M238.39,363.46h.35M238.39,363.54h0v-.08M238.81,363.54h-.04l-.02-.02v-.02h-.02v-.04M165.8,363.09v.37M165.46,363.09v.37M165.38,363.54h-.14M160.62,363.54v.06M165.46,363.46v.04l-.02.02-.02.02h-.04M165.8,363.46v.08l-.02.06M165.46,363.46h.35M38.38,155.73v-.02l-.04-.06-.06-.06-.08-.06-.08-.02h-.08M38.04,155.51h-.28M37.51,155.51h.24M37.57,155.8h-.06M35.94,154.56l-.18.77M36.23,154.64l-.18.75M35.94,154.56l.04-.1.02-.1.02-.1.02-.08.02-.08.02-.04v-.04M36.23,154.64l-.28-.08M36.37,154.07v.02l-.02.02v.06l-.02.06-.02.08-.02.1-.04.1-.02.12M36.09,154.01l.28.06M36.05,155.39v.06l.02.02v.02h.04l.02.02M36.05,155.39l-.28-.06M35.76,155.33l-.02.08.02.08.02.08.04.08.06.06.08.04.08.02.08.02M36.13,155.51h1.38M36.13,155.8h1.38M37.51,155.51v.28M36.13,155.51v.28M38.48,155.73h0v-.12M38.48,155.61h.1M31.7,171.44l-.02.02v.02l.02.02v.02l.02.02.02.02h.04M31.41,171.38l-.02.08.02.08.02.08.04.08.06.06.08.04.08.04h.08M31.7,171.44l.24-.98M31.41,171.38l.24-.98M31.7,171.44l-.28-.06M33.55,171.56h-1.77M31.78,171.85v-.28M33.51,171.85h-1.73M32.06,169.92h0v.04l-.02.04-.02.08-.02.08-.02.1-.02.1-.02.1M31.66,170.41l.02-.12.02-.1.04-.1.02-.08v-.06l.02-.06.02-.02v-.02M31.94,170.47l-.28-.06M31.8,169.84l.26.08M32.35,172.13h-.57M31.78,172.13v-.28M32.35,171.85h1.16M32.35,171.85v.28M32.94,172.13h.55M32.35,172.13h.14M33,170.75h-.57M33.06,170.81h-.69M33.06,172.52h-.69M33.51,172.25h-1.59M32.94,172.13h-.45M43.66,164.31h-.08M43.58,157.28h.08M46.69,363.07v.18M46.41,363.07v.18M46.41,363.48h0v-.22M46.69,363.48h-.28M46.69,363.26v.22M46.41,363.26h.28M150.04,363.99h-.08M149.96,405.58h.08M149.96,405.58v.06l.02.02h.02v.02h.04M149.65,405.58l.02.08.02.08.04.06.04.06.06.04.06.04.06.02h.08M149.65,401.03v4.55M149.96,401.03v4.55M149.65,405.58h.3M150.04,405.99v-4.71M154.63,405.99h-4.59M154.79,401.27v.47l-.02.49-.02.45-.02.45-.02.41v.41l-.02.37v.35l-.02.3v.26l-.02.22v.35l-.02.1v.1M150.04,363.89h-.02l-.02.02-.02.02h-.02v.06M150.04,363.6h-.08l-.06.02-.06.04-.06.06-.04.04-.04.08-.02.06-.02.08M149.65,363.99v1.91M149.96,363.99v1.91M149.96,363.99h-.3M149.65,365.9v.24M149.96,365.9v.24M149.65,365.9h.3M150.04,363.99v-.39M170.09,363.6h0v.39M170.09,363.6h-20.06M170.09,364.17l-.22.2-.22.2-.2.2-.22.2-.2.2-.2.2-.22.22-.2.2M170.09,364.17v-.18M170.09,363.99h-20.06M150.04,363.99v1.83M168.39,365.82h-18.35M150.04,365.9h0v-.08M168.02,365.9h.02l.06-.02.1-.02.18-.04M168.02,366.2l.02-.02.04-.04.06-.08.12-.12.12-.12M149.65,366.33v34.71M149.96,366.33v34.71M149.65,401.03h.3M149.96,366.14h0v.18M149.65,366.14h.3M149.65,366.14h0v.18M149.65,366.33h.3M154.79,401.27h-4.75M154.93,397.21l-.14,4.06M167.88,366.34l-.95,1.04-.93,1.08-.89,1.12-.87,1.12-.83,1.16-.79,1.2-.77,1.2-.71,1.22-.69,1.26-.65,1.26-.61,1.3-.57,1.3-.53,1.32-.51,1.34-.45,1.34-.41,1.38-.37,1.36-.33,1.4-.28,1.38-.24,1.42-.2,1.4-.16,1.42-.1,1.42-.08,1.42M150.04,401.27v-34.93M168.02,366.2h0l-.02.02-.04.04-.02.02M168.02,366.2v-.3M167.94,366.28l-.02.02-.04.04M168.02,365.9v.02l-.02.06-.02.1-.02.1-.02.1M150.04,365.9h17.98M150.04,366.34v-.45M167.88,366.34h-17.84M154.97,401.17l-.02.47v.45l-.02.43-.02.41-.02.41v.37l-.02.34v.33l-.02.29v.26l-.02.22v.43l-.02.06v.02M154.81,405.64l-.16-.02M154.97,401.17l.14-4.12M170.09,364.01l.08-.08M168.34,366.1l.24-.26.24-.24.24-.24.26-.24.24-.24.26-.24.26-.24.24-.24M170.36,364.13l-.18-.2M168.34,366.1l-.12.1-.08.1-.08.08-.04.04M155.12,397.05l.08-1.4.1-1.42.16-1.4.2-1.4.24-1.4.28-1.38.32-1.38.37-1.36.41-1.36.45-1.34.49-1.32.53-1.32.57-1.28.61-1.28.65-1.26.67-1.24.73-1.22.75-1.2.79-1.18.83-1.14.87-1.12.89-1.1.93-1.08.95-1.04M167.9,366.33l.12.1M254.03,363.93h.08M254.11,405.54h-.08M254.11,405.54v.04l-.02.02-.02.02h-.04M254.4,405.54v.06l-.02.08-.04.06-.04.06-.06.04-.06.04-.08.02h-.06M254.11,400.97v4.57M254.4,400.97v4.57M254.4,405.54h-.28M249.44,405.93h4.59M254.03,405.93v-4.71M249.28,401.21v.49l.02.47.02.45.02.45v.43l.02.39.02.37v.34l.02.3v.26l.02.22v.47l.02.06v.02M254.03,363.54l.06.02.08.02.06.02.06.06.04.06.04.06.02.06v.08M254.03,363.83l.02.02h.02l.02.02.02.02v.04M254.11,363.93v1.93M254.4,363.93v1.93M254.11,363.93h.28M254.11,365.86v.22M254.4,365.86v.22M254.4,365.86h-.28M254.03,363.93v-.39M233.98,363.54h20.06M233.98,363.54v.39M254.03,363.93v1.83M233.98,363.93h20.06M233.98,364.11v-.18M233.98,364.11l.22.2.22.2.2.2.2.2.22.2.2.22.2.2.22.2M254.03,365.86h0v-.1M235.68,365.76h18.35M236.05,365.86h-.02v-.02h-.06l-.1-.04-.18-.04M236.05,366.14l-.02-.02-.04-.04-.06-.06-.12-.14-.12-.12M254.11,366.28v34.69M254.4,366.28v34.69M254.4,400.97h-.28M254.11,366.08h0v.2M254.4,366.28h-.28M254.4,366.08h0v.2M254.4,366.08h-.28M249.28,401.21h4.75M254.03,401.21v-34.93M236.19,366.28l.96,1.06.93,1.08.89,1.1.87,1.14.83,1.16.79,1.18.77,1.2.71,1.24.69,1.24.65,1.28.61,1.28.57,1.3.53,1.32.49,1.34.47,1.36.41,1.36.37,1.38.33,1.38.28,1.4.24,1.4.2,1.4.14,1.42.12,1.42.08,1.42M249.13,397.15l.14,4.06M236.19,366.28h17.84M254.03,366.28v-.43M254.03,365.86h-17.98M236.13,366.22l.02.02v.02l.04.02M236.05,365.86v.02l.02.06.02.08.02.12.02.08M236.05,366.14v-.28M236.05,366.14h0l.02.02.04.04.02.02M249.09,401.11l.02.47v.45l.02.43.02.43.02.39v.39l.02.35v.3l.02.3v.24l.02.22v.51M249.24,405.58h.18M249.09,401.11l-.14-4.1M235.72,366.04l-.24-.24-.24-.26-.24-.24-.26-.24-.24-.24-.26-.24-.26-.24-.24-.22M233.98,363.95l-.08-.08M233.71,364.09l.18-.22M235.72,366.04l.12.1.08.1.08.08.04.04M236.17,366.26l-.12.1M248.95,397.01l-.08-1.42-.1-1.4-.16-1.42-.2-1.4-.24-1.38-.28-1.4-.32-1.36-.37-1.38-.41-1.34-.45-1.34-.49-1.34-.53-1.3-.57-1.3-.61-1.28-.65-1.26-.67-1.24-.73-1.22-.75-1.2-.79-1.16-.83-1.16-.87-1.12-.89-1.1-.93-1.08-.96-1.04M148.82,364.17v.08M44.25,364.19l-.04-.08M64,398.39l-.04-.04M64,398.41v-.02M148.82,363.87h0v-.04M44.11,363.83h0v.02M64,398.41l-.02.02v.06M44.4,364.11h-.14M44.62,364.11h-.12M44.17,363.83h-.02l-.1.04-.08.06-.06.08-.04.1v.18l.04.1M44.25,364.11h-.04l-.02.02h-.02v.02l-.02.02v.06l.02.02M148.82,364.17h-.35M148.82,363.87h-.06M148.92,364.25v-.02l-.02-.02-.02-.02v-.02h-.06M148.82,364.17v-.3M149.2,364.25l-.02-.06-.02-.08-.02-.06-.06-.06-.06-.04-.06-.04-.06-.02-.08-.02M63.92,398.45v.02h.02v.02h.04M63.66,398.59l.04.04.02.04.04.02.02.04.04.02.04.02h.06l.04.02M148.84,405.62h.02v-.02h.02l.02-.02v-.04h.02M148.82,405.91h.04l.08-.02.08-.02.06-.06.04-.06.04-.06.02-.08.02-.06M44.27,363.91l-.06-.04-.06-.04h-.04M44.11,363.52v.3M44.11,363.52h3.05M44.27,363.91l-.04-.14-.04-.1-.04-.08-.04-.04v-.02M148.82,363.83h-.02l-.02.02-.04.04v.02M148.82,363.54v.28M148.8,363.54v.02l-.02.06-.02.1-.02.12v.06M148.74,363.91l-1.52,1.52M148.74,363.91H44.27M46.73,365.33l-2.46-1.42M47.42,365.74l-.12-.08M63.98,398.49h.02v-.02l.02-.02v-.04M63.96,398.79l.02-.3M44.25,364.21l.2-.12M64.37,397.5l-.41.85M47.16,365.65l.12.06M44.46,364.09l2.26,1.3M148.92,405.54l-.02-.04-.02-.02-.02-.02-.04-.02M148.78,406.21l-84.81-7.42M148.82,405.83v.08l-.02.06v.18l-.02.02v.04M63.96,398.79v-.04l.02-.08.02-.12.02-.14M149.2,401.11v4.43M149.2,364.25v1.56M148.82,364.25h.39M148.92,405.46l-.04-.02h-.06M148.51,364.25h.3M147.33,365.43l1.18-1.18M64.41,397.58l-.39.83M148.82,405.83l.02-.31M148.84,405.52l-.02-.02M63.96,398.35l-.02.04-.02.02-.02.02.02.02M63.92,398.45l-.26.14M43.91,364.39l19.75,34.2M63.96,398.35l-.12.08-.08.08-.06.04-.04.04M44.25,364.21l19.71,34.14M43.91,364.39h.02l.02-.02.02-.02.04-.02.06-.02.04-.04.06-.04.08-.02M149.2,405.6h0M149.2,405.6h-.28M135.18,404.71h.12l.1.02h.14-.1l-.1-.02h-.12l-.12-.02h-.12l-.08-.02h-.1.06l.08.02h.12l.12.02M132.3,404.44l.12.02h.12l.08.02h.04-.02l-.06-.02h-.1l-.12-.02h-.12l-.12-.02h-.18.14l.1.02h.12M74.94,399.42l.1.02h.2l.04.02h.02-.04l-.06-.02h-.1l-.12-.02h-.12l-.12-.02h-.18.14l.12.02h.12M72.05,399.18h.12l.12.02h.12-.18l-.12-.02h-.12l-.12-.02h-.1l-.06-.02h-.02.06l.08.02h.1l.12.02M148.8,405.89l-83.9-7.33M148.8,405.89h0M64.9,398.55l1.67.14M64.92,398.27l1.67.14M64.9,398.55l.02-.29M149.2,401.21v-.1M149.2,401.23v-.02M149.2,401.21h-.28M149.2,405.6v-4.37M149.2,405.6h-.28M149.2,401.23h-.28M148.82,401.25v4.31M67.85,396.6l.02.28-.02.29-.06.24-.06.22-.1.2-.12.14-.16.12-.02.02M67.09,394.08l.06.14M66.56,398.69l.02-.28M67.91,397.33v.02l-.06.22-.06.22-.1.16-.12.16-.14.12-.18.08-.18.06-.22.02h-.24M67.13,394.28l.06-.26M67.13,394.35v-.06M67.13,394.35l.08-.33M67.13,394.35l.18.43.16.41.12.41.12.39.08.37.06.34.04.3v.31l-.02.28-.04.24-.08.22-.1.18-.12.16-.14.12-.18.1-.18.06-.22.02h-.24M66.56,398.69l82.23,7.19M148.82,401.15v2.68l-.02.37v1.69M149.22,366.22v-.41M149.22,365.82h-.28M148.94,366.22v-.41M148.92,404.95v.65M148.94,365.82v.41M148.92,405.6h0M148.92,405.6v-4.37M148.92,401.23v-.02M148.92,401.21v-.06M53.48,366.04l-6.77-.43M46.71,365.33v.28M46.49,365.65l6.97.51M46.27,365.8l.22-.14M66.93,394.14l-.08.02M46.27,365.8l6.97.49M64.78,398.21l-18.51-32.41M66.54,398.35l-1.77-.14M66.85,394.16l.18.37.16.39.12.39.12.37.1.37.06.34.02.33.02.3-.02.29-.06.26-.06.22-.1.18-.12.16-.16.1-.16.08-.2.04h-.2M148.94,366.22h.28M148.86,366.22h.08M53.46,366.16h.04l.02-.02h.02M53.46,366.16l-.22.12M149.2,401.11h0l-.02.02h-.04l-.06.02h-.26M149.2,401.11l.02-34.89M148.86,366.26h.26l.08-.02.02-.02M53.24,366.28h.06l.06-.02.08-.04.1-.04M66.93,394.14l-13.7-27.86M67.22,394.02l-.04.02-.04.02-.04.02-.04.02h-.04l-.04.02h-.02l-.02.02M53.48,366.04v-.28M53.52,366.12v-.04l-.02-.02-.02-.02M53.48,365.76l-6.77-.43M148.86,365.43v.41M46.71,365.33l102.15.1M148.86,365.84h0v.43M53.48,365.76l95.38.08M53.54,366.18l-.02-.14v-.12l-.02-.1-.02-.04v-.02M148.82,401.15l-81.6-7.13M148.86,366.26l-.04,34.89M148.86,366.26l-95.32-.08M67.22,394.02l-13.68-27.84M67.34,398.29l-.26-.02M48.52,365.82l.06-.08M67.34,398.29l-.26-.02M148.82,405.03l.1-.08M48.58,365.74l-.06.08M149.2,401.11v4.49M378.91,146.14h0M378.91,140.07v-.87M379.34,138.81h-.08l-.08.02-.06.04-.06.04-.06.06-.04.06-.02.08-.02.08M510.26,150.31l.02.02M510.08,150.25h-.06M510.26,150.31h-.02l-.02-.02-.02-.02h-.06l-.02-.02h-.04M379.34,138.83v-.02M510.01,150.25l-130.67-11.44M379.34,138.81h0M510.01,150.25h0M510.28,150.33l7.88,5.53M510.28,150.33l-.04.08M518.26,155.92l-.1-.06M518.16,155.86l-.08.1M518.26,155.92l.02.02.02.02.04.04M518.14,156.06l.12-.14M518.39,156.06l-.02-.04-.02-.02M518.35,156l-.16.12M518.39,156.06l.02.04M518.18,156.16l.2-.1M518.41,156.1l3.21,6.91M518.41,156.1l-.2.1M521.62,163.01l.12.26.12.24.1.22.08.2.08.16.06.12.06.12.02.06.02.06h.02M379.32,147.63l-.02.02h-.04l-.02.02h-.02v.06M378.91,147.65v-8.45M378.91,139.19l.02-.06.02-.08.04-.06.06-.06.06-.06.06-.02.08-.02h.08M379.34,147.36h-.08l-.08.02-.06.02-.06.04-.06.06-.04.08-.02.06M379.22,147.75h0M378.98,155.23l.02.06.04.04.06.06.06.02.08.02.08.02M379.22,155.06v.04l.02.02.02.02h.02l.02.02h.02M378.93,150.63v-1.95l-.02-.28v-.75M378.91,147.65h.3M379.32,150.65v-3.03M379.32,147.63l.02-.26M517.92,155.78v.14M497.68,158.6l20.24-2.82M517.92,155.78l-7.9-5.53M510.01,150.25l-130.67-11.44M379.34,138.83v-.02M379.34,147.36v-8.53M379.22,151.02v-.61.43M379.22,150.84v.61-.43M379.22,147.69v7.38M379.22,147.75v-.02M379.22,147.77v-.02M379.22,147.65v.12M379.22,150.63v-2.99M379.22,155.06v.16M379.22,155.23h0M378.93,155.23h0M378.93,155.23h.28M379.22,155.23v-4.59M378.93,150.63h.28M378.93,155.23v-4.59M378.93,155.23h.28M379.32,154.98v-4.33M379.32,150.63v-.1M496.79,159.47l.06-.16.08-.12.12-.12.1-.04M497.68,158.6l-.02.12M498.66,161.87l-.49-.28-.39-.33-.34-.37M497.44,160.9l-.2-.28-.16-.28-.12-.26-.08-.24-.06-.22-.02-.2.02-.16.06-.16.08-.14.12-.12.18-.08.18-.08.24-.04M497.68,158.6l-118.34-11.24M379.32,150.53v-2.5l.02-.24v-.43M523.28,168.11l.08.02M523.26,168.13l-.61-.06M379.32,155.53h0M379.32,155.53h0M522.31,164.47l-.26.12M523.45,167.62l.04.08M522.31,164.47l1.44,3.11M523.37,168.13l.16-.02.1-.06.1-.1.04-.12.02-.12-.04-.12M523.41,167.85l.02-.02.04-.02.02-.02.02-.04-.02-.04M523.41,167.85l-.04.28M523.75,167.58l-.26.12M521.98,164.45l-20.3-1.77M501.68,162.68l-.57-.08-.53-.08-.53-.12-.49-.16-.47-.16-.45-.2M498.66,161.87l-119.34-11.34M379.32,154.98v-4.45M523.45,167.6l-1.46-3.15M523.45,167.72l-.02.02-.02.02M523.45,167.6v.12M379.32,154.98h0M379.32,155.53v-.55M379.32,155.53l143.94,12.6M523.45,167.6l-.04.14-.04.12-.02.12-.04.08-.02.04-.02.02M523.45,167.6l-144.13-12.62M496.89,159.9l-.02-.04-.02-.2.02-.16.06-.16.06-.08M497.84,158.7l20.22-2.8M497.64,160.88l-.18-.28-.16-.26-.12-.24-.1-.22-.04-.2-.02-.2.02-.16.04-.16.08-.12.12-.12.16-.08.18-.06.22-.04M521.35,162.95l-3.23-6.95M518.12,156l-.06-.1M498.78,161.77l-.49-.28-.35-.28-.3-.33M522,164.35v-.02l-.02-.04-.04-.08-.04-.1-.06-.12-.08-.16-.08-.18-.1-.2-.1-.24-.12-.24M497.64,160.88l23.71,2.07M501.68,162.56l-.55-.06-.51-.1-.51-.1-.47-.16-.45-.16-.43-.2M522,164.47v-.12M501.68,162.56l20.32,1.79M501.66,162.68l.02-.12M254.62,140.07h.47M254.62,148.58h.47M255.09,156.08v-.87M254.62,156.08v-.87M254.62,150.57h.47M254.62,170.85h.47M255.09,206.07h-.47M254.62,205.72h.47M255.09,172.25h-.47M378.91,148.58v-8.51M378.47,140.07h.45M378.91,150.57v-1.99M378.47,148.58h.45M378.91,156.1v-5.53M378.47,156.08v-.87M378.47,150.57h.45M378.91,206.07h-.45M378.47,205.72h.45M378.91,172.25h-.45M378.47,170.85h.45M254.62,139.17v-.06l-.02-.08-.04-.06-.04-.06-.06-.04-.06-.04-.08-.02h-.06M254.62,139.19v-.02M149.65,139.17v.02M150.04,138.81h-.08l-.06.02-.06.04-.06.04-.04.06-.04.06-.02.08-.02.06M150.04,138.81h0M254.25,138.81h0M254.25,138.81h-104.22M254.34,147.69v-.04l-.02-.02-.02-.02h-.02l-.02-.02M254.62,139.19v8.41M254.62,147.61h0l-.02-.06-.04-.08-.04-.04-.06-.06-.06-.02-.08-.02-.06-.02M254.25,138.81l.14.04.12.08.08.12.02.14M149.65,139.19v8.41M149.65,139.19l.04-.14.08-.12.12-.08.14-.04M150.04,147.59h-.02l-.02.02-.02.02h-.02v.06M150.04,147.3l-.08.02-.06.02-.06.02-.06.06-.04.04-.04.08-.02.06M150.04,138.81h0M150.04,138.81v8.49M254.25,147.3v-8.49M254.25,138.81h0M254.25,138.81h-104.22M254.25,155.19h0l.02-.02h.02l.02-.02.02-.02v-.04M254.25,155.47l.06-.02.08-.02.06-.02.06-.06.04-.04.04-.08v-.02M149.96,155.08v.06h.02l.02.02.02.02h.02M149.67,155.21l.02.02.04.08.04.04.06.06.06.02.06.02.08.02M254.62,147.61v2.99M254.34,147.61v2.99M254.62,147.61h-.28M149.65,147.61v2.99M149.96,147.61v2.99M149.65,147.61h.3M150.04,147.3v3.17M254.25,147.3v3.17M254.25,147.3h-104.22M254.34,150.59v4.61M254.62,155.21h-.28M254.62,150.59v4.61M254.62,150.59h-.28M149.65,155.21h.3M149.96,150.59v4.61M149.65,150.59h.3M149.65,150.59v4.61M150.04,150.47v4.49M254.25,150.47v4.49M254.25,150.47h-104.22M150.04,154.96v.55M254.25,155.51h-104.22M254.25,154.96v.55M254.25,154.96h-104.22M149.65,140.07h-.45M149.2,148.62h.45M149.65,150.63h-.45M149.2,154.96h.45M149.65,155.17h-.45M149.2,139.19v-.02M149.2,139.17l-.02-.06-.02-.08-.02-.06-.06-.06-.06-.04-.06-.04-.06-.02h-.08M42.04,138.81h0M148.82,138.81h0M42.04,138.81h106.78M63.19,147.59h0M63.09,147.57l.1.02M63.19,147.59v-.28M41.1,142.71v-.22M41.1,142.49l22.09,4.82M63.19,147.3h0M148.82,138.81h0M42.04,138.81h106.78M42.04,138.81l-.93,3.68M149.2,147.61v-8.41M148.82,147.3v-8.49M148.82,138.81l.14.04.12.08.08.12.04.14M148.92,147.69v-.02l-.02-.02v-.02h-.02v-.02h-.02l-.02-.02h-.02M149.18,147.61h0l-.02-.06-.02-.08-.06-.04-.06-.06-.06-.02-.06-.02-.08-.02M63.19,147.59l.18.12.16.24.06.28M63.19,147.59v-.28M148.82,155.45l.08-.02.06-.02.06-.04.06-.04.06-.06.02-.06M148.82,155.17l.02-.02h.04v-.02h.02v-.02l.02-.02v-.02M149.2,150.59v-2.99M148.92,150.59v-2.99M149.2,147.61h-.28M63.19,147.3l.16.12.18.26.06.18.02.2v.18M63.62,148.26l-.02.37-.1.35-.16.35-.24.37-.3.33-.28.24-.33.22M148.82,150.47v-3.17M63.19,147.3h85.63M149.2,155.04v-4.45M148.92,155.04v-4.45M149.2,150.59h-.28M149.2,155.21h0v-.16M148.92,155.21h0v-.16M149.2,155.21h-.28M149.2,155.04h-.28M43.71,154.94v-.02M43.71,154.92h0M43.71,154.92v.02M43.71,154.94v.02M148.82,154.96v-4.49M62.18,150.47h86.64M60.41,150.96h.22l.24-.04.22-.04.22-.04.22-.08.22-.08.2-.1.2-.1M43.71,150.96h16.7M43.71,150.96v3.96M43.69,155.12v.12l.02.06v.06l.02.04v.04l.02.02.02.02.02.02M43.79,155.51h105.03M148.82,155.51v-.55M43.71,154.96h105.11M43.71,154.96v.1l-.02.06M63.62,148.18l-.41-.49M63.21,147.69l-.2-.2M63.62,148.18l-.2-.2M63.42,147.97l-.41-.49M63.01,147.49l-22.05-4.82M40.96,142.67l-1.65,6.75M39.32,149.42h0v.04M63.62,148.38l-.04-.12-.06-.16-.1-.12M60.75,150.94v-.16M60.75,150.78h-16.99M43.71,151.12h-.04M43.77,150.96v-.18M43.77,150.78h-4.71M39.05,150.78v.16M39.32,149.46l-.1.37M39.21,149.82l-.1.33-.06.24v.1M39.05,150.49v.28M60.75,150.78h.06M60.81,150.78l.71-.04.18-.04M41.96,139.05l-.91,3.64M41.61,138.95l-.91,3.68M41.96,139.05l-.35-.1M40.7,142.63l-1.67,6.71M40.7,142.63l.26.08M39.05,150.7l-.04.12-.02.12M39.03,149.33l-.08.33-.08.28-.06.24-.04.22-.06.18-.02.14-.04.1v.08l-.02.02M38.69,155.51h-.67M38.02,155.51l-.1-.02-.08-.02-.08-.06-.06-.06-.04-.08-.04-.08v-.18M37.61,155l1.02-4.06M38.63,150.94h.06M37.67,155h-.06M37.61,155l.06.02M41.37,155.51h-.39M38.81,155.51l-.77-.02M43.71,155.49h.04M43.66,151v4.06M43.36,150.94l.3.06M38.69,150.94h4.67M38.69,150.94l-1.02,4.06M43.36,150.94v4.06M43.71,155.31v.18M43.66,155.06v.06l.02.02h.02M43.36,155l.3.06M43.36,155h-5.69M38.04,155.49l-.12-.02-.1-.06-.1-.1-.04-.12v-.18M38.04,155.49h5.67M43.36,155v.18l.04.08.02.06.06.08.06.04.08.02.08.02M50,363.07v.02M43.58,168.41h.08M46.18,351.33h0M46.21,351.35l-.04-.02M47.16,363.09h-.06M47.1,363.09l-.08-.02h-.04M378.69,363.44l.06-.06.08-.08.04-.08.04-.12v-.1M378.91,362.99v-.2M255.31,363.44l-.06-.06-.06-.08-.06-.08-.04-.12v-.1M255.09,362.99v-.2M255.31,362.99v-.2M378.69,362.99v-.3M255.31,363.09h0v-.1M378.69,363.09h0v-.1M378.69,363.54h-.47M378.22,363.09h.47M378.69,363.09v.45M255.78,363.54h-.47M255.31,363.09h.16M255.31,363.54v-.45M255.78,363.54h122.44M378.22,363.54v-.45M378.08,363.09h.14M255.78,363.09v.45M378.08,362.71l.04.02.02.02.02.02.02.02M378.18,156.08h-.1M255.37,362.79l.02-.02.02-.02.02-.02.04-.02M255.47,156.08h-.1M378.08,155.96v-.22M255.47,155.73h122.61M255.47,155.96v-.22M378.08,363.09v-.33M255.47,363.09v-.33M255.47,363.09h122.61M255.09,156.08v14.83M255.37,156.08v14.83M255.09,156.08h.28M378.47,170.91v-14.83M378.18,170.91v-14.83M378.47,156.08h-.28M378.08,170.79v-14.83M255.47,155.96h122.61M255.47,170.79v-14.83M378.47,345.92v-.12M378.18,345.92v-.12M378.47,173.01v-.1M378.18,173.01v-.1M255.09,345.8v.12M255.37,345.8v.12M255.09,172.9v.1M255.37,172.9v.1M255.09,346.53v16.25M255.37,346.53v16.25M255.09,362.79h.28M378.47,362.79v-16.25M378.18,362.79v-16.25M378.47,362.79h-.28M378.47,346.53v-.61M378.18,346.53v-.61M378.47,345.92h-.28M378.47,346.53h-.28M378.47,172.9v-1.99M378.47,172.9h-.28M378.18,172.9v-1.99M378.47,170.91h-.28M255.09,345.92v.61M255.37,345.92v.61M255.09,345.92h.28M255.09,346.53h.28M255.09,170.91v1.99M255.37,170.91v1.99M255.09,170.91h.28M255.09,172.9h.28M378.08,362.77v-16.19M255.47,362.77v-16.19M255.47,362.77h122.61M378.08,173.01h.39M378.47,345.8h-.39M378.47,345.8v-172.8M378.08,346.57v-.77M255.47,346.57v-.77M255.47,346.57h122.61M378.08,345.8v-172.8M255.47,345.8h122.61M255.47,173.01v-2.21M378.08,173.01v-2.21M255.47,170.79h122.61M255.47,173.01h122.61M255.47,345.8v-172.8M255.09,173.01h.39M255.09,345.8v-172.8M255.47,345.8h-.39M255.56,155.51v.22M378,155.51v.22M255.43,364.21v-.06M255.43,405.62v-.02M378.12,405.6v.02M378.12,364.15v.06M378.12,364.21h.06M255.43,363.83v.04M378.12,363.87v-.04M255.43,405.91h0v.02M378.12,405.93h0v-.02M255.37,364.21h.06M378.12,405.91h.06l.06-.02.06-.04.06-.04.04-.06.02-.06.02-.06.02-.06M378.12,405.62h.02v-.02M378.1,405.91h.02M378.12,405.62v.29M377.96,405.62h.16M255.39,405.6l.02.02h.02M255.09,405.56v.06l.02.06.04.06.04.06.06.04.04.04.08.02h.06M255.43,405.62h.14M255.43,405.62v.29M255.43,405.91h.02M378.08,405.89l.02.02v.02h.02M378.12,406.21v-.28M255.43,405.93h0l.02-.02v-.02M255.43,406.21v-.28M378.12,406.21h-122.69M378.08,405.93l.02.1v.16l.02.02M255.43,406.21v-.02l.02-.06v-.2M378.08,405.89v.04M377.96,405.66l.12.22M255.45,405.89l.12-.22M255.45,405.89v.04M255.45,405.93l.12-.22M255.45,405.93h122.63M377.96,405.7l.12.22M378.47,364.21l-.04-.14-.06-.1-.12-.08-.12-.02M378.18,364.21l-.02-.02v-.02l-.02-.02h-.02M378.12,364.15h-.16M378.12,364.15v-.28M378.12,363.87h-.02M255.43,364.15h-.02l-.02.02-.02.02v.02M255.43,363.87l-.14.02-.1.08-.08.1-.02.14M255.45,363.87h-.02M255.43,364.15v-.28M255.6,364.15h-.16M377.59,364.9l.41-.69M378,364.21h.12M378,364.25v-.04M378.12,405.6h-.12M378,364.25h.12M377.61,364.9l.39-.65M378,405.6l-.04-.06M378.12,364.21h.06M378.12,364.21v.04M378.18,364.21h.28M378.47,364.21v41.35M378.12,364.25h.18l.06-.02h.06l.02-.02h.02M378.47,405.56h-.02l-.02.02h-.02l-.04.02h-.24M255.43,364.21h.12M255.43,364.21v.04M255.37,364.21h.06M255.37,364.21h-.28M255.09,405.56v-41.35M255.43,405.6h-.24l-.04-.02h-.04l-.02-.02M255.09,364.21h0l.02.02h.08l.06.02h.18M255.56,364.21l.41.69M255.56,364.25v-.04M255.43,364.25h.12M255.56,405.6h-.12M255.58,405.54l-.02.06M255.56,364.25l.37.65M378.08,363.95l-.57.96M256.04,364.9l-.57-.96M378.12,363.83l-.02.02-.02.04M378.12,363.54v.28M378.08,363.95h-122.61M378.12,363.54v.02l-.02.02v.14l-.02.06v.16M255.47,363.89h-.02v-.04h-.02v-.02M255.47,363.95v-.08l-.02-.08v-.16l-.02-.04v-.04M255.43,363.54v.28M378.35,400.99v.1M378.06,401.03v.06M255.21,400.99v.1M255.49,401.03v.06M378.35,401.09v.02M378.06,401.09v.02M378.35,401.09h-.28M378.35,401.11v4.35M378.06,401.11v4.35M378.35,405.46h-.28M378.35,401.11h-.28M255.21,401.11v4.35M255.49,401.11v4.35M255.21,405.46h.28M255.21,401.09v.02M255.49,401.09v.02M255.21,401.09h.28M255.21,401.11h.28M255.58,405.74v-4.69M377.96,405.74h-122.38M377.96,405.74v-4.69M378.35,365.29v.93M378.35,365.29h-.28M378.06,365.29v.93M255.21,365.29v.93M255.49,365.29v.93M255.21,365.29h.28M255.58,365.84v-.93M377.96,365.84v-.93M377.96,364.9h-122.38M378.06,366.22h.28M377.96,366.22h.1M378.35,400.99h0l-.02.02h-.04l-.04.02h-.2l-.08.02M378.35,366.22v34.77M377.96,366.26h.28l.04-.02h.04l.02-.02M255.49,366.22h.08M255.49,366.22h-.28M377.96,401.05h-122.38M377.96,401.05v-34.79M255.58,401.05v-34.79M255.21,366.22h0l.02.02h.04l.04.02h.26M255.21,366.22v34.77M255.58,401.05l-.06-.02h-.2l-.04-.02h-.04l-.02-.02M255.58,366.26v-.43M377.96,366.26h-122.38M377.96,366.26v-.43M377.96,365.84h-122.38M378.47,139.19v-.02M255.09,139.17v.02M378.47,139.17l-.04-.14-.08-.12-.12-.08-.14-.02M255.47,138.81l-.14.02-.14.08-.08.12-.02.14M255.47,138.81h0M378.08,138.81h0M378.08,138.81h-122.61M378.18,147.69v-.02l-.02-.02v-.02h-.02v-.02h-.02l-.02-.02h-.02M378.47,139.19v8.41M378.45,147.61h0l-.02-.06-.02-.08-.06-.04-.06-.06-.06-.02-.06-.02-.08-.02M378.08,138.81l.14.04.12.08.08.12.04.14M255.09,139.19v8.41M255.09,139.19l.02-.14.08-.12.14-.08.14-.04M255.47,147.59h-.02l-.02.02h-.02l-.02.02-.02.02v.04M255.47,147.3l-.08.02-.06.02-.08.02-.06.06-.04.04-.04.08-.02.06M255.47,138.81h0M255.47,138.81v8.49M378.08,147.3v-8.49M378.08,138.81h0M378.08,138.81h-122.61M378,155.61h.08M255.47,155.61h.08M378.08,155.61l.08-.02.06-.02.06-.02.06-.06.06-.06.02-.06.02-.06.02-.08M378.08,155.33h.02l.02-.02h.02v-.02h.02v-.02l.02-.02v-.02M255.37,155.23v.04l.02.02.02.02h.02l.02.02h.02M255.09,155.23v.08l.02.06.04.06.04.06.06.06.08.02.06.02.08.02M378.18,155.21v.02M378.47,155.23h-.28M255.37,155.21v.02M255.09,155.23h.28M378.18,147.61v2.99M378.47,147.61v2.99M378.47,147.61h-.28M255.37,147.61v2.99M255.09,147.61v2.99M255.09,147.61h.28M255.47,147.3v3.17M378.08,147.3v3.17M378.08,147.3h-122.61M378.18,150.59v4.61M378.47,155.21h-.28M378.47,150.59v4.61M378.47,150.59h-.28M255.37,150.59v4.61M255.09,150.59h.28M255.09,150.59v4.61M255.09,155.21h.28M255.47,150.47v4.49M378.08,150.47v4.49M378.08,150.47h-122.61M255.47,154.96v.55M378.08,155.51h-122.61M378.08,154.96v.55M378.08,154.96h-122.61M379.3,166.52h-.08M379.22,167.99h.08M514.1,351.21v1.83M514.1,190.87v158.02M515.87,348.89v-157.98M515.87,353.04v-1.83M388.55,348.89v-158.02M388.55,353.12v-1.91M386.78,353.54v.1M386.78,351.21v1.91M386.78,190.91v157.98M509.28,344.66h0M454.01,346.21h.24M454.26,345.52h-.24M398.26,346.21h.24M398.5,345.52h-.24M454.01,345.52l-.02-.08-.1-.16-.12-.14-.14-.12-.04-.02M453.59,346.72l.1-.06.14-.12.1-.16.08-.16M453.53,346.72h0l.02.02h.02l.02-.02M453.59,344.99h-.06M504.83,344.99l-.1.06-.14.14-.12.14-.08.18-.04.18v.2l.02.18.06.18.1.16.12.14.14.12.04.02M504.89,345.01v-.02h-.06M504.83,346.72v.02h.04l.02-.02.02-.02v-.02M509.37,346.72l.08-.06.14-.12.12-.16.08-.18.04-.18.02-.18-.04-.2-.06-.18-.08-.16-.12-.14-.16-.12-.04-.02M509.28,346.72h.02v.02h.04l.02-.02M509.37,344.99h-.08M449.06,344.99l-.1.06-.12.14-.12.14-.08.18-.04.18-.02.2.02.18.06.18.1.16.12.14.16.12.02.02M449.14,345.01v-.02h-.08M449.06,346.72l.02.02h.02l.02-.02h.02v-.04M398.24,345.52l-.02-.08-.08-.16-.12-.14-.16-.12-.04-.02M397.83,346.72l.08-.06.14-.12.12-.16.08-.16M397.75,346.72h.02v.02h.04l.02-.02M397.83,344.99h-.08M393.3,344.99l-.1.06-.14.14-.12.14-.08.18-.04.18v.2l.02.18.06.18.1.16.12.14.14.12.04.02M393.36,345.01v-.02h-.06M393.3,346.72v.02h.04l.02-.02.02-.02v-.02M507.78,343.26h-.43l-.08.02M506.95,343.28h-.08l-.1-.02h-.37M508.11,343.45l-.02-.04-.02-.08-.06-.04-.04-.02-.04-.02h-.06l-.06-.02h-.2l-.12-.02h-.39M507.09,343.2h-.45l-.08.02h-.2l-.04.02h-.04l-.04.02-.04.02-.04.02-.04.06-.02.06M506.07,343.45l-.14.96M508.25,344.4l-.14-.96M452,343.26h-.43l-.06.02M451.19,343.28h-.1l-.08-.02h-.37M452.33,343.45v-.04l-.04-.08-.06-.04-.04-.02-.04-.02h-.04l-.06-.02h-.22l-.1-.02h-.39M451.33,343.2h-.45l-.1.02h-.2l-.04.02h-.04l-.04.02-.04.02-.04.02-.04.06-.02.06M450.32,343.45l-.14.96M452.47,344.4l-.14-.96M396.25,343.26h-.43l-.08.02M395.41,343.28h-.08l-.1-.02h-.37M396.57,343.45l-.02-.04-.04-.08-.04-.04-.04-.02-.04-.02h-.06l-.06-.02h-.2l-.12-.02h-.39M395.56,343.2h-.45l-.08.02h-.2l-.04.02h-.04l-.04.02-.04.02-.04.02-.04.06-.02.06M394.54,343.45l-.14.96M396.71,344.4l-.14-.96M506.99,346.31l-.06.02-.14.02-.12.06-.12.06-.14.08-.1.1-.1.12-.06.12M508.19,346.74l-.06-.08-.14-.12-.14-.08-.14-.06-.14-.06-.1-.02h-.02M508.37,347.18l-.02-.12-.04-.14-.08-.14M507.17,345.01h-.04l-.02.02v.04l-.02.06M507.01,347.37l.02.02h.02M507.41,345.01h-.24M507.46,345.03h-.02l-.02-.02M507.33,347.08h-.22M507.05,349.42v.04h.02v.02h.04M507.11,347.08l-.02.02h-.02l-.02.02v.02M507.39,347.14h0v-.02h-.02v-.02h-.02l-.02-.02M507.33,349.48h.04v-.02h.02v-.04M507.03,345.66l-.2.02-.29.08-.26.14-.2.18-.12.22-.06.24.04.22.04.1.08.14.14.16.2.14.08.02M507.39,347.51l.16-.04.26-.14.22-.18.14-.22.06-.24v-.24l-.1-.24-.18-.2-.24-.16-.26-.12h-.06M505.91,346.64v.12l.08.22.16.22.22.16.26.12.31.06h.12M505.97,346.57v-.12l.04-.1.08-.14.14-.14.2-.16.29-.1.33-.04M507.39,345.76l.14.04.26.12.2.16.14.22.06.22-.02.24-.1.22-.16.18-.22.16-.26.1h-.04M506.46,347.33l-.14-.08-.12-.12-.1-.1-.06-.1-.06-.22v-.22l.06-.22.16-.2.2-.16.26-.12.3-.04h.06M453.53,344.64h-.02M397.75,344.64h0M394.54,347.37v-.04M396.77,347.45h0v-.02M396.53,347.43h0v.02M450.3,347.37v-.04M452.53,347.45h0v-.02M452.31,347.43h0v.02M393.38,348.89h-8.01M449.14,348.89h-51.39M504.92,348.89h-51.39M517.27,348.89h-7.99M509.28,351.21h7.99M453.53,351.21h51.39M397.75,351.21h51.39M385.38,351.21h8.01M385.38,348.89h-.22M385.15,351.21h.22M384.91,350.96v.04l.02.06.02.04.04.02.02.04.04.02h.04l.06.02M385.15,348.89h-.06l-.04.02-.04.02-.02.04-.04.02-.02.04-.02.04v.06M517.27,351.21h.24M517.51,348.89h-.24M517.74,349.13v-.06l-.02-.04-.02-.04-.02-.02-.04-.04-.04-.02-.04-.02h-.04M517.51,351.21l.04-.02h.04l.04-.02.04-.04.02-.02.02-.04.02-.06v-.04M385.19,344.05h0M386.25,344.05h0M385.19,351.43h0M386.25,351.43h0M516.4,344.05h0M517.47,344.05h0M516.4,351.43h0M517.47,351.43h0M32.43,170.75l-.06.06M33.06,170.81l-.06-.06M32.37,170.81v.75M33.06,171.56v-.75M32.04,172.25l.04.04.04.04.02.04.04.04.04.02.04.04.06.02.04.02M33.06,172.52l.04-.02.04-.02.06-.04.04-.02.04-.04.02-.04.04-.04.04-.04M31.92,172.13v.12M33.51,172.25v-.12M167.94,366.28l.02-.02M236.11,366.2h0l.02.02M148.8,405.85l.02-.28M67.09,398.25l.22-.12M523.38,167.82l.02-.06M497.13,159.05l-.14.18"/>
    <path class="st7" d="M167.94,366.28h0M236.13,366.22h0"/>
    <rect class="st18" x="-6.33" y="-73.33" width="35.33" height="35.33"/>
    <rect class="st15" x="153.79" y="-55.66" width="35.33" height="35.33"/>
    <rect class="st17" x="78.89" y="-64.89" width="35.33" height="35.33"/>
    <rect class="st16" x="214.11" y="-55.66" width="35.33" height="35.33"/>
  </g>
  <g id="Ebene_2" class="st19">
    <polygon class="st18" points="523.32 405.74 436.28 405.89 379.34 405.89 379.08 158.6 379.18 138.85 510.26 150.31 518.41 156.1 523.83 168.78 523.32 405.74"/>
    <polygon class="st16" points="378.79 405.23 255.58 405.74 255.33 138.85 378.73 139.19 378.79 405.23"/>
    <path class="st17" d="M255.09,405.56l-5.65.37s3.49-51.02-47.4-54.69c-49.97,3.04-47.41,54.65-47.41,54.65l-4.59.1-.2-267.12,104.73.1.53,266.59h-.01Z"/>
    <polygon class="st17" points="150.1 405.42 62.94 397.93 32.94 345.96 33.02 175.71 37.77 156.46 42.04 138.81 149.65 139.17 150.1 405.42"/>
  </g>
  <g id="Ebene_3" class="st19">
    <rect class="st15" width="841.89" height="595.28"/>
  </g>
  <g id="Ebene_5">
    <polygon class="st18" points="522.16 282.45 379.85 282.48 379.92 17.05 509.4 30.37 516.69 37.12 522.24 49.3 522.16 282.45"/>
    <polygon class="st14" points="379.85 282.48 257.75 282.45 257.75 16.92 379.92 17.05 379.85 282.48"/>
    <path class="st17" d="M257.75,282.45V16.92l-207.98-.23-10.23,36.47-.05,171.64,33.29,51.15,81.58,6.49h4.54s.11-53.35,47.71-53.3,46.71,53.3,46.71,53.3h4.43Z"/>
  </g>
  <g id="Kontur">
    <polyline class="st0" points="49.37 33.21 49.37 224.7 77.57 276.45"/>
    <polyline class="st0" points="74.78 271.53 155.37 278.45 158.9 278.45"/>
    <line class="st0" x1="154.37" y1="283.29" x2="154.37" y2="16.8"/>
    <line class="st4" x1="172.13" y1="242.8" x2="52.3" y2="242.8"/>
    <line class="st0" x1="39.49" y1="224.8" x2="258.23" y2="224.8"/>
    <line class="st4" x1="241.06" y1="242.8" x2="257.75" y2="242.8"/>
    <line class="st5" x1="522.16" y1="53.15" x2="39.65" y2="53.16"/>
    <line class="st5" x1="257.75" y1="242.8" x2="522.07" y2="242.8"/>
    <line class="st0" x1="384.44" y1="224.8" x2="257.75" y2="224.8"/>
    <line class="st0" x1="253.37" y1="278.44" x2="522.16" y2="278.44"/>
    <line class="st0" x1="257.75" y1="282.45" x2="257.75" y2="16.92"/>
    <line class="st0" x1="379.85" y1="17.05" x2="379.85" y2="282.48"/>
    <path class="st0" d="M49.77,16.69l-10.23,36.47-.05,171.64,33.29,51.15,81.58,6.49h4.54s0-53.3,47.71-53.3,46.71,53.3,46.71,53.3l183.51.03,85.33-.03.08-233.15-5.55-12.18-7.29-6.76-129.47-13.31-330.15-.37v.02Z"/>
    <line class="st0" x1="522.16" y1="224.8" x2="517.91" y2="224.8"/>
    <g>
      <line class="st9" x1="390.01" y1="234.03" x2="390.01" y2="71.89"/>
      <line class="st9" x1="512.79" y1="72.06" x2="512.79" y2="233.93"/>
      <line class="st2" x1="513.23" y1="226.32" x2="389.65" y2="226.32"/>
      <line class="st2" x1="513.23" y1="148.55" x2="389.65" y2="148.55"/>
      <line class="st2" x1="513.23" y1="181.29" x2="389.65" y2="181.29"/>
      <line class="st2" x1="513.23" y1="136.27" x2="389.65" y2="136.27"/>
      <line class="st2" x1="513.23" y1="144.46" x2="389.65" y2="144.46"/>
      <line class="st2" x1="513.23" y1="107.62" x2="389.65" y2="107.62"/>
      <line class="st2" x1="513.23" y1="123.99" x2="389.65" y2="123.99"/>
      <line class="st2" x1="513.23" y1="222.22" x2="389.65" y2="222.22"/>
      <line class="st2" x1="513.23" y1="99.43" x2="389.65" y2="99.43"/>
      <line class="st2" x1="513.23" y1="95.34" x2="389.65" y2="95.34"/>
      <line class="st2" x1="513.23" y1="115.81" x2="389.65" y2="115.81"/>
      <line class="st2" x1="513.23" y1="209.95" x2="389.65" y2="209.95"/>
      <line class="st2" x1="513.23" y1="152.64" x2="389.65" y2="152.64"/>
      <line class="st2" x1="513.23" y1="201.76" x2="389.65" y2="201.76"/>
      <line class="st2" x1="513.23" y1="156.74" x2="389.65" y2="156.74"/>
      <line class="st2" x1="513.23" y1="214.04" x2="389.65" y2="214.04"/>
      <line class="st2" x1="513.23" y1="111.71" x2="389.65" y2="111.71"/>
      <line class="st2" x1="513.23" y1="218.13" x2="389.65" y2="218.13"/>
      <line class="st2" x1="513.23" y1="164.92" x2="389.65" y2="164.92"/>
      <line class="st2" x1="513.23" y1="91.25" x2="389.65" y2="91.25"/>
      <line class="st2" x1="513.23" y1="189.48" x2="389.65" y2="189.48"/>
      <line class="st2" x1="513.23" y1="140.36" x2="389.65" y2="140.36"/>
      <line class="st12" x1="513.23" y1="83.06" x2="389.65" y2="83.06"/>
      <line class="st2" x1="513.23" y1="173.11" x2="389.65" y2="173.11"/>
      <line class="st2" x1="513.23" y1="177.2" x2="389.65" y2="177.2"/>
      <line class="st2" x1="513.23" y1="169.02" x2="389.65" y2="169.02"/>
      <line class="st2" x1="513.23" y1="205.85" x2="389.65" y2="205.85"/>
      <line class="st2" x1="513.23" y1="160.83" x2="389.65" y2="160.83"/>
      <line class="st2" x1="513.23" y1="78.97" x2="389.65" y2="78.97"/>
      <line class="st9" x1="512.39" y1="73.76" x2="390.22" y2="73.76"/>
      <line class="st2" x1="513.23" y1="87.15" x2="389.65" y2="87.15"/>
      <line class="st2" x1="513.23" y1="197.67" x2="389.65" y2="197.67"/>
      <line class="st2" x1="513.23" y1="132.18" x2="389.65" y2="132.18"/>
      <line class="st2" x1="513.23" y1="193.57" x2="389.65" y2="193.57"/>
      <line class="st2" x1="513.23" y1="128.08" x2="389.65" y2="128.08"/>
      <line class="st2" x1="513.23" y1="185.39" x2="389.65" y2="185.39"/>
      <line class="st2" x1="513.23" y1="119.9" x2="389.65" y2="119.9"/>
      <line class="st2" x1="513.23" y1="103.53" x2="389.65" y2="103.53"/>
      <line class="st2" x1="385.27" y1="229.27" x2="385.27" y2="225.35"/>
      <polyline class="st2" points="385.27 225.35 385.27 225.25 385.27 225.17 385.27 225.07 385.27 224.97 385.27 224.89 385.27 224.79 385.27 224.69 385.27 224.59"/>
      <polyline class="st2" points="517.71 224.59 517.71 224.69 517.71 224.79 517.71 224.89 517.71 224.97 517.71 225.07 517.71 225.17 517.71 225.25 517.71 225.35"/>
      <line class="st2" x1="388.45" y1="72.08" x2="514.53" y2="72.08"/>
      <polyline class="st2" points="514.53 72.08 514.89 72.1 515.25 72.16 515.59 72.26 515.91 72.4 516.23 72.58 516.51 72.78 516.79 73.02 517.01 73.28 517.23 73.58 517.39 73.88 517.53 74.22 517.63 74.56 517.69 74.9 517.71 75.26"/>
      <line class="st2" x1="517.71" y1="75.26" x2="517.71" y2="224.59"/>
      <line class="st2" x1="385.27" y1="224.59" x2="385.27" y2="75.26"/>
      <polyline class="st2" points="385.27 75.26 385.29 74.9 385.35 74.56 385.45 74.22 385.59 73.88 385.77 73.58 385.97 73.28 386.21 73.02 386.47 72.78 386.77 72.58 387.07 72.4 387.41 72.26 387.75 72.16 388.09 72.1 388.45 72.08"/>
      <path class="st2" d="M517.71,229.27l-.02.34-.06.36-.1.34-.14.32-.16.3-.22.3-.22.26-.28.22-.28.22-.32.16-.32.14-.34.1-.36.06-.36.02s.13.28-.48,1.11-1.26.85-1.26.85h-123.14s-.54-.14-.95-.81-.25-1.15-.25-1.15l-.36-.02-.34-.06-.34-.1-.34-.14-.3-.16-.3-.22-.26-.22-.24-.26-.2-.3-.18-.3-.14-.32-.1-.34-.06-.36-.02-.34"/>
      <path class="st10" d="M514.93,72.12"/>
      <line class="st8" x1="390.27" y1="230.41" x2="513.23" y2="230.41"/>
      <path class="st13" d="M398.79,221.6h-1.12l-.13-.95h-1.98l-.12.95h-1.12c-.46,0-.84.43-.84.96v.83c0,.53.37.96.84.96h.1v7.02h4.28v-7.02h.1c.46,0,.84-.43.84-.96v-.83c0-.53-.37-.96-.84-.96h-.01Z"/>
      <path class="st13" d="M453.86,221.6h-1.12l-.13-.95h-1.98l-.12.95h-1.12c-.46,0-.84.43-.84.96v.83c0,.53.37.96.84.96h.1v7.02h4.28v-7.02h.1c.46,0,.84-.43.84-.96v-.83c0-.53-.37-.96-.84-.96h-.01Z"/>
      <path class="st13" d="M508.54,221.6h-1.12l-.13-.95h-1.98l-.12.95h-1.12c-.46,0-.84.43-.84.96v.83c0,.53.37.96.84.96h.1v7.02h4.28v-7.02h.1c.46,0,.84-.43.84-.96v-.83c0-.53-.37-.96-.84-.96h-.01Z"/>
      <line class="st2" x1="517.71" y1="224.76" x2="517.71" y2="229.28"/>
      <line class="st0" x1="385.27" y1="224.18" x2="380.02" y2="224.18"/>
      <line class="st0" x1="521.64" y1="224.8" x2="517.66" y2="224.8"/>
    </g>
    <path class="st0" d="M49.11,20.61l13.49,4.67s.82.38.89,1.57c.11,1.76-1.94,1.64-1.94,1.64h-14.89"/>
    <polyline class="st0" points="497.54 36.65 379.92 25.18 258.33 25.43 62.41 25.34"/>
    <polyline class="st0" points="518.74 41.62 379.92 28.48 258.09 28.48 257.99 28.48 61.56 28.48"/>
    <polyline class="st0" points="44.78 33.39 258.09 33.39 379.32 33.21 520.63 45.78"/>
    <path class="st0" d="M513.97,34.43l-16.53,2.09s-1.41,1.66,1.22,3.23"/>
  </g>
  <g id="Kontur_wei">
    <g>
      <path class="st3" d="M671.36,277.92c0,13.62,11.04,24.67,24.67,24.67s24.67-11.04,24.67-24.67-11.04-24.67-24.67-24.67-24.67,11.04-24.67,24.67Z"/>
      <circle class="st11" cx="696.03" cy="277.92" r="6.33"/>
      <circle class="st11" cx="696.03" cy="288.54" r="2.33"/>
      <path class="st11" d="M685.69,281.27c1.11-.65,2.54-.28,3.19.83s.28,2.54-.83,3.2c-1.11.65-2.54.28-3.19-.83s-.28-2.54.83-3.19h0Z"/>
      <path class="st11" d="M687.9,270.69c1.12.63,1.53,2.05.9,3.18-.63,1.12-2.05,1.53-3.18.9-1.12-.63-1.53-2.05-.9-3.18.63-1.12,2.05-1.53,3.18-.9Z"/>
      <path class="st11" d="M698.15,267.25c.03,1.29-1,2.35-2.29,2.38s-2.35-1-2.38-2.29,1-2.35,2.29-2.38,2.35,1,2.38,2.29Z"/>
      <path class="st11" d="M706.3,274.35c-1.1.67-2.54.33-3.21-.77-.67-1.1-.33-2.54.77-3.21,1.1-.67,2.54-.33,3.21.77.67,1.1.33,2.54-.77,3.21Z"/>
      <path class="st11" d="M704.31,284.97c-1.14-.61-1.57-2.02-.96-3.16s2.02-1.57,3.16-.96c1.14.61,1.57,2.02.96,3.16-.6,1.14-2.02,1.57-3.16.96Z"/>
      <path class="st3" d="M653.97,277.16c0,23.11,18.73,41.84,41.84,41.84s41.84-18.73,41.84-41.84-18.73-41.84-41.84-41.84-41.84,18.73-41.84,41.84Z"/>
    </g>
    <g>
      <path class="st1" d="M745.45,281.37l27.82.04s1.45.18,6.73-.58c5-.71,27.77-7.58,30.27-8.1s.94-18.14.94-18.14c0,0-.3-1.62-2.71-2.34-1.52-.45-4.23-1.27-6.73-1.85-1.47-.34,3.8-14.08,7.5-15.11l1.69-2.54.85-6.04-1.65-3.42,1.19-3.16s.58-7.15.58-12.15-4.79-13.42-7.66-17.27c-2.41-3.23-8-10.5-21.5-17s-43.06-16.29-59-18.62c-4.17-.61-11.5-1.26-11.5-1.26,0,0-46.33-51.31-77-78.12-5.14-4.5-20.98-11.34-32.87-13.87-16.25-3.46-29.76-4.67-69.62-5.62-4.87-.12-5.37,3-5.37,3v220.97s3.87,2.74,6.37,3.21,109.12.72,109.12.72c0,0,2.61-.26,2.42-3.42-1.05-17.98,6.33-59.73,49.88-59.98,44.07-.25,51.25,38.34,50.25,60.65Z"/>
      <path class="st1" d="M787.13,197.54c-6.82-4.56-50.34-13.29-48.72-9.67,0,0,8.54,17.46,22.43,21.91s24.53,5.51,31.86,5.93l-5.57-18.17h0Z"/>
      <path class="st1" d="M800.54,231.46h-15.22s-6.67,0-13.55,5.95c-4.01,3.47-12.5,16.75-10.5,19.03s48.13,1,50.27.89"/>
      <path class="st1" d="M804.27,190.72c-2.48,0-8-.83-9.17,1.33-1.4,2.59,6.4,32.09,10.17,37.5,4,5.74,4.88,4.19,4.88,4.19"/>
      <path class="st1" d="M792.7,193.77s-15.84-5.17-33.95-7.88c0,0-8.46-4.39-19.81-6.26-12.55-2.07-21.42-3.97-27.44-7.22-4.1-2.22-12.58-11.6-12.66-17.31l14.4-1.26"/>
      <path class="st1" d="M759.61,209.58c-7.58,9.26-10.76,13.39-11.82,14.08s-3.94,2.11-7.87,2.74-5.6-.16-7.72,0-4.11,1.47-4.11,1.47"/>
      <path class="st1" d="M698.84,155.1c-5.7-2.34-9.06-6.01-10.96-7.71-1.09-.97-60.99-64.01-67.12-69.67-6.5-6-15.75-10.75-35-14.67-11.23-2.28-52.33-4.67-52.33-4.67v219.79h111.8"/>
      <path class="st1" d="M795.1,192.05c-4.08-4.17-4.45-4.67-13.62-9.25-13.45-6.73-69.39-21.86-77.33-24.75-2.23-.81-3.62-1.33-4.89-3"/>
      <path class="st1" d="M791.21,236.84c1.8.06,2.77,1.13,2.34,3.13s-3.07,8.01-3.82,9.26-2.44,2.08-4.62,2.29c-2.16.21-12.84.18-15.84-.26s-2.5-2.54-1.25-4.04,5.75-7,7-8.25,2.83-1.56,6.25-1.84c2.11-.17,9.95-.28,9.95-.28h-.01Z"/>
      <path class="st1" d="M679.77,169.47c-7-.5-49.25-5-59-7s-51-12.5-55.5-15.5-7.75-9.25-8.25-14.25-7.5-42.83-7.25-46.08,2.42-7.67,7.58-7.67c4,0,43.89,2.19,53.33,7.33,3.04,1.66,6.19,3.79,10.08,7.17,11.25,9.75,36.67,35.25,60,69.5,4.42,6.49-1,6.5-1,6.5h0Z"/>
      <line class="st1" x1="648.33" y1="255.87" x2="533.43" y2="255.87"/>
      <path class="st1" d="M614.52,255.87s1.51-4.52,3.13-8.13c10.37-23.25,25.97-55.26,75.97-54.53,39.15.57,58.76,31.33,65.42,50.19"/>
      <path class="st1" d="M796.34,224.53c-13.42-.05-22.52.96-27.89,6.64-7.6,8.05-13.3,18.33-14.47,21.56-1.72,4.73,2.02,7.61,5.62,8.88,3.6,1.27,48.25.07,51.93,0"/>
      <path class="st1" d="M619.38,84.15c-9.34-7.83-20.28-10.35-33.95-12-12.61-1.52-37.67-2.96-42.33-2.77-2,.08-3.02,1.67-3,3.33.04,2.69,2.58,102.58,4.67,113.96,1.01,5.53,2.65,11.03,3.92,15.04,1.08,3.42.8,7.59.93,10.42.2,4.41,1.74,47.16,6.64,52.78,1.37,1.57,2,1.5,4.33,1.72,2.33.21,75.3,0,75.3,0,0,0-1.19-26.95,22.79-47.21,3.29-2.78,7.23-5.36,7.42-9.84.41-9.52.67-64.19-.33-70.19s-4.49-11.67-8.33-16.38c-9.33-11.45-29.63-31.8-38.05-38.85h0Z"/>
    </g>
    <g>
      <path class="st3" d="M181.9,277.92c0,13.62,11.04,24.67,24.67,24.67s24.67-11.04,24.67-24.67-11.04-24.67-24.67-24.67-24.67,11.04-24.67,24.67Z"/>
      <circle class="st11" cx="206.57" cy="277.92" r="6.33"/>
      <circle class="st11" cx="206.57" cy="288.54" r="2.33"/>
      <path class="st11" d="M196.22,281.27c1.11-.65,2.54-.28,3.19.83.65,1.11.28,2.54-.83,3.2-1.11.65-2.54.28-3.19-.83-.65-1.11-.28-2.54.83-3.19h0Z"/>
      <path class="st11" d="M198.44,270.69c1.12.63,1.53,2.05.9,3.18-.63,1.12-2.05,1.53-3.18.9-1.12-.63-1.53-2.05-.9-3.18.63-1.12,2.05-1.53,3.18-.9Z"/>
      <path class="st11" d="M208.68,267.25c.03,1.29-1,2.35-2.29,2.38s-2.35-1-2.38-2.29,1-2.35,2.29-2.38,2.35,1,2.38,2.29Z"/>
      <path class="st11" d="M216.84,274.35c-1.1.67-2.54.33-3.21-.77-.67-1.1-.33-2.54.77-3.21,1.1-.67,2.54-.33,3.21.77.67,1.1.33,2.54-.77,3.21Z"/>
      <path class="st11" d="M214.84,284.97c-1.14-.61-1.57-2.02-.96-3.16s2.02-1.57,3.16-.96c1.14.61,1.57,2.02.96,3.16-.6,1.14-2.02,1.57-3.16.96Z"/>
      <path class="st3" d="M164.51,277.16c0,23.11,18.73,41.84,41.84,41.84s41.84-18.73,41.84-41.84-18.73-41.84-41.84-41.84-41.84,18.73-41.84,41.84Z"/>
    </g>
    <path class="st1" d="M81.56,278.14v4.6c0,1.31-3.67,5.47-6,5.56s-15.33,0-15.33,0v3.1h-8l-3-2.15s-2.49-.04-7.3,0c-3.46.03-2.97-6.29-2.97-6.29-2.76-.68-3.16-3.83-1.83-5.68,1.33-1.85,4.75-1.87,6.2.74,1.52,2.73-1.33,4.46-1.33,4.46v2.59l6.95-1.46,1.62-4.06,3-3.73v-2.58s-2.8.42-4.58.01c-3.28-.74-3.53-3.75-3.53-3.75v-12.02s0-1.96,5.1-2.31c1.67-.11,1.66-.11,5,0l1,15.42,1,4.36,4-1.01.23-11.21"/>
    <line class="st1" x1="60.44" y1="276.87" x2="60.44" y2="287.46"/>
    <path class="st1" d="M388.57,284.29l-7.49,7.71c-2.71,1.03-7.49-2.33-6.59-4.61.49-1.23,2.58-3,2.58-3"/>
    <polyline class="st1" points="106.49 280.69 104.67 284.41 96.01 284.41 96.01 279.22"/>
  </g>
</svg>