<?xml version="1.0" encoding="UTF-8"?>
<svg id="Ebene_1" xmlns="http://www.w3.org/2000/svg" version="1.1" viewBox="0 0 841.89 320">
  <!-- Generator: Adobe Illustrator 29.2.1, SVG Export Plug-In . SVG Version: 2.1.0 Build 116)  -->
  <defs>
    <style>
      .st0 {
        stroke-width: 1.5px;
      }

      .st0, .st1, .st2, .st3, .st4, .st5, .st6, .st7, .st8, .st9, .st10, .st11, .st12 {
        fill: none;
      }

      .st0, .st1, .st5, .st6, .st7 {
        stroke: #213239;
      }

      .st1 {
        stroke-width: 1.51px;
      }

      .st2, .st3, .st4, .st5, .st6, .st8, .st12 {
        stroke-linecap: round;
      }

      .st2, .st3, .st4, .st9, .st10, .st11, .st12 {
        stroke: #fff;
      }

      .st2, .st3, .st8, .st10 {
        stroke-linejoin: round;
      }

      .st2, .st9, .st10 {
        stroke-dasharray: 8 3;
      }

      .st3, .st4 {
        stroke-dasharray: 8 3.5;
      }

      .st13 {
        fill: #4493a7;
      }

      .st14 {
        fill: #213239;
      }

      .st5 {
        stroke-width: 2.84px;
      }

      .st6 {
        stroke-width: 2.98px;
      }

      .st15 {
        fill: #3eadc9;
      }

      .st7 {
        stroke-width: 3px;
      }

      .st8 {
        stroke: #7d7d7e;
        stroke-width: .51px;
      }

      .st16 {
        fill: #a1cb66;
      }

      .st17 {
        fill: #c5dea1;
      }

      .st18 {
        display: none;
      }
    </style>
  </defs>
  <g id="Ebene_7" class="st18">
    <polygon class="st16" points="80.34 174.38 80.19 175.58 88.85 175.58 88.83 175 88.85 174.38 80.34 174.38"/>
    <rect class="st16" x="195.07" y="174.38" width="101.76" height="1.2"/>
    <rect class="st16" x="90.19" y="174.38" width="102.68" height="1.2"/>
    <rect class="st17" x="403.04" y="174.38" width="84.27" height="1.2"/>
    <rect class="st13" x="299.03" y="174.38" width="101.8" height="1.2"/>
    <path class="st3" d="M701.79,308.8c-3.99-1.46-11.73-3.21-17.24-3.71s-71.25-6.89-88-10.32-58.25-14.94-63.5-17.03-12.75-4.65-15.25-15.4-6.75-49.75-6.75-54.5,2.75-9.57,7.5-9.57c6.5,0,48.95,4.06,57.07,7.32,14.77,5.92,71.67,70.37,74.58,82.36.32,1.32.79,4.22-5.65,3.64"/>
  </g>
  <g id="Ebene_4" class="st18">
    <rect class="st14" width="841.89" height="595.28"/>
  </g>
  <g id="Ebene_2" class="st18">
    <polygon class="st17" points="488.19 406.02 402.54 405.72 402.44 164.38 344.84 158.47 344.84 123.97 475.07 152.7 482.2 160.02 488.05 171.72 488.19 406.02"/>
    <path class="st16" d="M192.06,125.06l-100.04.18-8.05,31.18-4.37,19.39-.19,170.53,29.43,51.59,84.07,7.2,5.61-.15s-3.34-50.35,46.63-53.39c50.9,3.68,46.09,53.5,46.09,53.5l5.54-.23.69-245.49v-.62l.8-35.02-106.22,1.33h.01Z"/>
    <polygon class="st13" points="402.44 164.38 345.52 158.51 344.84 158.51 344.84 123.97 298.27 123.73 297.47 158.75 296.78 404.86 402.54 405.72 402.44 164.38"/>
  </g>
  <g id="Kontur_blau" class="st18">
    <path class="st14" d="M487.84,406.52h-85.31c-.27,0-.5-.22-.5-.49h-.02l-.1-.1s-.08.07-.1.09l-.02.02c0,.27-.23.49-.5.49h-102.8c-.27,0-.5-.22-.5-.49h-.02s-.09-.09-.12-.11l-.05-.05s-.02.02-.03.03l-.12.12s-.12.09-.19.12c0,0-.12.04-.13.04,0,0-.07.02-.1.03-.02,0-.05.01-.07.01h-4.6c-.26,0-.48-.2-.5-.46-.11-.09-.18-.23-.18-.39l-.16-4.36h0l-.2-5.47-.28-2.73-.18-1.38-.51-2.71-.67-2.68-.4-1.33-.93-2.59-1.07-2.56-1.21-2.48-1.38-2.39-1.51-2.3-1.65-2.22-1.78-2.1-.95-1.01s-.03-.04-.04-.05c-.04-.03-.09-.08-.1-.1l-1.37-1.39-.76-.7-.02-.02-.02-.02h0s-.05-.06-.06-.09h0s0,0,0,0h0c-.03-.06-.05-.13-.06-.2h0c0-.07,0-.14.03-.21h0c.02-.06.06-.12.11-.17l.13-.13h-.42c-.09,0-.18-.03-.25-.07h-.1s-.1-.01-.15-.03h0s-.08-.04-.12-.07h0l-2.14-1.7-2.2-1.59-2.28-1.42-2.38-1.31-2.43-1.15-1.25-.54-2.54-.93-1.29-.42-2.62-.69-2.64-.55-2.68-.4-2.7-.24-2.7-.08-2.72.08-2.7.24-2.66.4-2.66.56-2.62.7-2.55.87-1.28.48-2.45,1.09-1.23.6-2.35,1.31-1.18.7-2.23,1.5-2.16,1.65-1.03.85c-.12.1-.28.13-.42.11-.02,0-.03.02-.05.03-.06.03-.14.04-.2.04h0l-.5.04.15.16s0,.01.02.02c.08.1.12.22.12.35,0,.09-.03.18-.09.26h0s-.04.05-.06.07h0s0,.01-.02.01l-1.97,1.89h0l-.21.23s-.05.06-.08.08l-1.87,2.07-1.7,2.16-1.59,2.26-1.45,2.36-.67,1.21-1.21,2.48-1.07,2.54-.5,1.31-.83,2.61-.67,2.69-.52,2.7-.34,2.75-.12,1.37-.06,1.38h0l-.14,4.06h0s-.06,1.31-.06,1.31v.4l-.04.79v.31l-.02.33v.27l-.02.28v.36l-.02.21v.11c0,.16-.07.29-.18.39-.02.25-.24.45-.5.45h-4.6s-.04,0-.06-.01c-.03,0-.1-.02-.11-.03-.02,0-.1-.04-.12-.05-.05-.02-.17-.1-.21-.13l.1-.12s0-.03,0-.04c-.02,0-.04-.01-.06-.02l-.12.09s0-.01-.02-.02c-.03.03-.09.09-.11.1,0,0-.04.02-.06.04-.04.26-.28.44-.54.42l-83.64-7.31c-.08,0-.17-.02-.23-.05l-.12-.06s-.13-.07-.17-.11c-.04-.04-.13-.14-.15-.19v-.02l-19.47-33.73s-.01-.03-.02-.04c-.02-.05-.07-.15-.08-.19l-.02-.1c-.01-.06-.01-.13,0-.2l.09-.29c.02-.06.06-.12.11-.17,0,0,.02-.02.04-.03v-.04h-.28c-.08,0-.16-.02-.22-.06l-.11-.06c-.07-.03-.14-.09-.2-.16-.04-.03-.07-.06-.1-.09-.02-.02-.04-.05-.05-.08l-9.26-16.05s-.03-.05-.04-.08l-.16-.37s-.03-.08-.03-.12l-.06-.37v-170.5h0s.08-1.11.08-1.11l.21-1.12s0-.04.01-.05l3.62-14.54s.02-.07.03-.1c0,0,0,0,.01-.02l.05-.11s.06-.09.09-.13l.05-.05-.04-.08c-.03-.07-.05-.15-.05-.22v-.12s-.02-.09-.02-.14c0-.04,0-.08.02-.12l.68-2.66h-.17c-.09,0-.18,0-.27-.05-.05-.02-.17-.09-.21-.13-.03-.02-.06-.04-.08-.06l.02-.02c-.1-.02-.19-.06-.26-.13-.17-.07-.3-.23-.32-.42l-.04-.03s-.08-.07-.11-.12c-.06-.06-.15-.19-.17-.28-.01-.04-.04-.16-.04-.2v-.19h0s0-.06.01-.08l.34-1.34c0-.08.02-.16.06-.23,0,0,0,0,.01-.02.09-.21.33-.33.56-.28l.28.06c.27.06.44.32.39.59,0,.02-.01.04-.02.06,0,.04,0,.07-.02.09h-.02s-.04.05-.06.07h.48c.11,0,.23.02.32.08l3.55-13.85h-.74c-.08,0-.23-.02-.3-.05-.02,0-.12-.06-.13-.07-.03-.02-.11-.08-.14-.1-.04-.04-.13-.14-.15-.19l-.08-.16c-.03-.07-.05-.15-.05-.22v-.24s0-.04.01-.06l.25-1.02s.02-.1.03-.11c0,0,.01-.04.03-.08,0-.03,0-.06.02-.09.08-.27.35-.42.62-.34l.28.08c.22.06.37.27.36.49v.03c0,.08-.02.15-.05.22l-.16.64h.54l.39-1.52s.01-.05.02-.07c0,0,.01-.02.02-.04l.52-2.11v-.02l1.9-7.59h0l.66-2.63s.02-.06.03-.09.03-.06.05-.09l.07-.11s.08-.09.1-.12c.04-.04.08-.07.13-.09.08-.05.2-.1.3-.11.05-.01.09-.02.14-.02h100.69s.05,0,.08.02l.15.04c.06.01.11.04.16.07l.12.08s.04.03.05.04c.02-.02.03-.03.05-.04l.12-.08s.1-.06.16-.07h0c.05-.02.11-.04.17-.05h102.9s.05,0,.08.02c.03,0,.09.02.1.03.04.01.14.05.18.08l.12.08s.04.03.06.05c.02-.02.05-.04.06-.05l.12-.08s.08-.04.12-.06c.01,0,.08-.03.1-.03h.04s.1-.03.16-.03h45.94c.09,0,.18.03.25.07h0c.06,0,.11.02.16.05l.12.08s.04.03.06.05c.05-.04.1-.09.14-.1.03-.02.15-.07.18-.08l.16-.04c.08-.02.16-.02.24,0,.01,0,.03,0,.04.01h.04l129.07,28.37s.08.02.11.04c0,0,.02,0,.03,0,.01,0,.03,0,.04.02.06.02.12.06.17.1h0s.01,0,.02,0c.03.02.05.04.07.06l7.16,6.54h.01c.06.04.12.09.15.15h0s0,.02.01.02c.03.04.06.08.07.1v.02s.01.02.01.03l3.44,7.19h0l.71,1.5v.02s.02.04.04.06h0s1.48,3.08,1.48,3.08c0,0,.01.03.02.04,0,.02.01.04.02.06l.04.13s.02.09.02.14v.12c0,.08-.02.16-.05.23l-.05.11.06.07c.06.07.09.16.11.25v.03s.02.09.02.14v191.39c0,.11-.04.21-.09.29-.02.04-.04.08-.05.1l-.07.09v.33s0,.01.01.02l.08.1c.06.07.09.16.11.25l.02.13v40.92c0,.06-.01.13-.02.16-.01.04-.05.15-.08.18-.02.03-.08.11-.1.13s-.09.08-.11.1l-.02.02c0,.27-.23.49-.5.49h-.03ZM195.21,405.28h3.55v-.26l.02-.3v-.26l.02-.37v-.33l.06-1.26v-.42l.02-.44h-3.67v3.65h0ZM293.06,405.22l3.55-.02v-3.63h-3.67l.12,3.65h0ZM180.34,404.06l12.51,1.1.02-3.67-79.4-6.96.42,1.25.11.55c.03.06.04.13.04.2l.04.71v.02l-.07.56-.16.42,6.44.56h.24s.04.02.06.02h.17s.03.02.05.02l55.9,4.9h0l.68.06,2.08.18h.06c.05,0,.12,0,.17.02l.46.04s.08,0,.11.01h.07ZM403.2,405.06h84.01v-3.65h-84.01v3.65ZM299.03,405.06h101.8v-3.65h-101.8v3.65h0ZM195.21,400.63h3.71l.12-3.52v-.2s0-.04,0-.07l.17-2.56.36-2.82.53-2.79.69-2.75.85-2.71,1.01-2.65,1.19-2.57,1.31-2.51,1.48-2.43,1.64-2.33.85-1.13,2.04-2.39h-15.96v33.44h0ZM292.91,400.57h3.71v-33.44h-15.96l1.12,1.28.91,1.09,1.68,2.29,1.56,2.37.73,1.24,1.32,2.51.61,1.27,1.11,2.63.49,1.32.85,2.71.69,2.75.53,2.79.36,2.81.17,2.6s.01.08.01.12v.11h0s.12,3.53.12,3.53v.02ZM113.24,393.51l79.66,6.98.02-33.37-92.68-.08,13,26.47h0ZM403.2,400.41h84.01v-33.28h-84.01v33.28ZM299.03,400.41h101.8v-52.71h-7.07v43.34c0,.15-.07.29-.18.38l-.07.6-.26.97-.19.44v1.85c0,.28-.22.5-.5.5h-1.5l-.83.47-.94.35-.98.18-.53.02h-.15c-.09.1-.22.16-.37.16h-74.67c-.15,0-.28-.06-.37-.16h-.18l-.97-.08-.97-.26-.48-.19-.95-.49c-.27,0-.49-.21-.5-.48l-.55-.54-.31-.4-.5-.87-.36-.95-.19-1.13c-.11-.09-.18-.23-.18-.38v-43.34h-7.07v52.71h.02ZM112.27,397.77l.24-.02s.04-.03.06-.04l.03-.03.15-.24.06-.3v-.23l-.02-.55-.25-.99-.45-1.03s-.02-.04-.02-.05c-.02-.05-.03-.11-.03-.16v-.07l-13.25-26.93-5.65-.41,17.38,30.43c.05.06.09.12.11.19l.17.29,1.46.13h.01ZM387.17,394.28h.61l.62-.06.54-.15.49-.25.48-.33.38-.4.31-.44.24-.51.17-.68c-.09-.09-.14-.21-.14-.35v-43.44h-81.68v44.88l.07.13.37.48.41.38.46.31.5.21.54.13.52.04h.62c.09-.11.23-.18.38-.18h73.73c.15,0,.29.07.38.18v.05ZM91.43,365.6l.32.56v-.09c.01-.07.04-.13.07-.18,0,0,.01-.02.02-.02h0l-.43-.25.02-.02ZM195.21,365.67h17.38l.82-.8h-18.2v.8h0ZM279.23,365.61h17.38v-.8h-18.2l.81.8h.01ZM92.85,365.21l98.75.08.49-.5h-99.96l.72.42h0ZM89.4,362.77h7.28l-7.44-15.03h-8.52l8.68,15.03ZM403.04,362.67h84.27v-14.97h-84.27v14.97ZM276.24,362.67h20.6v-14.97h-101.76v14.97h20.6l2.01-1.6,2.25-1.6,2.33-1.44,1.21-.69,2.45-1.24,2.53-1.11,2.6-.93,2.63-.81,2.7-.63,2.71-.49,2.73-.32,2.75-.16,1.38-.02,2.75.08,2.73.24,2.73.41,2.69.57,1.33.32,2.66.81,2.57.93,2.53,1.11,2.47,1.23,3.54,2.12,2.25,1.6,2.01,1.61h.02ZM98.06,362.67h94.82v-14.97h-102.2l1.76,3.57s.07.11.08.17l.86,1.75s.03.06.04.09l.22.45s.05.09.07.14l3.23,6.55s.03.06.05.09l1.06,2.16h0ZM393.76,346.7h7.07v-166.35h-12.28l.71.13.93.32.88.5.27.21h1.22c.28,0,.5.22.5.5v1.68l.31.83.19,1.12c.12.09.19.23.19.4v160.66h.01ZM299.03,346.7h7.07v-160.66c0-.15.07-.29.18-.38v-.1l.2-.99.35-.95.5-.85.3-.41.72-.71s.05-.04.07-.06l.33-.25.87-.5.95-.34.74-.15h-12.27v166.35h-.01ZM403.04,345.96h84.27v-169.38h-84.27v169.38ZM309.19,345.96h81.68v-160c0-.14.06-.26.14-.35l-.07-.37-.26-.65-.4-.63-.51-.46-.63-.39-.68-.22-.68-.08h-.61c-.09.11-.23.18-.38.18h-73.73c-.15,0-.29-.07-.38-.18l-.99.04-.4.06-.68.23-.59.38-.5.49-.33.5v161.44h0ZM195.07,345.96h101.76v-169.38h-101.76v169.38ZM90.19,345.96h102.68v-169.38h-102.68s0,169.38,0,169.38ZM80.15,345.96h8.72v-169.38h-8.72v169.38ZM299.07,179.09h101.78l-.1-.1h-101.57l-.11.1ZM299.03,176.58v1.41h101.8v-1.41h-101.8,0ZM403.04,175.58h84.27v-1.2h-84.27v1.2ZM299.03,175.58h101.8v-1.2h-101.8v1.2h0ZM195.07,175.58h101.76v-1.2h-101.76v1.2ZM90.19,175.58h102.68v-1.2h-102.68s0,1.2,0,1.2ZM80.19,175.58h8.66l-.02-.58.02-.62h-8.52l-.15,1.2h.01ZM403.04,173.38h84.27v-1.21l-84.27-7.37v8.57h0ZM299.03,173.38h101.8v-8.76l-55.2-4.83s-.11.04-.17.04h0s-.09,0-.13,0l-.09-.02s-.08-.02-.11-.03c-.01,0-.02,0-.03-.02h-46.06v13.63h-.01ZM195.07,173.38h101.76v-13.63h-101.76v13.63ZM90.19,173.38h102.68v-13.63h-102.68s0,13.63,0,13.63ZM80.55,173.38h8.34l-.02-13.55h-4.92l-3.4,13.55ZM346.2,157.85l140.85,12.33-1.04-2.14-19.25-4.6s-.06,0-.09-.02c-.02,0-.03,0-.05-.02l-.57-.14-1.1-.43-118.75-28.39v23.41ZM466.97,162.31l18.5,4.4-.18-.36-10.72-2.55h0l-9.54-2.27.32.2,1.21.47.41.11h0ZM474.8,162.83l9.94,2.36-2.86-5.96-17.97.31-.02.02-.07.16.08.51,10.89,2.6h0ZM346.2,133.41l116.83,27.93-.25-.47s-.01-.02-.02-.03l-.12-.3-.13-.65v-.29h0v-.05l.02-.21c0-.06.02-.12.05-.18l.08-.15-116.41-27.83-.04,2.22h0ZM346.26,130.17l117.74,28.14,16.75-.22-6.14-5.61-128.35-28.23v5.92h0ZM84.32,157.78l4.59.05v-17.94s-4.59,17.89-4.59,17.89ZM299.03,157.79h44.94v-23.78h-44.94v23.78ZM195.07,157.79h101.76v-23.78h-101.76v23.78ZM90.23,157.79h102.64v-23.78h-79.69l-.23.4s-.03.06-.05.08l-.05.07c-.03.08-.08.15-.14.21l-.08.11-.67.68-.8.52-.52.23s-.03,0-.04.02l-.83.25-.98.1h-18.56v21.12h0ZM108.18,135.53l1.5-.02.6-.14h.01l.4-.18.48-.31h-20.77l-.16.64h17.94ZM90.67,133.89l21.46-.04.31-.82.06-.47-.15-.77-.2-.34-.5-.38-19.28-3.99-1.7,6.81ZM299.03,133.01h44.94v-2.13h-44.94v2.13ZM195.07,133.01h101.76v-2.13h-101.76v2.13ZM113.5,133.01h79.37v-2.13h-79.62l.08.16.17.54s.02.07.02.1l.03.4c.02.05.03.11.03.17v.03h0v.04l-.09.69h.01ZM299.03,129.88h44.94v-5.77h-44.94v5.77ZM195.07,129.88h101.76v-5.77h-101.76v5.77ZM112.08,129.88h80.79v-5.77h-99.73l-.37,1.77,19.31,4h0Z"/>
  </g>
  <g id="Fläche_mit_Kontur" class="st18">
    <line class="st8" x1="471.07" y1="354.02" x2="471.07" y2="354.02"/>
    <g>
      <polygon class="st16" points="79.55 173.38 87.89 173.38 87.87 159.83 82.95 159.83 79.55 173.38"/>
      <polygon class="st16" points="87.91 139.89 83.32 157.78 87.91 157.83 87.91 139.89"/>
      <polygon class="st16" points="88.24 347.74 79.72 347.74 88.4 362.77 95.68 362.77 88.24 347.74"/>
      <rect class="st16" x="79.15" y="176.58" width="8.72" height="169.38"/>
      <path class="st16" d="M248.71,351.71l2.73.24,2.73.41,2.69.57,1.33.32,2.66.81,2.57.93,2.53,1.11,2.47,1.23,3.54,2.12,2.25,1.6,2.01,1.61h20.6v-14.97h-101.76v14.97h19.93c4.56-3.93,10.37-7.17,17.78-9.14l.9-.28,2.7-.63,2.71-.49,2.73-.32,1.86-.11c.48-.04.96-.08,1.46-.11.17.01.32.03.49.04h.32l2.75.08h.02Z"/>
      <rect class="st16" x="195.07" y="130.88" width="101.76" height="2.13"/>
      <rect class="st16" x="195.07" y="124.89" width="101.76" height="4"/>
      <rect class="st16" x="195.07" y="159.75" width="101.76" height="13.63"/>
      <rect class="st16" x="195.07" y="176.58" width="101.76" height="169.38"/>
      <rect class="st16" x="195.07" y="135.01" width="101.76" height="22.78"/>
      <path class="st16" d="M195.21,367.19v32.44h3.31c.12-2.76.47-5.63,1.41-10.01l.18-.95.69-2.75.85-2.71.29-.76c1.79-5.13,4.5-10.48,8.56-15.26h-15.29Z"/>
      <path class="st16" d="M179.55,403.98s.12,0,.17.02l.46.04h0l12.66,1.08.02-3.63-78.54-6.97,1.9,3.79,4.08.48h.24s.04.02.06.02h.17s.03.02.05.02l55.9,4.9h0l.68.06.55.05,1.56.13h.04Z"/>
      <path class="st16" d="M286.64,375.4l1.32,2.51.61,1.27,1.11,2.63.49,1.32.85,2.71.69,2.75.53,2.79.36,2.81.17,2.6s.01.08.01.12v.11h0s.12,2.53.12,2.53h3.71v-32.44h-15.96l1.12,1.28.91,1.09,1.68,2.29,1.56,2.37.73,1.24v.02Z"/>
      <polygon class="st16" points="296.61 401.57 292.94 401.57 292.94 404.81 296.61 404.87 296.61 401.57"/>
      <polygon class="st16" points="195.21 401.63 195.21 405.12 198.52 405.12 198.49 401.63 195.21 401.63"/>
      <rect class="st16" x="90.19" y="176.58" width="102.68" height="169.38"/>
      <path class="st16" d="M92.52,351.43l.86,1.75s.03.06.04.09l.22.45s.05.09.07.14l3.23,6.55s.03.06.05.09l1.06,2.16h94.82v-14.97h-102.2l1.76,3.57s.07.11.08.17h0Z"/>
      <rect class="st16" x="90.19" y="159.75" width="102.68" height="13.63"/>
      <polygon class="st16" points="192.95 399.49 192.97 367.12 100.29 367.04 113.3 392.51 192.95 399.49"/>
      <polygon class="st16" points="91.29 367.04 98.11 367.08 114.04 398.2 112.39 398.08 91.29 367.04"/>
      <polygon class="st16" points="192.92 124.86 93.29 124.92 92.72 125.87 110.9 128.83 192.92 128.83 192.92 124.86"/>
      <path class="st16" d="M90.19,157.7h102.68v-22.68l-79.68-.15s-.62,2.32-2.6,2.61-20.4.24-20.4.24c0,0,0,19.98,0,19.98Z"/>
      <path class="st16" d="M92.31,128.06s17.58,3.63,18.15,3.78c.79.2.95.69.9,2.12s-3.18,1.47-3.18,1.47l-17.96.02,2.1-7.39h-.01Z"/>
      <path class="st16" d="M113.58,133.01l79.29-.02v-2.11h-79.79s.46.42.49,1.08,0,1.05,0,1.05h.01Z"/>
    </g>
    <rect class="st17" x="182.99" y="-97.65" width="35.33" height="35.33"/>
    <rect class="st14" x="343.11" y="-79.99" width="35.33" height="35.33"/>
    <rect class="st16" x="268.21" y="-89.22" width="35.33" height="35.33"/>
    <rect class="st15" x="403.43" y="-79.99" width="35.33" height="35.33"/>
    <g>
      <rect class="st17" x="403.04" y="347.7" width="84.27" height="14.97"/>
      <rect class="st17" x="403.2" y="401.41" width="84.01" height="3.65"/>
      <rect class="st17" x="403.2" y="367.13" width="84.01" height="32.28"/>
      <polygon class="st17" points="487.3 172.17 403.04 164.81 403.04 173.38 487.3 173.38 487.3 172.17"/>
      <rect class="st17" x="403.04" y="176.58" width="84.27" height="169.38"/>
      <polygon class="st17" points="346.26 124.89 346.26 128.88 463.96 157.31 480.28 157.1 474.52 152.49 346.26 124.89"/>
      <path class="st17" d="M472.46,163.6l12.86,3.06.4.08-4.47-7.5-17.32.15s-.56,1.07.3,2.13c.12.15,8.22,2.09,8.22,2.09h.01Z"/>
      <path class="st17" d="M461.49,159.09s.01-.03.02-.04l-115.25-27.86v2.24l115.46,27.89s-.25-.36-.36-1.03.13-1.2.13-1.2h0Z"/>
      <polygon class="st17" points="346.2 157.87 487.3 170.22 486.56 168.91 346.2 135.51 346.2 157.87"/>
    </g>
    <g>
      <path class="st13" d="M400.73,176.58h-101.8v222.99h101.8v-222.99h0ZM393.73,393.18c0,2.49-2.03,4.52-4.52,4.52h-78.54c-2.49,0-4.52-2.03-4.52-4.52v-207.93c0-2.49,2.03-4.52,4.52-4.52h78.54c2.49,0,4.52,2.03,4.52,4.52v207.93Z"/>
      <path class="st13" d="M345.64,159.79s-.11.04-.17.04h0s-.09,0-.13,0l-.09-.02s-.08-.02-.11-.03c-.01,0-.02,0-.03-.02h-46.06v13.63h101.8v-8.76l-55.2-4.83h-.01Z"/>
      <rect class="st13" x="299.03" y="135.01" width="44.94" height="22.78"/>
      <rect class="st13" x="299.03" y="130.88" width="44.94" height="2.13"/>
      <rect class="st13" x="299.03" y="124.89" width="44.94" height="4"/>
      <polygon class="st13" points="299.03 404.88 321.38 405.06 400.83 405.06 400.83 401.41 299.03 401.41 299.03 404.88"/>
      <path class="st13" d="M322.11,301.24c0,1.61,1.31,2.92,2.92,2.92h8.95c1.61,0,2.92-1.31,2.92-2.92v-1.78h-14.79v1.78h0Z"/>
      <path class="st13" d="M337.9,301.24c0,2.16-1.76,3.92-3.92,3.92h-8.95c-2.16,0-3.92-1.76-3.92-3.92v-1.78h-2.99v3.81c0,1.61,1.31,2.92,2.92,2.92h16.92c1.61,0,2.92-1.31,2.92-2.92v-3.81h-2.99v1.78h0Z"/>
      <path class="st13" d="M336.9,296.69c0-1.61-1.31-2.92-2.92-2.92h-8.95c-1.61,0-2.92,1.31-2.92,2.92v1.78h14.79v-1.78h0Z"/>
      <path class="st13" d="M337.97,291.73h-16.92c-1.61,0-2.92,1.31-2.92,2.92v3.81h2.99v-1.78c0-2.16,1.76-3.92,3.92-3.92h8.95c2.16,0,3.92,1.76,3.92,3.92v1.78h2.99v-3.81c0-1.61-1.31-2.92-2.92-2.92h0Z"/>
      <path class="st13" d="M326.16,201.97h26.42c4.71,0,8.53,3.82,8.53,8.53v43.87c0,4.71-3.82,8.53-8.53,8.53h-26.42c-4.71,0-8.53-3.82-8.53-8.53v-43.87c0-4.71,3.82-8.53,8.53-8.53Z"/>
      <path class="st13" d="M389.21,183.49h-78.54c-.97,0-1.76.79-1.76,1.76v207.93c0,.97.79,1.76,1.76,1.76h78.54c.97,0,1.76-.79,1.76-1.76v-207.93c0-.97-.79-1.76-1.76-1.76ZM341.89,303.28c0,2.16-1.76,3.92-3.92,3.92h-16.92c-2.16,0-3.92-1.76-3.92-3.92v-8.62c0-2.16,1.76-3.92,3.92-3.92h16.92c2.16,0,3.92,1.76,3.92,3.92v8.62ZM362.09,254.36c0,5.25-4.27,9.52-9.52,9.52h-26.42c-5.25,0-9.52-4.27-9.52-9.52v-43.87c0-5.25,4.27-9.52,9.52-9.52h26.42c5.25,0,9.52,4.27,9.52,9.52v43.87Z"/>
    </g>
  </g>
  <g id="Ebene_2_Kopie">
    <polygon class="st17" points="487.36 283.03 402.52 283.03 402.42 42.34 344.82 36.43 345.05 3.03 475.05 30.66 482.18 37.98 487.29 49.15 487.36 283.03"/>
    <path class="st16" d="M192.12,3.11h-98.81l-9.28,31.36-4.37,19.39-.02,170.8,32.82,51.47,80.5,6.9h5.62s-3.43-50.66,46.53-53.7c50.61.27,47.87,53.87,47.87,53.87l4.92-.02V3.11h-105.79.01Z"/>
    <polygon class="st13" points="402.42 42.34 344.82 36.43 345.05 2.94 297.84 2.94 297.85 283.01 402.52 283.03 402.42 42.34"/>
  </g>
  <g id="Kontur">
    <path class="st0" d="M92.84,5.08l18.53,2.69s1.61,1.93,1.16,4.13-2.82,2.72-2.82,2.72h-19.52"/>
    <polyline class="st0" points="462.65 36.16 345.1 7.76 111.36 7.76"/>
    <polyline class="st0" points="486.55 45.89 345.1 12.02 299.03 12.53 112.49 12.02"/>
    <polyline class="st0" points="88.98 18.13 88.98 224.7 117.19 276.45"/>
    <polyline class="st0" points="114.4 271.53 194.98 278.45 198.52 278.45"/>
    <line class="st0" x1="193.98" y1="283.29" x2="193.98" y2="2.77"/>
    <line class="st6" x1="211.74" y1="242.92" x2="91.91" y2="242.92"/>
    <line class="st0" x1="79.1" y1="224.8" x2="297.85" y2="224.8"/>
    <line class="st5" x1="280.68" y1="242.92" x2="297.08" y2="242.92"/>
    <polyline class="st0" points="83.32 36.7 345.17 36.7 487.3 49.07"/>
    <line class="st7" x1="487.3" y1="53.16" x2="79.15" y2="53.16"/>
    <line class="st7" x1="401.84" y1="242.92" x2="487.21" y2="242.92"/>
    <line class="st1" x1="487.37" y1="224.8" x2="401.8" y2="224.8"/>
    <line class="st0" x1="292.99" y1="278.44" x2="487.37" y2="278.44"/>
    <line class="st0" x1="297.85" y1="282.75" x2="297.85" y2="2.77"/>
    <line class="st0" x1="345.1" y1="2.47" x2="345.1" y2="36.4"/>
    <line class="st0" x1="401.84" y1="41.63" x2="401.84" y2="282.94"/>
    <path class="st0" d="M480.76,36.04l-18.11.12s-.93,2.55,1.05,4.3"/>
    <path class="st0" d="M93.29,2.8l-14.13,50.36-.05,171.64,33.29,51.15,81.59,7.05h4.53s0-53.86,47.71-53.86,46.72,53.79,46.72,53.79h194.43V47.29l-6.61-11.25-6.24-5.67L345.11,2.76l-251.16.03h-.66,0Z"/>
    <rect class="st7" x="307.79" y="60.23" width="84.1" height="213.8" rx="4.25" ry="4.25"/>
    <rect class="st0" x="317.12" y="79.85" width="44.46" height="60.92" rx="8.13" ry="8.13"/>
    <rect class="st0" x="317.12" y="168.61" width="24.77" height="16.47" rx="4.6" ry="4.6"/>
    <rect class="st0" x="321.6" y="171.24" width="15.66" height="11.34" rx="3.82" ry="3.82"/>
    <line class="st0" x1="317.58" y1="176.85" x2="341.24" y2="176.85"/>
  </g>
  <g id="Kontur_weiss">
    <g>
      <path class="st4" d="M636.15,277.92c0,13.62,11.04,24.67,24.67,24.67s24.67-11.04,24.67-24.67-11.04-24.67-24.67-24.67-24.67,11.04-24.67,24.67Z"/>
      <circle class="st12" cx="660.82" cy="277.92" r="6.33"/>
      <circle class="st12" cx="660.82" cy="288.54" r="2.33"/>
      <path class="st12" d="M650.48,281.27c1.11-.65,2.54-.28,3.19.83s.28,2.54-.83,3.2c-1.11.65-2.54.28-3.19-.83s-.28-2.54.83-3.19h0Z"/>
      <path class="st12" d="M652.69,270.69c1.12.63,1.53,2.05.9,3.18-.63,1.12-2.05,1.53-3.18.9-1.12-.63-1.53-2.05-.9-3.18.63-1.12,2.05-1.53,3.18-.9Z"/>
      <path class="st12" d="M662.94,267.25c.03,1.29-1,2.35-2.29,2.38s-2.35-1-2.38-2.29,1-2.35,2.29-2.38,2.35,1,2.38,2.29Z"/>
      <path class="st12" d="M671.09,274.35c-1.1.67-2.54.33-3.21-.77-.67-1.1-.33-2.54.77-3.21,1.1-.67,2.54-.33,3.21.77.67,1.1.33,2.54-.77,3.21Z"/>
      <path class="st12" d="M669.09,284.97c-1.14-.61-1.57-2.02-.96-3.16s2.02-1.57,3.16-.96c1.14.61,1.57,2.02.96,3.16-.6,1.14-2.02,1.57-3.16.96Z"/>
      <path class="st4" d="M618.76,277.16c0,23.11,18.73,41.84,41.84,41.84s41.84-18.73,41.84-41.84-18.73-41.84-41.84-41.84-41.84,18.73-41.84,41.84Z"/>
    </g>
    <g>
      <path class="st4" d="M221.56,277.92c0,13.62,11.04,24.67,24.67,24.67s24.67-11.04,24.67-24.67-11.04-24.67-24.67-24.67-24.67,11.04-24.67,24.67Z"/>
      <circle class="st12" cx="246.22" cy="277.92" r="6.33"/>
      <circle class="st12" cx="246.22" cy="288.54" r="2.33"/>
      <path class="st12" d="M235.88,281.27c1.11-.65,2.54-.28,3.19.83.65,1.11.28,2.54-.83,3.2-1.11.65-2.54.28-3.19-.83-.65-1.11-.28-2.54.83-3.19h0Z"/>
      <path class="st12" d="M238.09,270.69c1.12.63,1.53,2.05.9,3.18-.63,1.12-2.05,1.53-3.18.9-1.12-.63-1.53-2.05-.9-3.18.63-1.12,2.05-1.53,3.18-.9Z"/>
      <path class="st12" d="M248.34,267.25c.03,1.29-1,2.35-2.29,2.38s-2.35-1-2.38-2.29,1-2.35,2.29-2.38,2.35,1,2.38,2.29Z"/>
      <path class="st12" d="M256.49,274.35c-1.1.67-2.54.33-3.21-.77-.67-1.1-.33-2.54.77-3.21,1.1-.67,2.54-.33,3.21.77.67,1.1.33,2.54-.77,3.21Z"/>
      <path class="st12" d="M254.5,284.97c-1.14-.61-1.57-2.02-.96-3.16s2.02-1.57,3.16-.96c1.14.61,1.57,2.02.96,3.16-.6,1.14-2.02,1.57-3.16.96h0Z"/>
      <path class="st4" d="M204.16,277.16c0,23.11,18.73,41.84,41.84,41.84s41.84-18.73,41.84-41.84-18.73-41.84-41.84-41.84-41.84,18.73-41.84,41.84Z"/>
    </g>
    <path class="st3" d="M121.22,278.14v4.6c0,1.31-3.67,5.47-6,5.56s-15.33,0-15.33,0v3.1h-8l-3-2.15s-2.49-.04-7.3,0c-3.46.03-2.97-6.29-2.97-6.29-2.76-.68-3.16-3.83-1.83-5.68s4.75-1.87,6.2.74c1.52,2.73-1.33,4.46-1.33,4.46v2.59l6.95-1.46,1.62-4.06,3-3.73v-2.58s-2.8.42-4.58.01c-3.28-.74-3.53-3.75-3.53-3.75v-12.02s0-1.96,5.1-2.31c1.67-.11,1.66-.11,5,0l1,15.42,1,4.36,4-1.01.23-11.21"/>
    <line class="st3" x1="100.1" y1="276.87" x2="100.1" y2="287.46"/>
    <path class="st3" d="M353.36,284.29l-7.49,7.71c-2.71,1.03-7.49-2.33-6.59-4.61.49-1.23,2.58-3,2.58-3"/>
    <polyline class="st3" points="146.15 280.69 144.32 284.41 135.67 284.41 135.67 279.22"/>
    <g>
      <path class="st3" d="M710.24,281.37l27.82.04s1.45.18,6.73-.58c5-.71,27.77-7.58,30.27-8.1s.94-18.14.94-18.14c0,0-.3-1.62-2.71-2.34-1.52-.45-4.23-1.27-6.73-1.85-1.47-.34,3.8-14.08,7.5-15.11l1.69-2.54.85-6.04-1.65-3.42,1.19-3.16s.58-7.15.58-12.15-4.79-13.42-7.66-17.27c-2.41-3.23-8-10.5-21.5-17s-43.06-16.29-59-18.62c-4.17-.61-11.5-1.26-11.5-1.26,0,0-46.33-51.31-77-78.12-5.14-4.5-20.98-11.34-32.87-13.87-16.25-3.46-29.76-4.67-69.62-5.62-4.87-.12-5.37,3-5.37,3v220.97s3.87,2.74,6.37,3.21,109.12.72,109.12.72c0,0,2.61-.26,2.42-3.42-1.05-17.98,6.33-59.73,49.88-59.98,44.07-.25,51.25,38.34,50.25,60.65Z"/>
      <path class="st3" d="M751.91,197.54c-6.82-4.56-50.34-13.29-48.72-9.67,0,0,8.54,17.46,22.43,21.91s24.53,5.51,31.86,5.93l-5.57-18.17h0Z"/>
      <path class="st3" d="M765.32,231.46h-15.22s-6.67,0-13.55,5.95c-4.01,3.47-12.5,16.75-10.5,19.03s48.13,1,50.27.89"/>
      <path class="st3" d="M769.05,190.72c-2.48,0-8-.83-9.17,1.33-1.4,2.59,6.4,32.09,10.17,37.5,4,5.74,4.88,4.19,4.88,4.19"/>
      <path class="st3" d="M757.49,193.77s-15.84-5.17-33.95-7.88c0,0-8.46-4.39-19.81-6.26-12.55-2.07-21.42-3.97-27.44-7.22-4.1-2.22-12.58-11.6-12.66-17.31l14.4-1.26"/>
      <path class="st3" d="M724.4,209.58c-7.58,9.26-10.76,13.39-11.82,14.08s-3.94,2.11-7.87,2.74-5.6-.16-7.72,0-4.11,1.47-4.11,1.47"/>
      <path class="st3" d="M663.63,155.1c-5.7-2.34-9.06-6.01-10.96-7.71-1.09-.97-60.99-64.01-67.12-69.67-6.5-6-15.75-10.75-35-14.67-11.23-2.28-52.33-4.67-52.33-4.67v219.79h111.8"/>
      <path class="st3" d="M584.17,84.15c-9.34-7.83-20.28-10.35-33.95-12-12.61-1.52-37.67-2.96-42.33-2.77-2,.08-3.02,1.67-3,3.33.04,2.69,2.58,102.58,4.67,113.96,1.01,5.53,2.65,11.03,3.92,15.04,1.08,3.42.8,7.59.93,10.42.2,4.41,1.74,47.16,6.64,52.78,1.37,1.57,2,1.5,4.33,1.72,2.33.21,75.3,0,75.3,0,0,0-1.19-26.95,22.79-47.21,3.29-2.78,7.23-5.36,7.42-9.84.41-9.52.67-64.19-.33-70.19s-4.49-11.67-8.33-16.38c-9.33-11.45-29.63-31.8-38.05-38.85h0Z"/>
      <path class="st3" d="M759.89,192.05c-4.08-4.17-4.45-4.67-13.62-9.25-13.45-6.73-69.39-21.86-77.33-24.75-2.23-.81-3.62-1.33-4.89-3"/>
      <path class="st3" d="M756,236.84c1.8.06,2.77,1.13,2.34,3.13s-3.07,8.01-3.82,9.26-2.44,2.08-4.62,2.29c-2.16.21-12.84.18-15.84-.26s-2.5-2.54-1.25-4.04,5.75-7,7-8.25,2.83-1.56,6.25-1.84c2.11-.17,9.95-.28,9.95-.28h-.01Z"/>
      <path class="st3" d="M644.55,169.47c-7-.5-49.25-5-59-7s-51-12.5-55.5-15.5-7.75-9.25-8.25-14.25-7.5-42.83-7.25-46.08,2.42-7.67,7.58-7.67c4,0,43.89,2.19,53.33,7.33,3.04,1.66,6.19,3.79,10.08,7.17,11.25,9.75,36.67,35.25,60,69.5,4.42,6.49-1,6.5-1,6.5h0Z"/>
      <line class="st3" x1="613.12" y1="255.87" x2="498.22" y2="255.87"/>
      <path class="st3" d="M579.31,255.87s1.51-4.52,3.13-8.13c10.37-23.25,25.97-55.26,75.97-54.53,39.15.57,58.76,31.33,65.42,50.19"/>
      <path class="st3" d="M761.13,224.53c-13.42-.05-22.52.96-27.89,6.64-7.6,8.05-13.3,18.33-14.47,21.56-1.72,4.73,2.02,7.61,5.62,8.88,3.6,1.27,48.25.07,51.93,0"/>
    </g>
  </g>
  <g id="Strich_unten" class="st18">
    <line class="st11" x1="784" y1="439.97" x2="62.33" y2="439.97"/>
    <circle class="st9" cx="660.82" cy="400.8" r="14.33"/>
    <circle class="st9" cx="660.82" cy="400.8" r="22.33"/>
    <circle class="st9" cx="246.22" cy="400.04" r="14.33"/>
    <circle class="st9" cx="246.22" cy="400.04" r="22.33"/>
    <path class="st9" d="M623.15,400.8c0,20.8,16.86,37.67,37.67,37.67s37.67-16.86,37.67-37.67-16.86-37.67-37.67-37.67-37.67,16.87-37.67,37.67Z"/>
    <path class="st9" d="M208.56,400.04c0,20.8,16.86,37.67,37.67,37.67s37.67-16.86,37.67-37.67-16.86-37.67-37.67-37.67-37.67,16.87-37.67,37.67h0Z"/>
    <path class="st11" d="M658.75,418.1c0,.74.97,1.33,2.17,1.33s2.17-.6,2.17-1.33-.97-1.33-2.17-1.33-2.17.6-2.17,1.33Z"/>
    <path class="st11" d="M652.96,416.35c-.25.69.46,1.58,1.58,1.99s2.24.18,2.49-.51-.46-1.58-1.58-1.99-2.24-.18-2.49.51Z"/>
    <path class="st11" d="M648.11,412.72c-.47.56-.11,1.64.8,2.41.92.77,2.04.94,2.52.37.47-.56.11-1.64-.8-2.41s-2.04-.94-2.52-.37Z"/>
    <path class="st11" d="M644.8,407.66c-.64.37-.67,1.51-.07,2.54.6,1.04,1.6,1.58,2.24,1.21s.67-1.51.07-2.54c-.6-1.04-1.6-1.58-2.24-1.21Z"/>
    <path class="st11" d="M643.42,401.76c-.73.13-1.14,1.19-.94,2.37.21,1.18.96,2.03,1.69,1.9.72-.13,1.14-1.19.94-2.37-.21-1.18-.96-2.03-1.69-1.9Z"/>
    <path class="st11" d="M644.13,395.75c-.73-.13-1.48.72-1.69,1.9s.21,2.24.94,2.37c.72.13,1.48-.72,1.69-1.9s-.21-2.24-.94-2.37Z"/>
    <path class="st11" d="M646.87,390.35c-.64-.37-1.64.17-2.24,1.21s-.57,2.17.07,2.54,1.64-.17,2.24-1.21c.6-1.04.57-2.17-.07-2.54Z"/>
    <path class="st11" d="M651.28,386.21c-.47-.56-1.6-.4-2.52.37-.92.77-1.28,1.85-.8,2.41.47.56,1.6.4,2.52-.37.92-.77,1.28-1.85.8-2.41Z"/>
    <path class="st11" d="M656.84,383.82c-.25-.69-1.37-.92-2.49-.51s-1.83,1.3-1.58,1.99,1.37.92,2.49.51,1.83-1.3,1.58-1.99Z"/>
    <path class="st11" d="M662.89,383.49c0-.74-.97-1.33-2.17-1.33s-2.17.59-2.17,1.33.97,1.33,2.17,1.33,2.17-.6,2.17-1.33Z"/>
    <path class="st11" d="M668.68,385.24c.25-.69-.45-1.58-1.58-1.99-1.12-.41-2.24-.18-2.49.51s.46,1.58,1.58,1.99,2.24.18,2.49-.51Z"/>
    <path class="st11" d="M673.53,388.87c.47-.56.12-1.64-.8-2.41s-2.04-.94-2.52-.37c-.47.56-.11,1.64.8,2.41.92.77,2.04.93,2.52.37Z"/>
    <path class="st11" d="M676.84,393.93c.64-.37.67-1.5.07-2.54s-1.6-1.58-2.24-1.21-.67,1.51-.07,2.54,1.6,1.58,2.24,1.21Z"/>
    <path class="st11" d="M678.22,399.82c.73-.13,1.14-1.18.94-2.36-.21-1.18-.96-2.03-1.69-1.9-.72.13-1.14,1.19-.94,2.37s.96,2.03,1.69,1.9h0Z"/>
    <path class="st11" d="M677.5,405.84c.73.13,1.48-.72,1.69-1.9s-.21-2.24-.94-2.36c-.72-.13-1.48.72-1.69,1.9s.21,2.24.94,2.36Z"/>
    <path class="st11" d="M674.77,411.24c.64.37,1.64-.17,2.24-1.21.6-1.04.57-2.17-.07-2.54-.63-.37-1.64.17-2.24,1.21-.6,1.04-.57,2.17.07,2.54Z"/>
    <path class="st11" d="M670.36,415.38c.47.57,1.6.4,2.52-.37.92-.77,1.28-1.85.8-2.41-.47-.56-1.6-.4-2.52.37-.92.77-1.28,1.85-.8,2.41Z"/>
    <path class="st11" d="M664.8,417.76c.25.69,1.37.92,2.49.51s1.83-1.3,1.58-2c-.25-.69-1.37-.92-2.49-.51s-1.83,1.3-1.58,1.99h0Z"/>
    <path class="st11" d="M244.16,417.34c0,.74.97,1.33,2.16,1.33s2.16-.6,2.16-1.33-.97-1.33-2.16-1.33-2.16.6-2.16,1.33Z"/>
    <path class="st11" d="M238.37,415.6c-.25.69.45,1.58,1.58,1.99,1.12.41,2.24.18,2.49-.51s-.45-1.58-1.58-1.99c-1.12-.41-2.24-.18-2.49.51Z"/>
    <path class="st11" d="M233.54,411.98c-.47.56-.11,1.64.8,2.41.92.77,2.04.93,2.51.37s.11-1.64-.8-2.41-2.04-.93-2.51-.37Z"/>
    <path class="st11" d="M230.23,406.92c-.64.37-.67,1.5-.07,2.54.6,1.04,1.6,1.58,2.23,1.21.64-.37.67-1.5.07-2.54-.6-1.03-1.6-1.57-2.23-1.21Z"/>
    <path class="st11" d="M228.85,401.04c-.72.13-1.14,1.18-.93,2.36s.96,2.03,1.69,1.9c.72-.13,1.14-1.18.93-2.36s-.96-2.03-1.69-1.9Z"/>
    <path class="st11" d="M229.57,395.04c-.72-.13-1.48.72-1.69,1.9s.21,2.23.93,2.36c.72.13,1.48-.72,1.69-1.9s-.21-2.23-.94-2.36h.01Z"/>
    <path class="st11" d="M232.29,389.65c-.64-.37-1.64.17-2.23,1.21s-.57,2.17.07,2.54c.64.37,1.64-.17,2.23-1.21.6-1.03.56-2.17-.07-2.54Z"/>
    <path class="st11" d="M236.7,385.51c-.47-.56-1.6-.4-2.51.37-.92.77-1.27,1.84-.8,2.41.47.56,1.6.4,2.51-.37.92-.77,1.27-1.85.8-2.41Z"/>
    <path class="st11" d="M242.25,383.06c-.25-.69-1.37-.92-2.49-.51-1.12.41-1.83,1.3-1.58,1.99s1.37.92,2.49.51c1.12-.41,1.83-1.3,1.58-1.99Z"/>
    <path class="st11" d="M248.29,382.73c0-.74-.97-1.33-2.17-1.33s-2.17.59-2.17,1.33.97,1.33,2.17,1.33,2.17-.6,2.17-1.33Z"/>
    <path class="st11" d="M254.07,384.54c.25-.69-.45-1.58-1.58-1.99-1.12-.41-2.24-.18-2.49.51s.45,1.58,1.58,1.99c1.12.41,2.24.18,2.49-.51Z"/>
    <path class="st11" d="M258.91,388.16c.47-.56.12-1.64-.8-2.41s-2.04-.94-2.51-.37c-.47.56-.11,1.64.8,2.41.92.77,2.04.93,2.51.37h0Z"/>
    <path class="st11" d="M262.21,393.22c.64-.37.67-1.5.07-2.54s-1.6-1.58-2.23-1.21c-.64.37-.67,1.5-.07,2.54s1.6,1.58,2.23,1.21Z"/>
    <path class="st11" d="M263.59,399.1c.73-.13,1.14-1.18.94-2.36-.21-1.18-.96-2.03-1.69-1.9-.72.13-1.14,1.18-.93,2.36s.96,2.03,1.69,1.9h-.01Z"/>
    <path class="st11" d="M262.87,405.1c.73.13,1.48-.72,1.69-1.9s-.21-2.23-.94-2.36c-.72-.13-1.48.72-1.69,1.9s.21,2.23.93,2.36h.01Z"/>
    <path class="st11" d="M260.15,410.49c.64.37,1.64-.17,2.23-1.21.6-1.04.57-2.17-.07-2.54-.63-.37-1.64.17-2.23,1.21-.6,1.03-.57,2.17.07,2.54Z"/>
    <path class="st11" d="M255.74,414.63c.47.56,1.6.4,2.51-.37.92-.77,1.27-1.85.8-2.41s-1.6-.4-2.51.37c-.92.77-1.27,1.85-.8,2.41h0Z"/>
    <path class="st11" d="M250.19,417.01c.25.69,1.36.92,2.49.51,1.12-.41,1.83-1.3,1.58-1.99s-1.36-.92-2.49-.51c-1.12.41-1.83,1.3-1.58,1.99Z"/>
    <path class="st10" d="M617.33,248.32c-2.15-2.48-6.77,1.92-7.02,7.34-.25,5.42-.25,21.48,0,24.23s1.08,6.44,3.42,6.69c2.33.25,13.66,1.75,15.58,1.75s.28-25.27.28-25.27c0,0-10.23-12.4-12.26-14.75h0Z"/>
    <path class="st10" d="M618.55,251.34s-3.76,2.25-3.75,8.25c.01,5.5.46,22.22,1.19,24,.95,2.3,2.33,3.88,4.14,4.75"/>
    <path class="st10" d="M516.66,298.34c0,2,.9,4.5,2.9,5.63s9.08,1.63,15.33.75,10.95-3.88,10.7-6.38-4.45-5.51-10.7-6.38-13.33-.37-15.33.75c-2,1.13-2.9,3.63-2.9,5.63Z"/>
    <line class="st10" x1="544.63" y1="296.34" x2="517.39" y2="296.34"/>
    <line class="st10" x1="544.63" y1="300.59" x2="517.39" y2="300.59"/>
    <path class="st10" d="M747.71,366.63c0-2.76-1.32-5-2.95-5s-2.95,2.24-2.95,5,1.32,5,2.95,5,2.95-2.24,2.95-5Z"/>
    <polyline class="st10" points="773.46 320.72 760.94 319.51 761.45 323.97 775.79 325.46 776.71 331.7 762.7 330.3 764.09 335.07 776.71 336.42 776.13 342.26 765.56 340.74 767 345.37 775.5 346.61"/>
    <path class="st2" d="M709.35,285.1c-7.56-3.18-25.11-6.35-28.17-6.48-2.04-.09-2.5-.17-6.72-.05-4.75.14,3.09,1.89,3.09,1.89,0,0,14.05,4.32,16.72,4.72s15.08-.08,15.08-.08h0Z"/>
    <path class="st10" d="M760.47,303.87c-2.58.64-7.91.3-9.41,2.14-1.5,1.83-.5,8.85,1,13.45s8.38,35.76,19.52,40.07"/>
    <path class="st10" d="M756,333.06c-4.26,0-22.82-2.78-29.4-4.03-6.57-1.25-16.49-8.82-21.4-13.71"/>
    <line class="st2" x1="90.88" y1="400.86" x2="90.88" y2="412.8"/>
  </g>
</svg>