<?xml version="1.0" encoding="UTF-8"?>
<svg id="Ebene_1" xmlns="http://www.w3.org/2000/svg" version="1.1" viewBox="0 0 199.27 200">
  <!-- Generator: Adobe Illustrator 29.2.1, SVG Export Plug-In . SVG Version: 2.1.0 Build 116)  -->
  <defs>
    <style>
      .st0 {
        fill: #de995b;
      }
    </style>
  </defs>
  <g id="Telefon">
    <path class="st0" d="M188.02,139.84c-8.85-3.51-17.53-7.61-25.81-12.16-4.41-2.42-9.85-1.59-13.3,2.02l-13.65,14.41c-3.73,3.93-9.68,4.86-14.44,2.3-28.85-15.61-52.34-39.1-67.95-67.94-2.58-4.77-1.63-10.71,2.3-14.45l14.41-13.66c3.61-3.42,4.44-8.88,2.02-13.27-4.53-8.22-8.62-16.91-12.17-25.82C56.71,4.43,50.29,0,43.08,0,29.27,0,16.64,6.37,8.44,17.49.24,28.61-2.12,42.55,1.95,55.75c20.94,67.73,73.86,120.66,141.58,141.58l2.63.81c4.04,1.25,8.16,1.86,12.23,1.86,8.6,0,17.02-2.74,24.21-8.04,10.59-7.82,16.67-19.84,16.67-33v-2.77c0-7.22-4.42-13.63-11.26-16.35h0ZM190.62,158.96c0,10.37-4.79,19.86-13.14,26.03-8.36,6.16-18.85,7.92-28.74,4.87l-2.63-.81C81.13,168.97,30.34,118.19,10.26,53.2c-3.25-10.54-1.36-21.67,5.18-30.55,6.55-8.88,16.63-13.97,27.67-13.97,3.63,0,6.89,2.27,8.28,5.8,3.68,9.25,7.94,18.27,12.64,26.8.52.95.36,2.07-.39,2.79l-14.41,13.66c-6.78,6.43-8.41,16.65-3.96,24.87,16.4,30.33,41.11,55.04,71.44,71.44,8.23,4.45,18.45,2.82,24.87-3.96l13.65-14.41c.72-.76,1.85-.92,2.8-.38,8.6,4.73,17.62,8.98,26.8,12.63,3.52,1.4,5.79,4.65,5.79,8.28v2.77h0Z"/>
  </g>
</svg>