<?xml version="1.0" encoding="UTF-8"?>
<svg id="Ebene_1" xmlns="http://www.w3.org/2000/svg" version="1.1" viewBox="0 0 209 141.86">
  <!-- Generator: Adobe Illustrator 29.2.1, SVG Export Plug-In . SVG Version: 2.1.0 Build 116)  -->
  <defs>
    <style>
      .st0 {
        fill: #de995b;
      }
    </style>
  </defs>
  <g id="Mail">
    <path class="st0" d="M202.5,0H6.5C2.92,0,0,2.92,0,6.5v128.86c0,3.58,2.92,6.5,6.5,6.5h196c3.58,0,6.5-2.92,6.5-6.5V6.5c0-3.58-2.92-6.5-6.5-6.5ZM119.37,65.97h0l-8.42,6.71c-3.78,3.01-9.06,3-12.83-.02l-8.39-6.73-.02-.02L18.69,9h172.28l-71.61,56.97h.01ZM9,12.65c.19.23.4.44.64.63l70.13,56.21L9.04,128.14s-.03.03-.04.04V12.65h0ZM86.94,75.24l5.54,4.44c3.55,2.84,7.8,4.26,12.06,4.26s8.47-1.41,12-4.22l5.57-4.43,69.34,57.57H17.45l69.48-57.62h0ZM199.92,128.19l-70.62-58.63L199.46,13.74c.2-.16.37-.34.54-.52v115.05s-.05-.06-.08-.08h0Z"/>
  </g>
</svg>