<?xml version="1.0" encoding="UTF-8"?>
<svg id="Ebene_1" xmlns="http://www.w3.org/2000/svg" version="1.1" viewBox="0 0 152 200">
  <!-- Generator: Adobe Illustrator 29.2.1, SVG Export Plug-In . SVG Version: 2.1.0 Build 116)  -->
  <defs>
    <style>
      .st0 {
        fill: #de995b;
      }
    </style>
  </defs>
  <g id="Maps">
    <g>
      <path class="st0" d="M76,0C34.09,0,0,34.09,0,76c0,65.2,70.54,120.82,73.54,123.16.72.56,1.59.84,2.46.84s1.73-.28,2.46-.84c3-2.34,73.54-57.95,73.54-123.16C152,34.09,117.91,0,76,0ZM76,190.83c-12.46-10.45-68-60.1-68-114.83C8,38.51,38.5,8,76,8s68,30.51,68,68c0,54.67-55.54,104.38-68,114.83Z"/>
      <path class="st0" d="M76,108.29c-16.46,0-29.86-13.39-29.86-29.86s13.39-29.86,29.86-29.86,29.86,13.39,29.86,29.86-13.39,29.86-29.86,29.86ZM76,56.58c-12.05,0-21.86,9.81-21.86,21.86s9.81,21.86,21.86,21.86,21.86-9.81,21.86-21.86-9.81-21.86-21.86-21.86Z"/>
    </g>
  </g>
</svg>